<svg xmlns="http://www.w3.org/2000/svg" viewBox="0 0 500 500"><g id="freepik--background-simple--inject-2"><path d="M475.79,277.05c-13.49,40.89-42.56,85.72-85.35,100.31C325.8,399.42,320,452.43,202.71,452.07a236.91,236.91,0,0,1-50.94-5.47,197.3,197.3,0,0,1-24.12-7c-69.5-25.07-107.55-84.69-113-148.4-7.15-83.8,49.87-126.07,87-151s79.53-117.45,194.87-118a228.73,228.73,0,0,1,52.35,5.59c39.16,9,79.46,30.67,103.67,63.7,1.81,2.48,3.55,5,5.23,7.62C490.46,149.94,494.19,221.29,475.79,277.05Z" style="fill:#00BDFF"></path><path d="M475.79,277.05c-13.49,40.89-42.56,85.72-85.35,100.31C325.8,399.42,320,452.43,202.71,452.07a236.91,236.91,0,0,1-50.94-5.47,197.3,197.3,0,0,1-24.12-7c-69.5-25.07-107.55-84.69-113-148.4-7.15-83.8,49.87-126.07,87-151s79.53-117.45,194.87-118a228.73,228.73,0,0,1,52.35,5.59c39.16,9,79.46,30.67,103.67,63.7,1.81,2.48,3.55,5,5.23,7.62C490.46,149.94,494.19,221.29,475.79,277.05Z" style="fill:#fff;opacity:0.7000000000000001"></path></g><g id="freepik--Window--inject-2"><path d="M151.66,38.28H21.19a.5.5,0,0,1-.46-.29.51.51,0,0,1,.08-.54L28.1,29a.51.51,0,0,1,.71-.05.49.49,0,0,1,.05.7l-6.58,7.65H151.16v-8a.5.5,0,0,1,1,0v8.47A.5.5,0,0,1,151.66,38.28Z" style="fill:#263238"></path><path d="M151.66,50.51H21.19a.5.5,0,0,1-.46-.29.49.49,0,0,1,.08-.53l7.29-8.47a.5.5,0,1,1,.76.65l-6.58,7.64H151.16v-8a.5.5,0,1,1,1,0V50A.5.5,0,0,1,151.66,50.51Z" style="fill:#263238"></path><path d="M151.66,62.75H21.19a.51.51,0,0,1-.46-.29.51.51,0,0,1,.08-.54l7.29-8.47a.51.51,0,0,1,.71-.05.49.49,0,0,1,.05.7l-6.58,7.65H151.16v-8a.5.5,0,0,1,1,0v8.47A.5.5,0,0,1,151.66,62.75Z" style="fill:#263238"></path><path d="M151.66,75H21.19a.5.5,0,0,1-.46-.29.51.51,0,0,1,.08-.54l7.29-8.46a.5.5,0,1,1,.76.65L22.28,74H151.16V66a.5.5,0,0,1,1,0v8.47A.5.5,0,0,1,151.66,75Z" style="fill:#263238"></path><path d="M151.66,87.22H21.19a.51.51,0,0,1-.46-.3.49.49,0,0,1,.08-.53l7.29-8.47a.51.51,0,0,1,.71,0,.49.49,0,0,1,.05.7l-6.58,7.65H151.16v-8a.5.5,0,0,1,1,0v8.47A.5.5,0,0,1,151.66,87.22Z" style="fill:#263238"></path><path d="M151.66,99.45H21.19a.5.5,0,0,1-.46-.29.51.51,0,0,1,.08-.54l7.29-8.47a.5.5,0,0,1,.76.66l-6.58,7.64H151.16v-8a.5.5,0,1,1,1,0V99A.5.5,0,0,1,151.66,99.45Z" style="fill:#263238"></path><path d="M151.66,111.68H21.19a.5.5,0,0,1-.46-.29.49.49,0,0,1,.08-.53l7.29-8.47a.52.52,0,0,1,.71-.06.51.51,0,0,1,.05.71l-6.58,7.64H151.16v-8a.5.5,0,0,1,1,0v8.47A.5.5,0,0,1,151.66,111.68Z" style="fill:#263238"></path><path d="M151.66,123.92H21.19a.51.51,0,0,1-.46-.29.51.51,0,0,1,.08-.54l7.29-8.47a.51.51,0,0,1,.71-.05.49.49,0,0,1,.05.7l-6.58,7.65H151.16v-8a.5.5,0,0,1,1,0v8.47A.5.5,0,0,1,151.66,123.92Z" style="fill:#263238"></path><path d="M151.66,136.15H21.19a.5.5,0,0,1-.46-.29.49.49,0,0,1,.08-.53l7.29-8.47a.5.5,0,1,1,.76.65l-6.58,7.64H151.16v-8a.5.5,0,0,1,1,0v8.47A.5.5,0,0,1,151.66,136.15Z" style="fill:#263238"></path><path d="M151.66,148.39H21.19a.51.51,0,0,1-.46-.3.49.49,0,0,1,.08-.53l7.29-8.47a.51.51,0,0,1,.71-.05.49.49,0,0,1,.05.7l-6.58,7.65H151.16v-8a.5.5,0,0,1,1,0v8.47A.5.5,0,0,1,151.66,148.39Z" style="fill:#263238"></path><path d="M151.66,160.62H21.19a.5.5,0,0,1-.46-.29.51.51,0,0,1,.08-.54l7.29-8.47a.5.5,0,0,1,.76.66l-6.58,7.64H151.16v-8a.5.5,0,0,1,1,0v8.47A.5.5,0,0,1,151.66,160.62Z" style="fill:#263238"></path><path d="M151.66,172.85H21.19a.5.5,0,0,1-.46-.29.49.49,0,0,1,.08-.53l7.29-8.47a.51.51,0,0,1,.71-.05.49.49,0,0,1,.05.7l-6.58,7.64H151.16v-8a.5.5,0,0,1,1,0v8.47A.5.5,0,0,1,151.66,172.85Z" style="fill:#263238"></path><path d="M151.66,185.09H21.19a.51.51,0,0,1-.46-.29.51.51,0,0,1,.08-.54l7.29-8.47a.51.51,0,0,1,.71,0,.49.49,0,0,1,.05.7l-6.58,7.65H151.16v-8a.5.5,0,0,1,1,0v8.47A.5.5,0,0,1,151.66,185.09Z" style="fill:#263238"></path><path d="M151.66,197.32H21.19a.5.5,0,0,1-.46-.29.49.49,0,0,1,.08-.53L28.1,188a.5.5,0,1,1,.76.65l-6.58,7.64H151.16v-8a.5.5,0,0,1,1,0v8.47A.5.5,0,0,1,151.66,197.32Z" style="fill:#263238"></path><path d="M151.66,209.56H21.19a.51.51,0,0,1-.46-.29.51.51,0,0,1,.08-.54l7.29-8.47a.51.51,0,0,1,.71,0,.49.49,0,0,1,.05.7l-6.58,7.65H151.16v-8a.5.5,0,0,1,1,0v8.47A.5.5,0,0,1,151.66,209.56Z" style="fill:#263238"></path><path d="M151.66,221.79H21.19a.5.5,0,0,1-.46-.29.51.51,0,0,1,.08-.54l7.29-8.47a.5.5,0,0,1,.76.66l-6.58,7.64H151.16v-8a.5.5,0,0,1,1,0v8.47A.5.5,0,0,1,151.66,221.79Z" style="fill:#263238"></path><path d="M151.66,234H21.19a.49.49,0,0,1-.38-.82l7.29-8.47a.51.51,0,0,1,.71,0,.49.49,0,0,1,.05.7L22.28,233H151.16v-8a.5.5,0,0,1,1,0v8.46A.5.5,0,0,1,151.66,234Z" style="fill:#263238"></path><path d="M157.88,29.93H21a.5.5,0,0,1-.5-.5V16.86a.5.5,0,0,1,.5-.5H157.88a.5.5,0,0,1,.5.5V29.43A.5.5,0,0,1,157.88,29.93Zm-136.39-1H157.38V17.36H21.49Z" style="fill:#263238"></path><path d="M154.79,154.81a.5.5,0,0,1-.5-.5V30a.5.5,0,1,1,1,0v124.3A.5.5,0,0,1,154.79,154.81Z" style="fill:#263238"></path><path d="M157.19,164h-4.46a.5.5,0,0,1-.5-.5v-8.76a.5.5,0,0,1,.5-.5h4.46a.5.5,0,0,1,.5.5v8.76A.5.5,0,0,1,157.19,164Zm-4-1h3.46v-7.76h-3.46Z" style="fill:#263238"></path></g><g id="freepik--Plant--inject-2"><path d="M70.2,278.88h0a.1.1,0,0,0,0-.13.1.1,0,0,0-.12.05,125.2,125.2,0,0,0-6.61,20.72A194.41,194.41,0,0,0,59.77,321l-.51,5.43c-.08.91-.18,1.81-.25,2.72l-.14,2.72c-.08,1.82-.19,3.63-.25,5.45l.05,5.45.06,2.73c.05.91.11,1.82.17,2.72.14,1.82.25,3.63.42,5.44.34,3.61.89,7.21,1.45,10.79a.08.08,0,0,0,.09.08.1.1,0,0,0,.1-.09h0c0-1.82-.09-3.63-.13-5.43s-.21-3.61-.18-5.42,0-3.61-.06-5.41l-.05-2.71,0-2.7,0-5.41.15-5.4.05-2.7c0-.9.1-1.8.15-2.7l.33-5.4a193.75,193.75,0,0,1,3.06-21.42A125.45,125.45,0,0,1,70.2,278.88Z" style="fill:#263238"></path><path d="M71,307.15a.11.11,0,0,0-.06-.12.09.09,0,0,0-.12.06,125.18,125.18,0,0,0-6.12,27.83c-.48,4.73-1,9.47-1.08,14.22a119.25,119.25,0,0,0,.51,14.26.1.1,0,0,0,.08.09.1.1,0,0,0,.11-.09c.55-4.73.88-9.46,1.21-14.18s.38-9.45.69-14.17A125.23,125.23,0,0,1,67.88,321,128.8,128.8,0,0,1,71,307.15Z" style="fill:#263238"></path><path d="M86.65,317.09a.1.1,0,0,0-.14,0A47.71,47.71,0,0,0,76,326.19a41.4,41.4,0,0,0-4.1,5.7l-.84,1.59-.66,1.65a17.39,17.39,0,0,0-.58,1.67c-.17.56-.35,1.13-.51,1.69a67.73,67.73,0,0,0-2.16,13.82,78.94,78.94,0,0,0,.52,13.92.1.1,0,0,0,.08.09.11.11,0,0,0,.11-.09l1.19-13.78a122.82,122.82,0,0,1,1.75-13.59c.12-.55.28-1.1.42-1.64a14.59,14.59,0,0,1,.48-1.63L72.3,334l.72-1.5a39.53,39.53,0,0,1,3.76-5.7,47,47,0,0,1,9.83-9.58h0A.11.11,0,0,0,86.65,317.09Z" style="fill:#263238"></path><path d="M79.06,334.79a15.31,15.31,0,0,0-4.76,5.73,33.3,33.3,0,0,0-2.67,7,18.68,18.68,0,0,0-.47,1.82l-.43,1.83a31,31,0,0,0-.46,3.72c0,1.25-.06,2.5,0,3.74a31,31,0,0,0,.49,3.72.11.11,0,0,0,.08.08.09.09,0,0,0,.11-.08,33.49,33.49,0,0,0,.66-3.66c.19-1.21.38-2.42.53-3.62s.33-2.4.43-3.61.25-2.42.52-3.6a32.25,32.25,0,0,1,2-6.95,15.31,15.31,0,0,1,4-6v0a.08.08,0,0,0,0-.12A.1.1,0,0,0,79.06,334.79Z" style="fill:#263238"></path><path d="M57.09,348.59c-.52-6.11-1.53-12.17-2.48-18.22s-2-12.09-3.12-18.12-2.34-12-3.64-18a.1.1,0,0,0-.19,0c1.05,6,2,12.08,2.89,18.13s1.78,12.11,2.55,18.17,1.33,12.16,2.09,18.21L57.43,367a.09.09,0,0,0,.09.09.11.11,0,0,0,.1-.09c.07-1.54.07-3.07.11-4.61s-.07-3.07-.09-4.6C57.58,354.71,57.32,351.66,57.09,348.59Z" style="fill:#263238"></path><path d="M53.42,348.51c-.33-2.43-.77-4.84-1.24-7.24l-.85-3.57c-.29-1.19-.55-2.38-.9-3.56a100.6,100.6,0,0,0-4.68-13.91L45,318.55l-.82-1.65c-.51-1.11-1.14-2.16-1.74-3.23a26.81,26.81,0,0,0-4.41-5.86.09.09,0,0,0-.13,0,.09.09,0,0,0,0,.13h0a26.55,26.55,0,0,1,4,6c.54,1.08,1.1,2.15,1.55,3.28l.72,1.66.64,1.7a100,100,0,0,1,4.07,13.92c.56,2.35.93,4.75,1.39,7.12l.57,3.59c.21,1.19.46,2.37.63,3.57.38,2.39.82,4.78,1.24,7.17s.81,4.8,1.31,7.19a.1.1,0,0,0,.1.08.09.09,0,0,0,.09-.09q0-3.67-.17-7.33C54,353.37,53.67,350.94,53.42,348.51Z" style="fill:#263238"></path><path d="M48.36,348.82c-1.14-3.21-2.45-6.35-3.88-9.43a84,84,0,0,0-4.87-8.94.11.11,0,0,0-.13,0,.1.1,0,0,0,0,.13,84.69,84.69,0,0,1,4.16,9.22c1.24,3.12,2.36,6.3,3.29,9.52s1.65,6.51,2.5,9.75,1.63,6.5,2.63,9.77a.1.1,0,0,0,.09.07.1.1,0,0,0,.1-.09,49,49,0,0,0-.95-10.18A64.35,64.35,0,0,0,48.36,348.82Z" style="fill:#263238"></path><path d="M48.15,359.51a21.91,21.91,0,0,0-2.7-5.65A23.28,23.28,0,0,0,41.53,349,18.26,18.26,0,0,0,39,347.11a10.34,10.34,0,0,0-2.83-1.28.1.1,0,0,0-.11.06.09.09,0,0,0,0,.12h0a13.91,13.91,0,0,1,4.69,3.64,22,22,0,0,1,3.27,4.95c.93,1.76,1.41,3.7,2.22,5.51.35.93.71,1.86,1.12,2.79a23.87,23.87,0,0,0,1.23,2.82h0a.1.1,0,0,0,.08.05.11.11,0,0,0,.11-.09,23.34,23.34,0,0,0-.12-3.13C48.61,361.54,48.39,360.52,48.15,359.51Z" style="fill:#263238"></path><path d="M48.52,303a17.39,17.39,0,0,1-12.33-13.1c-2.32-10.8,5.14-6.17-1.54-23.14s-5.14-20.81-2.83-25.7,3.6-3.34,5.65,3.09S47,260.6,49.81,279.36,48.52,303,48.52,303Z" style="fill:#00BDFF"></path><path d="M68.32,284.76s-6.69-2.32-6.94-14.91,4.88-10,5.65-25.7,1.8-26.73,4.63-27,10.28,7.71,12.85,25.19-3.34,29-8.48,34.18S68.32,284.76,68.32,284.76Z" style="fill:#00BDFF"></path><path d="M44.93,318.17s-1.55-9.25-4.63-13.62-9.77-8.23-14.14-16.71-9.25-12.59-9-.51,5.65,18.24,12.34,22.36S44.93,318.17,44.93,318.17Z" style="fill:#00BDFF"></path><path d="M42.1,334.1s-6.17-11.82-15.16-20.56-16.2-13.11-13.63-8.74,5.66,4.12,10,11.83,3.08,13.36,9.25,17.73S42.1,334.1,42.1,334.1Z" style="fill:#00BDFF"></path><path d="M41.33,349.27c-.26-.77-.52-6.43-9.25-11s-17-2.83-15.94-.52,6.43,6.17,11.82,8.48S41.33,349.27,41.33,349.27Z" style="fill:#00BDFF"></path><path d="M67.8,318.68S64,313.8,66,303.52s6.68-7.71,11.83-13.11,4.11-6.17,9.25-11.82,9.76-8.74,11.82-6.43-1,9.51-4.11,13.62-8,6.17-10.28,11.31-1.29,13.37-7.2,17.22S67.8,318.68,67.8,318.68Z" style="fill:#00BDFF"></path><path d="M80.65,321.51S89.91,311,96.59,303.26s9.25-13.62,9.51-8.48,2.31,9.25-3.09,15.93S80.65,321.51,80.65,321.51Z" style="fill:#00BDFF"></path><path d="M75.77,338.47s-.26-4.11,14.39-13.62,20.82-11.31,19.28-7.45-8,7.71-14.91,14.65S75.77,338.47,75.77,338.47Z" style="fill:#00BDFF"></path><path d="M49.14,302.41a.51.51,0,0,1-.5-.41c0-.18-3.47-18.57-7-31.5s-5.89-21-5.91-21.07a.49.49,0,0,1,.34-.62.5.5,0,0,1,.62.34c0,.08,2.35,8.12,5.91,21.08s7,31.4,7.05,31.59a.5.5,0,0,1-.4.58Z" style="fill:#263238"></path><path d="M67.72,285.45l-.15,0a.5.5,0,0,1-.32-.63c.06-.2,6.26-20.09,8.28-32,1.84-10.77.17-19.06-.93-24.54-.13-.62-.25-1.21-.35-1.75a.5.5,0,1,1,1-.19c.11.54.22,1.12.35,1.74,1.11,5.56,2.8,14,.94,24.91-2,12-8.26,31.93-8.32,32.13A.5.5,0,0,1,67.72,285.45Z" style="fill:#263238"></path><path d="M44.12,318.28a.5.5,0,0,1-.44-.25,97.3,97.3,0,0,0-9.42-13.42c-1.44-1.71-2.78-3.19-4.08-4.62-3.71-4.11-6.65-7.36-8.59-12.22a.49.49,0,0,1,.28-.65.5.5,0,0,1,.65.28c1.87,4.69,4.76,7.88,8.41,11.92,1.3,1.44,2.64,2.92,4.1,4.64a98.49,98.49,0,0,1,9.52,13.58.5.5,0,0,1-.19.68A.53.53,0,0,1,44.12,318.28Z" style="fill:#263238"></path><path d="M67.8,319.18h-.08a.49.49,0,0,1-.41-.57c.08-.51,2.13-12.53,7-19,1.9-2.5,4.51-5.51,7.27-8.69,4.36-5,8.87-10.24,11.21-14.14a.5.5,0,1,1,.85.51c-2.38,4-6.92,9.22-11.31,14.28-2.75,3.17-5.34,6.17-7.22,8.64-4.75,6.25-6.82,18.42-6.85,18.54A.49.49,0,0,1,67.8,319.18Z" style="fill:#263238"></path><path d="M40.72,349.49a.56.56,0,0,1-.27-.08c-.08-.06-8.69-5.66-14.77-8.69a.51.51,0,0,1-.22-.67.5.5,0,0,1,.67-.23c6.12,3.07,14.78,8.69,14.87,8.75a.5.5,0,0,1,.14.69A.48.48,0,0,1,40.72,349.49Z" style="fill:#263238"></path><path d="M90.25,400.79c-.58-15.59-17.91-26-17.91-26H45.78s-17.33,10.4-17.91,26,19.64,72.78,19.64,72.78h23.1S90.82,416.39,90.25,400.79Z" style="fill:#263238"></path><path d="M70.61,474.07H47.51a.5.5,0,0,1-.47-.33c-.83-2.34-20.24-57.45-19.67-73,.58-15.68,18-26.3,18.15-26.4a.48.48,0,0,1,.26-.07H72.34a.48.48,0,0,1,.26.07c.17.1,17.56,10.72,18.14,26.4h0c.58,15.52-18.84,70.63-19.66,73A.5.5,0,0,1,70.61,474.07Zm-22.74-1H70.25c1.66-4.71,20-57.55,19.5-72.26-.54-14.48-16-24.57-17.55-25.51H45.92c-1.5.94-17,11-17.55,25.51C27.83,415.52,46.21,468.36,47.87,473.07Z" style="fill:#263238"></path><polygon points="75.76 359.46 41.87 359.46 45.78 374.8 71.85 374.8 75.76 359.46" style="fill:#263238"></polygon><path d="M71.85,375.3H45.78a.51.51,0,0,1-.49-.38l-3.91-15.33a.54.54,0,0,1,.09-.43.49.49,0,0,1,.4-.2H75.76a.51.51,0,0,1,.48.63l-3.91,15.33A.49.49,0,0,1,71.85,375.3Zm-25.68-1H71.46L75.11,360H42.51Z" style="fill:#263238"></path></g><g id="freepik--Device--inject-2"><path d="M482.51,474.07H17.83a.5.5,0,0,1-.5-.5.5.5,0,0,1,.5-.5H482.51a.5.5,0,0,1,.5.5A.5.5,0,0,1,482.51,474.07Z" style="fill:#263238"></path><path d="M304.18,58.46V402.08a17.08,17.08,0,0,1-17.08,17.08H138.62a17.08,17.08,0,0,1-17.08-17.08V58.45a17.07,17.07,0,0,1,17.07-17.07h63.73l.06.19C204,47.29,207.64,51,211.7,51H214c4.06,0,7.71-3.72,9.3-9.44l.07-.19H287.1A17.08,17.08,0,0,1,304.18,58.46Z" style="fill:#fff"></path><path d="M287.1,419.66H138.62A17.6,17.6,0,0,1,121,402.08V58.45a17.59,17.59,0,0,1,17.57-17.57h64.11l.16.56c1.53,5.51,5,9.07,8.82,9.07H214c3.83,0,7.29-3.56,8.82-9.07l.18-.56H287.1a17.6,17.6,0,0,1,17.58,17.58V402.08A17.6,17.6,0,0,1,287.1,419.66ZM138.61,41.88A16.59,16.59,0,0,0,122,58.45V402.08a16.6,16.6,0,0,0,16.58,16.58H287.1a16.6,16.6,0,0,0,16.58-16.58V58.46A16.6,16.6,0,0,0,287.1,41.88H223.76c-1.68,5.85-5.49,9.63-9.74,9.63H211.7c-4.25,0-8.06-3.78-9.74-9.63Z" style="fill:#263238"></path><rect x="183.09" y="265.85" width="62.65" height="19.52" rx="4.84" style="fill:#263238"></rect><path d="M240.89,285.87h-53a5.35,5.35,0,0,1-5.34-5.34v-9.84a5.34,5.34,0,0,1,5.34-5.34h53a5.35,5.35,0,0,1,5.35,5.34v9.84A5.35,5.35,0,0,1,240.89,285.87Zm-53-19.52a4.34,4.34,0,0,0-4.34,4.34v9.84a4.35,4.35,0,0,0,4.34,4.34h53a4.35,4.35,0,0,0,4.35-4.34v-9.84a4.34,4.34,0,0,0-4.35-4.34Z" style="fill:#263238"></path><path d="M121.54,312.26v89.82a17.08,17.08,0,0,0,17.08,17.08H287.1a17.08,17.08,0,0,0,17.08-17.08V312.26Z" style="fill:#dbdbdb"></path><path d="M287.1,419.66H138.62A17.6,17.6,0,0,1,121,402.08V312.26a.5.5,0,0,1,.5-.5H304.18a.5.5,0,0,1,.5.5v89.82A17.6,17.6,0,0,1,287.1,419.66ZM122,312.76v89.32a16.6,16.6,0,0,0,16.58,16.58H287.1a16.6,16.6,0,0,0,16.58-16.58V312.76Z" style="fill:#263238"></path><rect x="129.36" y="323.1" width="50.07" height="16.82" rx="2.27" style="fill:#fff"></rect><rect x="185.4" y="323.1" width="50.07" height="16.82" rx="2.27" style="fill:#fff"></rect><rect x="241.43" y="323.1" width="50.07" height="16.82" rx="2.27" style="fill:#fff"></rect><rect x="129.36" y="344.6" width="50.07" height="16.82" rx="2.27" style="fill:#fff"></rect><rect x="185.4" y="344.6" width="50.07" height="16.82" rx="2.27" style="fill:#fff"></rect><rect x="241.43" y="344.6" width="50.07" height="16.82" rx="2.27" style="fill:#fff"></rect><rect x="129.36" y="366.09" width="50.07" height="16.82" rx="2.27" style="fill:#fff"></rect><rect x="185.4" y="366.09" width="50.07" height="16.82" rx="2.27" style="fill:#fff"></rect><rect x="241.43" y="366.09" width="50.07" height="16.82" rx="2.27" style="fill:#fff"></rect><rect x="185.4" y="387.59" width="50.07" height="16.82" rx="2.27" style="fill:#fff"></rect><polygon points="285.46 404.41 254.22 404.41 247.48 396.58 254.22 387.59 285.46 387.59 285.46 404.41" style="fill:#fff"></polygon><path d="M214.86,119.2l-.45-.34-.45.34s-23,13.09-33.4,18.06c0,0,5,28,8.57,40.62s17.61,19.41,25.28,23.92c7.68-4.51,21.67-11.28,25.28-23.92s8.58-40.62,8.58-40.62C237.88,132.29,214.86,119.2,214.86,119.2Z" style="fill:#00BDFF"></path><path d="M212.05,173.31l-15.26-13.08a3.5,3.5,0,0,1,4.55-5.32l10,8.58L228.48,144a3.5,3.5,0,0,1,5.26,4.62Z" style="fill:#fff"></path><rect x="134.06" y="217.43" width="20.76" height="20.76" style="fill:#fff"></rect><path d="M155.33,238.69H133.56V216.93h21.77Zm-20.77-1h19.77V217.93H134.56Z" style="fill:#263238"></path><rect x="162.05" y="217.43" width="20.76" height="20.76" style="fill:#fff"></rect><path d="M183.31,238.69H161.55V216.93h21.76Zm-20.76-1h19.76V217.93H162.55Z" style="fill:#263238"></path><rect x="190.04" y="217.43" width="20.76" height="20.76" style="fill:#fff"></rect><path d="M211.3,238.69H189.54V216.93H211.3Zm-20.76-1H210.3V217.93H190.54Z" style="fill:#263238"></path><rect x="218.02" y="217.43" width="20.76" height="20.76" style="fill:#fff"></rect><path d="M239.29,238.69H217.52V216.93h21.77Zm-20.77-1h19.77V217.93H218.52Z" style="fill:#263238"></path><rect x="246.01" y="217.43" width="20.76" height="20.76" style="fill:#fff"></rect><path d="M267.27,238.69H245.51V216.93h21.76Zm-20.76-1h19.76V217.93H246.51Z" style="fill:#263238"></path><rect x="274" y="217.43" width="20.76" height="20.76" style="fill:#fff"></rect><path d="M295.26,238.69H273.5V216.93h21.76Zm-20.76-1h19.76V217.93H274.5Z" style="fill:#263238"></path><path d="M304.18,74.44v-16A17.08,17.08,0,0,0,287.1,41.38H223.38l-.06.19C221.73,47.29,218.08,51,214,51H211.7c-4.06,0-7.72-3.72-9.3-9.44l-.06-.19H138.61a17.07,17.07,0,0,0-17.07,17.07v16Z" style="fill:#dbdbdb"></path><path d="M304.17,74.94H121.54a.5.5,0,0,1-.5-.5v-16a17.59,17.59,0,0,1,17.57-17.57h63.73a.49.49,0,0,1,.48.37l.06.19c1.53,5.51,5,9.07,8.82,9.07H214c3.83,0,7.29-3.56,8.82-9.07l.07-.21a.49.49,0,0,1,.47-.35H287.1a17.59,17.59,0,0,1,17.57,17.58v16A.5.5,0,0,1,304.17,74.94ZM122,73.94H303.67V58.46A16.59,16.59,0,0,0,287.1,41.88H223.76c-1.68,5.85-5.49,9.63-9.74,9.63H211.7c-4.25,0-8.06-3.78-9.74-9.63H138.61A16.59,16.59,0,0,0,122,58.45Z" style="fill:#263238"></path><path d="M315.79,140.53V106.21h-3.11V62.27A27.08,27.08,0,0,0,285.6,35.18H140.12A27.09,27.09,0,0,0,113,62.27V411.42a27.08,27.08,0,0,0,27.09,27.08H285.6a27.07,27.07,0,0,0,27.08-27.08V169.78h3.11V149.5h-3.11v-9ZM304.18,392.07a27.09,27.09,0,0,1-27.09,27.09H148.63a27.09,27.09,0,0,1-27.09-27.09V68.46a27.09,27.09,0,0,1,27.09-27.08h53.71l.06.19C204,47.29,207.64,51,211.7,51H214c4.06,0,7.71-3.72,9.3-9.44l.07-.19h53.7a27.09,27.09,0,0,1,27.09,27.08Z" style="fill:#00BDFF"></path><path d="M285.6,439H140.12a27.62,27.62,0,0,1-27.59-27.58V62.27a27.63,27.63,0,0,1,27.59-27.59H285.6a27.62,27.62,0,0,1,27.58,27.59v43.44h2.61a.5.5,0,0,1,.5.5v34.32a.5.5,0,0,1-.5.5h-2.61v8h2.61a.5.5,0,0,1,.5.5v20.28a.5.5,0,0,1-.5.5h-2.61V411.42A27.61,27.61,0,0,1,285.6,439ZM140.12,35.68a26.62,26.62,0,0,0-26.59,26.59V411.42A26.61,26.61,0,0,0,140.12,438H285.6a26.61,26.61,0,0,0,26.58-26.58V169.78a.5.5,0,0,1,.5-.5h2.61V150h-2.61a.51.51,0,0,1-.5-.5v-9a.5.5,0,0,1,.5-.5h2.61V106.71h-2.61a.51.51,0,0,1-.5-.5V62.27A26.61,26.61,0,0,0,285.6,35.68Zm137,384H148.63A27.63,27.63,0,0,1,121,392.07V68.46a27.62,27.62,0,0,1,27.59-27.58h53.71a.48.48,0,0,1,.48.37l.06.19c1.53,5.51,5,9.07,8.82,9.07H214c3.83,0,7.29-3.56,8.82-9.07l.07-.21a.49.49,0,0,1,.47-.35h53.71a27.62,27.62,0,0,1,27.59,27.58V392.07A27.63,27.63,0,0,1,277.09,419.66ZM148.63,41.88A26.61,26.61,0,0,0,122,68.46V392.07a26.62,26.62,0,0,0,26.59,26.59H277.09a26.62,26.62,0,0,0,26.59-26.59V68.46a26.61,26.61,0,0,0-26.59-26.58H223.76c-1.68,5.85-5.49,9.63-9.74,9.63H211.7c-4.25,0-8.06-3.78-9.74-9.63Z" style="fill:#263238"></path><path d="M283.43,38.91H142.29A26.13,26.13,0,0,0,116.17,65V408.65a26.12,26.12,0,0,0,26.12,26.12H283.43a26.12,26.12,0,0,0,26.12-26.12V65A26.13,26.13,0,0,0,283.43,38.91ZM304.18,393a26.13,26.13,0,0,1-26.13,26.12H147.67A26.13,26.13,0,0,1,121.54,393V67.49a26.11,26.11,0,0,1,26.12-26.11h54.68l.06.19C204,47.29,207.64,51,211.7,51H214c4.06,0,7.71-3.72,9.3-9.44l.07-.19h54.66A26.12,26.12,0,0,1,304.18,67.5Z" style="fill:#263238"></path><path d="M283.43,435.27H142.29a26.65,26.65,0,0,1-26.62-26.62V65a26.65,26.65,0,0,1,26.62-26.62H283.43A26.65,26.65,0,0,1,310.05,65V408.65A26.65,26.65,0,0,1,283.43,435.27ZM142.29,39.42A25.65,25.65,0,0,0,116.67,65V408.65a25.65,25.65,0,0,0,25.62,25.62H283.43a25.65,25.65,0,0,0,25.62-25.62V65a25.65,25.65,0,0,0-25.62-25.62ZM278.05,419.66H147.67A26.66,26.66,0,0,1,121,393V67.49a26.65,26.65,0,0,1,26.62-26.61h54.68a.48.48,0,0,1,.48.37l.06.19c1.53,5.51,5,9.07,8.82,9.07H214c3.83,0,7.29-3.56,8.82-9.07l.07-.21a.49.49,0,0,1,.47-.35h54.67A26.66,26.66,0,0,1,304.68,67.5V393A26.66,26.66,0,0,1,278.05,419.66ZM147.66,41.88A25.64,25.64,0,0,0,122,67.49V393a25.66,25.66,0,0,0,25.63,25.62H278.05A25.66,25.66,0,0,0,303.68,393V67.5a25.65,25.65,0,0,0-25.63-25.62H223.76c-1.68,5.85-5.49,9.63-9.74,9.63H211.7c-4.25,0-8.06-3.78-9.74-9.63Z" style="fill:#263238"></path><path d="M214.84,42.67a2.54,2.54,0,1,0-2.54,2.55A2.54,2.54,0,0,0,214.84,42.67Z" style="fill:#fff"></path><path d="M137.78,52.42c0,2.57-2.89,3.5-2.91,5.46V58h2.81v.87h-3.74v-.73c0-2.76,2.89-3.29,2.89-5.7,0-.87-.3-1.34-1-1.34s-1,.5-1,1.26v.75h-.89v-.69c0-1.31.59-2.17,1.91-2.17S137.78,51.11,137.78,52.42Z" style="fill:#263238"></path><path d="M142.45,52.4v.22a1.71,1.71,0,0,1-1,1.76,1.7,1.7,0,0,1,1,1.77v.66c0,1.3-.61,2.15-1.93,2.15s-1.91-.85-1.91-2.15v-.59h.89v.65c0,.76.31,1.23,1,1.23s1-.45,1-1.32v-.66c0-.84-.36-1.24-1.08-1.26h-.51V54h.56a1,1,0,0,0,1-1.17v-.39c0-.88-.31-1.33-1-1.33s-1,.48-1,1.25v.43h-.89V52.4c0-1.3.61-2.14,1.91-2.14S142.45,51.1,142.45,52.4Z" style="fill:#263238"></path><path d="M144.29,53.05v1.18h-.92V53.05Zm0,4.65v1.18h-.92V57.7Z" style="fill:#263238"></path><path d="M146.22,53.82a1.36,1.36,0,0,1,1.26-.71c1.1,0,1.59.81,1.59,2v1.67c0,1.3-.62,2.15-1.93,2.15s-1.91-.85-1.91-2.15v-.58h.89v.64c0,.76.32,1.23,1,1.23s1-.47,1-1.23V55.21c0-.77-.32-1.23-1-1.23a.92.92,0,0,0-1,.91v.2h-.88l.23-4.75h3.36v.86h-2.51Z" style="fill:#263238"></path><path d="M153.81,52.39v.16h-.89v-.22c0-.77-.31-1.22-1-1.22s-1,.47-1,1.38V54.4a1.39,1.39,0,0,1,1.38-.91c1.1,0,1.59.79,1.59,2v1.3c0,1.3-.65,2.15-2,2.15s-2-.85-2-2.15V52.45c0-1.35.61-2.19,2-2.19S153.81,51.09,153.81,52.39Zm-2.94,3.2v1.28c0,.76.32,1.23,1,1.23s1-.47,1-1.23V55.59c0-.77-.33-1.23-1-1.23S150.87,54.82,150.87,55.59Z" style="fill:#263238"></path><rect x="244.57" y="52.77" width="2.41" height="6.02" style="fill:#263238"></rect><rect x="247.78" y="51.56" width="2.41" height="7.23" style="fill:#263238"></rect><rect x="250.99" y="50.7" width="2.41" height="8.09" style="fill:#263238"></rect><rect x="254.21" y="49.21" width="2.41" height="9.58" style="fill:#263238"></rect><path d="M286.43,58.63H272V49.79h14.45Zm-13.65-.81h12.85V50.59H272.78Z" style="fill:#263238"></path><rect x="273.98" y="51.47" width="7.63" height="5.48" style="fill:#263238"></rect><rect x="285.93" y="53.17" width="1.82" height="2.08" style="fill:#263238"></rect><path d="M266.68,56.7a.55.55,0,0,1-.28-.07c-2.94-1.75-4.89-.13-5-.06a.54.54,0,0,1-.76,0,.55.55,0,0,1,.05-.76c.1-.09,2.59-2.22,6.23-.06a.54.54,0,0,1,.19.74A.53.53,0,0,1,266.68,56.7Z" style="fill:#263238"></path><path d="M267.76,54.89a.45.45,0,0,1-.27-.08c-4.26-2.53-7.12-.08-7.15-.06a.54.54,0,0,1-.76,0,.56.56,0,0,1,.05-.77s3.49-3,8.41,0a.54.54,0,0,1-.28,1Z" style="fill:#263238"></path><path d="M268.75,52.79a.53.53,0,0,1-.27-.08c-5.39-3.2-9-.19-9.12-.06a.54.54,0,0,1-.77,0,.55.55,0,0,1,.05-.76c.05,0,4.3-3.68,10.39-.06a.55.55,0,0,1,.19.74A.56.56,0,0,1,268.75,52.79Z" style="fill:#263238"></path><path d="M265.05,57.61a1.36,1.36,0,1,1-1.35-1.36A1.35,1.35,0,0,1,265.05,57.61Z" style="fill:#263238"></path><path d="M271.27,396.4l4.87-4.87a1.5,1.5,0,0,0-2.12-2.12l-4.87,4.87-4.87-4.87a1.5,1.5,0,0,0-2.13,2.12L267,396.4l-4.88,4.87a1.51,1.51,0,0,0,0,2.12,1.51,1.51,0,0,0,2.13,0l4.87-4.87,4.87,4.87a1.47,1.47,0,0,0,1.06.44,1.45,1.45,0,0,0,1.06-.44,1.49,1.49,0,0,0,0-2.12Z" style="fill:#263238"></path><path d="M151.78,337.28v-9.85l-.35.14-.58.17-.58.16a2.09,2.09,0,0,0-.36.12v-1.55l.52-.21.67-.31a5.38,5.38,0,0,0,.66-.38,2.75,2.75,0,0,0,.5-.44h1.59v12.15Z" style="fill:#263238"></path><path d="M207.8,337.28v-1.46l3-4.64c.22-.34.43-.66.62-1a4.53,4.53,0,0,0,.48-1,3.08,3.08,0,0,0,.19-1.11,1.87,1.87,0,0,0-.24-1,.84.84,0,0,0-.75-.36,1,1,0,0,0-.75.27,1.43,1.43,0,0,0-.37.7,4.72,4.72,0,0,0-.1,1v.52h-2v-.54a5,5,0,0,1,.33-1.9,2.67,2.67,0,0,1,1-1.29A3.4,3.4,0,0,1,211,325a3,3,0,0,1,2.34.84,3.31,3.31,0,0,1,.78,2.34,4.17,4.17,0,0,1-.21,1.36,5.9,5.9,0,0,1-.56,1.16q-.34.56-.75,1.14l-2.49,3.78h3.69v1.66Z" style="fill:#263238"></path><path d="M266.32,337.46a3.56,3.56,0,0,1-1.84-.42,2.48,2.48,0,0,1-1-1.22,4.87,4.87,0,0,1-.31-1.83v-.42h2v.35a5.11,5.11,0,0,0,.11,1,1.16,1.16,0,0,0,.33.62,1.05,1.05,0,0,0,.69.21.94.94,0,0,0,.69-.23,1.21,1.21,0,0,0,.32-.66,6.2,6.2,0,0,0,.08-1,3.15,3.15,0,0,0-.29-1.46,1.24,1.24,0,0,0-1.13-.57h-.35V330.1H266a1.38,1.38,0,0,0,1.14-.44,2.39,2.39,0,0,0,.31-1.38,2.67,2.67,0,0,0-.23-1.2.92.92,0,0,0-.89-.43.87.87,0,0,0-.87.48,3.26,3.26,0,0,0-.23,1.24v.45h-2v-.58a3.92,3.92,0,0,1,.36-1.76,2.52,2.52,0,0,1,1.08-1.11,3.49,3.49,0,0,1,1.71-.38,3.67,3.67,0,0,1,1.74.37,2.5,2.5,0,0,1,1.07,1.09,3.8,3.8,0,0,1,.37,1.74A3.18,3.18,0,0,1,269,330a2,2,0,0,1-1.16.9,2,2,0,0,1,.84.52,2.51,2.51,0,0,1,.56,1,4.33,4.33,0,0,1,.21,1.44,5.64,5.64,0,0,1-.31,1.92,2.59,2.59,0,0,1-1,1.3A3.27,3.27,0,0,1,266.32,337.46Z" style="fill:#263238"></path><path d="M152.79,358.82v-3h-3.63v-1.77l3.16-7.4h2.42v7.52H156v1.65h-1.24v3Zm-1.89-4.63h1.89v-5.28Z" style="fill:#263238"></path><path d="M211,359a3.33,3.33,0,0,1-1.88-.45,2.26,2.26,0,0,1-.92-1.27,6.28,6.28,0,0,1-.26-1.94h2a6,6,0,0,0,.08,1.09,1.31,1.31,0,0,0,.33.73.87.87,0,0,0,.72.25.82.82,0,0,0,.75-.34,2.19,2.19,0,0,0,.27-.94c0-.41.06-.88.06-1.42a7.46,7.46,0,0,0-.08-1.23,1.66,1.66,0,0,0-.32-.82.93.93,0,0,0-.75-.29,1,1,0,0,0-.72.29,1.83,1.83,0,0,0-.42.78h-1.79l.12-6.77h5.46v1.86h-3.71l-.12,2.93a1.46,1.46,0,0,1,.65-.44,3.08,3.08,0,0,1,1-.19,2.34,2.34,0,0,1,1.56.4,2.61,2.61,0,0,1,.88,1.31,6.47,6.47,0,0,1,.29,2,10.82,10.82,0,0,1-.13,1.77,3.92,3.92,0,0,1-.47,1.4,2.39,2.39,0,0,1-1,.92A3.41,3.41,0,0,1,211,359Z" style="fill:#263238"></path><path d="M266.39,359a3,3,0,0,1-1.83-.53,3,3,0,0,1-1-1.43,6.18,6.18,0,0,1-.32-2v-4.26a7.83,7.83,0,0,1,.27-2.14,2.87,2.87,0,0,1,1-1.51,3,3,0,0,1,1.93-.55,3.69,3.69,0,0,1,1.74.35,2.18,2.18,0,0,1,1,1,3.91,3.91,0,0,1,.31,1.66s0,.06,0,.1a.34.34,0,0,1,0,.1h-2a3,3,0,0,0-.19-1.22.83.83,0,0,0-.84-.4.85.85,0,0,0-.63.24,1.49,1.49,0,0,0-.35.78,7.22,7.22,0,0,0-.12,1.47v1.45a1.52,1.52,0,0,1,.64-.55,2.83,2.83,0,0,1,2.56.24,2.49,2.49,0,0,1,.82,1.24,6.32,6.32,0,0,1,.24,1.82,7,7,0,0,1-.3,2.12,3,3,0,0,1-1,1.48A3,3,0,0,1,266.39,359Zm0-1.61a.81.81,0,0,0,.66-.27,1.62,1.62,0,0,0,.32-.75,6.12,6.12,0,0,0,.09-1.12c0-.44,0-.84-.05-1.18a1.73,1.73,0,0,0-.28-.83.88.88,0,0,0-.75-.3,1.19,1.19,0,0,0-.47.09,1.47,1.47,0,0,0-.38.25,1.66,1.66,0,0,0-.25.3v1.91a4.59,4.59,0,0,0,.1.94,1.49,1.49,0,0,0,.35.7A.87.87,0,0,0,266.4,357.38Z" style="fill:#263238"></path><path d="M150.54,380.36,153,369.8h-3.29v-1.59H155v1.27l-2.45,10.88Z" style="fill:#263238"></path><path d="M210.91,380.52a3.33,3.33,0,0,1-1.86-.46,2.52,2.52,0,0,1-1-1.3,5.67,5.67,0,0,1-.3-1.93,4.75,4.75,0,0,1,.09-1,3.23,3.23,0,0,1,.29-.81,2.43,2.43,0,0,1,.46-.63,2.28,2.28,0,0,1,.61-.46,3.06,3.06,0,0,1-.91-1,3.51,3.51,0,0,1-.38-1.66,4.24,4.24,0,0,1,.32-1.71,2.31,2.31,0,0,1,1-1.11,3.31,3.31,0,0,1,1.68-.39,3.26,3.26,0,0,1,1.68.39,2.36,2.36,0,0,1,1,1.11,3.93,3.93,0,0,1,.31,1.71,3.53,3.53,0,0,1-.37,1.67,2.86,2.86,0,0,1-.89,1,2.33,2.33,0,0,1,.62.46,2.4,2.4,0,0,1,.45.63,3.23,3.23,0,0,1,.29.81,4.72,4.72,0,0,1,.1,1,5.22,5.22,0,0,1-.3,1.93,2.57,2.57,0,0,1-1,1.3A3.34,3.34,0,0,1,210.91,380.52Zm0-1.57a.89.89,0,0,0,.74-.3,1.51,1.51,0,0,0,.33-.76,5.78,5.78,0,0,0,.07-.94,4.53,4.53,0,0,0-.07-1,1.76,1.76,0,0,0-.34-.77.9.9,0,0,0-.73-.3.86.86,0,0,0-.71.3,1.73,1.73,0,0,0-.35.76,5.21,5.21,0,0,0-.09,1,5,5,0,0,0,.08.95,1.52,1.52,0,0,0,.34.76A.93.93,0,0,0,210.91,379Zm0-5.81a.76.76,0,0,0,.59-.26,1.39,1.39,0,0,0,.31-.68,4.91,4.91,0,0,0,.09-1,2.47,2.47,0,0,0-.22-1.13.8.8,0,0,0-.77-.43.81.81,0,0,0-.77.43,2.17,2.17,0,0,0-.25,1.11,4.34,4.34,0,0,0,.1,1,1.39,1.39,0,0,0,.32.69A.8.8,0,0,0,210.91,373.14Z" style="fill:#263238"></path><path d="M210.91,401.63a3.17,3.17,0,0,1-1.76-.44,2.79,2.79,0,0,1-1.05-1.25,4.39,4.39,0,0,1-.35-1.83v-5.39a4.68,4.68,0,0,1,.34-1.86,2.6,2.6,0,0,1,1-1.25,3.79,3.79,0,0,1,3.58,0,2.67,2.67,0,0,1,1,1.25,4.86,4.86,0,0,1,.34,1.86v5.39a4.39,4.39,0,0,1-.36,1.83,2.79,2.79,0,0,1-1.05,1.25A3.17,3.17,0,0,1,210.91,401.63Zm0-1.78a.85.85,0,0,0,.69-.28,1.59,1.59,0,0,0,.3-.7,4.23,4.23,0,0,0,.08-.79v-5.33a5.93,5.93,0,0,0-.07-.83,1.58,1.58,0,0,0-.29-.7.85.85,0,0,0-.71-.28.83.83,0,0,0-.7.28,1.59,1.59,0,0,0-.3.7,5.9,5.9,0,0,0-.06.83v5.33a3.53,3.53,0,0,0,.08.79,1.6,1.6,0,0,0,.31.7A.82.82,0,0,0,210.91,399.85Z" style="fill:#263238"></path><path d="M266.18,380.52a3.67,3.67,0,0,1-1.73-.36,2.19,2.19,0,0,1-1-1.05,4,4,0,0,1-.31-1.68v-.16h2a2.88,2.88,0,0,0,.2,1.21.87.87,0,0,0,.86.41.82.82,0,0,0,.63-.24,1.62,1.62,0,0,0,.33-.8,8,8,0,0,0,.11-1.45v-1.46a1.4,1.4,0,0,1-.63.54,2.55,2.55,0,0,1-1,.21,2.35,2.35,0,0,1-1.55-.45,2.62,2.62,0,0,1-.82-1.29,6.09,6.09,0,0,1-.25-1.83,6.36,6.36,0,0,1,.31-2.1,2.9,2.9,0,0,1,1-1.43,3.09,3.09,0,0,1,1.85-.52,3,3,0,0,1,1.83.51,2.84,2.84,0,0,1,1,1.38,6,6,0,0,1,.32,2v4.3a7.57,7.57,0,0,1-.28,2.15,2.9,2.9,0,0,1-1,1.52A2.93,2.93,0,0,1,266.18,380.52Zm0-6.4a1,1,0,0,0,.67-.21,1.85,1.85,0,0,0,.4-.45v-1.89a4.58,4.58,0,0,0-.09-.95,1.48,1.48,0,0,0-.32-.69.85.85,0,0,0-.67-.27.8.8,0,0,0-.65.27,1.53,1.53,0,0,0-.33.75,6.23,6.23,0,0,0-.09,1.13,10.37,10.37,0,0,0,.06,1.17,1.6,1.6,0,0,0,.27.83A.86.86,0,0,0,266.19,374.12Z" style="fill:#263238"></path><path d="M197.21,281.44V269.29h5.1v1.56h-2.88v3.49h2.27v1.55h-2.27v4h2.91v1.53Z" style="fill:#00BDFF"></path><path d="M203.63,281.44V269.29h1.55l2.95,6.93v-6.93H210v12.15h-1.47l-3-7.26v7.26Z" style="fill:#00BDFF"></path><path d="M213,281.44V270.92h-1.93v-1.63h6.06v1.63h-1.91v10.52Z" style="fill:#00BDFF"></path><path d="M218.26,281.44V269.29h5.1v1.56h-2.88v3.49h2.26v1.55h-2.26v4h2.91v1.53Z" style="fill:#00BDFF"></path><path d="M224.68,281.44V269.29h2.91a6.33,6.33,0,0,1,2.08.29,2.4,2.4,0,0,1,1.29,1,3.64,3.64,0,0,1,.44,1.92,5.87,5.87,0,0,1-.14,1.32,2.51,2.51,0,0,1-.45,1,2.08,2.08,0,0,1-.9.64l1.7,6h-2.22l-1.47-5.57h-1v5.57Zm2.22-7h.69a2.46,2.46,0,0,0,1-.19,1.14,1.14,0,0,0,.54-.6,2.9,2.9,0,0,0,.17-1.06,2.25,2.25,0,0,0-.34-1.37,1.48,1.48,0,0,0-1.28-.46h-.81Z" style="fill:#00BDFF"></path><path d="M167.24,106.28l-2.12-10.53h1.7l1.39,7.45,1.3-7.45h1.74l-2.12,10.53Z" style="fill:#263238"></path><path d="M172.33,106.28V95.75h4.42V97.1h-2.49v3h2v1.34h-2V105h2.52v1.32Z" style="fill:#263238"></path><path d="M177.89,106.28V95.75h2.53a5.52,5.52,0,0,1,1.8.26,2.07,2.07,0,0,1,1.12.86,3.16,3.16,0,0,1,.38,1.66,5,5,0,0,1-.12,1.15,2.2,2.2,0,0,1-.39.86,1.83,1.83,0,0,1-.78.56l1.47,5.18H182l-1.28-4.82h-.88v4.82Zm1.93-6h.6a2,2,0,0,0,.89-.16.93.93,0,0,0,.47-.52,2.44,2.44,0,0,0,.14-.92,2,2,0,0,0-.29-1.19,1.3,1.3,0,0,0-1.11-.39h-.7Z" style="fill:#263238"></path><path d="M185.21,106.28V95.75h1.9v10.53Z" style="fill:#263238"></path><path d="M188.74,106.28V95.75h4.33v1.33h-2.41v3.07h2v1.34h-2v4.79Z" style="fill:#263238"></path><path d="M194.12,106.28V95.75H196v10.53Z" style="fill:#263238"></path><path d="M200.48,106.43a3.18,3.18,0,0,1-1.82-.46,2.33,2.33,0,0,1-.91-1.24,5.57,5.57,0,0,1-.26-1.81V99.16a5.83,5.83,0,0,1,.26-1.87,2.18,2.18,0,0,1,.91-1.22,3.27,3.27,0,0,1,1.82-.43,3.34,3.34,0,0,1,1.71.37,2,2,0,0,1,.87,1.06,4.35,4.35,0,0,1,.26,1.59v.89h-1.84v-.91a6.64,6.64,0,0,0,0-.81,1,1,0,0,0-.25-.58.92.92,0,0,0-.69-.21,1,1,0,0,0-.72.23,1.14,1.14,0,0,0-.3.61,5.52,5.52,0,0,0-.06.86v4.58a4.1,4.1,0,0,0,.09.94,1,1,0,0,0,.33.56,1,1,0,0,0,.66.19.87.87,0,0,0,.68-.23,1,1,0,0,0,.25-.6,5.48,5.48,0,0,0,.06-.85v-1h1.84v.85a5.32,5.32,0,0,1-.24,1.66,2.23,2.23,0,0,1-.87,1.13A3.14,3.14,0,0,1,200.48,106.43Z" style="fill:#263238"></path><path d="M204.13,106.28l2.1-10.53h2.06l2.1,10.53h-1.78l-.41-2.43h-1.84l-.42,2.43Zm2.43-3.65H208l-.72-4.42Z" style="fill:#263238"></path><path d="M212,106.28V97.17h-1.68V95.75h5.25v1.42h-1.65v9.11Z" style="fill:#263238"></path><path d="M216.59,106.28V95.75h1.9v10.53Z" style="fill:#263238"></path><path d="M223,106.43a3.28,3.28,0,0,1-1.78-.42,2.33,2.33,0,0,1-.95-1.2A5.34,5.34,0,0,1,220,103V99a5.24,5.24,0,0,1,.29-1.83A2.27,2.27,0,0,1,221.2,96a3.38,3.38,0,0,1,1.78-.4,3.43,3.43,0,0,1,1.8.4,2.32,2.32,0,0,1,.95,1.16A5.24,5.24,0,0,1,226,99v4a5.32,5.32,0,0,1-.29,1.83,2.4,2.4,0,0,1-.95,1.19A3.33,3.33,0,0,1,223,106.43Zm0-1.42a1,1,0,0,0,.71-.21,1,1,0,0,0,.3-.57,3.91,3.91,0,0,0,.08-.79V98.59a3.87,3.87,0,0,0-.08-.8,1,1,0,0,0-.3-.55A1.07,1.07,0,0,0,223,97a1.05,1.05,0,0,0-.69.2,1,1,0,0,0-.31.55,3.29,3.29,0,0,0-.08.8v4.85a3.94,3.94,0,0,0,.07.79,1,1,0,0,0,.31.57A1,1,0,0,0,223,105Z" style="fill:#263238"></path><path d="M227.44,106.28V95.75h1.34l2.56,6v-6h1.58v10.53h-1.27L229.08,100v6.29Z" style="fill:#263238"></path><path d="M240.51,106.43a3.17,3.17,0,0,1-1.81-.46,2.33,2.33,0,0,1-.91-1.24,5.56,5.56,0,0,1-.27-1.81V99.16a5.81,5.81,0,0,1,.27-1.87,2.18,2.18,0,0,1,.91-1.22,3.25,3.25,0,0,1,1.81-.43,3.29,3.29,0,0,1,1.71.37,2,2,0,0,1,.88,1.06,4.35,4.35,0,0,1,.26,1.59v.89h-1.84v-.91a6.64,6.64,0,0,0-.05-.81,1,1,0,0,0-.25-.58.92.92,0,0,0-.69-.21,1,1,0,0,0-.72.23,1.07,1.07,0,0,0-.3.61,5.52,5.52,0,0,0-.06.86v4.58a4.1,4.1,0,0,0,.09.94,1,1,0,0,0,.33.56,1,1,0,0,0,.66.19.87.87,0,0,0,.68-.23,1.1,1.1,0,0,0,.25-.6,5.48,5.48,0,0,0,.06-.85v-1h1.84v.85a5,5,0,0,1-.25,1.66,2.16,2.16,0,0,1-.86,1.13A3.15,3.15,0,0,1,240.51,106.43Z" style="fill:#263238"></path><path d="M247.56,106.43a3.3,3.3,0,0,1-1.78-.42,2.33,2.33,0,0,1-.95-1.2,5.35,5.35,0,0,1-.28-1.84V99a5.26,5.26,0,0,1,.28-1.83,2.27,2.27,0,0,1,.95-1.16,4.21,4.21,0,0,1,3.58,0,2.27,2.27,0,0,1,.95,1.16A5,5,0,0,1,250.6,99v4a5.09,5.09,0,0,1-.29,1.83,2.34,2.34,0,0,1-.95,1.19A3.33,3.33,0,0,1,247.56,106.43Zm0-1.42a1,1,0,0,0,.71-.21,1.13,1.13,0,0,0,.31-.57,3.94,3.94,0,0,0,.07-.79V98.59a3.91,3.91,0,0,0-.07-.8,1.11,1.11,0,0,0-.31-.55,1.32,1.32,0,0,0-1.4,0,1,1,0,0,0-.31.55,3.87,3.87,0,0,0-.08.8v4.85a4.84,4.84,0,0,0,.07.79,1,1,0,0,0,.31.57A1,1,0,0,0,247.56,105Z" style="fill:#263238"></path><path d="M252,106.28V95.75h2.48a4.74,4.74,0,0,1,2,.35,2.12,2.12,0,0,1,1,1.08,4.9,4.9,0,0,1,.3,1.85v3.85a5.22,5.22,0,0,1-.3,1.9,2.1,2.1,0,0,1-1,1.13,4.19,4.19,0,0,1-1.94.37Zm1.92-1.34h.59a1.49,1.49,0,0,0,.95-.23,1,1,0,0,0,.35-.68,8.55,8.55,0,0,0,.06-1.1v-4a4.73,4.73,0,0,0-.09-1,.86.86,0,0,0-.37-.57,1.84,1.84,0,0,0-.93-.18h-.56Z" style="fill:#263238"></path><path d="M259.26,106.28V95.75h4.42V97.1h-2.5v3h2v1.34h-2V105h2.53v1.32Z" style="fill:#263238"></path></g><g id="freepik--Arrow--inject-2"><path d="M401.79,68.93a.5.5,0,0,1-.5-.5v-5a.5.5,0,0,1,.5-.5.5.5,0,0,1,.5.5v5A.5.5,0,0,1,401.79,68.93Zm0-10a.5.5,0,0,1-.5-.5v-5a.5.5,0,0,1,.5-.5.5.5,0,0,1,.5.5v5A.5.5,0,0,1,401.79,58.93Zm0-10a.5.5,0,0,1-.5-.5v-5a.5.5,0,0,1,.5-.5.5.5,0,0,1,.5.5v5A.5.5,0,0,1,401.79,48.93Zm0-10a.5.5,0,0,1-.5-.5v-5a.5.5,0,0,1,.5-.5.5.5,0,0,1,.5.5v5A.5.5,0,0,1,401.79,38.93Zm0-10a.5.5,0,0,1-.5-.5v-5a.5.5,0,0,1,.5-.5.5.5,0,0,1,.5.5v5A.5.5,0,0,1,401.79,28.93Z" style="fill:#263238"></path><path d="M377,223.45h-4.53a.5.5,0,0,1-.5-.5.51.51,0,0,1,.5-.5h5a.5.5,0,0,1,0,1Zm-9.53,0h-5a.5.5,0,0,1-.5-.5.51.51,0,0,1,.5-.5h5a.5.5,0,0,1,.5.5A.5.5,0,0,1,367.44,223.45Zm-10,0h-5a.5.5,0,0,1-.5-.5.51.51,0,0,1,.5-.5h5a.5.5,0,0,1,.5.5A.5.5,0,0,1,357.44,223.45Zm-10,0h-5a.5.5,0,0,1-.5-.5.51.51,0,0,1,.5-.5h5a.5.5,0,0,1,.5.5A.5.5,0,0,1,347.44,223.45Zm-10,0h-5a.5.5,0,0,1-.5-.5.51.51,0,0,1,.5-.5h5a.5.5,0,0,1,.5.5A.5.5,0,0,1,337.44,223.45Zm-10,0h-2.66a.5.5,0,0,1-.5-.5.51.51,0,0,1,.5-.5h2.66a.5.5,0,0,1,.5.5A.5.5,0,0,1,327.44,223.45Zm55-.59a.5.5,0,0,1-.11-1,23.83,23.83,0,0,0,4.64-1.54.49.49,0,0,1,.66.25.5.5,0,0,1-.25.66,25.13,25.13,0,0,1-4.83,1.61Zm9.06-4.07a.5.5,0,0,1-.3-.9,25.18,25.18,0,0,0,3.67-3.24.5.5,0,0,1,.73.67,25.52,25.52,0,0,1-3.81,3.38A.52.52,0,0,1,391.46,218.79Zm6.74-7.29a.48.48,0,0,1-.26-.07.51.51,0,0,1-.17-.69,24.44,24.44,0,0,0,2.11-4.41.49.49,0,0,1,.64-.3.5.5,0,0,1,.3.64,25.42,25.42,0,0,1-2.19,4.59A.5.5,0,0,1,398.2,211.5Zm3.35-9.35h-.08a.51.51,0,0,1-.42-.57,24.9,24.9,0,0,0,.24-3.45v-1.46a.5.5,0,0,1,.5-.5.5.5,0,0,1,.5.5v1.46a25.28,25.28,0,0,1-.25,3.59A.5.5,0,0,1,401.55,202.15Zm.24-10a.51.51,0,0,1-.5-.5v-5a.5.5,0,0,1,.5-.5.5.5,0,0,1,.5.5v5A.5.5,0,0,1,401.79,192.17Zm0-10a.51.51,0,0,1-.5-.5v-5a.5.5,0,0,1,.5-.5.5.5,0,0,1,.5.5v5A.5.5,0,0,1,401.79,182.17Zm0-10a.51.51,0,0,1-.5-.5v-5a.5.5,0,0,1,.5-.5.5.5,0,0,1,.5.5v5A.5.5,0,0,1,401.79,172.17Zm0-10a.51.51,0,0,1-.5-.5v-5a.5.5,0,0,1,.5-.5.5.5,0,0,1,.5.5v5A.5.5,0,0,1,401.79,162.17Z" style="fill:#263238"></path><polygon points="326.61 216.72 315.81 222.95 326.61 229.19 326.61 216.72" style="fill:#263238"></polygon></g><g id="freepik--Envelope--inject-2"><rect x="360.93" y="84.9" width="90.6" height="64.86" transform="translate(31.99 -79.47) rotate(11.63)" style="fill:#263238"></rect><rect x="356.34" y="78.99" width="90.6" height="64.86" transform="translate(30.7 -78.67) rotate(11.63)" style="fill:#fff"></rect><path d="M439.86,152.9l-89.72-18.46.1-.49,13.18-64L453.14,88.4l-.1.49Zm-88.54-19.24,87.76,18.06L452,89.18,364.19,71.12Z" style="fill:#263238"></path><path d="M401.64,111.92a.52.52,0,0,1-.37-.16l-37.83-40.9a.5.5,0,1,1,.73-.67l37.59,40.63,50.58-22.49a.5.5,0,0,1,.66.25.49.49,0,0,1-.25.66l-50.91,22.64A.45.45,0,0,1,401.64,111.92Z" style="fill:#263238"></path></g><g id="freepik--Character--inject-2"><path d="M387.83,428.16S370.49,405,348.85,389s-40.2-22.6-45.3-21.07-9.57,6.45-9.57,6.45L233.51,435.1s-19.95,15.75-22.15,17.13-12.5,7.8-18.81,9.78-16.64,1.67-16.69,3.59,1.34,3.4,4.42,4.7a57.31,57.31,0,0,0,17.92,3.9,60.53,60.53,0,0,1,13.89,1.86c2.15.54,8.32,3.37,9.83,1s3.6-16,4.12-17.43,19.69-15.28,33.11-21.85S289,420.4,293.73,415.25s11.69-13.11,11.69-13.11,21.51,20.35,28.92,29.95,19.31,21.49,40.89,31.51,29.52,1.85,31-6.29S387.83,428.16,387.83,428.16Z" style="fill:#fff"></path><path d="M219.67,478.49a20.86,20.86,0,0,1-6-1.41c-.69-.23-1.28-.43-1.69-.54a61,61,0,0,0-13.78-1.84,57.17,57.17,0,0,1-18.1-3.94c-3.29-1.38-4.8-3-4.73-5.18,0-1.43,2.49-1.79,7.59-2.39a55,55,0,0,0,9.45-1.66c4-1.26,10.67-4.71,18.69-9.72,2.16-1.35,21.91-16.95,22.11-17.1L293.63,374c.17-.19,4.61-5,9.78-6.58s23.87,5,45.73,21.14c21.16,15.68,38.43,38.38,39.07,39.23,1.06,1.12,19.94,21.34,18.48,29.57a13.09,13.09,0,0,1-6.74,9.66c-5.77,3-14.15,2-24.93-3-17.45-8.11-30.89-18.46-41.08-31.66-6.76-8.76-25.59-26.78-28.49-29.54-1.46,1.67-7.28,8.29-11.36,12.73-4.91,5.36-21.46,16.15-34.72,22.65-13.51,6.61-32.08,20.11-32.86,21.59-.15.41-.51,2.26-.92,4.4-.92,4.83-2.18,11.44-3.25,13.11A3,3,0,0,1,219.67,478.49Zm85.72-110.28a5.93,5.93,0,0,0-1.7.21c-4.9,1.47-9.29,6.26-9.34,6.3l-60.49,60.73c-.86.68-20,15.83-22.24,17.2-8.09,5.06-14.81,8.55-18.92,9.84a56.07,56.07,0,0,1-9.63,1.69c-2.51.3-6.69.8-6.71,1.43-.05,1.69,1.26,3,4.12,4.23a56.25,56.25,0,0,0,17.74,3.86,61.43,61.43,0,0,1,14,1.87c.46.12,1.07.32,1.77.56,2.44.83,6.52,2.22,7.52.67s2.26-8.28,3.11-12.76c.5-2.6.79-4.09,1-4.57.68-1.84,20.39-15.78,33.36-22.13s29.67-17.24,34.43-22.42,11.61-13,11.68-13.11a.49.49,0,0,1,.35-.17.46.46,0,0,1,.37.13c.22.21,21.63,20.5,29,30,10.09,13.07,23.41,23.33,40.72,31.36,10.32,4.8,18.64,5.84,24,3a12.31,12.31,0,0,0,6.22-8.95c1.38-7.8-18-28.52-18.24-28.73l0,0c-.17-.24-17.55-23.25-38.88-39C329,374.88,312,368.21,305.39,368.21Z" style="fill:#263238"></path><path d="M348.85,389c-21.65-16-40.2-22.6-45.3-21.07s-9.57,6.45-9.57,6.45l-59.76,60c1.3,3.63,4.25,8.31,11,11.38a154,154,0,0,1,13.95-8c13.42-6.58,29.85-17.39,34.58-22.54s11.69-13.11,11.69-13.11,21.51,20.35,28.92,29.95,27.49,36.47,50.5,42.52c42.35,11.15,40.91-10.44,42.35-18.58s-39.36-27.87-39.36-27.87S370.49,405,348.85,389Z" style="fill:#263238"></path><path d="M405.16,478.22a82,82,0,0,1-20.45-3.13c-22.44-5.9-41.77-31-50-41.73l-.74-1c-6.76-8.76-25.59-26.78-28.49-29.54-1.46,1.67-7.28,8.29-11.36,12.73-4.91,5.36-21.46,16.15-34.72,22.65a153.65,153.65,0,0,0-13.91,7.94.49.49,0,0,1-.47,0c-7-3.18-10-8.1-11.24-11.66a.5.5,0,0,1,.12-.52l59.76-60c.17-.19,4.61-5,9.78-6.58s23.87,5,45.73,21.14h0c20.74,15.37,37.75,37.5,39,39.16,4.69,2.27,41,20.16,39.53,28.36-.13.71-.23,1.52-.34,2.39-.61,4.76-1.53,11.93-7.82,16.18C416,477,411.23,478.22,405.16,478.22Zm-99.74-76.58a.53.53,0,0,1,.34.13c.22.21,21.63,20.5,29,30l.75,1c8.19,10.64,27.37,35.56,49.48,41.38,16,4.22,27.48,4.13,34-.27,5.91-4,6.76-10.63,7.38-15.47.12-.9.22-1.72.35-2.44,1.13-6.37-27.83-21.9-39.09-27.34a.65.65,0,0,1-.18-.15c-.17-.24-17.55-23.25-38.88-39h0c-21.6-16-39.93-22.47-44.86-21s-9.29,6.26-9.34,6.3L234.8,434.51a19.29,19.29,0,0,0,10.36,10.68,153.33,153.33,0,0,1,13.77-7.85c12.94-6.34,29.67-17.24,34.43-22.42s11.61-13,11.68-13.11a.49.49,0,0,1,.35-.17Z" style="fill:#263238"></path><path d="M175.86,465.6c-.06,1.92,1.34,3.4,4.42,4.7a57.31,57.31,0,0,0,17.92,3.9,60.53,60.53,0,0,1,13.89,1.86c2.15.54,8.32,3.37,9.83,1,1.3-2,3-12.39,3.82-16.16-6.59.21-14.08-2.66-14.08-2.66s.53-1.67-.3-6c-2.21,1.38-12.5,7.8-18.81,9.78S175.91,463.68,175.86,465.6Z" style="fill:#fff"></path><path d="M219.67,478.49a20.86,20.86,0,0,1-6-1.41c-.69-.23-1.28-.43-1.69-.54a61,61,0,0,0-13.78-1.84,57.17,57.17,0,0,1-18.1-3.94c-3.29-1.38-4.8-3-4.73-5.18h0c0-1.43,2.49-1.79,7.59-2.39a55,55,0,0,0,9.45-1.66c4-1.26,10.67-4.71,18.69-9.72a.52.52,0,0,1,.47,0,.5.5,0,0,1,.29.37,17.82,17.82,0,0,1,.38,5.79c1.62.57,7.94,2.67,13.49,2.48a.5.5,0,0,1,.4.17.48.48,0,0,1,.1.43c-.17.82-.38,1.94-.63,3.22-.92,4.83-2.18,11.44-3.25,13.11A3,3,0,0,1,219.67,478.49Zm-43.31-12.88c-.05,1.69,1.26,3,4.12,4.23a56.32,56.32,0,0,0,17.74,3.86,61.43,61.43,0,0,1,14,1.87c.46.12,1.07.32,1.77.56,2.44.83,6.52,2.22,7.52.67s2.26-8.28,3.11-12.75c.19-1,.36-1.9.51-2.63a43.86,43.86,0,0,1-13.64-2.7.5.5,0,0,1-.3-.62s.42-1.46-.18-5.06c-7.81,4.85-14.29,8.19-18.3,9.45a56.07,56.07,0,0,1-9.63,1.69c-2.51.3-6.69.8-6.71,1.43Z" style="fill:#263238"></path><path d="M462.21,339.29c-5.73-5.12-18.61-17.38-27.61-32.72s-6.54-20.24-13.29-32.31-16.56-18-29.86-15.34c-10.79,2.16-16.33,8.64-18,11-.39.53-.78,1-1.2,1.54-1.94,2.27-8.08,10.69-12.67,30.41-5.53,23.72-5.32,35.37,3.06,40.89s14.32,3.07,16.77,5.73,3.27,5.93,1.23,5.93a4.1,4.1,0,0,1-3.07-1.23s4.7,7.16,9.2,5.11,9.61-9.4,6.34-19.22-12.06-19.83-13.5-21.67-4.29-23.11-4.29-23.11.21-7.16,8.18-4.7,18.81,6.95,22.29,14.11,16.36,23.31,27.6,28.21,15.75,9.41,19.84,21.48,4.09,15.94,4.09,15.94,8.38-3.88,10-12.67S467.93,344.4,462.21,339.29Zm-98.77.4c-3.88-4.29-1.43-12.06-1.43-12.06-1.23,11,11.45,17.18,11.45,17.18S367.33,344,363.44,339.69Z" style="fill:#263238"></path><path d="M457.3,369.84a.48.48,0,0,1-.5-.49s-.07-4-4.07-15.79-8.15-16.2-19.56-21.18S408.73,311,405.32,303.92s-13.8-11.33-22-13.85c-2.4-.74-4.28-.64-5.58.29a5.56,5.56,0,0,0-1.95,3.95c1.1,8.09,3.21,21.53,4.19,22.79l.72.9c2.71,3.31,9.92,12.11,12.86,20.92,3.36,10.09-1.85,17.67-6.61,19.84s-9.63-5-9.83-5.3a.5.5,0,0,1,.8-.59,3.63,3.63,0,0,0,2.69,1.05c.39,0,.52-.16.58-.3.35-.8-.44-2.91-2.18-4.79-.91-1-2.44-1.19-4.56-1.46a26,26,0,0,1-12.11-4.19c-8.27-5.45-9.13-16.29-3.28-41.43,4.64-19.94,11-28.48,12.78-30.62.37-.43.74-.91,1.17-1.5,1.9-2.65,7.5-9,18.34-11.2,12.93-2.58,23.16,2.66,30.39,15.59a58.3,58.3,0,0,1,5.51,13.87A69.93,69.93,0,0,0,435,306.32C443.65,321,456,333,462.54,338.91c5.85,5.23,6.93,8.9,5.27,17.85s-9.95,12.88-10.3,13A.52.52,0,0,1,457.3,369.84Zm.5-.5h0Zm-77.35-80.76a10.81,10.81,0,0,1,3.18.54c8.37,2.58,19.09,7.16,22.59,14.37,3.35,6.91,16,23,27.35,28,11.73,5.11,16.05,9.79,20.11,21.77,3.11,9.17,3.87,13.64,4.06,15.3,2-1.11,7.78-5,9.09-12,1.6-8.62.63-11.94-5-16.92-6.62-5.91-19-18-27.7-32.84a70.67,70.67,0,0,1-7.88-18.66,57,57,0,0,0-5.42-13.66c-7-12.5-16.86-17.58-29.32-15.08-10.48,2.09-15.88,8.24-17.72,10.79-.44.62-.83,1.12-1.22,1.57-1.79,2.1-8,10.47-12.57,30.2-5.73,24.64-5,35.2,2.86,40.36a25.11,25.11,0,0,0,11.69,4c2.24.29,4,.52,5.17,1.77,1.93,2.1,2.92,4.56,2.35,5.87a1.51,1.51,0,0,1-1.49.9,5.23,5.23,0,0,1-1.17-.13c1.66,1.85,4.46,4.25,7.09,3.06,4.43-2,9.24-9.12,6.08-18.61-2.88-8.64-10-17.34-12.68-20.61-.33-.4-.58-.71-.74-.92-1.47-1.89-4.1-21.15-4.39-23.34a6.45,6.45,0,0,1,2.35-4.82A5.54,5.54,0,0,1,380.45,288.58Zm-7,56.73h-.07c-.25,0-6.36-.89-10.32-5.27h0c-4-4.45-1.64-12.22-1.54-12.55a.5.5,0,0,1,.58-.34.52.52,0,0,1,.4.55c-1.18,10.55,11,16.61,11.17,16.67a.5.5,0,0,1,.26.59A.5.5,0,0,1,373.46,345.31Zm-9.65-5.95a15.92,15.92,0,0,0,6.52,4.12c-3-2.08-7.32-5.94-8.56-11.34-.11,2.37.23,5.22,2,7.22Z" style="fill:#263238"></path><path d="M388.73,430s-27.15-4.81-33.88-2.4-24.27,31.24-27.4,34.6-6.49,4.81-9.37,4.81-13.22-1.92-19.23-.72-13.46,5.05-12.73,8.65,4.08,5.29,15.14,7,22.83-2.4,25.95-4.09,6.73-4.08,7.69-4.56,9.61-2.41,14.42-5.53a83.33,83.33,0,0,0,10.09-8.17s20.43,9.37,28.12,13.46,19.71,6.73,26.44,6.73,21.39-1.93,25-3.61S449.3,468,449.3,460.56s.8-17.85-1.65-18.3-4.6.52-7,.28-15.63-7.69-19-9.14S388.73,430,388.73,430Z" style="fill:#263238"></path><path d="M306.77,482.85a36.17,36.17,0,0,1-5.59-.41c-11.13-1.69-14.76-3.41-15.55-7.36s7.24-8.06,13.12-9.24c4.33-.87,10.89-.14,15.23.34,1.83.21,3.28.37,4.1.37,3,0,6.22-1.65,9-4.65.87-.94,3-4,5.64-8,6.77-10,17-25,21.95-26.77,6.73-2.41,32.66,2.12,34.11,2.37,1.56.1,29.68,2,33.07,3.4,1.21.53,3.64,1.79,6.46,3.26,4.61,2.4,10.93,5.69,12.38,5.84a13,13,0,0,0,3.1-.18,12,12,0,0,1,3.94-.09c2.23.4,2.29,5.63,2.12,14.18,0,1.58-.06,3.15-.06,4.61,0,7.76-7,14.4-10.63,16.07s-18.34,3.66-25.2,3.66c-6.68,0-18.78-2.6-26.67-6.79-7.08-3.76-25.21-12.12-27.79-13.31a81.57,81.57,0,0,1-9.92,8c-3.64,2.37-9.41,4-12.51,4.94-.94.28-1.75.51-1.95.62-.37.18-1.18.68-2.21,1.32-1.52.94-3.59,2.22-5.47,3.23C324.39,480,315.79,482.85,306.77,482.85Zm-3.06-16.41a24.82,24.82,0,0,0-4.76.38c-6.21,1.24-12.95,5-12.34,8.06.68,3.43,4.12,5,14.72,6.58,10.8,1.64,22.58-2.38,25.64-4,1.86-1,3.92-2.27,5.42-3.2,1.09-.68,1.88-1.17,2.29-1.37a19,19,0,0,1,2.12-.68c3.05-.88,8.73-2.53,12.25-4.82a84.05,84.05,0,0,0,10-8.11.51.51,0,0,1,.55-.1c.21.1,20.53,9.43,28.15,13.48s19.64,6.67,26.2,6.67c6.78,0,21.25-1.91,24.78-3.56s10.05-7.85,10.05-15.17c0-1.46,0-3,.06-4.63.1-5.14.25-12.9-1.3-13.18a11.07,11.07,0,0,0-3.63.1,13.55,13.55,0,0,1-3.33.18c-1.52-.15-6.46-2.67-12.75-5.95-2.79-1.45-5.2-2.71-6.39-3.22-2.6-1.11-22.56-2.66-32.76-3.32h-.05c-.27,0-27.1-4.75-33.63-2.42-4.64,1.65-15.17,17.14-21.46,26.39-2.69,4-4.82,7.08-5.74,8.08-3,3.21-6.43,5-9.74,5-.87,0-2.35-.17-4.21-.37A95.06,95.06,0,0,0,303.71,466.44Z" style="fill:#263238"></path><path d="M346.68,436.7a.54.54,0,0,1-.34-.12.51.51,0,0,1,0-.71,102.43,102.43,0,0,1,8.24-8.62c3.07-2.47,23.35-.21,25.66.06a.5.5,0,0,1,.44.55.51.51,0,0,1-.56.44c-8.87-1-22.84-1.94-24.92-.27a94.59,94.59,0,0,0-8.11,8.5A.48.48,0,0,1,346.68,436.7Z" style="fill:#fff"></path><path d="M342.42,441.59a.5.5,0,0,1-.38-.82s1-1.21,2.52-2.92a.5.5,0,0,1,.76.66c-1.49,1.7-2.52,2.91-2.52,2.91A.52.52,0,0,1,342.42,441.59Z" style="fill:#fff"></path><path d="M326.72,463c-2.91,2.83-6,4.08-8.64,4.08-2.89,0-13.22-1.92-19.23-.72s-13.46,5.05-12.73,8.65,4.08,5.29,15.14,7,22.83-2.4,25.95-4.09,6.54-4,7.61-4.52A15.4,15.4,0,0,1,326.72,463Z" style="fill:#fff"></path><path d="M306.77,482.85a36.17,36.17,0,0,1-5.59-.41c-11.13-1.69-14.76-3.41-15.55-7.36s7.24-8.06,13.12-9.24c4.33-.87,10.89-.14,15.23.34,1.83.21,3.28.37,4.1.37,2.74,0,5.68-1.4,8.29-3.94a.52.52,0,0,1,.49-.12.5.5,0,0,1,.35.35c.69,2.7,2.63,7.6,7.82,10.05a.5.5,0,0,1,0,.9c-.4.21-1.17.68-2.14,1.28-1.51.94-3.58,2.22-5.46,3.23C324.39,480,315.79,482.85,306.77,482.85Zm-3.06-16.41a24.82,24.82,0,0,0-4.76.38c-6.21,1.24-12.95,5-12.34,8.06.68,3.43,4.12,5,14.72,6.58,10.8,1.64,22.58-2.38,25.64-4,1.86-1,3.91-2.27,5.42-3.2.53-.33,1-.62,1.38-.85a15.94,15.94,0,0,1-7.31-9.48,12.9,12.9,0,0,1-8.38,3.66c-.87,0-2.35-.17-4.21-.37A95.06,95.06,0,0,0,303.71,466.44Z" style="fill:#263238"></path><path d="M318.8,472.1c-1.16-1.89.13-4,1.34-5.29a9.39,9.39,0,0,1-2.06.24c-2.89,0-13.22-1.92-19.23-.72s-13.46,5.05-12.73,8.65,4.08,5.29,15.14,7,22.83-2.4,25.95-4.09c.48-.25,1-.53,1.46-.81C325.63,476.63,320.48,474.82,318.8,472.1Z" style="fill:#fff"></path><path d="M306.77,482.85a36.17,36.17,0,0,1-5.59-.41c-11.13-1.69-14.76-3.41-15.55-7.36s7.24-8.06,13.12-9.24c4.33-.87,10.89-.14,15.23.34,1.83.21,3.28.37,4.1.37a8.86,8.86,0,0,0,1.95-.23.5.5,0,0,1,.54.24.48.48,0,0,1-.06.58c-1.13,1.26-2.27,3.09-1.28,4.69h0c1.56,2.55,6.6,4.32,9.51,4.72a.5.5,0,0,1,.42.4.51.51,0,0,1-.24.53c-.5.29-1,.56-1.47.82C324.39,480,315.79,482.85,306.77,482.85Zm-3.06-16.41a24.82,24.82,0,0,0-4.76.38c-6.21,1.24-12.95,5-12.34,8.06.68,3.43,4.12,5,14.72,6.58,10.8,1.64,22.58-2.38,25.64-4l.25-.13c-3.16-.71-7.33-2.46-8.85-4.93-.87-1.42-.67-3.08.57-4.85a8.38,8.38,0,0,1-.86,0c-.87,0-2.35-.17-4.21-.37A95.06,95.06,0,0,0,303.71,466.44Z" style="fill:#263238"></path><path d="M392.89,330.7s-18.82.2-20.86,7.36-.21,42.33-.41,54-.2,19.22,1.23,22.09,9.81,8.18,10.43,8.38-.21,6.54-.21,6.54,14.52,1.84,22.7,2.05,15.54,3.27,23.1,9.2,12.48,9.81,12.48,9.81l4.7-5.11s1.84,17.38,3.89,25.36,9,8.38,11,8.38,8.79-.2,8.79-.2-6.54-12.07-9.41-20.25-4.7-15.13-4.7-15.13,1.43-2.25,1.43-7.15-1-7.77-.81-12.68,9-26.38,5.31-50.3-2.45-30.68-11.45-35.38-28.63-7.57-34.15-8S392.89,330.7,392.89,330.7Z" style="fill:#00BDFF"></path><path d="M461,479.24c-2.79,0-9.5-.85-11.53-8.76-1.73-6.76-3.33-20.38-3.78-24.33l-3.95,4.3a.5.5,0,0,1-.68.06s-4.91-3.89-12.47-9.82-14.92-8.89-22.81-9.09c-8.12-.2-22.61-2-22.75-2.05a.53.53,0,0,1-.33-.19.46.46,0,0,1-.1-.37,31.09,31.09,0,0,0,.37-6.08c-1.36-.71-9.08-5.63-10.55-8.56s-1.48-10.79-1.28-22.32c.06-3.68-.07-9.61-.23-16.48-.34-14.55-.76-32.66.66-37.63,2.11-7.38,20.3-7.71,21.31-7.72s17.71-1.42,23.17-1c4.87.36,25,3.16,34.34,8,7.42,3.87,8.11,9.15,10,23.26.47,3.59,1,7.66,1.75,12.48,2.78,18.11-1.58,35-3.92,44a41.93,41.93,0,0,0-1.39,6.36,37.6,37.6,0,0,0,.38,6.69,48.54,48.54,0,0,1,.43,6,15.8,15.8,0,0,1-1.39,7.22c.32,1.19,2.08,7.59,4.64,14.9,2.81,8.05,9.3,20.05,9.37,20.17a.5.5,0,0,1,0,.49.49.49,0,0,1-.41.25C469.72,479,463,479.24,461,479.24ZM446.05,444.5a.45.45,0,0,1,.16,0,.5.5,0,0,1,.34.42c0,.17,1.86,17.44,3.87,25.28,1.79,7,7.38,8,10.56,8,1.59,0,6.12-.12,8-.18-1.45-2.72-6.61-12.62-9.06-19.6-2.83-8.1-4.69-15.1-4.71-15.17a.49.49,0,0,1,.06-.39s1.35-2.22,1.35-6.89a46.91,46.91,0,0,0-.43-5.85,39.74,39.74,0,0,1-.38-6.85,41,41,0,0,1,1.42-6.57c2.32-9,6.65-25.73,3.9-43.64-.74-4.82-1.28-8.9-1.76-12.5-1.85-14.12-2.48-18.87-9.43-22.51-9.17-4.79-29.12-7.56-34-7.92-5.42-.4-22.86,1-23,1h0c-.18,0-18.46.28-20.38,7-1.38,4.81-1,22.84-.62,37.33.16,6.88.29,12.82.23,16.52-.19,11-.22,19.06,1.17,21.85s9.37,7.83,10.15,8.14c.36.12,1,.32.19,6.58,2.62.32,14.94,1.8,22.15,2,8.12.2,15.56,3.16,23.4,9.31,6.37,5,10.85,8.52,12.11,9.53l4.39-4.78A.52.52,0,0,1,446.05,444.5Zm-63-21.53h0Zm9.81-92.27h0Z" style="fill:#263238"></path><path d="M379.59,317.41a13.44,13.44,0,0,1-1.1-3.61c-4.29-7.17-8.17-14.57-9.19-18.09-1.55-5.33-.36-15.47.45-20.8-2.77,4.4-6.89,12.74-10.19,27-5.53,23.72-5.32,35.37,3.06,40.89s14.32,3.07,16.77,5.73,3.27,5.93,1.23,5.93a4.1,4.1,0,0,1-3.07-1.23s4.7,7.16,9.2,5.11,9.61-9.4,6.34-19.22S381,319.25,379.59,317.41Zm-16.15,22.28c-3.88-4.29-1.43-12.06-1.43-12.06-1.23,11,11.45,17.18,11.45,17.18S367.33,344,363.44,339.69Z" style="fill:#263238"></path><path d="M385.05,359.17c-4.11,0-7.74-5.44-7.92-5.71a.5.5,0,0,1,.8-.59,3.63,3.63,0,0,0,2.69,1.05c.39,0,.52-.16.58-.3.35-.8-.44-2.91-2.18-4.79-.91-1-2.44-1.19-4.56-1.46a26,26,0,0,1-12.11-4.19c-8.27-5.45-9.13-16.29-3.28-41.43,3.3-14.17,7.4-22.56,10.25-27.1a.51.51,0,0,1,.6-.21.51.51,0,0,1,.32.55c-.82,5.45-2,15.38-.46,20.58.92,3.19,4.51,10.24,9.14,18a.52.52,0,0,1,.06.15,11.54,11.54,0,0,0,1,3.4h0l.72.9c2.71,3.31,9.92,12.11,12.86,20.92,3.36,10.09-1.85,17.67-6.61,19.84A4.57,4.57,0,0,1,385.05,359.17Zm-5.6-4.38c1.66,1.85,4.46,4.25,7.09,3.06,4.43-2,9.24-9.12,6.08-18.61-2.88-8.64-10-17.34-12.68-20.61-.33-.4-.58-.71-.74-.92h0c-.23-.3-.58-1-1.18-3.72-3.71-6.2-8.06-14.2-9.2-18.14-1.35-4.66-.67-12.82.08-18.53-2.68,4.81-6,12.61-8.86,24.66-5.73,24.64-5,35.2,2.86,40.36a25.11,25.11,0,0,0,11.69,4c2.24.29,4,.52,5.17,1.77,1.93,2.1,2.92,4.56,2.35,5.87a1.51,1.51,0,0,1-1.49.9A5.23,5.23,0,0,1,379.45,354.79Zm-6-9.48h-.07c-.25,0-6.36-.89-10.32-5.27h0c-4-4.45-1.64-12.22-1.54-12.55a.5.5,0,0,1,.58-.34.52.52,0,0,1,.4.55c-1.18,10.55,11,16.61,11.17,16.67a.5.5,0,0,1,.26.59A.5.5,0,0,1,373.46,345.31Zm-9.65-5.95a16,16,0,0,0,6.51,4.11c-3-2.08-7.31-5.93-8.55-11.33-.11,2.37.23,5.22,2,7.22Z" style="fill:#263238"></path><path d="M424.72,426.56h-.07l-5.84-.84a.5.5,0,0,1-.42-.56.5.5,0,0,1,.56-.43l5.84.84a.5.5,0,0,1-.07,1Z" style="fill:#263238"></path><path d="M414.65,425.1h-.08c-19.93-2.91-30.53-4.67-31.48-5.22-1.79-1,.56-16.85,2.12-26.19a.5.5,0,0,1,1,.16c-1.93,11.53-3.41,24.11-2.57,25.2.37.19,4.24,1.14,31.09,5.06a.5.5,0,0,1-.07,1Z" style="fill:#263238"></path><path d="M383.07,429.55H383a.49.49,0,0,1-.36-.6l2-8.36a.51.51,0,0,1,.61-.37.49.49,0,0,1,.36.6l-2,8.36A.5.5,0,0,1,383.07,429.55Z" style="fill:#263238"></path><path d="M453.85,444a25.59,25.59,0,0,1-6.33-1.25c-6-1.73-18.35-5.95-18.48-6a.5.5,0,0,1-.31-.63.5.5,0,0,1,.64-.32c.12.05,12.4,4.26,18.42,6,5.47,1.56,6.58,1.18,6.62,1.16a.46.46,0,0,1,.66.13.54.54,0,0,1-.14.72A2,2,0,0,1,453.85,444Z" style="fill:#263238"></path><path d="M417.74,354.88a.45.45,0,0,1-.25-.07l-9.22-5.23a.5.5,0,0,1,.49-.87l8.5,4.83.23-6.91a.48.48,0,0,1,.51-.48.5.5,0,0,1,.49.52l-.25,7.73a.53.53,0,0,1-.26.42A.5.5,0,0,1,417.74,354.88Z" style="fill:#263238"></path><path d="M394.18,350a.5.5,0,0,1-.31-.89l1.75-1.38a.5.5,0,1,1,.61.79l-1.74,1.37A.51.51,0,0,1,394.18,350Z" style="fill:#263238"></path><path d="M384.33,365.35a.5.5,0,0,1-.5-.49l-.12-4.73a.5.5,0,0,1,.48-.52h0a.51.51,0,0,1,.5.49l.12,4.74a.5.5,0,0,1-.49.51Z" style="fill:#263238"></path><path d="M380,283.88s-10.67,9.31-10.67,11.83,3.49,13.58,4.85,18.05a36,36,0,0,0,7.76,12.8c3.1,3.3,9.12,7.18,10.48,7.18a8,8,0,0,0,3.1-1s.78,15.91,3.49,21.54,4.08,5.43,4.66,4.07,7.76-24.83,7.76-24.83l3.49-16.69-7.37-19s-10.28-9.12-17.27-11.45S380,283.88,380,283.88Z" style="fill:#fff"></path><path d="M402.73,359.68c-.74,0-2-.57-4.2-5.15-2.42-5-3.3-17.71-3.5-21a7.07,7.07,0,0,1-2.64.69c-1.7,0-7.88-4.18-10.84-7.33a36.35,36.35,0,0,1-7.88-13l-.53-1.73c-1.63-5.29-4.34-14.14-4.34-16.46,0-2.62,9-10.63,10.84-12.21a.48.48,0,0,1,.36-.12c.14,0,3.44.22,10.41,2.54s17,11.18,17.44,11.55a.48.48,0,0,1,.14.2l7.37,19a.45.45,0,0,1,0,.28l-3.49,16.69c-.3,1-7.2,23.56-7.79,24.93-.38.89-.94,1.09-1.34,1.1Zm-7.24-27.41a.48.48,0,0,1,.24.06.52.52,0,0,1,.26.42c0,.16.8,15.87,3.44,21.34,2.13,4.4,3.12,4.61,3.31,4.59s.36-.31.44-.49c.45-1.06,5.26-16.68,7.74-24.79l3.46-16.5-7.28-18.76c-1-.9-10.54-9.11-17-11.27a50.71,50.71,0,0,0-9.95-2.48c-4.07,3.57-10.34,9.67-10.34,11.32,0,2.17,2.79,11.27,4.29,16.16l.54,1.74a35,35,0,0,0,7.64,12.61c3.23,3.42,9,7,10.12,7a7.54,7.54,0,0,0,2.86-.91A.5.5,0,0,1,395.49,332.27Z" style="fill:#263238"></path><path d="M388.3,321.94a6,6,0,0,1-1.89-.34c-.26-.08-.93-.3-.93-4.16a.51.51,0,0,1,.5-.5.5.5,0,0,1,.5.5,11.62,11.62,0,0,0,.33,3.25c1,.31,2.65.6,3.17-.72a.5.5,0,0,1,.65-.27.49.49,0,0,1,.28.64A2.59,2.59,0,0,1,388.3,321.94Zm-1.46-1.21h0Z" style="fill:#263238"></path><path d="M389.28,325.57c-.69,0-1.16-.06-1.23-.06a.51.51,0,0,1-.43-.57.51.51,0,0,1,.56-.43c.06,0,5.49.68,7.25-3a.5.5,0,0,1,.66-.24.5.5,0,0,1,.24.67C394.81,325.12,391.19,325.57,389.28,325.57Z" style="fill:#263238"></path><path d="M395.49,332.77s6.4-5,9.9-9.7c0,0-3.88,9.12-5.05,11.45a35,35,0,0,0-1.74,4.07Z" style="fill:#263238"></path><path d="M398.6,339.09a.51.51,0,0,1-.45-.26l-3.1-5.82a.51.51,0,0,1,.13-.63c.07-.05,6.4-5.06,9.81-9.61a.5.5,0,0,1,.65-.13.49.49,0,0,1,.21.62c-.16.38-3.9,9.17-5.06,11.48a36.32,36.32,0,0,0-1.72,4,.5.5,0,0,1-.43.34Zm-2.47-6.19,2.38,4.48c.3-.75.76-1.83,1.38-3.09.71-1.42,2.47-5.44,3.7-8.31A74.4,74.4,0,0,1,396.13,332.9Z" style="fill:#263238"></path><path d="M394.75,309.39a11.19,11.19,0,0,1-2.89-.39.5.5,0,1,1,.28-1c.05,0,4.91,1.4,6.81-1.54a.51.51,0,0,1,.69-.15.49.49,0,0,1,.15.69A5.7,5.7,0,0,1,394.75,309.39Z" style="fill:#263238"></path><path d="M389.67,304.36a.5.5,0,0,1-.25-.93c.25-.14,6.07-3.4,10.3-2a.49.49,0,0,1,.32.63.51.51,0,0,1-.63.32c-3.82-1.28-9.44,1.86-9.49,1.9A.57.57,0,0,1,389.67,304.36Z" style="fill:#263238"></path><path d="M378.39,312.05a5.18,5.18,0,0,1-2.79-.8.51.51,0,0,1-.11-.7.5.5,0,0,1,.69-.11,4.32,4.32,0,0,0,5.22-.56.49.49,0,0,1,.7.07.49.49,0,0,1-.07.7A5.71,5.71,0,0,1,378.39,312.05Z" style="fill:#263238"></path><path d="M374.15,306.69a.49.49,0,0,1-.45-.28.51.51,0,0,1,.22-.67c4.48-2.24,7.55-.25,7.68-.16a.5.5,0,0,1-.55.83h0c-.11-.07-2.74-1.74-6.68.23A.59.59,0,0,1,374.15,306.69Z" style="fill:#263238"></path><path d="M435.83,355.44s-2.25,7.77-1.43,13.09S434,391,434,391.84s-4.5,2.86-4.3,4.29a38.1,38.1,0,0,0,1,4.09l-6.55-2.66-8.79,11.66a95.49,95.49,0,0,0,18.81,13.29c11.86,6.54,20,4.5,20,4.5s4.7-28.83,5.32-41.72,3.47-29.85-1-41.91c-3.51-9.43-19-10.64-22.49,5.52" style="fill:#00BDFF"></path><path d="M450.82,427.82c-3.53,0-9.48-.8-16.87-4.87A97.22,97.22,0,0,1,415,409.58a.5.5,0,0,1,0-.66l8.79-11.66a.5.5,0,0,1,.59-.16l5.58,2.27a28.43,28.43,0,0,1-.74-3.17c-.16-1.13,1.35-2.2,2.81-3.23a7.66,7.66,0,0,0,1.49-1.21c0-.06,0-.69.08-1.65.27-4.69,1-17.15.32-21.51-.82-5.36,1.35-13,1.45-13.3A.5.5,0,0,1,436,355a.51.51,0,0,1,.34.62c0,.08-2.21,7.73-1.42,12.87.69,4.46,0,17-.31,21.72-.06.93-.09,1.53-.09,1.67,0,.57-.62,1-1.9,1.94-.87.61-2.48,1.75-2.4,2.28a35.59,35.59,0,0,0,1,4,.49.49,0,0,1-.66.6l-6.19-2.51-8.29,11a98.61,98.61,0,0,0,18.38,12.91c10.24,5.65,17.76,4.79,19.36,4.52.53-3.3,4.69-29.37,5.26-41.32.13-2.79.37-5.74.62-8.86.88-11,1.87-23.51-1.61-32.86A10.27,10.27,0,0,0,447.74,337c-5.5.4-9.69,4.89-11.22,12a.5.5,0,1,1-1-.21c1.63-7.57,6.16-12.35,12.12-12.79A11.25,11.25,0,0,1,459,343.2c3.57,9.56,2.56,22.17,1.67,33.29-.25,3.11-.48,6.05-.61,8.83-.61,12.76-5.28,41.48-5.33,41.77a.47.47,0,0,1-.37.4A15.13,15.13,0,0,1,450.82,427.82Z" style="fill:#263238"></path><path d="M446.72,388.26a.5.5,0,0,1-.46-.31.49.49,0,0,1,.27-.65l2-.83a.5.5,0,0,1,.65.27.49.49,0,0,1-.27.65l-2,.83A.43.43,0,0,1,446.72,388.26Z" style="fill:#263238"></path><path d="M436.44,392.54a.5.5,0,0,1-.19-1l7.78-3.24a.5.5,0,1,1,.39.92l-7.79,3.24A.41.41,0,0,1,436.44,392.54Z" style="fill:#263238"></path><path d="M432.15,401.13a.5.5,0,0,1-.49-.38.49.49,0,0,1,.37-.6c6-1.51,16.27-3.88,17.37-2.9a.67.67,0,0,1,.21.59c-.23,1.64-4.53,2.27-6.37,2.47a.5.5,0,0,1-.55-.44.49.49,0,0,1,.44-.55,14.37,14.37,0,0,0,5.28-1.36c-1.86-.07-9.35,1.46-16.14,3.16Z" style="fill:#263238"></path><path d="M448.91,408.7a.51.51,0,0,1-.46-.31c-2.11-5-14.4-6.43-14.52-6.44a.5.5,0,0,1,.11-1c.53.06,13,1.53,15.34,7.05a.52.52,0,0,1-.27.66A.65.65,0,0,1,448.91,408.7Z" style="fill:#263238"></path><path d="M449.12,415H449a9,9,0,0,1-2.52-1.12.51.51,0,0,1-.18-.69A.49.49,0,0,1,447,413a7.84,7.84,0,0,0,2.2,1,.5.5,0,0,1-.09,1Z" style="fill:#263238"></path><path d="M444.67,412.66a.45.45,0,0,1-.27-.08c-4.94-3.29-11.69-8.85-11.75-8.91a.49.49,0,0,1-.07-.7.5.5,0,0,1,.7-.07c.07.06,6.78,5.59,11.67,8.85a.5.5,0,0,1,.14.69A.48.48,0,0,1,444.67,412.66Z" style="fill:#263238"></path><path d="M353.79,365.6s-4.61,9.85-2.87,11.47,12.22,11.71,13.22,12.21,3.86,9.23,5.36,12.59,2.37,11.22,5.23,12.34,9-4.73,9.1-7.72,0-4.12-2.74-8-9-16.33-9-16.33L355,363.6Z" style="fill:#fff"></path><path d="M375.54,414.86a2.8,2.8,0,0,1-1-.18c-2.17-.85-3.2-4.67-4.19-8.36a32,32,0,0,0-1.32-4.24c-.52-1.18-1.2-3-1.92-4.88-1.06-2.81-2.66-7.06-3.23-7.48s-4.54-4-11-10.07c-1.09-1-1.95-1.85-2.35-2.22-1.86-1.73,1.64-9.66,2.76-12l0-.06,1.24-2a.52.52,0,0,1,.38-.23.51.51,0,0,1,.42.16l17.07,18.57a.44.44,0,0,1,.08.11c.06.13,6.25,12.48,8.94,16.27,2.86,4,3,5.27,2.83,8.29-.09,2.19-2.88,5.43-5.42,7.1A6.73,6.73,0,0,1,375.54,414.86Zm-21.31-49c-2.14,4.57-3.88,10-3,10.86l2.36,2.23c3.24,3.09,10,9.52,10.74,9.91s1.7,2.73,3.7,8c.71,1.89,1.38,3.67,1.89,4.82a31.6,31.6,0,0,1,1.38,4.39c.84,3.13,1.88,7,3.59,7.69.77.3,2-.06,3.44-1,2.53-1.65,4.9-4.66,5-6.31.12-2.88,0-3.88-2.65-7.66s-8.45-15.27-9-16.34l-16.59-18Z" style="fill:#263238"></path><polygon points="345.81 353.38 365.13 384.8 379.97 386.79 365.51 358.24 345.81 353.38" style="fill:#263238"></polygon><path d="M380,387.29h-.07l-14.83-2a.52.52,0,0,1-.36-.23l-19.32-31.42a.49.49,0,0,1,.54-.74l19.7,4.86a.47.47,0,0,1,.32.26l14.46,28.54a.51.51,0,0,1,0,.52A.52.52,0,0,1,380,387.29Zm-14.53-3,13.65,1.84-13.92-27.5-18.29-4.51Z" style="fill:#263238"></path><path d="M424.17,397.56S402.09,382,396.36,378.14a80.42,80.42,0,0,1-8.18-6.14s-.61-3.88-2-5.52-2.86-2-5.52-1.84-4.91.62-6.55,0-4.7-5.72-5.11-3.47-.2,3.88,1.84,5.52,4.91,2.25,5.73,2.65-1.3.75-1.3.75A22.67,22.67,0,0,1,365,371.21a38.53,38.53,0,0,1-9.95-2.68c-1.43-.41-1.23,1.63.41,2.86s2.65,1.84,2.65,1.84-5.11-.82-4.49.82,2.86,3.07,4.29,4.09,2.86,2.86,4.09,3.47,1.43,3.48,3.48,4.71,1.44,1.09,6.66,1.57a92.91,92.91,0,0,0,16.44-.14l26.79,21.47Z" style="fill:#fff"></path><path d="M415.38,409.72a.51.51,0,0,1-.31-.11l-26.63-21.34a94.89,94.89,0,0,1-16.33.11l-1-.09c-3.82-.34-3.9-.35-5.42-1.28l-.44-.26a6.65,6.65,0,0,1-2.39-3.11,3.68,3.68,0,0,0-1-1.58,10.82,10.82,0,0,1-2.33-1.9,20.28,20.28,0,0,0-1.83-1.62l-.49-.34c-1.51-1.06-3.38-2.37-4-4a1,1,0,0,1,.14-1.05c.47-.58,1.73-.68,2.88-.64l-1-.74c-1.23-.92-1.87-2.37-1.44-3.23a1.13,1.13,0,0,1,1.46-.51c.13,0,.37.13.72.26a34.46,34.46,0,0,0,9.15,2.4,22.75,22.75,0,0,0,10-1.08l.11,0,.42-.08-.27-.09a15.87,15.87,0,0,1-4.81-2.34c-2.25-1.81-2.44-3.71-2-6a1.08,1.08,0,0,1,.7-.95c.77-.21,1.56.6,2.9,2.06a9.12,9.12,0,0,0,2.18,2,11.54,11.54,0,0,0,4.77.11l1.56-.14c2.88-.22,4.44.31,5.93,2,1.35,1.54,2,4.79,2.14,5.6a83.65,83.65,0,0,0,8,6c5.67,3.85,27.6,19.28,27.82,19.43a.55.55,0,0,1,.21.34.49.49,0,0,1-.1.37l-8.79,11.66a.46.46,0,0,1-.34.19Zm-26.79-22.47a.47.47,0,0,1,.31.11l26.39,21.15,8.17-10.84c-3.09-2.17-22.16-15.58-27.38-19.12a81.07,81.07,0,0,1-8.24-6.18.54.54,0,0,1-.15-.29s-.61-3.76-1.93-5.27-2.52-1.86-5.1-1.67l-1.55.14c-2,.19-3.8.36-5.21-.17a8.92,8.92,0,0,1-2.56-2.24,10.16,10.16,0,0,0-1.85-1.75,1,1,0,0,0,0,.13c-.38,2.11-.23,3.53,1.66,5.05a14.77,14.77,0,0,0,4.51,2.17,9.94,9.94,0,0,1,1.13.43.69.69,0,0,1,.46.73c0,.21-.1.66-1.84.94A23.24,23.24,0,0,1,365,371.71a36.09,36.09,0,0,1-9.41-2.46c-.31-.12-.52-.21-.63-.24s-.27-.05-.29,0c-.12.25.11,1.22,1.14,2,1.59,1.19,2.6,1.81,2.61,1.81a.49.49,0,0,1,.21.6.48.48,0,0,1-.54.32c-1.84-.29-3.77-.25-4,.08.52,1.39,2.32,2.66,3.65,3.58l.49.35a19,19,0,0,1,1.94,1.71,10.38,10.38,0,0,0,2.08,1.73,4,4,0,0,1,1.51,2,5.94,5.94,0,0,0,2,2.68l.45.27c1.32.81,1.32.81,5,1.14l1,.09a93.75,93.75,0,0,0,16.34-.14Z" style="fill:#263238"></path><path d="M375.1,376.18H364.05c-.86,0-4.92-1.91-6.14-2.5a.5.5,0,1,1,.43-.9,38.2,38.2,0,0,0,5.72,2.4h11a.51.51,0,0,1,.5.5A.5.5,0,0,1,375.1,376.18Z" style="fill:#263238"></path><path d="M371.14,380.86a33.12,33.12,0,0,1-3.86-.15c-.78-.13-6.14-1.13-7-1.73a12.81,12.81,0,0,0-3.27-.79.5.5,0,0,1-.42-.57.51.51,0,0,1,.57-.42,13.42,13.42,0,0,1,3.68.95,42.39,42.39,0,0,0,6.64,1.57c1.38.23,6.33.11,6.38.11a.5.5,0,0,1,0,1C373.74,380.83,372.53,380.86,371.14,380.86Z" style="fill:#263238"></path><path d="M370,385.21a7.86,7.86,0,0,1-1.28-.07c-1.11-.25-6.31-2.79-6.9-3.08a.5.5,0,0,1-.23-.67.51.51,0,0,1,.67-.23,70.91,70.91,0,0,0,6.68,3,52.82,52.82,0,0,0,6.8-.25.5.5,0,0,1,.54.46.51.51,0,0,1-.46.54C375.32,385,372,385.21,370,385.21Z" style="fill:#263238"></path><path d="M429.08,317.41a211.21,211.21,0,0,1-20.24-25.36s-2.25,32.1,2.65,45.8,22.91,8,29.24,4.5,8.59-6.13,12.48-5.52A121.88,121.88,0,0,1,429.08,317.41Z" style="fill:#263238"></path><path d="M424.92,347A17.77,17.77,0,0,1,418.6,346a12.58,12.58,0,0,1-7.58-8c-4.88-13.64-2.77-44.69-2.68-46a.5.5,0,0,1,.91-.24,212.61,212.61,0,0,0,20.19,25.28,122.36,122.36,0,0,0,24,19.34.5.5,0,0,1-.33.93c-2.57-.41-4.43.76-7.51,2.69-1.31.83-2.8,1.76-4.65,2.77A36.37,36.37,0,0,1,424.92,347Zm-15.67-53.5c-.36,6.43-1.51,32.36,2.71,44.15a11.68,11.68,0,0,0,7,7.37c6.86,2.6,16.64-.46,21.54-3.14,1.83-1,3.3-1.93,4.59-2.74,2.44-1.54,4.24-2.67,6.29-2.89a125.19,125.19,0,0,1-22.65-18.54A211.32,211.32,0,0,1,409.25,293.54Z" style="fill:#263238"></path><path d="M383,282.25c-7.14-8.48-3,1.63-3,1.63s13.67,13.05,27.55,14C407.52,297.85,390.16,290.73,383,282.25Z" style="fill:#263238"></path><path d="M407.52,298.35h0c-13.9-.91-27.73-14-27.87-14.1a.42.42,0,0,1-.11-.18c-.9-2.2-1.75-5-.72-5.58.69-.41,1.73,0,4.62,3.45,7,8.28,24.13,15.38,24.3,15.45a.51.51,0,0,1,.3.58A.5.5,0,0,1,407.52,298.35Zm-27.13-14.76c1,1,11.92,10.87,23.68,13.28-5.41-2.51-16.11-8-21.43-14.3-2.24-2.66-3.08-3.12-3.32-3.19A11.66,11.66,0,0,0,380.39,283.59Z" style="fill:#263238"></path></g></svg>