<?xml version="1.0" encoding="utf-8"?>
<!-- Generator: Adobe Illustrator 27.5.0, SVG Export Plug-In . SVG Version: 6.00 Build 0)  -->
<svg version="1.1" xmlns="http://www.w3.org/2000/svg" xmlns:xlink="http://www.w3.org/1999/xlink" x="0px" y="0px"
	 viewBox="0 0 500 500" style="enable-background:new 0 0 500 500;" xml:space="preserve">
<g id="Background_Complete">
	<g>
		<g>
			<g>
				<g>
					<rect x="57.964" y="39.588" style="fill:#E0E0E0;" width="88.515" height="146.517"/>
				</g>
			</g>
		</g>
		<g>
			<g>
				<g>
					<rect x="55.02" y="39.588" style="fill:#EBEBEB;" width="88.515" height="146.517"/>
				</g>
			</g>
		</g>
		<g>
			<g>
				<g>
					<rect x="58.789" y="42.559" style="fill:#FAFAFA;" width="80.977" height="140.575"/>
				</g>
			</g>
		</g>
		<g>
			<g>
				<g>
					<g>
						<rect x="74.205" y="60.825" style="fill:#EBEBEB;" width="49.794" height="104.042"/>
					</g>
				</g>
			</g>
			<g>
				<g>
					<g>
						<path style="fill:#E0E0E0;" d="M74.205,128.05c-0.115-9.719,8.623-19.207,18.248-20.564c4.589-0.647,9.465,0.264,13.754-1.495
							c7.654-3.139,10.09-13.308,17.793-16.324l0.351,75.2H74.205V128.05z"/>
					</g>
				</g>
			</g>
		</g>
	</g>
	<g>
		<g>
			<g>
				<g>
					<g>
						<g>
							<g>
								<g>
									<g>
										<g>
											<rect x="387.516" y="45.077" style="fill:#E0E0E0;" width="84.89" height="88.49"/>
										</g>
									</g>
								</g>
							</g>
						</g>
					</g>
				</g>
			</g>
		</g>
		<g>
			<g>
				<g>
					<g>
						<g>
							<g>
								<g>
									<g>
										<g>
											<rect x="381.768" y="45.077" style="fill:#FAFAFA;" width="84.889" height="88.49"/>
										</g>
									</g>
								</g>
							</g>
						</g>
					</g>
				</g>
			</g>
			<g>
				<g>
					<g>
						<g>
							<g>
								<g>
									<g>
										<g>
											<path style="fill:#E0E0E0;" d="M466.683,133.594h-84.942V45.051h84.942V133.594z M381.794,133.541h84.837V45.104h-84.837
												V133.541z"/>
										</g>
									</g>
								</g>
							</g>
						</g>
					</g>
				</g>
			</g>
		</g>
		<g>
			<g>
				<g>
					<g>
						<g>
							<g>
								<g>
									<g>
										<g>
											<rect x="393.179" y="56.973" style="fill:#FAFAFA;" width="62.066" height="64.699"/>
										</g>
									</g>
								</g>
							</g>
						</g>
					</g>
				</g>
			</g>
		</g>
		<g>
			<g>
				<g>
					<g>
						<g>
							<g>
								<g>
									<g>
										<g>
											<g>
												<path style="fill:#E0E0E0;" d="M393.179,122.102c0.049,0.058-0.541,0.735-1.532,1.781c-0.991,1.046-2.384,2.462-3.945,4
													c-1.562,1.539-2.997,2.909-4.055,3.881c-1.059,0.972-1.74,1.548-1.794,1.494c-0.053-0.054,0.532-0.727,1.523-1.773
													c0.991-1.046,2.388-2.465,3.954-4.007c1.566-1.542,3.004-2.916,4.062-3.888
													C392.452,122.616,393.13,122.044,393.179,122.102z"/>
											</g>
										</g>
									</g>
								</g>
							</g>
						</g>
					</g>
				</g>
			</g>
		</g>
		<g>
			<g>
				<g>
					<g>
						<g>
							<g>
								<g>
									<g>
										<g>
											<g>
												<path style="fill:#E0E0E0;" d="M455.245,121.943c0.058-0.049,0.735,0.54,1.781,1.531c1.046,0.991,2.462,2.384,4,3.945
													c1.538,1.562,2.909,2.997,3.881,4.055c0.973,1.059,1.548,1.74,1.494,1.794c-0.054,0.053-0.727-0.532-1.773-1.523
													c-1.046-0.991-2.465-2.388-4.008-3.954c-1.542-1.566-2.915-3.004-3.888-4.062
													C455.76,122.671,455.188,121.992,455.245,121.943z"/>
											</g>
										</g>
									</g>
								</g>
							</g>
						</g>
					</g>
				</g>
			</g>
		</g>
		<g>
			<g>
				<g>
					<g>
						<g>
							<g>
								<g>
									<g>
										<g>
											<g>
												<path style="fill:#E0E0E0;" d="M455.076,57.146c-0.049-0.058,0.54-0.735,1.532-1.781c0.991-1.046,2.384-2.462,3.945-4
													c1.561-1.539,2.996-2.909,4.055-3.882c1.058-0.972,1.74-1.548,1.794-1.494c0.053,0.054-0.532,0.727-1.523,1.773
													c-0.991,1.046-2.388,2.465-3.954,4.008c-1.566,1.542-3.004,2.915-4.062,3.888
													C455.803,56.632,455.125,57.204,455.076,57.146z"/>
											</g>
										</g>
									</g>
								</g>
							</g>
						</g>
					</g>
				</g>
			</g>
		</g>
		<g>
			<g>
				<g>
					<g>
						<g>
							<g>
								<g>
									<g>
										<g>
											<g>
												<path style="fill:#E0E0E0;" d="M393.009,57.305c-0.058,0.049-0.735-0.54-1.781-1.532c-1.046-0.991-2.462-2.384-4-3.945
													c-1.539-1.562-2.909-2.996-3.881-4.055c-0.973-1.058-1.548-1.74-1.494-1.794c0.054-0.054,0.727,0.532,1.773,1.523
													c1.046,0.991,2.465,2.388,4.008,3.954c1.543,1.566,2.916,3.004,3.888,4.063
													C392.495,56.577,393.067,57.255,393.009,57.305z"/>
											</g>
										</g>
									</g>
								</g>
							</g>
						</g>
					</g>
				</g>
			</g>
		</g>
		<g>
			<g>
				<g>
					<g>
						<g>
							<g>
								<g>
									<g>
										<g>
											<g>
												<path style="fill:#E0E0E0;" d="M455.076,121.672c-0.004-0.004-0.009-0.11-0.013-0.314
													c-0.003-0.221-0.008-0.518-0.014-0.903c-0.007-0.811-0.016-1.978-0.028-3.493c-0.014-3.065-0.036-7.524-0.063-13.186
													c-0.029-11.332-0.071-27.474-0.122-46.803l0.239,0.239c-18.068,0.01-39.287,0.022-61.89,0.036h-0.006l0.275-0.275
													c-0.014,23.747-0.028,45.963-0.039,64.699l-0.236-0.236c18.548,0.05,33.99,0.091,44.817,0.12
													c5.409,0.026,9.665,0.047,12.589,0.062c1.444,0.012,2.556,0.021,3.331,0.027c0.366,0.006,0.65,0.01,0.861,0.013
													C454.97,121.663,455.071,121.668,455.076,121.672c0.005,0.005-0.088,0.009-0.273,0.014
													c-0.205,0.003-0.48,0.007-0.835,0.013c-0.764,0.006-1.861,0.015-3.286,0.027c-2.912,0.014-7.149,0.035-12.535,0.062
													c-10.863,0.029-26.358,0.071-44.967,0.121l-0.236,0.001l0-0.237c-0.011-18.736-0.025-40.952-0.039-64.699l0-0.275h0.275
													h0.006c22.603,0.013,43.822,0.025,61.89,0.035h0.24l0,0.239c-0.051,19.392-0.092,35.588-0.122,46.956
													c-0.027,5.639-0.048,10.08-0.063,13.132c-0.012,1.495-0.021,2.646-0.028,3.446c-0.006,0.374-0.01,0.663-0.013,0.877
													C455.085,121.58,455.08,121.677,455.076,121.672z"/>
											</g>
										</g>
									</g>
								</g>
							</g>
						</g>
					</g>
				</g>
			</g>
		</g>
		<g>
			<g>
				<g>
					<g>
						<g>
							<g>
								<g>
									<g>
										<g>
											<rect x="413.857" y="78.967" style="fill:#EBEBEB;" width="20.711" height="20.711"/>
										</g>
									</g>
								</g>
							</g>
						</g>
					</g>
				</g>
			</g>
		</g>
	</g>
	<g>
		<g>
			<g>
				<g>
					<g>
						<g>
							<path style="fill:#F5F5F5;" d="M344.205,459.753c-1.764-1.513-5.701-6.307-2.665-11.884c1.113-2.044,3.476-3.055,5.615-3.956
								c2.139-0.901,4.387-1.684,6.157-3.189c3.338-2.84,4.259-7.558,6.475-11.347c2.544-4.349,7.292-7.608,12.308-7.38
								c5.745,0.261,10.536,4.953,12.707,10.303c2.172,5.349,2.248,11.289,2.293,17.067c0.025,3.194-0.117,6.796-2.462,8.953
								c-2.162,1.989-5.418,2.013-8.348,1.924c-10.464-0.322-20.929-0.643-31.393-0.964"/>
						</g>
					</g>
				</g>
			</g>
		</g>
		<g>
			<g>
				<g>
					<g>
						<g>
							<g>
								<path style="fill:#E0E0E0;" d="M404.249,373.426h-82.56l14.872,88.678c0.65,3.873,3.452,6.858,7.049,7.895
									c0.095,0.03,0.193,0.052,0.289,0.079c0.246,0.063,0.483,0.146,0.735,0.19c0.544,0.113,1.107,0.17,1.679,0.193
									c0.004,0.028,0.009,0.057,0.013,0.085l0.403-0.064c0.001,0,0.002,0,0.003,0h36.795c0.692,0,1.368-0.071,2.022-0.202
									c4.345-0.672,7.824-4.16,8.352-8.667l7.169-61.1l0.323-2.429h-0.038l2.839-24.198L404.249,373.426z M388.674,429.992h-8.472
									l0.855-25.736h9.816L388.674,429.992z M391.695,404.256h8.111l-3.02,25.736h-7.29L391.695,404.256z M367.49,458.522
									l-0.515-22.358h12.201l-0.743,22.358H367.49z M354.299,436.164h11.855l0.515,22.358h-10.633L354.299,436.164z
									 M355.215,458.522h-9.94c-0.945-6.036-2.174-13.882-3.504-22.358h11.706L355.215,458.522z M353.819,429.992l-2-25.736h13.6
									l0.593,25.736H353.819z M366.832,429.992l-0.593-25.736h13.996l-0.855,25.736H366.832z M366.098,398.084l-0.549-23.834
									h15.684l-0.792,23.834H366.098z M365.278,398.084H351.34l-1.852-23.834h15.241L365.278,398.084z M350.518,398.084h-14.747
									c-0.522-3.292-1.017-6.408-1.464-9.211c-1.539-9.636-2.117-13.26-2.438-14.623h16.796L350.518,398.084z M350.998,404.256
									l2,25.736h-12.196c-0.41-2.611-0.826-5.253-1.241-7.896c-0.956-6.075-1.913-12.149-2.813-17.84H350.998z M339.973,429.992
									h-7.967l-4.317-25.736h8.229C337.176,412.209,338.57,421.061,339.973,429.992z M340.943,436.164
									c1.214,7.737,2.409,15.365,3.504,22.358h-7.655l-3.75-22.358H340.943z M379.253,458.522l0.743-22.358h8.15l-1.91,22.358
									H379.253z M381.261,398.084l0.792-23.834h11.383l-2.036,23.834H381.261z M331.089,374.25
									c0.327,1.723,1.834,11.101,3.853,23.834h-8.287l-3.997-23.834H331.089z M393.439,458.522h-6.381l1.91-22.358h7.094
									L393.439,458.522z M400.53,398.084h-8.308l2.036-23.834h9.068L400.53,398.084z"/>
							</g>
						</g>
					</g>
				</g>
			</g>
		</g>
	</g>
</g>
<g id="Background_Simple" style="display:none;">
	<g style="display:inline;">
		<path style="fill:#F5F5F5;" d="M441.967,92.998l-2.182-3.428c-18.391-28.899-50.89-45.864-84.712-43.001
			c-4.348,0.368-8.67,1.05-12.927,2.056c-30.652,7.248-56.95,31.104-67.42,61.164c-6.158,17.678-7.552,37.911-19.65,52.097
			c-15.745,18.462-43.12,19.615-67.214,19.377c-24.094-0.238-51.485,0.987-67.151,19.518c-9.811,11.606-12.661,27.874-11.525,43.114
			c3.007,40.346,31.922,75.862,68.098,93.051c36.176,17.189,78.354,17.899,117.36,9.167
			c54.643-12.232,106.184-43.724,136.554-91.316C461.568,207.205,468.145,143.108,441.967,92.998z"/>
	</g>
</g>
<g id="Floor_1_">
	<g>
		<g>
			<path style="fill:#263238;" d="M451.236,471.413c0,0.144-95.93,0.26-214.239,0.26c-118.35,0-214.259-0.117-214.259-0.26
				s95.91-0.26,214.259-0.26C355.306,471.153,451.236,471.269,451.236,471.413z"/>
		</g>
	</g>
</g>
<g id="Device">
	<g>
		<g>
			<g>
				<g>
					<g>
						<g>
							<g>
								<g>
									<g>
										<g>
											<path style="fill:#455A64;" d="M336.511,363.083l-113.503-0.067c-13.651-0.007-24.713-11.078-24.71-24.729l0.056-284.554
												c0.003-13.659,11.08-24.728,24.739-24.72l113.503,0.067c13.651,0.008,24.712,11.078,24.71,24.729l-0.056,284.555
												C361.247,352.022,350.17,363.091,336.511,363.083z"/>
										</g>
									</g>
								</g>
							</g>
							<g>
								<g>
									<g>
										<g>
											<path style="fill:#FAFAFA;" d="M336.476,39.144l-22.006-0.013c-2.951-0.001-5.344,2.499-5.344,5.583l-0.002,3.992
												c0,3.085-2.393,5.585-5.344,5.583l-42.895-0.025c-2.951-0.001-5.343-2.504-5.343-5.589l0.001-3.992
												c0-3.085-2.392-5.588-5.343-5.589l-7.739-0.005l-19.261-0.011c-9.566-0.005-17.324,7.746-17.326,17.313l-0.054,277.746
												c-0.002,9.562,7.745,17.314,17.305,17.32l113.276,0.066c9.565,0.006,17.323-7.746,17.326-17.312l0.054-277.747
												C353.783,46.902,346.036,39.15,336.476,39.144z"/>
										</g>
									</g>
								</g>
							</g>
						</g>
					</g>
				</g>
			</g>
			<g>
				<g>
					<g>
						<g>
							<g>
								<rect x="315.539" y="48.152" style="fill:#263238;" width="1.257" height="1.764"/>
							</g>
						</g>
					</g>
					<g>
						<g>
							<g>
								<rect x="317.586" y="47.366" style="fill:#263238;" width="1.257" height="2.549"/>
							</g>
						</g>
					</g>
					<g>
						<g>
							<g>
								<rect x="319.633" y="46.777" style="fill:#263238;" width="1.257" height="3.139"/>
							</g>
						</g>
					</g>
					<g>
						<g>
							<g>
								<rect x="321.681" y="45.638" style="fill:#263238;" width="1.257" height="4.278"/>
							</g>
						</g>
					</g>
				</g>
				<g>
					<g>
						<g>
							<g>
								<path style="fill:#263238;" d="M341.509,50.004h-6.314c-0.249,0-0.453-0.203-0.453-0.453v-3.138
									c0-0.25,0.201-0.453,0.448-0.453l6.318,0c0.031,0,0.061,0.012,0.082,0.034c0.022,0.022,0.033,0.051,0.033,0.082v1.034h0.676
									c0.064,0,0.116,0.052,0.116,0.116v1.512c0,0.064-0.052,0.116-0.116,0.116h-0.676v1.035
									C341.624,49.952,341.573,50.004,341.509,50.004z M341.393,46.191l-6.203,0.001c-0.122,0-0.217,0.097-0.217,0.221v3.138
									c0,0.122,0.099,0.221,0.221,0.221h6.198v-1.035c0-0.064,0.051-0.116,0.116-0.116h0.676v-1.281h-0.676
									c-0.064,0-0.116-0.052-0.116-0.116V46.191z"/>
							</g>
						</g>
					</g>
					<g>
						<g>
							<g>
								<polygon style="fill:#263238;" points="335.489,49.257 335.489,46.707 340.878,46.707 340.878,47.857 340.878,48.108 
									340.878,49.257 								"/>
							</g>
						</g>
					</g>
				</g>
				<g>
					<g>
						<g>
							<g>
								<path style="fill:#263238;" d="M328.959,49.763c0-0.255-0.207-0.461-0.461-0.461c-0.255,0-0.462,0.207-0.462,0.461
									c0,0.255,0.207,0.461,0.462,0.461C328.752,50.224,328.959,50.018,328.959,49.763z"/>
							</g>
						</g>
					</g>
					<g>
						<g>
							<g>
								<g>
									<path style="fill:#263238;" d="M326.924,48.65l0.589,0.589c0.252-0.252,0.601-0.409,0.985-0.409
										c0.384,0,0.732,0.156,0.985,0.409l0.589-0.589c-0.403-0.403-0.96-0.653-1.574-0.653
										C327.883,47.998,327.327,48.247,326.924,48.65z"/>
								</g>
							</g>
						</g>
						<g>
							<g>
								<g>
									<path style="fill:#263238;" d="M328.497,46.685c-0.976,0-1.861,0.397-2.501,1.038l0.589,0.589
										c0.49-0.49,1.167-0.793,1.913-0.793s1.422,0.303,1.912,0.793l0.589-0.589C330.358,47.082,329.473,46.685,328.497,46.685z"
										/>
								</g>
							</g>
						</g>
						<g>
							<g>
								<g>
									<path style="fill:#263238;" d="M325.038,46.764l0.589,0.589c0.735-0.735,1.751-1.191,2.871-1.191
										c1.12,0,2.135,0.455,2.871,1.191l0.589-0.589c-0.887-0.886-2.11-1.435-3.46-1.435
										C327.148,45.329,325.924,45.878,325.038,46.764z"/>
								</g>
							</g>
						</g>
					</g>
				</g>
			</g>
			<g>
				<g>
					<path style="fill:#263238;" d="M287.378,80.771h-7.626c-0.522,0-0.946-0.424-0.946-0.946v-5.183
						c0-0.522,0.423-0.946,0.946-0.946h7.626c0.522,0,0.946,0.424,0.946,0.946v5.183C288.324,80.348,287.9,80.771,287.378,80.771z"
						/>
				</g>
				<g>
					<path style="fill:#263238;" d="M280.906,74.161h-1v-1.181c0-2.108,1.573-3.698,3.659-3.698c2.086,0,3.658,1.59,3.658,3.698
						v0.755h-1v-0.755c0-1.563-1.118-2.698-2.658-2.698c-1.541,0-2.659,1.135-2.659,2.698V74.161z"/>
				</g>
			</g>
			<g>
				<path style="fill:#EBEBEB;" d="M207.01,248.888c-0.019-17.91,10.424-35.452,26.178-43.972
					c11.04-5.97,23.821-7.556,36.053-10.364c12.232-2.808,24.906-7.447,32.471-17.461c10.221-13.529,8.269-32.759,15.644-48.027
					c6.667-13.803,21.348-23.36,36.668-23.87v232.501c0,7.809-6.33,14.139-14.139,14.139H221.149
					c-7.809,0-14.139-6.33-14.139-14.139L207.01,248.888z"/>
			</g>
			<g>
				<path style="fill:#263238;" d="M232.019,127.792c0-8.622,4.524-13.765,10.788-13.765c6.264,0,10.827,5.143,10.827,13.765
					c0,8.623-4.563,13.765-10.827,13.765C236.543,141.557,232.019,136.414,232.019,127.792z M250.772,127.792
					c0-7.23-3.248-11.213-7.965-11.213c-4.717,0-7.965,3.982-7.965,11.213c0,7.23,3.248,11.213,7.965,11.213
					C247.524,139.005,250.772,135.022,250.772,127.792z"/>
				<path style="fill:#263238;" d="M277.139,127.56c0,9.203-5.026,13.997-12.373,13.997c-2.437,0-4.718-0.425-6.419-1.469
					l1.121-2.243c1.393,0.928,3.248,1.276,5.259,1.276c5.839,0,9.589-3.75,9.589-11.097c0-0.618-0.038-1.392-0.115-2.204
					c-1.354,2.977-4.524,4.64-8.274,4.64c-5.375,0-9.126-3.17-9.126-8.12c0-5.066,3.983-8.313,9.241-8.313
					C273.234,114.027,277.139,119.015,277.139,127.56z M273.311,122.185c0-2.977-2.475-5.8-7.153-5.8
					c-3.905,0-6.611,2.281-6.611,5.877c0,3.557,2.629,5.838,6.805,5.838C270.489,128.101,273.311,125.549,273.311,122.185z"/>
				<path style="fill:#263238;" d="M281.196,122.92c0-1.199,0.929-2.088,2.05-2.088s2.088,0.889,2.088,2.088
					c0,1.199-0.967,2.127-2.088,2.127S281.196,124.119,281.196,122.92z M281.196,139.392c0-1.199,0.929-2.088,2.05-2.088
					s2.088,0.889,2.088,2.088c0,1.198-0.967,2.126-2.088,2.126S281.196,140.59,281.196,139.392z"/>
				<path style="fill:#263238;" d="M307.837,138.85v2.475h-18.985v-1.972l11.252-11.02c3.055-3.016,3.635-4.833,3.635-6.689
					c0-3.132-2.204-5.065-6.342-5.065c-3.17,0-5.606,0.967-7.385,3.016l-1.972-1.702c2.088-2.475,5.451-3.866,9.589-3.866
					c5.49,0,8.971,2.784,8.971,7.308c0,2.591-0.813,4.911-4.447,8.468l-9.202,9.048H307.837z"/>
				<path style="fill:#263238;" d="M311.159,127.792c0-8.622,4.523-13.765,10.788-13.765c6.264,0,10.826,5.143,10.826,13.765
					c0,8.623-4.563,13.765-10.826,13.765C315.682,141.557,311.159,136.414,311.159,127.792z M329.912,127.792
					c0-7.23-3.248-11.213-7.965-11.213c-4.718,0-7.966,3.982-7.966,11.213c0,7.23,3.248,11.213,7.966,11.213
					C326.664,139.005,329.912,135.022,329.912,127.792z"/>
			</g>
			<g>
				
					<ellipse transform="matrix(0.2102 -0.9777 0.9777 0.2102 97.1933 298.956)" style="fill:#E0E0E0;" cx="233.628" cy="89.323" rx="19.54" ry="19.54"/>
			</g>
		</g>
	</g>
</g>
<g id="Character">
	<g>
		<g>
			<g>
				<path style="fill:#263238;" d="M127.649,244.763c-1.409-1.012-3.151-1.422-4.72-2.163c-1.568-0.741-3.094-2.035-3.238-3.764
					c-0.213-2.554,2.61-4.484,2.776-7.041c0.233-3.603-4.643-5.574-5.357-9.114c-0.593-2.939,1.905-5.713,1.797-8.709
					c-0.107-2.987-2.696-5.231-3.881-7.975c-2.754-6.38,2.327-14.608-1.521-20.395c-1.034-1.556-2.589-2.676-3.907-3.999
					c-1.318-1.324-2.465-3.049-2.308-4.911l-7.224-3.282c-2.419-3.696-7.905-3.84-12.032-2.263
					c-4.127,1.576-7.749,4.415-12.038,5.475c-2.08,0.514-1.782-2.572-3.882-2.144c-2.761,0.563-6.157,3.794-6.943,6.473
					c-0.844,2.874-1.431,6.051-2.451,8.867c-1.127,3.112-4.466,5.286-4.777,8.58c-0.364,3.846,3.611,6.978,3.617,10.841
					c0.007,4.156-4.581,7.869-3.119,11.76c0.836,2.223,3.401,3.415,4.294,5.616c1.233,3.041-1.217,6.373-0.993,9.647
					c0.221,3.232,2.936,5.664,5.51,7.631c9.848,7.526,20.726,13.801,32.448,17.829c5.07,1.742,10.411,3.072,15.75,2.587
					c5.339-0.485,10.711-3.039,13.507-7.614C131.254,252.937,131.225,247.332,127.649,244.763z"/>
			</g>
			<g>
				<g>
					<path style="fill:#263238;" d="M107.004,174.893c-1.31-5.219-5.586-9.583-10.776-10.999
						c-5.191-1.416-11.091,0.172-14.869,4.002c-1.54,1.561-2.763,3.472-4.583,4.696c-2.055,1.383-2.355,0.977-4.66,1.884
						c-2.305,0.907-6.525,7.328-6.454,9.804l-1.154,10.855c0.094,2.543,3.361,3.974,5.767,3.145
						c2.407-0.829,4.003-3.079,5.276-5.283c1.272-2.204,2.465-4.586,4.547-6.05c3.452-2.428,8.131-1.593,12.265-0.747
						c4.134,0.846,8.917,1.45,12.143-1.27C107.285,182.589,107.889,178.419,107.004,174.893z"/>
				</g>
				<g>
					<g>
						<g>
							<path style="fill:#FFBE9D;" d="M109.276,190.391c-0.461-7.067-5.163-15.728-12.204-14.967l-21.978,5.607
								c-2.139,0.231-3.745,2.06-3.698,4.211l2.471,53.022c-0.052,0.012-0.1,0.022-0.152,0.033c0,0,8.941,18.951,23.474,14.382
								c2.882-0.906,0.266-8.054,0.837-11.296l0.149,0.019c0.006-0.385,0.011-0.743,0.015-1.111
								c0.479-3.742,0.087-7.281,0.087-7.281l0,0c0.041-4.281,0.036-6.037,0.039-5.997c0,0,9.026-1.519,10.871-13.304
								C110.104,207.848,109.788,198.242,109.276,190.391z"/>
						</g>
					</g>
					<g>
						<g>
							<g>
								<g>
									<g>
										<g>
											<g>
												<g>
													<g>
														<g>
															<g>
																<g>
																	<g>
																		<g>
																			<g>
																				<g>
																					<g>
																						<g>
																							<path style="fill:#263238;" d="M107.458,199.47c0.03,0.798-0.621,1.481-1.454,1.528
																								c-0.831,0.046-1.531-0.561-1.561-1.359c-0.03-0.798,0.621-1.482,1.452-1.528
																								C106.729,198.063,107.428,198.672,107.458,199.47z"/>
																						</g>
																					</g>
																				</g>
																			</g>
																		</g>
																	</g>
																</g>
															</g>
														</g>
														<g>
															<g>
																<g>
																	<g>
																		<g>
																			<g>
																				<g>
																					<g>
																						<g>
																							<g>
																								<path style="fill:#263238;" d="M107.203,195.393c-0.187,0.198-1.333-0.647-2.959-0.639
																									c-1.624-0.015-2.815,0.824-2.992,0.625c-0.087-0.088,0.103-0.444,0.622-0.823
																									c0.51-0.378,1.382-0.746,2.395-0.744c1.013,0.003,1.866,0.374,2.356,0.755
																									C107.125,194.948,107.295,195.304,107.203,195.393z"/>
																							</g>
																						</g>
																					</g>
																				</g>
																			</g>
																		</g>
																	</g>
																</g>
															</g>
														</g>
													</g>
													<g>
														<g>
															<g>
																<g>
																	<g>
																		<g>
																			<g>
																				<g>
																					<g>
																						<g>
																							<path style="fill:#263238;" d="M92.09,199.975c0.03,0.798-0.621,1.481-1.453,1.528
																								c-0.831,0.046-1.53-0.561-1.56-1.359c-0.03-0.798,0.621-1.482,1.452-1.529
																								C91.36,198.569,92.06,199.178,92.09,199.975z"/>
																						</g>
																					</g>
																				</g>
																			</g>
																		</g>
																	</g>
																</g>
															</g>
														</g>
														<g>
															<g>
																<g>
																	<g>
																		<g>
																			<g>
																				<g>
																					<g>
																						<g>
																							<g>
																								<path style="fill:#263238;" d="M91.222,195.732c-0.187,0.197-1.335-0.647-2.96-0.639
																									c-1.624-0.016-2.815,0.823-2.992,0.625c-0.087-0.088,0.102-0.444,0.622-0.823
																									c0.511-0.378,1.382-0.746,2.395-0.744c1.013,0.004,1.865,0.375,2.356,0.755
																									C91.143,195.287,91.314,195.643,91.222,195.732z"/>
																							</g>
																						</g>
																					</g>
																				</g>
																			</g>
																		</g>
																	</g>
																</g>
															</g>
														</g>
													</g>
													<g>
														<g>
															<g>
																<g>
																	<g>
																		<g>
																			<g>
																				<g>
																					<g>
																						<g>
																							<path style="fill:#263238;" d="M97.149,207.776c-0.008-0.092,1.002-0.269,2.64-0.482
																								c0.415-0.044,0.808-0.127,0.877-0.411c0.097-0.3-0.077-0.747-0.28-1.23
																								c-0.393-1.004-0.803-2.056-1.235-3.159c-1.715-4.497-2.957-8.196-2.776-8.263
																								c0.182-0.068,1.72,3.523,3.434,8.02c0.413,1.109,0.808,2.166,1.183,3.178
																								c0.158,0.471,0.43,1.006,0.219,1.629c-0.111,0.31-0.415,0.536-0.681,0.609
																								c-0.266,0.082-0.5,0.087-0.705,0.099C98.178,207.859,97.156,207.868,97.149,207.776z"/>
																						</g>
																					</g>
																				</g>
																			</g>
																		</g>
																	</g>
																</g>
															</g>
														</g>
													</g>
													<g>
														<g>
															<g>
																<g>
																	<g>
																		<g>
																			<g>
																				<g>
																					<g>
																						<path style="fill:#EB996E;" d="M98.315,227.013c0,0-7.924,0.529-15.787-4.174c0,0,3.846,8.084,15.634,6.956
																							L98.315,227.013z"/>
																					</g>
																				</g>
																			</g>
																		</g>
																	</g>
																</g>
															</g>
														</g>
													</g>
													<g>
														<g>
															<g>
																<g>
																	<g>
																		<g>
																			<g>
																				<g>
																					<g>
																						<path style="fill:#EB996E;" d="M96.471,211.696c-0.586-0.772-1.612-1.194-2.629-1.082
																							c-0.705,0.077-1.418,0.419-1.845,0.995c-0.427,0.575-0.515,1.391-0.125,1.938
																							c0.44,0.616,1.357,0.756,2.133,0.534c0.776-0.222,1.442-0.734,2.075-1.245
																							c0.175-0.141,0.354-0.289,0.463-0.482c0.109-0.193,0.132-0.446-0.004-0.605"/>
																					</g>
																				</g>
																			</g>
																		</g>
																	</g>
																</g>
															</g>
														</g>
													</g>
													<g>
														<g>
															<g>
																<g>
																	<g>
																		<g>
																			<g>
																				<g>
																					<g>
																						<g>
																							<path style="fill:#263238;" d="M92.367,208.911c0.264-0.016,0.272,1.749,1.785,2.998
																								c1.51,1.253,3.391,1.051,3.405,1.298c0.025,0.111-0.418,0.344-1.212,0.367
																								c-0.779,0.028-1.917-0.219-2.843-0.983c-0.923-0.766-1.322-1.79-1.384-2.514
																								C92.051,209.339,92.246,208.901,92.367,208.911z"/>
																						</g>
																					</g>
																				</g>
																			</g>
																		</g>
																	</g>
																</g>
															</g>
														</g>
													</g>
												</g>
											</g>
										</g>
										<g>
											<g>
												<g>
													<g>
														<g>
															<g>
																<g>
																	<g>
																		<g>
																			<path style="fill:#263238;" d="M91.947,192.883c-0.159,0.442-1.783,0.236-3.69,0.471
																				c-1.912,0.196-3.449,0.758-3.703,0.362c-0.113-0.189,0.154-0.606,0.775-1.035
																				c0.616-0.429,1.598-0.837,2.743-0.967c1.145-0.128,2.194,0.052,2.889,0.333
																				C91.663,192.327,92.016,192.673,91.947,192.883z"/>
																		</g>
																	</g>
																</g>
															</g>
														</g>
													</g>
												</g>
											</g>
										</g>
										<g>
											<g>
												<g>
													<g>
														<g>
															<g>
																<g>
																	<g>
																		<g>
																			<path style="fill:#263238;" d="M106.595,190.689c-0.285,0.37-1.406-0.011-2.753-0.026
																				c-1.346-0.062-2.487,0.254-2.75-0.132c-0.116-0.187,0.063-0.557,0.561-0.908c0.49-0.349,1.311-0.636,2.237-0.61
																				c0.925,0.027,1.728,0.36,2.197,0.738C106.564,190.128,106.721,190.508,106.595,190.689z"/>
																		</g>
																	</g>
																</g>
															</g>
														</g>
													</g>
												</g>
											</g>
										</g>
									</g>
								</g>
							</g>
						</g>
					</g>
				</g>
				<g>
					<path style="fill:#263238;" d="M96.684,172.41l-0.999-1.278c-6.795,0.777-13.484,2.484-19.82,5.058
						c-2.534,1.029-5.1,2.264-6.833,4.38c-2.385,2.913-2.765,6.929-3.036,10.684c-1.033,14.295-1.889,29.019,2.611,42.627
						c1.082-1.741,3.2-2.523,5.212-2.911c2.012-0.388,4.124-0.519,5.947-1.454c2-1.025,3.463-2.982,4.023-5.158
						c0.56-2.176,0.246-4.539-0.729-6.563c-1.092-2.266-3.042-4.452-2.565-6.922c0.498-2.585,3.469-4.067,4.165-6.606
						c1.204-4.389-4.958-8.329-3.71-12.706c0.461-1.616,1.872-2.795,3.376-3.544c1.504-0.749,3.153-1.167,4.676-1.875
						C94.085,183.782,97.332,177.976,96.684,172.41z"/>
				</g>
			</g>
		</g>
		<g>
			<g>
				<g>
					<path style="fill:#FFBE9D;" d="M156.156,262.228l-13.779,21.444c0,0,1.534,2.541,4.846,2.402
						c3.312-0.139,7.875-8.42,8.419-10.097c0.544-1.678-0.196-3.289,0.301-4.403c0.497-1.114,0.296-4.182,0.296-4.182
						C156.166,267.568,159.216,263.486,156.156,262.228z"/>
				</g>
				<g>
					<path style="fill:#263238;" d="M138.572,283.659l7.18-28.386c0.215-0.851,0.768-1.578,1.531-2.012l10.432-5.947
						c0.634-0.361,1.438-0.188,1.866,0.403v0c0.249,0.344,0.332,0.78,0.228,1.191l-7.603,29.879L138.572,283.659z"/>
				</g>
				<g>
					<polygon style="fill:#FF725E;" points="134.95,305.661 151.622,274.872 145.345,266.738 121.884,284.544 128.029,301.464 					
						"/>
				</g>
				<g>
					<g>
						<path style="fill:#EB996E;" d="M151.823,281.547c-0.049-0.023,0.225-0.426,0.32-1.268c0.11-0.83,0.049-2.088-0.349-3.555
							l-0.02-0.073l0.038-0.066c0.261-0.452,0.387-1.026,0.193-1.58c-0.177-0.552-0.63-1.074-1.163-1.449l-0.183-0.129l0.124-0.186
							c0.59-0.882,1.222-1.826,1.887-2.819c0.158-0.245,0.371-0.515,0.44-0.728c0.079-0.231,0.051-0.488-0.055-0.741
							c-0.216-0.505-0.684-0.966-1.169-1.321l-0.234-0.172l0.188-0.215c0.513-0.585,1.081-1.163,1.655-1.752
							c0.994-1.057,1.948-2.098,2.749-3.17c0.384-0.542,0.768-1.076,1.02-1.634c0.137-0.274,0.221-0.558,0.25-0.814
							c0.023-0.262-0.103-0.407-0.254-0.437l-0.058-0.012l-0.001,0c-0.242-0.068-0.622,0.024-0.943,0.146
							c-0.33,0.123-0.649,0.277-0.955,0.434c-0.612,0.322-1.178,0.668-1.704,1.005c-1.051,0.677-1.944,1.316-2.68,1.846
							c-0.678,0.496-1.243,0.91-1.704,1.248c-0.396,0.288-0.613,0.437-0.629,0.417c-0.016-0.02,0.169-0.207,0.537-0.532
							c0.367-0.325,0.915-0.789,1.628-1.355c0.714-0.564,1.59-1.237,2.635-1.947c0.524-0.354,1.09-0.718,1.715-1.062
							c0.315-0.169,0.643-0.335,1-0.475c0.36-0.124,0.74-0.287,1.254-0.166l-0.059-0.012c0.481,0.033,0.754,0.565,0.699,0.922
							c-0.032,0.363-0.139,0.695-0.283,0.997c-0.274,0.62-0.665,1.169-1.059,1.733c-0.815,1.106-1.777,2.161-2.778,3.226
							c-0.575,0.591-1.146,1.17-1.651,1.741l-0.046-0.386c0.56,0.42,1.056,0.892,1.346,1.554c0.139,0.327,0.188,0.731,0.062,1.089
							c-0.14,0.372-0.335,0.574-0.5,0.835c-0.684,0.992-1.333,1.934-1.94,2.815l-0.059-0.314c0.617,0.453,1.092,1.021,1.303,1.699
							c0.223,0.677,0.04,1.39-0.272,1.884l0.018-0.139c0.369,1.54,0.372,2.824,0.199,3.683c-0.081,0.43-0.211,0.747-0.314,0.95
							C151.905,281.459,151.838,281.556,151.823,281.547z"/>
					</g>
				</g>
				<g>
					<g>
						<path style="fill:#455A64;" d="M159.58,247.717c0.018,0.031-0.288,0.245-0.858,0.606c-0.57,0.36-1.403,0.868-2.439,1.485
							c-1.077,0.633-2.307,1.355-3.651,2.144c-0.695,0.4-1.419,0.817-2.167,1.248c-0.751,0.424-1.555,0.833-2.179,1.427
							c-0.626,0.583-0.881,1.427-1.097,2.254c-0.217,0.835-0.428,1.643-0.629,2.418c-0.403,1.505-0.772,2.882-1.095,4.088
							c-0.319,1.162-0.586,2.1-0.782,2.745c-0.196,0.645-0.321,0.998-0.355,0.989c-0.035-0.009,0.023-0.378,0.159-1.039
							c0.135-0.661,0.348-1.612,0.621-2.786c0.291-1.214,0.623-2.6,0.987-4.116c0.193-0.778,0.393-1.589,0.6-2.427
							c0.21-0.829,0.485-1.803,1.227-2.499c0.716-0.677,1.543-1.08,2.297-1.502c0.753-0.421,1.48-0.829,2.179-1.22
							c1.363-0.753,2.61-1.442,3.702-2.045c1.058-0.576,1.919-1.034,2.519-1.34C159.221,247.841,159.562,247.686,159.58,247.717z"/>
					</g>
				</g>
				<g>
					<path style="fill:#FFFFFF;" d="M152.668,257.424c-0.259,0.618-0.289,1.194-0.067,1.287c0.222,0.093,0.612-0.332,0.871-0.95
						c0.259-0.618,0.289-1.194,0.067-1.287C153.317,256.381,152.927,256.806,152.668,257.424z"/>
				</g>
			</g>
			<g>
				<g>
					<path style="fill:#FF725E;" d="M100.749,240.209L100.749,240.209c7.238,2.613,13.142,7.992,16.416,14.956l22.384,47.612
						l19.279,7.819l-16.975,4.892l-15.12-11.086L100.749,240.209z"/>
				</g>
				<g>
					<path style="fill:#FAFAFA;" d="M141.853,315.487l-8.122,6.261l-40.517-41.677L70.05,238.233l2.678-7.782l17.908,7.459
						l6.413,9.477l1.43-12.028l1.15,1.629l1.869,5.068c0,0,17.585,14.63,21.379,26.229c3.167,9.682,2.176,29.685,4.104,35.121
						L141.853,315.487z"/>
				</g>
				<g>
					<path style="fill:#FF725E;" d="M65.713,237.69c-0.271,0.814-17.321,7.663-18.135,13.633
						c-0.814,5.97,12.252,52.128,12.252,52.128l20.712,18.297h53.188l-16.873-31.589c-3.637-6.809-8.231-13.062-13.653-18.556
						c-4.993-5.059-11.036-11.318-14.146-15.055c-3.371-4.05-17.663-22.955-17.663-22.955L65.713,237.69z"/>
				</g>
				<g>
					<g>
						<path style="fill:#263238;" d="M76.384,239.579c0.033-0.064,1.182,0.458,3.014,1.352c1.831,0.895,4.345,2.163,7.106,3.592
							c1.097,0.573,2.153,1.124,3.133,1.636l-0.36,0.237c-0.139-2.271,0.078-4.223,0.337-5.574c0.26-1.355,0.535-2.121,0.584-2.108
							c0.063,0.015-0.108,0.806-0.28,2.156c-0.172,1.349-0.318,3.27-0.148,5.492l0.034,0.439l-0.394-0.202
							c-0.984-0.504-2.043-1.048-3.145-1.613c-2.761-1.429-5.248-2.749-7.036-3.727C77.44,240.28,76.351,239.643,76.384,239.579z"/>
					</g>
				</g>
				<g>
					<g>
						<path style="fill:#263238;" d="M117.383,281.679c-0.032,0.017-0.333-0.465-0.851-1.352c-0.558-0.969-1.289-2.238-2.17-3.767
							c-1.825-3.185-4.358-7.576-7.224-12.385c-2.869-4.81-5.528-9.127-7.462-12.246c-0.927-1.502-1.695-2.748-2.282-3.7
							c-0.534-0.877-0.815-1.372-0.785-1.391s0.368,0.437,0.955,1.281c0.587,0.843,1.416,2.077,2.423,3.613
							c2.015,3.071,4.726,7.362,7.599,12.177c2.869,4.815,5.355,9.24,7.098,12.473c0.872,1.616,1.564,2.932,2.026,3.85
							C117.173,281.147,117.415,281.662,117.383,281.679z"/>
					</g>
				</g>
				<g style="opacity:0.3;">
					<g>
						<path d="M109.189,313.855c3.09,0.524,6.259,1.048,9.338,0.462c3.079-0.587,6.098-2.527,7.063-5.509
							c0.302-0.933,0.433-1.999,1.154-2.664c1.189-1.099,3.084-0.424,4.697-0.571c1.8-0.164,3.344-1.453,4.282-2.998
							c0.938-1.546,1.37-3.336,1.79-5.095c0.207-0.869,0.416-1.758,0.317-2.646c-0.099-0.887-0.569-1.787-1.383-2.154
							c-1.218-0.549-2.592,0.25-3.676,1.031c-8.768,6.317-16.761,13.634-24.73,20.933"/>
					</g>
				</g>
			</g>
			<g>
				<path style="fill:#FFBE9D;" d="M129.056,278.62c0,0,3.05-7,4.676-7.971c1.626-0.971,9.713-5.685,9.713-5.685l-1.042,3.848
					l7.904-5.489c0.972-0.653,6.617-5.783,7.618-3.781c0.721,1.441-3.888,5.239-4.506,6.084c-1.544,2.113-1.031,1.918-1.031,1.918
					s1.674,1.007,0.833,2.5c-0.841,1.493-2.257,3.323-2.257,3.323s2.2,0.784,0.916,3.643c0,0,0.585,1.538,0.223,3.671
					c-0.363,2.133-4.218,6.188-4.218,6.188l-19.238,9.163l-7.758-13.168L129.056,278.62z"/>
			</g>
			<g>
				<path style="fill:#FF725E;" d="M84.253,265.462l12.336,26.339l27.36-11.886c0,0,11.355,6.625,9.782,13.864l-24.65,20.249
					c-4.667,3.834-10.701,5.588-16.696,4.854h0c-6.438-0.788-12.204-4.368-15.766-9.789l-17.843-27.154L48.8,265.632
					c-3.193-5.218-3.194-11.94,0.418-16.877c0.986-1.348,2.16-2.475,3.525-3.307C57.195,242.737,70.432,241.562,84.253,265.462z"/>
			</g>
			<g>
				<g>
					<path style="fill:#EB996E;" d="M144.935,266.983c0.071,0.115-1.728,1.353-4.018,2.766c-2.29,1.414-4.203,2.467-4.274,2.352
						c-0.071-0.114,1.728-1.353,4.018-2.767C142.951,267.922,144.864,266.868,144.935,266.983z"/>
				</g>
			</g>
			<g>
				<g>
					<path style="fill:#EB996E;" d="M152.643,266.742c0.092,0.098-1.516,1.834-3.592,3.877c-2.076,2.044-3.837,3.624-3.934,3.53
						c-0.096-0.094,1.511-1.829,3.592-3.877C150.79,268.225,152.551,266.644,152.643,266.742z"/>
				</g>
			</g>
			<g>
				<g>
					<path style="fill:#EB996E;" d="M151.613,272.676c0.102,0.087-0.652,1.141-1.685,2.354c-1.033,1.213-1.953,2.125-2.056,2.038
						s0.652-1.141,1.685-2.354C150.59,273.501,151.511,272.589,151.613,272.676z"/>
				</g>
			</g>
			<g>
				<g>
					<path style="fill:#EB996E;" d="M151.965,276.676c0.103,0.09-0.322,0.739-0.863,1.516c-0.543,0.775-1.007,1.397-1.127,1.331
						c-0.116-0.063,0.167-0.811,0.728-1.61C151.261,277.111,151.866,276.588,151.965,276.676z"/>
				</g>
			</g>
			<g>
				<g>
					<path style="fill:#263238;" d="M104.876,316.64c-0.004-0.005,0.038-0.046,0.125-0.121c0.105-0.088,0.232-0.195,0.392-0.328
						c0.374-0.302,0.89-0.718,1.55-1.251c1.392-1.102,3.389-2.684,5.915-4.685c5.133-4.024,12.409-9.73,21.093-16.538l-0.088,0.171
						c0.003-1.342-0.235-2.716-0.775-4.032c-0.567-1.301-1.343-2.543-2.271-3.709c-1.898-2.293-4.305-4.338-6.997-6.012l0.229,0.014
						c-4.53,1.971-9.285,4.038-14.166,6.161c-4.523,1.963-8.938,3.879-13.193,5.726l-0.22,0.096l-0.109-0.214
						c-3.632-7.143-6.979-13.867-10.383-19.706c-1.685-2.928-3.361-5.645-4.937-8.167c-1.579-2.522-3.019-4.871-4.489-6.891
						c-2.875-4.105-6.105-6.613-8.523-7.903c-0.592-0.35-1.14-0.617-1.615-0.846c-0.469-0.242-0.878-0.42-1.21-0.559
						c-0.311-0.137-0.558-0.246-0.748-0.331c-0.168-0.077-0.252-0.12-0.249-0.127c0,0,1.459,0.416,3.91,1.707
						c1.22,0.648,2.673,1.554,4.176,2.854c1.517,1.283,3.038,2.986,4.527,5.011c1.498,2.022,2.96,4.366,4.554,6.877
						c1.593,2.514,3.287,5.227,4.989,8.154c3.438,5.837,6.811,12.564,10.452,19.697l-0.329-0.118
						c4.254-1.85,8.667-3.769,13.189-5.736c4.883-2.119,9.639-4.183,14.171-6.15l0.123-0.053l0.107,0.067
						c2.758,1.722,5.176,3.788,7.119,6.144c0.947,1.197,1.745,2.48,2.33,3.834c0.558,1.371,0.807,2.817,0.795,4.232l-0.001,0.104
						l-0.087,0.067c-8.731,6.747-16.048,12.402-21.208,16.39c-2.559,1.958-4.583,3.506-5.993,4.584
						c-0.679,0.509-1.209,0.908-1.593,1.196c-0.169,0.122-0.304,0.22-0.414,0.3C104.93,316.614,104.88,316.645,104.876,316.64z"/>
				</g>
			</g>
			<g>
				<g>
					<path style="fill:#263238;" d="M94.927,300.083c-0.143-0.061,0.613-1.942,1.044-4.378c0.449-2.433,0.4-4.459,0.555-4.466
						c0.131-0.018,0.418,2.05-0.043,4.559C96.037,298.309,95.043,300.146,94.927,300.083z"/>
				</g>
			</g>
		</g>
		<g>
			<g>
				<g>
					<g>
						<g>
							<g>
								<g>
									<path style="fill:#FF725E;" d="M245.463,377.454l14.328,17.95c0,0,23.057-8.536,26.029-5.476l-33.806,29.032
										l-23.473-27.052L245.463,377.454z"/>
								</g>
							</g>
						</g>
					</g>
					<g style="opacity:0.6;">
						<g>
							<g>
								<g>
									<g>
										<path style="fill:#FFFFFF;" d="M248.08,402.917c-0.501,0.741-0.321,1.864,0.398,2.395
											c0.719,0.531,1.864,0.358,2.378-0.374c0.513-0.732,0.339-2.088-0.435-2.534c-0.774-0.447-2.107-0.17-2.43,0.663"/>
									</g>
								</g>
							</g>
						</g>
					</g>
					<g style="opacity:0.6;">
						<g>
							<g>
								<g>
									<path style="fill:#FFFFFF;" d="M252.014,418.96l-2.259-2.819l33.258-26.781c0,0,2.067-0.638,2.808,0.569L252.014,418.96z"
										/>
								</g>
							</g>
						</g>
					</g>
					<g>
						<g>
							<g>
								<g>
									<g>
										<path style="fill:#263238;" d="M260.191,394.762c0.137,0.17-0.625,0.953-0.981,2.182
											c-0.389,1.219-0.193,2.294-0.401,2.359c-0.18,0.099-0.781-1.1-0.323-2.579C258.93,395.24,260.097,394.58,260.191,394.762z
											"/>
									</g>
								</g>
							</g>
						</g>
					</g>
					<g>
						<g>
							<g>
								<g>
									<g>
										<path style="fill:#263238;" d="M264.997,393.183c0.175,0.128-0.299,1.022-0.26,2.202c0.004,1.181,0.511,2.057,0.341,2.191
											c-0.133,0.159-1.078-0.709-1.098-2.177C263.946,393.932,264.858,393.029,264.997,393.183z"/>
									</g>
								</g>
							</g>
						</g>
					</g>
					<g>
						<g>
							<g>
								<g>
									<g>
										<path style="fill:#263238;" d="M270.655,395.698c-0.12,0.164-1.058-0.464-1.41-1.731c-0.362-1.266,0.11-2.291,0.298-2.213
											c0.21,0.056,0.125,0.971,0.43,2.008C270.255,394.804,270.805,395.541,270.655,395.698z"/>
									</g>
								</g>
							</g>
						</g>
					</g>
					<g>
						<g>
							<g>
								<g>
									<g>
										<path style="fill:#263238;" d="M256.472,391.033c0.06,0.21-0.893,0.633-1.772,1.497c-0.896,0.847-1.353,1.784-1.561,1.716
											c-0.198-0.037-0.014-1.257,1.036-2.261C255.216,390.974,256.442,390.834,256.472,391.033z"/>
									</g>
								</g>
							</g>
						</g>
					</g>
				</g>
				<g style="opacity:0.3;">
					<g>
						<g>
							<g>
								<polygon points="248.296,381.013 250.854,384.208 234.109,398.326 231.687,395.548 								"/>
							</g>
						</g>
					</g>
				</g>
				<g>
					<g>
						<g>
							<g>
								<g>
									<path style="fill:#263238;" d="M253.515,387.465c0.061,0.067-0.504,0.729-1.701,1.446
										c-0.596,0.356-1.353,0.711-2.238,0.977c-0.443,0.132-0.917,0.243-1.415,0.319c-0.242,0.034-0.513,0.091-0.853,0.041
										c-0.331-0.015-0.811-0.364-0.83-0.813c-0.05-0.408,0.16-0.783,0.399-0.998c0.242-0.222,0.487-0.345,0.71-0.458
										c0.455-0.232,0.915-0.41,1.363-0.543c0.898-0.261,1.742-0.34,2.441-0.316c1.408,0.053,2.205,0.44,2.176,0.52
										c-0.028,0.119-0.854-0.07-2.167,0.016c-0.654,0.043-1.427,0.172-2.241,0.446c-0.406,0.139-0.82,0.315-1.229,0.535
										c-0.439,0.214-0.746,0.473-0.701,0.711c0.019,0.09,0.035,0.117,0.2,0.158c0.16,0.03,0.387,0,0.626-0.032
										c0.466-0.062,0.913-0.151,1.334-0.257c0.841-0.214,1.576-0.498,2.175-0.778
										C252.765,387.876,253.441,387.373,253.515,387.465z"/>
								</g>
							</g>
						</g>
					</g>
				</g>
				<g>
					<g>
						<g>
							<g>
								<g>
									<path style="fill:#263238;" d="M253.503,387.887c-0.037,0.076-0.872-0.235-1.851-1.252
										c-0.484-0.506-0.98-1.196-1.361-2.052c-0.188-0.429-0.345-0.898-0.451-1.398c-0.089-0.504-0.231-1.159,0.346-1.782
										c0.324-0.3,0.826-0.277,1.113-0.135c0.308,0.133,0.499,0.31,0.707,0.471c0.401,0.341,0.726,0.735,0.98,1.139
										c0.512,0.811,0.731,1.663,0.779,2.37c0.091,1.444-0.428,2.232-0.49,2.188c-0.126-0.036,0.176-0.848-0.042-2.124
										c-0.107-0.629-0.356-1.367-0.831-2.051c-0.235-0.342-0.526-0.669-0.871-0.951c-0.361-0.314-0.745-0.488-0.848-0.336
										c-0.17,0.142-0.224,0.658-0.116,1.063c0.087,0.452,0.215,0.881,0.369,1.278c0.313,0.793,0.723,1.457,1.123,1.971
										C252.864,387.318,253.571,387.784,253.503,387.887z"/>
								</g>
							</g>
						</g>
					</g>
				</g>
			</g>
			<g>
				<g>
					<g>
						<g>
							<g>
								<g>
									<path style="fill:#FF725E;" d="M229.89,432.787L229,456.27c0,0,23.571,8.792,23.829,13.148l-45.595-0.09l-0.115-36.647
										L229.89,432.787z"/>
								</g>
							</g>
						</g>
					</g>
					<g style="opacity:0.6;">
						<g>
							<g>
								<g>
									<g>
										<path style="fill:#FFFFFF;" d="M214.905,454.267c-0.883,0.24-1.494,1.23-1.292,2.122c0.203,0.892,1.205,1.523,2.092,1.299
											c0.887-0.224,1.658-1.391,1.356-2.255c-0.302-0.864-1.519-1.54-2.326-1.11"/>
									</g>
								</g>
							</g>
						</g>
					</g>
					<g style="opacity:0.6;">
						<g>
							<g>
								<g>
									<path style="fill:#FFFFFF;" d="M207.233,469.328l0.133-3.694l43.667,1.468c0,0,2.028,0.887,1.796,2.317L207.233,469.328z"
										/>
								</g>
							</g>
						</g>
					</g>
					<g>
						<g>
							<g>
								<g>
									<g>
										<path style="fill:#263238;" d="M229.739,456.04c-0.008,0.223-1.121,0.322-2.218,1.035
											c-1.116,0.685-1.682,1.648-1.887,1.56c-0.205-0.043,0.13-1.374,1.473-2.215
											C228.442,455.568,229.788,455.836,229.739,456.04z"/>
									</g>
								</g>
							</g>
						</g>
					</g>
					<g>
						<g>
							<g>
								<g>
									<g>
										<path style="fill:#263238;" d="M234.518,458.027c0.051,0.216-0.915,0.593-1.673,1.533c-0.786,0.918-0.979,1.936-1.2,1.926
											c-0.209,0.035-0.361-1.27,0.604-2.421C233.203,457.906,234.513,457.815,234.518,458.027z"/>
									</g>
								</g>
							</g>
						</g>
					</g>
					<g>
						<g>
							<g>
								<g>
									<g>
										<path style="fill:#263238;" d="M237.222,463.757c-0.202,0.047-0.51-1.066,0.064-2.284c0.565-1.223,1.616-1.702,1.71-1.516
											c0.125,0.183-0.552,0.836-1.008,1.844C237.509,462.796,237.443,463.735,237.222,463.757z"/>
									</g>
								</g>
							</g>
						</g>
					</g>
					<g>
						<g>
							<g>
								<g>
									<g>
										<path style="fill:#263238;" d="M229.348,450.666c-0.094,0.203-1.115-0.107-2.373-0.024
											c-1.26,0.057-2.24,0.478-2.356,0.287c-0.129-0.161,0.829-0.983,2.313-1.06
											C228.415,449.78,229.458,450.491,229.348,450.666z"/>
									</g>
								</g>
							</g>
						</g>
					</g>
				</g>
				<g style="opacity:0.3;">
					<g>
						<g>
							<g>
								<polygon points="229.708,437.438 229.555,441.623 207.146,441.375 207.125,437.603 								"/>
							</g>
						</g>
					</g>
				</g>
				<g>
					<g>
						<g>
							<g>
								<g>
									<path style="fill:#263238;" d="M229.44,445.924c0.002,0.092-0.878,0.228-2.284-0.016c-0.7-0.122-1.523-0.353-2.388-0.738
										c-0.431-0.193-0.873-0.425-1.31-0.699c-0.21-0.136-0.459-0.272-0.688-0.538c-0.246-0.233-0.385-0.823-0.1-1.185
										c0.234-0.35,0.647-0.5,0.977-0.507c0.336-0.01,0.608,0.058,0.856,0.12c0.508,0.124,0.983,0.294,1.419,0.49
										c0.87,0.398,1.577,0.901,2.103,1.386c1.056,0.982,1.415,1.814,1.339,1.857c-0.101,0.073-0.614-0.625-1.689-1.436
										c-0.536-0.403-1.221-0.821-2.034-1.152c-0.408-0.163-0.847-0.304-1.31-0.407c-0.483-0.128-0.894-0.132-1.018,0.083
										c-0.045,0.082-0.051,0.114,0.05,0.256c0.104,0.13,0.3,0.258,0.506,0.393c0.403,0.264,0.808,0.493,1.205,0.692
										c0.794,0.396,1.555,0.667,2.206,0.85C228.585,445.741,229.444,445.804,229.44,445.924z"/>
								</g>
							</g>
						</g>
					</g>
				</g>
				<g>
					<g>
						<g>
							<g>
								<g>
									<path style="fill:#263238;" d="M229.15,446.243c-0.079,0.034-0.519-0.765-0.598-2.207
										c-0.037-0.715,0.039-1.582,0.316-2.499c0.141-0.458,0.333-0.926,0.584-1.385c0.268-0.45,0.595-1.053,1.459-1.15
										c0.451-0.016,0.825,0.337,0.952,0.639c0.15,0.309,0.18,0.573,0.233,0.837c0.083,0.533,0.072,1.055-0.002,1.538
										c-0.145,0.97-0.544,1.777-0.98,2.357c-0.894,1.18-1.823,1.444-1.842,1.369c-0.074-0.112,0.703-0.54,1.387-1.674
										c0.337-0.559,0.637-1.297,0.727-2.144c0.046-0.422,0.04-0.87-0.039-1.319c-0.07-0.485-0.251-0.876-0.433-0.827
										c-0.227-0.004-0.613,0.36-0.8,0.746c-0.235,0.409-0.422,0.826-0.568,1.237c-0.287,0.824-0.414,1.612-0.447,2.278
										C229.035,445.375,229.271,446.21,229.15,446.243z"/>
								</g>
							</g>
						</g>
					</g>
				</g>
			</g>
			<g>
				<g>
					<polygon style="fill:#263238;" points="206.768,321.748 251.891,381.713 230.785,399.842 209.056,371.43 					"/>
				</g>
				<g>
					<path style="fill:#263238;" d="M111.233,324.615c0,0,72.593-22.114,79.243-21.836c6.65,0.277,19.271,24.288,19.271,24.288
						l-20.38-0.737c-5.229,12.829-14.889,26.035-25.768,39.344l-41.673-1.939L111.233,324.615z"/>
				</g>
				<g>
					<g>
						<path style="fill:#263238;" d="M170.573,307.142c0.041,0.138-7.421,2.477-16.664,5.224
							c-9.246,2.748-16.773,4.863-16.814,4.725c-0.041-0.138,7.419-2.477,16.665-5.225
							C163.004,309.12,170.532,307.004,170.573,307.142z"/>
					</g>
				</g>
				<g>
					<path style="fill:#263238;" d="M187.442,325.943h20.382l0,0c10.171,0,19.234,6.418,22.611,16.012l0,0
						c1.59,4.516,2.288,9.297,2.057,14.079l-1.587,82.915h-27.439l-0.492-26.498l-3.469-50.375l-23.752,1.004l-13.46-0.838
						L187.442,325.943z"/>
				</g>
				<g>
					<g>
						<path style="fill:#455A64;" d="M188.047,325.53c0.035,0.009-0.103,0.631-0.384,1.752c-0.255,1.128-0.757,2.725-1.441,4.676
							c-0.746,1.927-1.668,4.224-3.027,6.604c-1.328,2.393-2.991,4.916-4.963,7.384c-3.977,4.917-8.142,8.835-11.085,11.716
							c-1.44,1.384-2.628,2.525-3.52,3.383c-0.836,0.794-1.31,1.222-1.335,1.197c-0.026-0.025,0.4-0.501,1.192-1.34
							c0.789-0.842,1.957-2.034,3.404-3.501c2.877-2.948,6.993-6.902,10.937-11.779c3.938-4.887,6.568-9.969,8.053-13.795
							c0.724-1.921,1.277-3.493,1.59-4.601C187.808,326.126,188.012,325.521,188.047,325.53z"/>
					</g>
				</g>
				<g>
					<g>
						<path style="fill:#455A64;" d="M212.975,326.502c-0.01,0.079-1.421-0.051-3.703-0.179c-2.282-0.132-5.438-0.225-8.924-0.151
							c-3.488,0.067-6.641,0.274-8.924,0.429c-2.283,0.16-3.696,0.265-3.705,0.19c-0.004-0.036,0.344-0.108,0.978-0.207
							c0.634-0.102,1.554-0.221,2.694-0.349c2.28-0.249,5.442-0.516,8.946-0.583c3.503-0.074,6.678,0.078,8.962,0.305
							c1.143,0.108,2.064,0.229,2.698,0.333C212.632,326.393,212.98,326.467,212.975,326.502z"/>
					</g>
				</g>
				<g>
					<g>
						<path style="fill:#263238;" d="M203.349,423.801c-0.018,0-0.043-0.237-0.074-0.691c-0.028-0.506-0.065-1.165-0.111-1.984
							c-0.08-1.784-0.19-4.262-0.326-7.297c-0.27-6.161-0.643-14.673-1.232-24.062c-0.593-9.392-1.291-17.884-1.795-24.03
							c-0.246-3.028-0.447-5.5-0.592-7.28c-0.057-0.818-0.103-1.476-0.139-1.982c-0.026-0.453-0.031-0.693-0.013-0.694
							c0.018-0.002,0.058,0.234,0.118,0.684c0.06,0.503,0.139,1.158,0.236,1.972c0.185,1.777,0.442,4.244,0.757,7.266
							c0.599,6.14,1.355,14.631,1.949,24.031c0.589,9.396,0.904,17.915,1.08,24.081c0.067,3.038,0.121,5.518,0.161,7.304
							c0.005,0.82,0.01,1.48,0.013,1.987C203.377,423.561,203.367,423.8,203.349,423.801z"/>
					</g>
				</g>
				<g>
					<g>
						<path style="fill:#455A64;" d="M232.534,352.839c0.144,0.002,0.047,19-0.217,42.429c-0.263,23.437-0.594,42.429-0.737,42.428
							c-0.144-0.002-0.047-18.996,0.217-42.433C232.06,371.834,232.391,352.838,232.534,352.839z"/>
					</g>
				</g>
				<g>
					<g>
						<path style="fill:#263238;" d="M210.145,349.741c0.048,0.159-2.811,0.877-5.852,2.763c-3.06,1.858-4.995,4.081-5.115,3.966
							c-0.049-0.041,0.371-0.651,1.2-1.51c0.826-0.859,2.087-1.943,3.643-2.9c1.558-0.954,3.095-1.587,4.235-1.934
							C209.397,349.777,210.13,349.679,210.145,349.741z"/>
					</g>
				</g>
				<g style="opacity:0.3;">
					<g>
						<path d="M162.292,362.251c5.533,1.022,11.612-0.673,16.352-3.631c4.74-2.958,8.249-7.726,9.599-13.043
							c0.606-2.389,0.791-4.864,1.393-7.253c0.603-2.389,1.702-4.779,3.711-6.275c2.323-1.729,8.038-2.831,9.741-5.144
							c0-0.349-6.775,0.436-9.049,0.561c-2.475,0.136-6.626,0.764-6.542,0.472c0,0-1.657,5.81-2.393,7.073
							C180.156,343.498,169.306,355.969,162.292,362.251"/>
					</g>
				</g>
			</g>
			<g>
				<g>
					<polygon style="fill:#263238;" points="49.161,420.945 56.875,471.413 64.53,471.413 60.761,421.136 					"/>
				</g>
				<g>
					<polygon style="fill:#263238;" points="184.949,421.136 184.949,471.413 193.03,471.413 196.038,420.945 					"/>
				</g>
				<g>
					<g>
						<path style="fill:#455A64;" d="M47.793,264.965c0,0-10.808,0.429-14.119,4.964c-5.834,7.991-2.556,14.92-2.881,17.283
							c-0.325,2.363,18.368,133.734,18.368,133.734h7.695l139.181,1.285l6.678-16.24l-3.212-43.914l-37.212,0.166
							c0,0-15.238-43.741-28.561-46.665c-9.022-1.98-30.213-1.279-42.956-0.619c-6.363,0.329-12.416-2.756-15.877-8.105
							L47.793,264.965z"/>
					</g>
					<g>
						<g>
							<path style="fill:#263238;" d="M171.146,415.784c0,0-0.766,0.099-2.246,0.17c-1.478,0.043-3.661,0.111-6.483,0.136
								c-5.643,0.076-13.836,0.102-24.04,0.093c-20.407-0.016-48.854-0.177-81.016-0.456l-0.208-0.002l-0.042-0.202
								c-0.578-2.754-1.172-5.581-1.775-8.455c-0.577-2.88-1.164-5.808-1.755-8.759c-6.987-35.621-11.083-68.257-13.285-91.925
								c-1.107-11.837-1.77-21.435-2.19-28.069c-0.182-3.306-0.323-5.878-0.42-7.643c-0.041-0.862-0.072-1.523-0.094-1.988
								c-0.018-0.448-0.014-0.678-0.014-0.678s0.032,0.228,0.067,0.675c0.034,0.465,0.082,1.125,0.145,1.985
								c0.119,1.764,0.294,4.332,0.518,7.635c0.482,6.629,1.201,16.219,2.354,28.047c2.295,23.651,6.446,56.26,13.429,91.86
								c0.59,2.949,1.176,5.876,1.753,8.754c0.602,2.873,1.194,5.699,1.771,8.451l-0.25-0.204
								c32.152,0.249,60.592,0.47,81.012,0.628c10.19,0.027,18.378,0.049,24.037,0.064c2.808-0.02,4.985-0.035,6.481-0.045
								c0.739-0.001,1.296-0.055,1.675-0.062C170.95,415.78,171.146,415.784,171.146,415.784z"/>
						</g>
					</g>
					<g>
						<g>
							<path style="fill:#263238;" d="M169.68,421.986c-0.018-0.004,0.003-0.219,0.057-0.625c0.068-0.46,0.156-1.048,0.263-1.773
								c0.125-0.768,0.275-1.707,0.396-2.805c0.125-1.097,0.32-2.34,0.418-3.727c0.126-1.384,0.267-2.899,0.326-4.532
								c0.11-1.63,0.115-3.376,0.139-5.212c-0.021-3.672-0.216-7.708-0.696-11.919c-0.505-4.209-1.248-8.183-2.059-11.765
								c-0.84-3.576-1.748-6.761-2.61-9.403c-0.398-1.332-0.847-2.508-1.202-3.554c-0.352-1.048-0.691-1.936-0.97-2.662
								c-0.254-0.688-0.46-1.245-0.621-1.681c-0.137-0.387-0.201-0.593-0.184-0.6c0.017-0.007,0.113,0.186,0.281,0.56
								c0.185,0.427,0.421,0.973,0.713,1.647c0.309,0.716,0.677,1.596,1.055,2.637c0.382,1.039,0.856,2.209,1.279,3.539
								c0.91,2.636,1.858,5.823,2.727,9.409c0.841,3.592,1.601,7.583,2.109,11.814c0.483,4.232,0.664,8.291,0.659,11.981
								c-0.038,1.845-0.058,3.598-0.188,5.234c-0.077,1.639-0.241,3.159-0.39,4.546c-0.121,1.39-0.343,2.634-0.496,3.73
								c-0.148,1.098-0.328,2.035-0.484,2.799c-0.147,0.719-0.267,1.302-0.36,1.758C169.753,421.781,169.698,421.99,169.68,421.986z
								"/>
						</g>
					</g>
					<g>
						<g>
							<path style="fill:#263238;" d="M67.691,327.869c-0.011-0.014,0.183-0.177,0.563-0.474c0.425-0.324,0.983-0.75,1.68-1.282
								c0.372-0.279,0.78-0.585,1.224-0.918c0.467-0.305,0.994-0.608,1.551-0.948c1.125-0.659,2.364-1.494,3.868-2.162
								c0.741-0.36,1.515-0.736,2.32-1.127c0.804-0.399,1.694-0.69,2.586-1.06c0.904-0.339,1.818-0.753,2.8-1.061
								c0.982-0.31,1.992-0.629,3.027-0.956c4.169-1.206,8.84-2.282,13.818-2.874c4.971-0.629,9.748-0.925,14.089-0.855
								c2.172-0.038,4.231,0.138,6.159,0.208c1.922,0.178,3.717,0.302,5.342,0.533c3.256,0.422,5.862,0.962,7.642,1.402
								c0.845,0.234,1.521,0.422,2.036,0.564c0.464,0.134,0.704,0.213,0.699,0.231c-0.005,0.017-0.255-0.028-0.727-0.129
								c-0.519-0.118-1.202-0.274-2.054-0.468c-1.788-0.378-4.393-0.86-7.641-1.234c-1.621-0.206-3.411-0.309-5.325-0.467
								c-1.921-0.051-3.972-0.21-6.134-0.159c-4.322-0.044-9.075,0.265-14.021,0.891c-4.953,0.589-9.598,1.645-13.749,2.818
								c-1.031,0.318-2.037,0.628-3.015,0.929c-0.979,0.298-1.888,0.702-2.79,1.03c-0.89,0.358-1.778,0.639-2.581,1.025
								c-0.805,0.378-1.579,0.742-2.319,1.09c-1.506,0.643-2.747,1.45-3.881,2.081c-0.561,0.326-1.092,0.615-1.565,0.906
								c-0.45,0.317-0.865,0.609-1.243,0.876c-0.719,0.497-1.295,0.896-1.732,1.199C67.918,327.748,67.702,327.883,67.691,327.869z"
								/>
						</g>
					</g>
				</g>
				<g>
					<g>
						<path style="fill:#FFFFFF;" d="M150.406,334.979c0.009,0.003-0.024,0.114-0.095,0.329c-0.075,0.213-0.174,0.537-0.338,0.948
							c-0.365,0.803-0.952,1.991-2.053,3.276c-1.094,1.282-2.696,2.64-4.81,3.777c-1.066,0.55-2.248,1.053-3.544,1.467
							c-1.302,0.392-2.711,0.699-4.213,0.862c-3.006,0.322-6.331,0.078-9.806-0.555c-3.482-0.624-7.12-1.628-10.963-2.552
							c-3.837-0.902-7.94-1.711-12.222-1.615c-2.135,0.037-4.303,0.339-6.405,0.983c-2.104,0.635-4.105,1.683-5.932,3.007
							c-3.675,2.666-6.405,6.277-8.686,9.892c-2.285,3.636-4.097,7.384-6.027,10.852c-1.914,3.472-3.931,6.696-6.258,9.377
							c-2.302,2.688-4.941,4.814-7.695,6.078c-2.749,1.255-5.481,1.833-7.878,1.857c-2.403,0.032-4.459-0.45-6.003-1.123
							c-0.789-0.31-1.413-0.732-1.97-1.064c-0.515-0.394-0.952-0.729-1.278-1.027c-0.289-0.305-0.518-0.547-0.693-0.731
							c-0.153-0.167-0.229-0.254-0.222-0.26c0.007-0.006,0.095,0.07,0.261,0.224c0.183,0.174,0.422,0.402,0.724,0.69
							c0.334,0.283,0.778,0.6,1.294,0.976c0.559,0.313,1.181,0.715,1.963,1.006c1.531,0.633,3.556,1.077,5.918,1.018
							c2.356-0.05,5.038-0.645,7.727-1.899c2.691-1.261,5.262-3.357,7.525-6.027c2.283-2.658,4.27-5.86,6.165-9.326
							c1.911-3.459,3.716-7.219,6.014-10.891c2.295-3.647,5.054-7.313,8.813-10.042c1.868-1.355,3.925-2.431,6.085-3.081
							c2.157-0.659,4.374-0.964,6.547-0.998c4.357-0.09,8.494,0.741,12.345,1.659c3.853,0.94,7.476,1.957,10.929,2.594
							c3.446,0.647,6.73,0.907,9.691,0.613c1.478-0.148,2.868-0.438,4.154-0.812c1.28-0.395,2.45-0.879,3.506-1.408
							c2.094-1.096,3.69-2.408,4.792-3.651C149.963,336.862,150.311,334.921,150.406,334.979z"/>
					</g>
				</g>
				<g>
					<g>
						<path style="fill:#FFFFFF;" d="M201.27,398.949c0,0-0.148,0.045-0.439,0.106c-0.314,0.063-0.742,0.149-1.291,0.259
							c-0.573,0.089-1.233,0.387-2.04,0.632c-0.41,0.108-0.802,0.354-1.248,0.545c-0.436,0.215-0.922,0.401-1.381,0.705
							c-1.93,1.051-4.064,2.712-6.372,4.816c-2.32,2.093-4.799,4.666-7.842,7.197c-1.529,1.25-3.2,2.507-5.138,3.492
							c-0.939,0.55-1.996,0.907-3.045,1.322c-0.546,0.146-1.097,0.294-1.653,0.443c-0.552,0.168-1.139,0.193-1.715,0.297
							c-2.323,0.301-4.776,0.17-7.209-0.367c-2.44-0.524-4.836-1.486-7.172-2.667c-4.674-2.389-9.073-5.755-13.275-9.572
							c-4.195-3.805-8.486-7.84-13.491-11.134c-2.5-1.637-5.132-3.026-7.89-3.934c-2.751-0.917-5.621-1.328-8.42-1.167
							c-2.801,0.162-5.497,0.892-7.998,1.917c-2.507,1.026-4.834,2.331-7.047,3.689c-4.421,2.732-8.443,5.652-12.534,7.88
							c-4.104,2.197-8.197,3.725-12.042,4.646c-7.706,1.898-14.222,1.651-18.582,1.12c-4.382-0.584-6.711-1.358-6.711-1.358
							s0.153,0.018,0.444,0.077c0.313,0.067,0.741,0.159,1.29,0.277c1.133,0.241,2.816,0.549,5.001,0.803
							c4.35,0.467,10.83,0.654,18.469-1.276c3.813-0.936,7.865-2.473,11.924-4.667c4.049-2.226,8.053-5.152,12.489-7.91
							c2.222-1.371,4.567-2.693,7.11-3.74c2.536-1.046,5.289-1.797,8.157-1.966c2.866-0.169,5.807,0.251,8.612,1.184
							c2.813,0.924,5.485,2.335,8.011,3.99c5.058,3.33,9.361,7.385,13.55,11.192c4.176,3.804,8.539,7.151,13.15,9.522
							c2.304,1.172,4.662,2.127,7.054,2.648c2.386,0.534,4.783,0.67,7.054,0.385c0.563-0.1,1.137-0.12,1.677-0.283
							c0.544-0.143,1.084-0.285,1.618-0.426c1.028-0.403,2.063-0.745,2.989-1.281c1.907-0.956,3.566-2.189,5.09-3.42
							c3.035-2.493,5.533-5.048,7.88-7.128c2.334-2.091,4.505-3.743,6.468-4.776c0.467-0.299,0.962-0.481,1.405-0.69
							c0.454-0.186,0.852-0.425,1.269-0.527c0.82-0.233,1.49-0.516,2.07-0.589c0.556-0.089,0.99-0.159,1.307-0.21
							C201.118,398.959,201.27,398.949,201.27,398.949z"/>
					</g>
				</g>
				<g>
					<g>
						<path style="fill:#FFFFFF;" d="M62.101,289.72c0.029,0.007-0.045,0.462-0.272,1.264c-0.225,0.802-0.644,1.941-1.336,3.266
							c-1.354,2.637-4.064,6.018-8.155,8.159c-4.096,2.135-8.419,2.428-11.357,2.032c-1.483-0.188-2.657-0.495-3.444-0.769
							c-0.788-0.271-1.203-0.471-1.193-0.499c0.031-0.107,1.745,0.623,4.675,0.902c2.896,0.295,7.097-0.053,11.077-2.128
							c3.975-2.081,6.661-5.329,8.073-7.875C61.615,291.509,61.995,289.685,62.101,289.72z"/>
					</g>
				</g>
			</g>
		</g>
	</g>
</g>
<g id="Notifications">
	<g>
		<g>
			<g>
				<path style="fill:#FFFFFF;" d="M375.043,223.38H185.991c-3.834,0-6.943-3.108-6.943-6.943v-51.175
					c0-3.834,3.108-6.943,6.943-6.943h189.052c3.834,0,6.943,3.108,6.943,6.943v51.175
					C381.986,220.272,378.878,223.38,375.043,223.38z"/>
			</g>
			<g>
				<g>
					<path style="fill:#263238;" d="M375.043,223.38c-0.002-0.031,0.463,0.011,1.339-0.159c0.857-0.181,2.184-0.613,3.439-1.827
						c0.615-0.604,1.215-1.395,1.6-2.393c0.41-0.996,0.537-2.163,0.487-3.442c-0.007-2.554-0.015-5.498-0.024-8.812
						c-0.012-6.633-0.027-14.744-0.044-24.16c-0.006-4.709-0.013-9.745-0.02-15.085c-0.044-1.334,0.129-2.708-0.243-3.996
						c-0.336-1.296-1.099-2.492-2.141-3.387c-1.044-0.896-2.38-1.467-3.786-1.59c-1.413-0.06-2.901-0.014-4.375-0.026
						c-47.426,0.02-112.926,0.047-185.271,0.076c-1.091,0.005-2.172,0.275-3.134,0.776c-0.96,0.507-1.781,1.26-2.401,2.145
						c-0.606,0.897-0.987,1.938-1.115,3.008c-0.091,1.059-0.025,2.222-0.046,3.325c0,4.467-0.001,8.904-0.001,13.309
						c-0.001,8.81-0.003,17.491-0.004,26.021c-0.001,2.132-0.001,4.256-0.001,6.369c0.006,1.052-0.013,2.12,0.012,3.153
						c0.037,1.013,0.305,2.012,0.776,2.904c0.955,1.776,2.728,3.094,4.704,3.427c0.972,0.174,2.018,0.094,3.05,0.114
						c1.031,0,2.059,0.001,3.085,0.001c8.206,0.003,16.239,0.006,24.077,0.009c31.35,0.021,59.581,0.04,83.293,0.056
						c23.703,0.035,42.886,0.063,56.154,0.083c6.623,0.021,11.767,0.038,15.267,0.049c1.739,0.011,3.067,0.02,3.97,0.026
						C374.585,223.362,375.043,223.38,375.043,223.38s-0.458,0.018-1.353,0.027c-0.904,0.006-2.232,0.015-3.97,0.026
						c-3.499,0.011-8.644,0.028-15.267,0.049c-13.267,0.02-32.45,0.048-56.154,0.083c-23.712,0.016-51.943,0.035-83.293,0.056
						c-7.838,0.003-15.871,0.006-24.077,0.009c-1.026,0-2.054,0.001-3.085,0.001c-1.026-0.021-2.063,0.067-3.139-0.12
						c-2.126-0.359-4.033-1.773-5.06-3.682c-0.508-0.959-0.797-2.035-0.837-3.123c-0.027-1.07-0.008-2.111-0.014-3.171
						c-0.001-2.113-0.001-4.236-0.001-6.369c-0.001-8.53-0.003-17.211-0.004-26.021c0-4.405-0.001-8.842-0.001-13.309
						c0.022-1.129-0.049-2.208,0.049-3.383c0.137-1.154,0.549-2.277,1.202-3.243c0.666-0.955,1.552-1.765,2.587-2.312
						c1.037-0.541,2.206-0.832,3.378-0.836c72.345,0.03,137.845,0.057,185.271,0.076c1.489,0.016,2.931-0.029,4.407,0.037
						c1.48,0.132,2.887,0.737,3.982,1.682c1.093,0.943,1.892,2.202,2.243,3.565c0.199,0.675,0.244,1.386,0.247,2.067
						c-0.001,0.677-0.002,1.349-0.002,2.017c-0.007,5.34-0.014,10.375-0.02,15.085c-0.017,9.416-0.032,17.527-0.044,24.16
						c-0.009,3.314-0.017,6.258-0.024,8.812c0.044,1.269-0.095,2.488-0.521,3.491c-0.401,1.014-1.018,1.813-1.648,2.42
						c-1.286,1.219-2.635,1.639-3.501,1.803c-0.444,0.071-0.781,0.107-1.009,0.103C375.158,223.383,375.043,223.38,375.043,223.38z"
						/>
				</g>
			</g>
		</g>
		<g>
			<g>
				<path style="fill:#263238;" d="M367.375,171.674c-0.065,0-0.132-0.026-0.181-0.077c-0.096-0.1-0.092-0.258,0.008-0.354
					l5.001-4.79c0.101-0.094,0.258-0.093,0.353,0.008c0.096,0.1,0.092,0.258-0.008,0.354l-5.001,4.789
					C367.499,171.651,367.437,171.674,367.375,171.674z"/>
			</g>
			<g>
				<path style="fill:#263238;" d="M372.35,171.694c-0.063,0-0.126-0.023-0.175-0.071l-4.95-4.831
					c-0.099-0.096-0.101-0.254-0.004-0.354c0.096-0.097,0.254-0.102,0.354-0.004l4.95,4.83c0.099,0.096,0.101,0.254,0.004,0.354
					C372.48,171.669,372.416,171.694,372.35,171.694z"/>
			</g>
		</g>
		<g>
			<g>
				<path style="fill:#FF725E;" d="M222.782,203.49l-2.041-2.89c-1.23-1.742-1.891-3.822-1.892-5.955l-0.002-6.494
					c-0.002-5.304-3.9-9.697-8.987-10.472l-0.001-3.099c0-0.788-0.639-1.426-1.427-1.426l0,0c-0.788,0-1.426,0.639-1.426,1.427
					l0.001,3.052c-5.268,0.616-9.355,5.093-9.354,10.526l0.002,6.728c0.001,2.313-0.775,4.559-2.202,6.379l-1.753,2.235
					L222.782,203.49z"/>
			</g>
			<g>
				<path style="fill:#FF725E;" d="M206.711,208.213c1.566,0.656,3.499,0.324,4.756-0.818c0.55-0.499,0.958-1.142,1.201-1.842
					l-8.471-0.06C204.613,206.692,205.536,207.721,206.711,208.213z"/>
			</g>
		</g>
		<g>
			<g>
				<path style="fill:#263238;" d="M336.952,180.3c0,0.144-22.733,0.26-50.769,0.26c-28.046,0-50.774-0.117-50.774-0.26
					s22.728-0.26,50.774-0.26C314.219,180.039,336.952,180.156,336.952,180.3z"/>
			</g>
		</g>
		<g>
			<g>
				<path style="fill:#E0E0E0;" d="M360.88,192.588c0,0.144-28.09,0.26-62.733,0.26c-34.655,0-62.738-0.117-62.738-0.26
					c0-0.144,28.084-0.26,62.738-0.26C332.79,192.328,360.88,192.444,360.88,192.588z"/>
			</g>
		</g>
		<g>
			<g>
				<path style="fill:#E0E0E0;" d="M360.88,199.947c0,0.144-28.09,0.26-62.733,0.26c-34.655,0-62.738-0.117-62.738-0.26
					c0-0.144,28.084-0.26,62.738-0.26C332.79,199.687,360.88,199.804,360.88,199.947z"/>
			</g>
		</g>
	</g>
	<g>
		<g>
			<g>
				<path style="fill:#FAFAFA;" d="M342.576,278.238H217.028c-3.834,0-6.943-3.108-6.943-6.943v-30.816
					c0-3.834,3.108-6.943,6.943-6.943h125.547c3.834,0,6.943,3.108,6.943,6.943v30.816
					C349.518,275.13,346.41,278.238,342.576,278.238z"/>
			</g>
			<g>
				<g>
					<path style="fill:#263238;" d="M342.576,278.238c-0.001-0.018,0.313-0.013,0.913-0.094c0.595-0.081,1.5-0.277,2.517-0.879
						c1.002-0.592,2.157-1.605,2.845-3.193c0.343-0.785,0.564-1.7,0.573-2.688c-0.002-0.999-0.005-2.063-0.007-3.189
						c-0.012-4.512-0.027-10.027-0.044-16.428c-0.006-3.202-0.013-6.626-0.02-10.257c0.001-0.914,0.018-1.818-0.221-2.701
						c-0.224-0.882-0.635-1.728-1.207-2.466c-1.132-1.488-2.959-2.5-4.925-2.602c-32.249,0.014-76.78,0.033-125.963,0.055
						c-1.478,0.017-2.958,0.488-4.109,1.414c-1.158,0.904-2.019,2.189-2.366,3.611c-0.189,0.716-0.232,1.423-0.216,2.19l0,2.266
						c0,1.508,0,3.012-0.001,4.509c-0.001,5.99-0.003,11.893-0.004,17.693c0,1.45-0.001,2.894-0.001,4.331
						c0.006,0.714-0.018,1.449,0.032,2.125c0.075,0.685,0.243,1.357,0.506,1.991c0.55,1.255,1.471,2.345,2.633,3.052
						c1.154,0.732,2.51,1.053,3.878,1.009c5.579,0.003,11.041,0.006,16.371,0.009c21.315,0.021,40.51,0.04,56.635,0.056
						c16.113,0.035,29.153,0.063,38.181,0.083c4.498,0.021,7.994,0.038,10.381,0.049c1.177,0.011,2.078,0.02,2.7,0.026
						C342.264,278.22,342.576,278.238,342.576,278.238s-0.312,0.018-0.92,0.027c-0.622,0.006-1.522,0.015-2.7,0.026
						c-2.387,0.011-5.882,0.028-10.381,0.049c-9.028,0.02-22.069,0.048-38.181,0.083c-16.125,0.016-35.32,0.035-56.635,0.056
						c-5.329,0.003-10.791,0.006-16.371,0.009c-1.414,0.049-2.913-0.295-4.142-1.081c-1.249-0.76-2.241-1.929-2.833-3.28
						c-0.284-0.682-0.466-1.404-0.546-2.141c-0.055-0.751-0.029-1.451-0.036-2.173c-0.001-1.437-0.001-2.881-0.001-4.331
						c-0.001-5.8-0.003-11.703-0.004-17.693c0-1.498,0-3.001-0.001-4.509l0-2.266c-0.018-0.744,0.029-1.565,0.232-2.319
						c0.375-1.533,1.302-2.919,2.55-3.893c1.24-0.997,2.839-1.508,4.429-1.524c49.192,0.038,93.73,0.073,125.985,0.099
						c2.073,0.114,3.995,1.188,5.179,2.755c0.6,0.778,1.028,1.67,1.261,2.597c0.248,0.929,0.226,1.889,0.221,2.785
						c-0.007,3.631-0.014,7.054-0.02,10.257c-0.017,6.4-0.032,11.915-0.044,16.428c-0.006,1.127-0.011,2.191-0.016,3.191
						c-0.018,1.013-0.252,1.949-0.611,2.748c-0.719,1.617-1.909,2.634-2.934,3.221c-1.041,0.596-1.961,0.777-2.562,0.841
						C342.889,278.262,342.576,278.238,342.576,278.238z"/>
				</g>
			</g>
		</g>
		<g>
			<g>
				<path style="fill:#263238;" d="M339.479,242.79c-0.065,0-0.132-0.026-0.181-0.077c-0.096-0.1-0.092-0.258,0.008-0.354
					l3.435-3.291c0.101-0.095,0.259-0.092,0.354,0.008c0.096,0.1,0.092,0.258-0.008,0.353l-3.435,3.291
					C339.603,242.767,339.542,242.79,339.479,242.79z"/>
			</g>
			<g>
				<path style="fill:#263238;" d="M342.898,242.805c-0.063,0-0.126-0.023-0.175-0.071l-3.401-3.319
					c-0.099-0.096-0.101-0.254-0.004-0.354c0.096-0.097,0.254-0.102,0.353-0.004l3.401,3.319c0.099,0.096,0.101,0.254,0.004,0.354
					C343.028,242.779,342.964,242.805,342.898,242.805z"/>
			</g>
		</g>
		<g>
			<g>
				<path style="fill:#455A64;" d="M240.134,264.572l-1.402-1.986c-0.845-1.197-1.299-2.626-1.3-4.091l-0.002-4.462
					c-0.001-3.644-2.68-6.662-6.175-7.195l-0.001-2.13c0-0.541-0.439-0.98-0.98-0.98l0,0c-0.541,0-0.98,0.439-0.98,0.98l0.001,2.097
					c-3.619,0.423-6.428,3.499-6.426,7.232l0.001,4.623c0.001,1.589-0.532,3.132-1.513,4.383l-1.204,1.536L240.134,264.572z"/>
			</g>
			<g>
				<path style="fill:#455A64;" d="M229.091,267.817c1.076,0.451,2.404,0.222,3.268-0.562c0.378-0.343,0.658-0.784,0.825-1.266
					l-5.82-0.041C227.65,266.772,228.285,267.479,229.091,267.817z"/>
			</g>
		</g>
		<g>
			<g>
				<path style="fill:#263238;" d="M318.577,248.639c0,0.144-15.619,0.26-34.882,0.26c-19.27,0-34.885-0.117-34.885-0.26
					s15.616-0.26,34.885-0.26C302.957,248.378,318.577,248.495,318.577,248.639z"/>
			</g>
		</g>
		<g>
			<g>
				<path style="fill:#E0E0E0;" d="M335.017,257.082c0,0.144-19.3,0.26-43.102,0.26c-23.81,0-43.106-0.116-43.106-0.26
					c0-0.144,19.296-0.26,43.106-0.26C315.717,256.822,335.017,256.938,335.017,257.082z"/>
			</g>
		</g>
		<g>
			<g>
				<path style="fill:#E0E0E0;" d="M335.017,262.138c0,0.144-19.3,0.26-43.102,0.26c-23.81,0-43.106-0.117-43.106-0.26
					s19.296-0.26,43.106-0.26C315.717,261.878,335.017,261.995,335.017,262.138z"/>
			</g>
		</g>
	</g>
	<g>
		<g>
			<g>
				<path style="fill:#FAFAFA;" d="M342.048,329.558H217.553c-3.834,0-6.943-3.108-6.943-6.943v-30.479
					c0-3.834,3.108-6.943,6.943-6.943h124.495c3.834,0,6.943,3.108,6.943,6.943v30.479
					C348.99,326.45,345.882,329.558,342.048,329.558z"/>
			</g>
			<g>
				<g>
					<path style="fill:#263238;" d="M342.048,329.558c-0.001-0.018,0.311-0.013,0.906-0.093c0.591-0.078,1.488-0.276,2.5-0.866
						c0.997-0.584,2.146-1.583,2.842-3.152c0.347-0.775,0.576-1.681,0.596-2.66c-0.001-0.991-0.002-2.046-0.003-3.163
						c-0.012-4.477-0.027-9.949-0.044-16.299c-0.006-3.177-0.013-6.575-0.02-10.177c0.002-0.907,0.016-1.803-0.22-2.68
						c-0.222-0.875-0.628-1.715-1.194-2.449c-1.12-1.477-2.92-2.499-4.871-2.617c-31.997,0.013-76.18,0.031-124.978,0.051
						c-2.964-0.04-5.762,2.112-6.458,4.958c-0.201,0.706-0.244,1.413-0.233,2.168l0,2.249c0,1.497,0,2.988-0.001,4.474
						c-0.001,5.944-0.003,11.8-0.004,17.555c-0.001,1.439-0.001,2.871-0.001,4.297c0.005,0.709-0.018,1.438,0.032,2.108
						c0.075,0.68,0.242,1.346,0.501,1.975c0.544,1.247,1.454,2.329,2.602,3.04c1.141,0.728,2.484,1.067,3.837,1.031
						c5.536,0.003,10.955,0.006,16.243,0.009c21.149,0.021,40.194,0.04,56.194,0.056c15.987,0.035,28.926,0.063,37.884,0.083
						c4.463,0.021,7.931,0.038,10.3,0.049c1.168,0.011,2.062,0.02,2.679,0.026C341.739,329.54,342.048,329.558,342.048,329.558
						s-0.309,0.018-0.913,0.027c-0.617,0.006-1.511,0.015-2.679,0.026c-2.368,0.011-5.837,0.028-10.3,0.049
						c-8.958,0.02-21.897,0.048-37.884,0.083c-15.999,0.016-35.045,0.035-56.194,0.056c-5.288,0.003-10.707,0.006-16.243,0.009
						c-1.41,0.042-2.886-0.323-4.104-1.104c-1.234-0.763-2.214-1.924-2.799-3.266c-0.28-0.677-0.461-1.394-0.541-2.125
						c-0.055-0.745-0.03-1.44-0.036-2.157c-0.001-1.426-0.001-2.858-0.001-4.297c-0.001-5.755-0.003-11.611-0.004-17.555
						c0-1.486,0-2.977-0.001-4.474l0-2.249c-0.013-0.745,0.034-1.555,0.25-2.302c0.751-3.069,3.766-5.388,6.961-5.345
						c48.809,0.04,93.001,0.076,125.005,0.102c2.057,0.132,3.951,1.215,5.122,2.771c0.593,0.774,1.016,1.659,1.247,2.579
						c0.246,0.922,0.226,1.874,0.221,2.763c-0.007,3.602-0.014,6.999-0.02,10.177c-0.017,6.351-0.032,11.822-0.044,16.299
						c-0.007,1.118-0.014,2.175-0.021,3.167c-0.029,1.004-0.271,1.93-0.634,2.72c-0.728,1.597-1.91,2.601-2.931,3.179
						c-1.037,0.584-1.948,0.765-2.545,0.827C342.359,329.581,342.048,329.558,342.048,329.558z"/>
				</g>
			</g>
		</g>
		<g>
			<g>
				<path style="fill:#263238;" d="M339.027,294.379c-0.065,0-0.132-0.025-0.181-0.077c-0.096-0.1-0.092-0.258,0.008-0.353
					l3.41-3.266c0.101-0.093,0.259-0.093,0.354,0.008c0.096,0.1,0.092,0.258-0.008,0.354l-3.41,3.266
					C339.151,294.356,339.089,294.379,339.027,294.379z"/>
			</g>
			<g>
				<path style="fill:#263238;" d="M342.42,294.394c-0.063,0-0.126-0.023-0.175-0.071l-3.375-3.294
					c-0.099-0.097-0.101-0.255-0.004-0.353c0.097-0.097,0.255-0.102,0.354-0.004l3.375,3.294c0.099,0.097,0.101,0.255,0.004,0.353
					C342.549,294.368,342.485,294.394,342.42,294.394z"/>
			</g>
		</g>
		<g>
			<g>
				<path style="fill:#E0E0E0;" d="M240.431,315.995l-1.392-1.971c-0.839-1.188-1.289-2.606-1.29-4.061l-0.002-4.428
					c-0.001-3.617-2.66-6.612-6.128-7.141l-0.001-2.113c0-0.537-0.436-0.973-0.973-0.973l0,0c-0.537,0-0.973,0.436-0.973,0.973
					l0.001,2.081c-3.592,0.42-6.379,3.473-6.378,7.177l0.002,4.588c0,1.577-0.528,3.109-1.502,4.35l-1.195,1.524L240.431,315.995z"
					/>
			</g>
			<g>
				<path style="fill:#E0E0E0;" d="M229.472,319.215c1.068,0.447,2.386,0.221,3.243-0.558c0.375-0.34,0.653-0.779,0.819-1.256
					l-5.776-0.041C228.042,318.178,228.671,318.88,229.472,319.215z"/>
			</g>
		</g>
		<g>
			<g>
				<path style="fill:#263238;" d="M318.282,300.182c0,0.144-15.501,0.26-34.619,0.26c-19.124,0-34.622-0.117-34.622-0.26
					c0-0.144,15.498-0.26,34.622-0.26C302.781,299.922,318.282,300.038,318.282,300.182z"/>
			</g>
		</g>
		<g>
			<g>
				<path style="fill:#E0E0E0;" d="M334.599,308.561c0,0.144-19.154,0.26-42.777,0.26c-23.631,0-42.781-0.116-42.781-0.26
					c0-0.144,19.15-0.26,42.781-0.26C315.444,308.301,334.599,308.418,334.599,308.561z"/>
			</g>
		</g>
		<g>
			<g>
				<path style="fill:#E0E0E0;" d="M334.599,313.579c0,0.144-19.154,0.26-42.777,0.26c-23.631,0-42.781-0.117-42.781-0.26
					c0-0.144,19.15-0.26,42.781-0.26C315.444,313.319,334.599,313.436,334.599,313.579z"/>
			</g>
		</g>
	</g>
</g>
<g id="Plant">
	<g>
		<g>
			<path style="fill:#455A64;" d="M444.46,272.733c-10.353,5.363-18.291,14.595-23.999,24.761
				c-5.708,10.166-9.387,21.321-13.031,32.396l-3.189,57.116c12.046-20.493,21.714-44.583,24.326-68.21
				c-2.672-0.238-5.344-0.476-8.016-0.714c5.375-0.82,9.886-4.715,12.756-9.332c2.87-4.617,4.348-9.942,5.79-15.184
				c-3.26,0.485-6.52,0.969-9.78,1.454C436.977,289.909,442.529,281.736,444.46,272.733z"/>
		</g>
		<g>
			<g>
				<path style="fill:#FF725E;" d="M444.46,272.733c-10.353,5.363-18.291,14.595-23.999,24.761
					c-5.708,10.166-9.387,21.321-13.031,32.396l-3.189,57.116c12.046-20.493,21.714-44.583,24.326-68.21
					c-2.672-0.238-5.344-0.476-8.016-0.714c5.375-0.82,9.886-4.715,12.756-9.332c2.87-4.617,4.348-9.942,5.79-15.184
					c-3.26,0.485-6.52,0.969-9.78,1.454C436.977,289.909,442.529,281.736,444.46,272.733z"/>
			</g>
		</g>
		<g style="opacity:0.3;">
			<g>
				<path d="M444.46,272.733c-10.353,5.363-18.291,14.595-23.999,24.761c-5.708,10.166-9.387,21.321-13.031,32.396l-3.189,57.116
					c12.046-20.493,21.714-44.583,24.326-68.21c-2.672-0.238-5.344-0.476-8.016-0.714c5.375-0.82,9.886-4.715,12.756-9.332
					c2.87-4.617,4.348-9.942,5.79-15.184c-3.26,0.485-6.52,0.969-9.78,1.454C436.977,289.909,442.529,281.736,444.46,272.733z"/>
			</g>
		</g>
		<g>
			<path style="fill:#FF725E;" d="M402.458,400.39c0,0-26.146-31.294-25.844-61.169h10.562c0,0-11.472-7.544-10.564-11.769
				c0.908-4.225,1.21-20.218,1.21-20.218l9.656,2.414c0,0-7.242-3.621-8.148-9.355c-0.905-5.733,2.112-32.289,2.112-32.289
				s11.769,12.372,15.39,25.046c3.621,12.674,13.126,27.46,10.335,66.086C404.376,397.763,402.458,400.39,402.458,400.39z"/>
		</g>
		<g>
			<path style="fill:#FF725E;" d="M415.713,403.344c0,0,28.326-18.87,34.62-42.954l-8.491-2.311c0,0,10.874-3.555,11.068-7.15
				c0.194-3.595,3.451-16.52,3.451-16.52l-8.292-0.172c0,0,6.615-1.327,8.597-5.738c1.982-4.411,5.366-26.421,5.366-26.421
				s-12.169,7.372-17.853,16.769c-5.684,9.397-16.561,19.206-22.768,50.87C415.205,401.381,415.713,403.344,415.713,403.344z"/>
		</g>
		<g>
			<g>
				<path style="fill:#263238;" d="M388.585,295.29c0.009-0.002,0.042,0.108,0.097,0.324c0.059,0.247,0.135,0.564,0.231,0.962
					c0.2,0.886,0.479,2.129,0.836,3.712c0.364,1.612,0.788,3.589,1.247,5.89c0.467,2.3,1.011,4.917,1.543,7.824
					c1.123,5.802,2.307,12.739,3.525,20.457c1.181,7.724,2.359,16.234,3.405,25.19c1.025,8.962,1.82,17.518,2.432,25.309
					c0.575,7.793,1.005,14.818,1.235,20.723c0.145,2.951,0.212,5.623,0.283,7.969c0.078,2.346,0.117,4.367,0.13,6.019
					c0.014,1.622,0.025,2.897,0.033,3.805c-0.002,0.41-0.004,0.736-0.006,0.99c-0.004,0.223-0.011,0.337-0.021,0.337
					c-0.01,0-0.022-0.114-0.036-0.336c-0.013-0.253-0.029-0.579-0.05-0.988c-0.033-0.907-0.079-2.18-0.138-3.801
					c-0.046-1.651-0.117-3.67-0.225-6.014c-0.1-2.344-0.195-5.013-0.365-7.961c-0.281-5.899-0.752-12.916-1.354-20.701
					c-0.641-7.782-1.45-16.33-2.474-25.285c-1.045-8.949-2.207-17.454-3.359-25.176c-1.189-7.716-2.332-14.655-3.404-20.463
					c-0.507-2.909-1.023-5.53-1.461-7.835c-0.43-2.307-0.822-4.289-1.153-5.907c-0.313-1.592-0.558-2.842-0.733-3.733
					c-0.073-0.403-0.132-0.724-0.177-0.974C388.589,295.406,388.575,295.292,388.585,295.29z"/>
			</g>
		</g>
		<g>
			<path style="fill:#FF725E;" d="M398.831,419.553c0,0-23.927-27.148-31.356-43.559l5.608-2.396
				c-4.065,0.671-8.23-1.076-11.382-3.729c-3.152-2.653-5.467-6.143-7.737-9.582l7.388-1.248
				c-6.718-1.885-12.638-6.47-16.143-12.504c8.719,1.434,16.606,6.223,23.106,12.208c5.264,4.847,9.721,10.474,14.001,16.223
				c2.088,2.804,3.915,5.792,5.438,8.94C391.775,392.216,398.845,409.583,398.831,419.553z"/>
		</g>
		<g>
			<g>
				<path style="fill:#263238;" d="M450.709,317.879c0.009,0.004-0.028,0.099-0.107,0.278c-0.096,0.207-0.216,0.467-0.365,0.79
					c-0.35,0.727-0.835,1.736-1.451,3.015c-1.279,2.608-3.092,6.401-5.288,11.107c-4.397,9.409-10.191,22.542-15.912,37.32
					c-5.71,14.788-10.259,28.404-13.335,38.323c-1.541,4.959-2.751,8.985-3.559,11.775c-0.405,1.361-0.725,2.433-0.955,3.206
					c-0.107,0.339-0.193,0.612-0.262,0.83c-0.062,0.186-0.099,0.28-0.108,0.278c-0.009-0.003,0.009-0.102,0.052-0.293
					c0.055-0.222,0.123-0.5,0.208-0.845c0.206-0.78,0.491-1.862,0.854-3.235c0.744-2.809,1.896-6.854,3.39-11.831
					c2.982-9.956,7.475-23.607,13.192-38.409c5.727-14.793,11.585-27.915,16.077-37.286c2.243-4.688,4.112-8.456,5.451-11.035
					c0.656-1.26,1.172-2.253,1.545-2.969c0.169-0.313,0.306-0.565,0.414-0.766C450.647,317.96,450.7,317.874,450.709,317.879z"/>
			</g>
		</g>
		<g>
			<g>
				<path style="fill:#263238;" d="M400.861,431.187c-0.019,0.002-0.061-0.17-0.122-0.498c-0.066-0.394-0.145-0.869-0.24-1.44
					c-0.186-1.252-0.502-3.059-0.943-5.277c-0.433-2.221-1.05-4.844-1.835-7.729c-0.811-2.877-1.803-6.012-3.013-9.243
					c-1.228-3.225-2.555-6.235-3.849-8.93c-1.318-2.684-2.588-5.061-3.731-7.013c-1.135-1.957-2.092-3.52-2.78-4.583
					c-0.306-0.492-0.56-0.9-0.771-1.239c-0.171-0.287-0.254-0.443-0.238-0.454c0.016-0.011,0.129,0.124,0.331,0.39
					c0.235,0.324,0.519,0.713,0.86,1.182c0.745,1.028,1.756,2.564,2.94,4.502c1.191,1.934,2.504,4.303,3.854,6.988
					c1.326,2.697,2.675,5.717,3.91,8.96c1.216,3.249,2.2,6.406,2.987,9.306c0.762,2.907,1.342,5.552,1.726,7.79
					c0.393,2.237,0.65,4.058,0.77,5.322c0.054,0.577,0.099,1.057,0.136,1.456C400.876,431.008,400.88,431.184,400.861,431.187z"/>
			</g>
		</g>
		<g>
			<rect x="380.066" y="424.801" style="fill:#455A64;" width="52.367" height="10.682"/>
		</g>
		<g>
			<polygon style="fill:#455A64;" points="385.056,435.483 390.72,471.413 422.363,471.413 427.643,435.483 			"/>
		</g>
		<g>
			<g>
				<path style="fill:#263238;" d="M429.22,435.483c0,0.155-9.906,0.28-22.124,0.28c-12.221,0-22.126-0.125-22.126-0.28
					c0-0.155,9.904-0.28,22.126-0.28C419.314,435.203,429.22,435.328,429.22,435.483z"/>
			</g>
		</g>
	</g>
</g>
<g id="Speech_Bubble">
	<g>
		<g>
			<g>
				<g>
					<g>
						<g>
							<g>
								<g>
									<g>
										<g>
											<g>
												<g>
													<path style="fill:#FFFFFF;" d="M121.621,170.091l1.089-12.921c-4.495-2.987-8.246-7.215-10.672-12.476
														c-6.977-15.13-0.367-33.05,14.762-40.026c15.129-6.976,33.05-0.367,40.026,14.762
														c6.976,15.129,0.367,33.05-14.762,40.026c-6.317,2.913-13.12,3.45-19.41,1.994l0.015,0.008L121.621,170.091z"/>
												</g>
											</g>
										</g>
									</g>
								</g>
							</g>
							<g>
								<g>
									<g>
										<g>
											<g>
												<g>
													<g>
														<path style="fill:#263238;" d="M121.621,170.091c0.527-0.406,4.037-3.112,11.104-8.56l0.114-0.088l-0.128-0.068
															l-0.015-0.008l-0.064,0.173c2.121,0.49,4.543,0.82,7.202,0.799c2.654-0.039,5.546-0.405,8.504-1.319
															c1.473-0.464,2.98-1.02,4.44-1.781c0.727-0.386,1.479-0.755,2.215-1.173c0.708-0.466,1.426-0.938,2.154-1.417
															c2.82-2.043,5.45-4.684,7.562-7.884c2.114-3.193,3.706-6.941,4.494-11.005c0.786-4.058,0.782-8.437-0.25-12.722
															c-1.038-4.276-3.04-8.449-5.945-12.042c-2.906-3.575-6.669-6.641-11.071-8.562l-1.687-0.715
															c-0.559-0.244-1.155-0.383-1.729-0.58c-0.583-0.167-1.147-0.4-1.742-0.511l-1.769-0.377
															c-0.585-0.148-1.182-0.209-1.777-0.273c-0.595-0.068-1.188-0.136-1.78-0.203c-0.595-0.012-1.189-0.024-1.781-0.036
															c-0.592,0-1.184-0.05-1.771,0.024c-4.71,0.255-9.232,1.611-13.154,3.777c-3.924,2.164-7.271,5.119-9.738,8.531
															c-2.484,3.402-4.157,7.186-5.053,10.963c-0.902,3.782-1.028,7.553-0.573,11.041c0.467,3.499,1.612,6.655,2.919,9.462
															c1.381,2.782,3.092,5.142,4.89,7.076c1.802,1.937,3.691,3.446,5.468,4.63l-0.039-0.082
															C121.982,165.421,121.67,169.457,121.621,170.091c0.058-0.633,0.425-4.665,1.178-12.914l0.005-0.052l-0.044-0.03
															c-1.759-1.188-3.626-2.699-5.405-4.63c-1.776-1.929-3.462-4.278-4.821-7.041c-1.285-2.789-2.41-5.92-2.862-9.386
															c-0.439-3.455-0.305-7.187,0.595-10.928c0.895-3.736,2.557-7.476,5.018-10.835c2.444-3.37,5.756-6.285,9.636-8.42
															c3.879-2.136,8.348-3.472,12.999-3.722c0.579-0.074,1.164-0.023,1.749-0.023c0.585,0.012,1.171,0.024,1.76,0.036
															c0.584,0.067,1.17,0.134,1.758,0.201c0.588,0.063,1.178,0.123,1.755,0.27l1.747,0.372
															c0.588,0.109,1.145,0.34,1.721,0.505c0.567,0.194,1.156,0.331,1.708,0.573l1.666,0.707
															c4.348,1.896,8.065,4.925,10.937,8.454c2.871,3.547,4.853,7.669,5.883,11.893c1.025,4.233,1.034,8.561,0.263,12.574
															c-0.772,4.02-2.34,7.729-4.425,10.893c-2.083,3.171-4.678,5.791-7.466,7.823c-0.719,0.476-1.429,0.947-2.129,1.41
															c-0.729,0.416-1.472,0.783-2.191,1.168c-1.444,0.76-2.936,1.316-4.395,1.781c-2.929,0.917-5.795,1.292-8.429,1.344
															c-2.639,0.033-5.046-0.281-7.157-0.754l-0.064,0.173l0,0l0.015,0.008l-0.014-0.155
															C125.615,166.926,122.141,169.678,121.621,170.091z"/>
													</g>
												</g>
											</g>
										</g>
									</g>
								</g>
							</g>
						</g>
					</g>
				</g>
			</g>
		</g>
		<g>
			<g>
				<path style="fill:#FF725E;" d="M135.158,116.679l0.936,17.557c0.077,1.436,1.211,2.589,2.645,2.689l0,0
					c1.513,0.105,2.843-0.994,3.024-2.5l2.123-17.615c0.161-1.334-0.884-2.507-2.227-2.501l-4.281,0.017
					C136.102,114.331,135.09,115.404,135.158,116.679z"/>
			</g>
			<g>
				<path style="fill:#FF725E;" d="M143.334,145.754c-0.745,2.245-3.169,3.46-5.414,2.715c-2.245-0.745-3.46-3.169-2.715-5.414
					c0.745-2.245,3.169-3.46,5.414-2.715C142.864,141.085,144.08,143.509,143.334,145.754z"/>
			</g>
		</g>
	</g>
</g>
</svg>
