<svg xmlns="http://www.w3.org/2000/svg" xmlns:xlink="http://www.w3.org/1999/xlink" viewBox="0 0 500 500"><defs><clipPath id="freepik--clip-path--inject-2"><polygon points="116.64 416.71 339.31 416.71 339.31 365.88 302.64 274.54 116.64 274.54 116.64 416.71" style="fill:#FF2323;stroke:#263238;stroke-linecap:round;stroke-linejoin:round"></polygon></clipPath></defs><g id="freepik--background-simple--inject-2"><path d="M68.61,211.92S46.44,268.72,79,313.35s88,43.4,131,57.44c22.5,7.35,36.45,27.39,55.9,39.59,62.19,39,155.6-15.64,177-78.75,18.52-54.63,5.65-105.74-38.57-159.17S331.15,79.52,251.69,71.17,100.35,139.84,68.61,211.92Z" style="fill:#FF2323"></path><path d="M68.61,211.92S46.44,268.72,79,313.35s88,43.4,131,57.44c22.5,7.35,36.45,27.39,55.9,39.59,62.19,39,155.6-15.64,177-78.75,18.52-54.63,5.65-105.74-38.57-159.17S331.15,79.52,251.69,71.17,100.35,139.84,68.61,211.92Z" style="fill:#fff;opacity:0.75"></path></g><g id="freepik--Floor--inject-2"><line x1="66.97" y1="401.38" x2="404.97" y2="401.38" style="fill:#fff;stroke:#263238;stroke-linecap:round;stroke-linejoin:round"></line></g><g id="freepik--Plants--inject-2"><path d="M103.75,258.58s0-3.47-4.85-8.32-8-7.63-8-7.63-2.43,8,2.08,12.83a84.82,84.82,0,0,0,10.75,9.36Z" style="fill:#FF2323"></path><path d="M96.71,280.24s0-3.47-4.86-8.32-8-7.63-8-7.63-2.43,8,2.08,12.83a85.06,85.06,0,0,0,10.76,9.37Z" style="fill:#FF2323"></path><path d="M103.45,264.49s.37-3.45,5.71-7.77S117.9,250,117.9,250s1.57,8.19-3.43,12.54a86,86,0,0,1-11.68,8.18Z" style="fill:#FF2323"></path><path d="M94.94,290.07s.72-3.39,6.49-7.12,9.4-5.79,9.4-5.79.7,8.31-4.73,12.11a84.66,84.66,0,0,1-12.47,6.91Z" style="fill:#FF2323"></path><path d="M96.54,318s0-3.46,4.85-8.32,8-7.63,8-7.63,2.43,8-2.08,12.83a85.33,85.33,0,0,1-10.75,9.37Z" style="fill:#FF2323"></path><path d="M96.45,324.77s.5-3.43-3.62-8.93S86,307.15,86,307.15s-3.54,7.56.23,13A85.56,85.56,0,0,0,95.57,331Z" style="fill:#FF2323"></path><path d="M91.67,345s0-3.47,4.85-8.33,8-7.63,8-7.63,2.43,8-2.08,12.84a85.76,85.76,0,0,1-10.75,9.36Z" style="fill:#FF2323"></path><path d="M94.91,363.24S94,359.89,97.5,354s5.78-9.4,5.78-9.4,4.37,7.1,1.24,12.94a85,85,0,0,1-8,11.78Z" style="fill:#FF2323"></path><path d="M104.19,257.69a96.33,96.33,0,0,1-1.33,10.77c-1.92,9.92-6.71,16.32-8.63,25.28s3.59,20.49,2.11,32-6,17.9-4.67,25.58,8,28.48,8,28.48" style="fill:none;stroke:#263238;stroke-linecap:round;stroke-linejoin:round;stroke-width:0.5px"></path><line x1="103.4" y1="266.79" x2="108.63" y2="262.78" style="fill:none;stroke:#263238;stroke-linecap:round;stroke-linejoin:round;stroke-width:0.5px"></line><line x1="103.64" y1="262.17" x2="101.45" y2="258.28" style="fill:none;stroke:#263238;stroke-linecap:round;stroke-linejoin:round;stroke-width:0.5px"></line><path d="M94.52,293.32s4.38-3.28,8.88-6.57" style="fill:none;stroke:#263238;stroke-linecap:round;stroke-linejoin:round;stroke-width:0.5px"></path><path d="M96.71,286.49a69.83,69.83,0,0,0-7.79-11.91" style="fill:none;stroke:#263238;stroke-linecap:round;stroke-linejoin:round;stroke-width:0.5px"></path><path d="M96.71,322.9a54.24,54.24,0,0,1,9.37-12.54" style="fill:none;stroke:#263238;stroke-linecap:round;stroke-linejoin:round;stroke-width:0.5px"></path><path d="M95.86,327.77a61.9,61.9,0,0,0-4.75-9c-2.56-3.77-2.92-4.26-2.92-4.26" style="fill:none;stroke:#263238;stroke-linecap:round;stroke-linejoin:round;stroke-width:0.5px"></path><path d="M91.67,351.32a58,58,0,0,1,3.94-8,50.84,50.84,0,0,1,5.11-6.69" style="fill:none;stroke:#263238;stroke-linecap:round;stroke-linejoin:round;stroke-width:0.5px"></path><path d="M96.49,369.28a14.91,14.91,0,0,1,1.31-7.68c1.83-3.53,3.9-8.16,4.75-10" style="fill:none;stroke:#263238;stroke-linecap:round;stroke-linejoin:round;stroke-width:0.5px"></path><path d="M72,304.92s-.38-2.18,2.14-5.75,4.17-5.65,4.17-5.65,2.39,4.74.09,8.27a53.7,53.7,0,0,1-5.73,7Z" style="fill:#FF2323"></path><path d="M78.73,317.74s-.38-2.18,2.14-5.75S85,306.34,85,306.34s2.39,4.74.09,8.27a53.7,53.7,0,0,1-5.73,7Z" style="fill:#FF2323"></path><path d="M72.79,308.59s-.61-2.12-4.42-4.25-6.22-3.28-6.22-3.28-.09,5.31,3.51,7.49a54.1,54.1,0,0,0,8.22,3.86Z" style="fill:#FF2323"></path><path d="M80.9,323.71s-.82-2-4.84-3.76-6.52-2.61-6.52-2.61.46,5.28,4.27,7.08a53.66,53.66,0,0,0,8.58,3Z" style="fill:#FF2323"></path><path d="M82.93,341.37s-.38-2.17-4-4.69-5.83-3.92-5.83-3.92-.66,5.27,2.7,7.82a53.79,53.79,0,0,0,7.76,4.71Z" style="fill:#FF2323"></path><path d="M83.72,345.63s-.68-2.1,1.3-6,3.33-6.19,3.33-6.19,3,4.35,1.26,8.18A53.75,53.75,0,0,1,85,349.41Z" style="fill:#FF2323"></path><path d="M89.81,363.18s.26-2.19,3.68-4.91,5.6-4.25,5.6-4.25,1,5.22-2.25,8a54.48,54.48,0,0,1-7.48,5.15Z" style="fill:#FF2323"></path><path d="M88.91,357.77s-.38-2.18-4-4.7-5.83-3.92-5.83-3.92-.65,5.27,2.7,7.83a54.3,54.3,0,0,0,7.76,4.7Z" style="fill:#FF2323"></path><path d="M88.86,369.59s.19-2.2-2.63-5.54-4.65-5.27-4.65-5.27-2,4.93.63,8.25a54.6,54.6,0,0,0,6.32,6.52Z" style="fill:#FF2323"></path><path d="M71.58,304.41a61.51,61.51,0,0,0,2,6.61c2.28,6,6,9.5,8.16,14.91s0,13.24,2.14,20.3,5.68,10.58,5.71,15.53-1.92,18.73-1.92,18.73" style="fill:none;stroke:#263238;stroke-linecap:round;stroke-linejoin:round;stroke-width:0.5px"></path><line x1="73.07" y1="310.03" x2="69.35" y2="308.08" style="fill:none;stroke:#263238;stroke-linecap:round;stroke-linejoin:round;stroke-width:0.5px"></line><line x1="72.41" y1="307.16" x2="73.36" y2="304.48" style="fill:none;stroke:#263238;stroke-linecap:round;stroke-linejoin:round;stroke-width:0.5px"></line><path d="M81.52,325.7s-3.1-1.58-6.28-3.15" style="fill:none;stroke:#263238;stroke-linecap:round;stroke-linejoin:round;stroke-width:0.5px"></path><path d="M79.4,321.65a44.85,44.85,0,0,1,3.6-8.31" style="fill:none;stroke:#263238;stroke-linecap:round;stroke-linejoin:round;stroke-width:0.5px"></path><path d="M83.36,344.49a34.72,34.72,0,0,0-7.24-6.85" style="fill:none;stroke:#263238;stroke-linecap:round;stroke-linejoin:round;stroke-width:0.5px"></path><path d="M84.42,347.45a38.47,38.47,0,0,1,2-6.17c1.19-2.64,1.37-3,1.37-3" style="fill:none;stroke:#263238;stroke-linecap:round;stroke-linejoin:round;stroke-width:0.5px"></path><path d="M89.43,365.52a32.88,32.88,0,0,1,4-4.15,20.85,20.85,0,0,0,2.6-2.26" style="fill:none;stroke:#263238;stroke-linecap:round;stroke-linejoin:round;stroke-width:0.5px"></path><path d="M89.6,361.76a36.36,36.36,0,0,0-3.34-4.57,31.45,31.45,0,0,0-3.93-3.64" style="fill:none;stroke:#263238;stroke-linecap:round;stroke-linejoin:round;stroke-width:0.5px"></path><path d="M88.53,373.55a9.48,9.48,0,0,0-1.66-4.68c-1.53-2-3.33-4.69-4.06-5.74" style="fill:none;stroke:#263238;stroke-linecap:round;stroke-linejoin:round;stroke-width:0.5px"></path><path d="M77.76,378.09h31.77a0,0,0,0,1,0,0v23.29a3,3,0,0,1-3,3H80.8a3,3,0,0,1-3-3V378.09A0,0,0,0,1,77.76,378.09Z" style="fill:#263238"></path><path d="M109.25,382.23H77.76a2.49,2.49,0,0,1-2.49-2.49h0a2.49,2.49,0,0,1,2.49-2.48h31.49a2.48,2.48,0,0,1,2.48,2.48h0A2.48,2.48,0,0,1,109.25,382.23Z" style="fill:#263238"></path></g><g id="freepik--display-case--inject-2"><path d="M249.09,271s-10.15-6.55-13.43-7.69a5.4,5.4,0,0,0-2-.36l-.12-.14H217.81l-1,10.49h32.75C249.5,271.41,249.09,271,249.09,271Z" style="fill:#fff;stroke:#263238;stroke-linecap:round;stroke-linejoin:round"></path><path d="M233.52,273.27c-.07-1.86-.48-2.3-.48-2.3s-10.16-6.55-13.43-7.69-4.1.81-4.1.81v9.18Z" style="fill:#263238;stroke:#263238;stroke-linecap:round;stroke-linejoin:round"></path><polygon points="224.69 263.93 229.6 266.88 240.08 266.88 234.35 264.09 224.69 263.93" style="fill:#fff;stroke:#263238;stroke-linecap:round;stroke-linejoin:round"></polygon><polygon points="116.64 416.71 339.31 416.71 339.31 365.88 302.64 274.54 116.64 274.54 116.64 416.71" style="fill:#FF2323"></polygon><g style="clip-path:url(#freepik--clip-path--inject-2)"><polygon points="175.26 373.23 273.83 274.54 253.38 274.54 156.06 373.23 175.26 373.23" style="fill:#fff;opacity:0.7000000000000001"></polygon><polygon points="259.63 373.23 358.2 274.54 337.75 274.54 240.43 373.23 259.63 373.23" style="fill:#fff;opacity:0.7000000000000001"></polygon><polygon points="286.71 373.23 385.28 274.54 364.83 274.54 267.51 373.23 286.71 373.23" style="fill:#fff;opacity:0.7000000000000001"></polygon><polygon points="109.12 373.23 207.69 274.54 187.24 274.54 89.92 373.23 109.12 373.23" style="fill:#fff;opacity:0.7000000000000001"></polygon></g><polygon points="116.64 416.71 339.31 416.71 339.31 365.88 302.64 274.54 116.64 274.54 116.64 416.71" style="fill:none;stroke:#263238;stroke-linecap:round;stroke-linejoin:round"></polygon><rect x="228.89" y="273.95" width="5" height="103.68" transform="translate(-73.02 66.91) rotate(-14.24)" style="fill:#263238"></rect><rect x="116.64" y="271.88" width="191.76" height="6.33" style="fill:#fff;stroke:#263238;stroke-linecap:round;stroke-linejoin:round"></rect><line x1="205.64" y1="291.54" x2="152.64" y2="342.04" style="fill:#fff;stroke:#263238;stroke-linecap:round;stroke-linejoin:round"></line><line x1="151.93" y1="352.48" x2="147.14" y2="357.04" style="fill:#fff;stroke:#263238;stroke-linecap:round;stroke-linejoin:round"></line><line x1="200.14" y1="306.54" x2="157.05" y2="347.61" style="fill:#fff;stroke:#263238;stroke-linecap:round;stroke-linejoin:round"></line><line x1="259.13" y1="337.29" x2="254.14" y2="342.04" style="fill:#fff;stroke:#263238;stroke-linecap:round;stroke-linejoin:round"></line><line x1="307.14" y1="291.54" x2="264.98" y2="331.72" style="fill:#fff;stroke:#263238;stroke-linecap:round;stroke-linejoin:round"></line><line x1="301.64" y1="306.54" x2="248.64" y2="357.04" style="fill:#fff;stroke:#263238;stroke-linecap:round;stroke-linejoin:round"></line><rect x="116.64" y="365.88" width="222.67" height="50.83" style="fill:#fff;stroke:#263238;stroke-linecap:round;stroke-linejoin:round"></rect><path d="M121.93,253h6.93a1.8,1.8,0,0,1,1.8,1.8v16.94a0,0,0,0,1,0,0H120.13a0,0,0,0,1,0,0V254.82A1.8,1.8,0,0,1,121.93,253Z" style="fill:#fff;stroke:#263238;stroke-linecap:round;stroke-linejoin:round"></path><rect x="123.6" y="247.37" width="3.59" height="5.65" style="fill:#fff;stroke:#263238;stroke-linecap:round;stroke-linejoin:round"></rect><path d="M133.74,253h6.93a1.8,1.8,0,0,1,1.8,1.8v16.94a0,0,0,0,1,0,0H131.94a0,0,0,0,1,0,0V254.82A1.8,1.8,0,0,1,133.74,253Z" style="fill:#fff;stroke:#263238;stroke-linecap:round;stroke-linejoin:round"></path><rect x="135.4" y="247.37" width="3.59" height="5.65" style="fill:#fff;stroke:#263238;stroke-linecap:round;stroke-linejoin:round"></rect></g><g id="freepik--character-2--inject-2"><ellipse cx="330.85" cy="426.56" rx="42.29" ry="9.55" style="fill:#FF2323"></ellipse><ellipse cx="330.85" cy="426.56" rx="42.29" ry="9.55" style="fill:#fff;opacity:0.5"></ellipse><path d="M286.64,252.67a51.86,51.86,0,0,1-13,3.47,51.22,51.22,0,0,1-14.44.18,40.93,40.93,0,0,0-7.82-2.09c-4.35-.7-9,1.39-9.22,3.48s3.83,5.39,8.7,7,6.78.18,21.91,1.74,20.86,1.39,23.47-.87a5.88,5.88,0,0,0-.17-8.87C293.24,254.4,286.64,252.67,286.64,252.67Z" style="fill:#fff;stroke:#263238;stroke-linecap:round;stroke-linejoin:round"></path><path d="M320.89,200.85s-3.65,1.39-13.21,3.83-10.78,1.91-12.7,6.43-2.43,16.52-2.78,17.91-3.82,15.82-3.82,15.82-1.05-1.74-2.09.52-3.48,5.57-2.44,6.44,4.53,4,6.61,5.73a17.44,17.44,0,0,0,4.35,2.61l-4.17,28.34,6.78,3.83s1.74-19.65,4.52-33.91,4.87-29.21,7.13-33.38,3.65-7,3.65-7l9.21-16S322.46,200.5,320.89,200.85Z" style="fill:#FF2323;stroke:#263238;stroke-linecap:round;stroke-linejoin:round"></path><path d="M294.81,260.14a147.61,147.61,0,0,0,1.56-18.43,66.84,66.84,0,0,1,3.31-20" style="fill:none;stroke:#263238;stroke-linecap:round;stroke-linejoin:round"></path><path d="M335.32,153.56s2.44-4.87,9.74-4.53,15.82,17,16.17,27.13-4.87,12.17-3,16.69,10.09,6.43,10.09,16.17-2.61,19.48-12.17,21.56-15-1.21-20.35-13-3.47-18.43-2.43-27.64-.17-18.61-.87-23.65S332.54,157,335.32,153.56Z" style="fill:#263238;stroke:#263238;stroke-linecap:round;stroke-linejoin:round"></path><path d="M308.37,209.37a44,44,0,0,1-.52,6.61c-.52,2.78-.35,1.91,1,1.39s4.35-4.7,4.35-4.7S311,209,308.37,209.37Z" style="fill:#fff;stroke:#263238;stroke-linecap:round;stroke-linejoin:round"></path><path d="M322.28,196.68s-5.21,4.87-8.17,7.82a45.76,45.76,0,0,1-5.74,4.87l4.35,8.69s4-7.47,5.21-10.43S322.28,196.68,322.28,196.68Z" style="fill:#fff;stroke:#263238;stroke-linecap:round;stroke-linejoin:round"></path><path d="M306.57,416.1s-5.87,3.91-11,5.26-6.46,2.11-5.86,3.76,3.31,2.71,7.22,3,10.07-1.05,12.77-1.05,7.37,1.5,10.52.45,3.28-2.55,3.07-6.24a17.15,17.15,0,0,0-.66-4.74Z" style="fill:#fff;stroke:#263238;stroke-linecap:round;stroke-linejoin:round"></path><path d="M298.56,269s-1.5,10.5-3,22.5-.25,30.25,1.75,38.25,4.25,12.75,4.75,19.75,5,25,5.75,36.75a136.38,136.38,0,0,1-.25,22.25,11.87,11.87,0,0,1-.75,3.75s-1.75-.25-1.75.75-.25,4.25-.25,4.25a75.65,75.65,0,0,0,7.75,2.25c3.5.75,10.75,1.75,10.75,1.75a47.35,47.35,0,0,0,1-13.25c-.5-7.25,1.75-18.75,1.75-29.25s0-17.5.25-24.25-.25-41.25,0-50.75,6.5-20.25,6.5-27-1.5-8-4-9S298.56,269,298.56,269Z" style="fill:#263238;stroke:#263238;stroke-linecap:round;stroke-linejoin:round"></path><path d="M324.75,418.36s-3.9,2.55-8.56,5.41-8.12,4.06-4.66,6.61,14.73,2.86,19.09,1.66S342,428.28,343.54,428s1.81-1.51,1.35-3.76-12-4.36-15.48-5.71S324.75,418.36,324.75,418.36Z" style="fill:#fff;stroke:#263238;stroke-linecap:round;stroke-linejoin:round"></path><path d="M308.31,288.54l8.25,9s1,25,1,37.5a164.09,164.09,0,0,0,2.5,27.25c.5,2.5,6,24.75,6,31.25s1,16.25,1,17.75-2.25,1.5-2.5,4a15.18,15.18,0,0,1-.75,3.75,93.39,93.39,0,0,1,9,3.5c3,1.5,12,3.5,12.75,3s1.25-5.25,1-8.25-.75-8.25-.75-9.5,1.5-22.5,1.5-33.25-4.75-25.25-6-29.5a32,32,0,0,1-1.25-9.75c0-2.25,6-30,5.75-44s-3.5-20.25-3.5-20.25-11.75,2.75-22.75.75-12.5-1.75-12.5-1.75" style="fill:#263238;stroke:#263238;stroke-linecap:round;stroke-linejoin:round"></path><path d="M321.82,372.56c-1.92-10.75-4.66-26.66-5.06-31.92-.64-8.22-1.27-39.84-1.27-39.84L306,293.85" style="fill:none;stroke:#fff;stroke-linecap:round;stroke-linejoin:round"></path><path d="M323.71,383s-.34-1.83-.87-4.75" style="fill:none;stroke:#fff;stroke-linecap:round;stroke-linejoin:round"></path><path d="M319.19,204.09s.12-1.8,6.62-2.3,10.25,1.75,11.25,5.5-1.75,45.25-1.5,51,0,15.5,0,15.5.75,3-14.5,3.5-18-1.25-23-4.75c0,0,0-4,4.5-28.25s10.79-27.59,12.79-31.09Z" style="fill:#fff;stroke:#263238;stroke-linecap:round;stroke-linejoin:round"></path><path d="M334.28,152.16a22.68,22.68,0,0,0-16.87.7c-9.21,4-7.3,13.39-7.65,16s-2.95,4.86-2.26,8.69S309.76,192,313.59,193a12.7,12.7,0,0,0,7.3-.35s-.7,10.43-3,14.95-5.21,11.3-5.21,11.3,10.08,1.74,13.73,1.57a19.32,19.32,0,0,0,6.09-1.22s1.56-22.08,1.74-26.25.35-8.7,1.91-9.22,6.43-3.83,8-10.26S341.93,154.6,334.28,152.16Z" style="fill:#fff;stroke:#263238;stroke-linecap:round;stroke-linejoin:round"></path><path d="M317.2,174.16s.87,1.57-1.22,2.78-3.65,1.05-2.26,2.09a7.19,7.19,0,0,0,2.08,1.22" style="fill:none;stroke:#263238;stroke-linecap:round;stroke-linejoin:round"></path><path d="M314.11,183.51s3.13,2.6,7.13-.87" style="fill:none;stroke:#263238;stroke-linecap:round;stroke-linejoin:round"></path><path d="M322.8,174.73c0,.81-.46,1.47-1,1.47s-1-.66-1-1.47.46-1.48,1-1.48S322.8,173.91,322.8,174.73Z" style="fill:#263238"></path><path d="M314.8,173.33c0,.82-.46,1.48-1,1.48s-1-.66-1-1.48.47-1.47,1-1.47S314.8,172.52,314.8,173.33Z" style="fill:#263238"></path><path d="M321.59,169.6s2.08-2.09,4.34,1.21" style="fill:none;stroke:#263238;stroke-linecap:round;stroke-linejoin:round"></path><path d="M311.85,168.21s3.48-2.61,4.87,1" style="fill:none;stroke:#263238;stroke-linecap:round;stroke-linejoin:round"></path><path d="M322.63,173.77a8.63,8.63,0,0,0-2.44-.52" style="fill:none;stroke:#263238;stroke-linecap:round;stroke-linejoin:round"></path><path d="M314.63,172.38a8.62,8.62,0,0,0-2.43-.52" style="fill:none;stroke:#263238;stroke-linecap:round;stroke-linejoin:round"></path><path d="M334.28,152.16a19.85,19.85,0,0,0-21.56,4.1c1.1-.77,7.47-3.11,14.64.94,3.56,2,5,6.09,5.18,9.05s3.13,3.65,3,5.39-.87,3.3,1,4,1.39,1.21.52,4.69c-.29,1.17-.71,2.38-.93,3.51l.06,0c1.57-.52,6.43-3.83,8-10.26S341.93,154.6,334.28,152.16Z" style="fill:#263238;stroke:#263238;stroke-linecap:round;stroke-linejoin:round"></path><path d="M335,176.85s2.61-4.17,4.87-3.3,1.05,7.48-2.78,9.22-3.48.52-3.82-1.39" style="fill:#fff;stroke:#263238;stroke-linecap:round;stroke-linejoin:round"></path><path d="M320.89,192.68a39,39,0,0,0,7-3.65" style="fill:none;stroke:#263238;stroke-linecap:round;stroke-linejoin:round"></path><path d="M355.14,263.79a46.07,46.07,0,0,0,1.39,12.7c1.74,6.6,4.53,17.73,4.53,19.12s-2.61,2.78-4,4-1.05,4.17-.87,5.39,3.65,3,3.65,3,3.3,1.74,3.82.69,3.48-3.65,3.83-5.39a97.13,97.13,0,0,0,.35-10.26c0-2.08,1.21-24.86-2.09-32.51l-10.61,1.22Z" style="fill:#fff;stroke:#263238;stroke-linecap:round;stroke-linejoin:round"></path><path d="M324.54,209.89a94.17,94.17,0,0,1,2.26,12.52c.52,5.74-1.74,37.56-2.26,50.77a188.19,188.19,0,0,1-2.08,22.26,76.16,76.16,0,0,0,13.91,1.39c7.3,0,16.51-2.61,16.51-2.61s-7.3-24.17-7.3-31.82,2.09-26.25,2.09-26.25l3.65,22.43a19.86,19.86,0,0,0,7.65.17,28.22,28.22,0,0,0,7.65-2.26s1.56-4.52,1.56-12.69-4.69-19.65-6.6-25.74.35-8.17-5.74-10.08-17.39-6.26-18.61-6.61c0,0-5.73,7.83-8.17,9A4.34,4.34,0,0,1,324.54,209.89Z" style="fill:#FF2323;stroke:#263238;stroke-linecap:round;stroke-linejoin:round"></path><polyline points="344.31 227.01 347.67 236.15 342.07 231.5" style="fill:none;stroke:#263238;stroke-linecap:round;stroke-linejoin:round"></polyline><path d="M357.53,210.05s-8.48,6-10.48,13" style="fill:none;stroke:#263238;stroke-linecap:round;stroke-linejoin:round"></path><path d="M324.54,209.89s6.44,10.43,6.26,11,9.39-20.17,9.39-20.17l-4.87-5.39Z" style="fill:#fff;stroke:#263238;stroke-linecap:round;stroke-linejoin:round"></path><path d="M286.29,245.36c-1,2.26-3.48,5.57-2.44,6.44s4.53,4,6.61,5.73a17.41,17.41,0,0,0,4.34,2.61A92,92,0,0,0,296.2,249l-7.82-4.17S287.33,243.1,286.29,245.36Z" style="fill:#fff;stroke:#263238;stroke-linecap:round;stroke-linejoin:round"></path><path d="M351.49,255.79s-1.74-.17-1.56.87.52,5.39,1,6.26,3,.87,4.17.87,11.65,0,12.35-1.74.17-7.12-.35-8S351.49,255.79,351.49,255.79Z" style="fill:#fff;stroke:#263238;stroke-linecap:round;stroke-linejoin:round"></path><line x1="359.14" y1="307.09" x2="360.53" y2="306.05" style="fill:none;stroke:#263238;stroke-linecap:round;stroke-linejoin:round"></line><path d="M358.8,304.65a6.45,6.45,0,0,1,2.95,2.61" style="fill:none;stroke:#263238;stroke-linecap:round;stroke-linejoin:round"></path><path d="M228.52,245.9l-3.68,7a1.28,1.28,0,0,0,.6,1.76l21.78,10a1.28,1.28,0,0,0,1.69-.63l3.29-7.24a1.28,1.28,0,0,0-.63-1.69l-21.39-9.75A1.28,1.28,0,0,0,228.52,245.9Z" style="fill:#263238;stroke:#263238;stroke-linecap:round;stroke-linejoin:round"></path><path d="M259,257.53s-3.48-6.43-4.87-7.13-4.35-.86-5.39-.17a14.65,14.65,0,0,1-6.43,2.09c-2.26,0-2.26.35-1.39,1.21s1.39,1.74,3.47,1.74,5.05-.34,5.05-.34,1.74,5.91,5,5.91" style="fill:#fff;stroke:#263238;stroke-linecap:round;stroke-linejoin:round"></path><polygon points="351.06 338.29 354.56 387.04 391.06 382.79 380.81 336.29 351.06 338.29" style="fill:#FF2323;stroke:#263238;stroke-linecap:round;stroke-linejoin:round"></polygon><polygon points="351.06 338.29 345.81 384.54 354.56 387.04 351.06 338.29" style="fill:#FF2323;stroke:#263238;stroke-linecap:round;stroke-linejoin:round"></polygon><line x1="351.06" y1="338.29" x2="360.53" y2="306.05" style="fill:none;stroke:#263238;stroke-linecap:round;stroke-linejoin:round"></line><line x1="365.81" y1="306.04" x2="380.81" y2="336.29" style="fill:none;stroke:#263238;stroke-linecap:round;stroke-linejoin:round"></line><path d="M259.06,225.42a14.38,14.38,0,1,0-17.94,13.91l3.44,6,3.28-5.85A14.38,14.38,0,0,0,259.06,225.42Z" style="fill:#263238;stroke:#263238;stroke-linecap:round;stroke-linejoin:round"></path><path d="M246.05,232.91v2.38h-2.12V233a10.1,10.1,0,0,1-5.28-1.7l1.17-2.58a8.6,8.6,0,0,0,4.11,1.5v-3.54c-2.35-.57-5-1.36-5-4.39,0-2.24,1.63-4.17,5-4.55v-2.36h2.12v2.31a9.65,9.65,0,0,1,4.3,1.3l-1.06,2.6a8.78,8.78,0,0,0-3.24-1.1v3.61c2.35.55,4.94,1.33,4.94,4.32C251,230.6,249.38,232.51,246.05,232.91Zm-2.12-9.36v-3c-1.12.25-1.57.87-1.57,1.56S243,223.25,243.93,223.55Zm3.64,5.1c0-.74-.61-1.14-1.52-1.46v2.93C247.11,229.88,247.57,229.33,247.57,228.65Z" style="fill:#FF2323"></path></g></svg>