<svg xmlns="http://www.w3.org/2000/svg" viewBox="0 0 500 500"><g id="freepik--background-complete--inject-4"><rect x="80.81" y="128.74" width="105.97" height="335.84" style="fill:#f5f5f5"></rect><rect x="133.79" y="128.74" width="52.98" height="334.92" style="fill:#ebebeb"></rect><rect x="92.91" y="95.77" width="37.42" height="32.97" style="fill:#f5f5f5"></rect><rect x="121.41" y="95.77" width="8.92" height="32.97" style="fill:#ebebeb"></rect><polyline points="71.98 128.74 71.98 126.82 189.88 126.82 189.88 128.74" style="fill:#e0e0e0"></polyline><rect x="101.73" y="143.12" width="8.97" height="18.91" style="fill:#fafafa"></rect><path d="M133.79,169.46c0,.2-11.86.36-26.49.36s-26.49-.16-26.49-.36,11.86-.36,26.49-.36S133.79,169.26,133.79,169.46Z" style="fill:#e0e0e0"></path><rect x="155.17" y="143.12" width="8.97" height="18.91" style="fill:#e0e0e0"></rect><path d="M187.24,169.46c0,.2-11.86.36-26.49.36s-26.49-.16-26.49-.36,11.85-.36,26.49-.36S187.24,169.26,187.24,169.46Z" style="fill:#e0e0e0"></path><rect x="155.17" y="180.67" width="8.97" height="18.91" style="fill:#e0e0e0"></rect><path d="M187.24,207c0,.2-11.86.36-26.49.36s-26.49-.16-26.49-.36,11.85-.36,26.49-.36S187.24,206.81,187.24,207Z" style="fill:#e0e0e0"></path><rect x="155.17" y="219.36" width="8.97" height="18.91" style="fill:#e0e0e0"></rect><path d="M187.24,245.7c0,.19-11.86.36-26.49.36s-26.49-.17-26.49-.36,11.85-.37,26.49-.37S187.24,245.5,187.24,245.7Z" style="fill:#e0e0e0"></path><rect x="155.17" y="258.04" width="8.97" height="18.91" style="fill:#e0e0e0"></rect><path d="M187.24,284.38c0,.2-11.86.36-26.49.36s-26.49-.16-26.49-.36,11.85-.36,26.49-.36S187.24,284.18,187.24,284.38Z" style="fill:#e0e0e0"></path><rect x="155.17" y="295.62" width="8.97" height="18.91" style="fill:#e0e0e0"></rect><path d="M187.24,322c0,.2-11.86.36-26.49.36s-26.49-.16-26.49-.36,11.85-.36,26.49-.36S187.24,321.76,187.24,322Z" style="fill:#e0e0e0"></path><rect x="155.17" y="333.35" width="8.97" height="18.91" style="fill:#e0e0e0"></rect><rect x="155.17" y="371.57" width="8.97" height="18.91" style="fill:#e0e0e0"></rect><path d="M187.24,359.69c0,.2-11.86.36-26.49.36s-26.49-.16-26.49-.36,11.85-.36,26.49-.36S187.24,359.49,187.24,359.69Z" style="fill:#e0e0e0"></path><rect x="101.73" y="181.25" width="8.97" height="18.91" style="fill:#fafafa"></rect><path d="M133.79,207.58c0,.2-11.86.37-26.49.37s-26.49-.17-26.49-.37,11.86-.36,26.49-.36S133.79,207.38,133.79,207.58Z" style="fill:#e0e0e0"></path><rect x="101.73" y="219.37" width="8.97" height="18.91" style="fill:#fafafa"></rect><path d="M133.79,245.71c0,.2-11.86.36-26.49.36s-26.49-.16-26.49-.36,11.86-.36,26.49-.36S133.79,245.51,133.79,245.71Z" style="fill:#e0e0e0"></path><rect x="101.73" y="257.5" width="8.97" height="18.91" style="fill:#fafafa"></rect><path d="M133.79,283.83c0,.2-11.86.36-26.49.36s-26.49-.16-26.49-.36,11.86-.36,26.49-.36S133.79,283.63,133.79,283.83Z" style="fill:#e0e0e0"></path><rect x="101.73" y="295.62" width="8.97" height="18.91" style="fill:#fafafa"></rect><path d="M133.79,322c0,.2-11.86.36-26.49.36s-26.49-.16-26.49-.36,11.86-.36,26.49-.36S133.79,321.76,133.79,322Z" style="fill:#e0e0e0"></path><rect x="101.73" y="333.74" width="8.97" height="18.91" style="fill:#fafafa"></rect><path d="M133.79,360.08c0,.2-11.86.36-26.49.36s-26.49-.16-26.49-.36,11.86-.36,26.49-.36S133.79,359.88,133.79,360.08Z" style="fill:#e0e0e0"></path><rect x="101.73" y="371.87" width="8.97" height="18.91" style="fill:#fafafa"></rect><polygon points="157.62 463.75 35.16 463.75 34.62 270.2 157.09 270.2 157.62 463.75" style="fill:#ebebeb"></polygon><rect x="95.86" y="270.2" width="61.23" height="193.55" style="fill:#e0e0e0"></rect><rect x="48.61" y="232.1" width="43.25" height="38.1" style="fill:#ebebeb"></rect><rect x="81.55" y="232.1" width="10.31" height="38.1" style="fill:#e0e0e0"></rect><rect x="24.42" y="267.98" width="136.25" height="2.22" style="fill:#e0e0e0"></rect><rect x="58.8" y="286.82" width="10.37" height="21.86" style="fill:#fff"></rect><path d="M95.86,317.26c0,.23-13.71.42-30.62.42s-30.62-.19-30.62-.42,13.71-.42,30.62-.42S95.86,317,95.86,317.26Z" style="fill:#e0e0e0"></path><rect x="120.56" y="286.82" width="10.37" height="21.86" style="fill:#f5f5f5"></rect><path d="M157.62,317.26c0,.23-13.71.42-30.61.42s-30.62-.19-30.62-.42,13.71-.42,30.62-.42S157.62,317,157.62,317.26Z" style="fill:#ebebeb"></path><rect x="120.56" y="330.22" width="10.37" height="21.86" style="fill:#f5f5f5"></rect><path d="M157.62,360.65c0,.24-13.71.42-30.61.42s-30.62-.18-30.62-.42,13.71-.41,30.62-.41S157.62,360.42,157.62,360.65Z" style="fill:#ebebeb"></path><rect x="120.56" y="374.92" width="10.37" height="21.86" style="fill:#f5f5f5"></rect><path d="M157.62,405.36c0,.23-13.71.42-30.61.42s-30.62-.19-30.62-.42,13.71-.42,30.62-.42S157.62,405.13,157.62,405.36Z" style="fill:#ebebeb"></path><rect x="120.56" y="419.63" width="10.37" height="21.86" style="fill:#f5f5f5"></rect><path d="M157.62,450.07c0,.23-13.71.41-30.61.41s-30.62-.18-30.62-.41,13.71-.42,30.62-.42S157.62,449.84,157.62,450.07Z" style="fill:#ebebeb"></path><rect x="58.8" y="330.88" width="10.37" height="21.86" style="fill:#fff"></rect><path d="M95.86,361.32c0,.23-13.71.41-30.62.41s-30.62-.18-30.62-.41,13.71-.42,30.62-.42S95.86,361.09,95.86,361.32Z" style="fill:#e0e0e0"></path><rect x="58.8" y="374.94" width="10.37" height="21.86" style="fill:#fff"></rect><path d="M95.86,405.38c0,.23-13.71.41-30.62.41s-30.62-.18-30.62-.41S48.33,405,65.24,405,95.86,405.15,95.86,405.38Z" style="fill:#e0e0e0"></path><rect x="58.8" y="419" width="10.37" height="21.86" style="fill:#fff"></rect><path d="M95.86,449.43c0,.24-13.71.42-30.62.42s-30.62-.18-30.62-.42S48.33,449,65.24,449,95.86,449.2,95.86,449.43Z" style="fill:#e0e0e0"></path><rect x="270.3" y="303.66" width="121.5" height="160.25" style="fill:#ebebeb"></rect><rect x="334.82" y="303.66" width="56.97" height="160.25" style="fill:#e0e0e0"></rect><rect x="295.77" y="325.35" width="10.92" height="26.54" style="fill:#f5f5f5"></rect><rect x="295.77" y="429.23" width="10.92" height="26.54" style="fill:#f5f5f5"></rect><path d="M334.82,362.31c0,.3-14.44.54-32.26.54s-32.26-.24-32.26-.54,14.44-.54,32.26-.54S334.82,362,334.82,362.31Z" style="fill:#f5f5f5"></path><rect x="295.77" y="377.69" width="10.92" height="26.54" style="fill:#f5f5f5"></rect><path d="M334.82,414.64c0,.3-14.44.54-32.26.54s-32.26-.24-32.26-.54,14.44-.54,32.26-.54S334.82,414.35,334.82,414.64Z" style="fill:#f5f5f5"></path><rect x="346.92" y="325.35" width="10.92" height="26.54" style="fill:#f5f5f5"></rect><rect x="370.62" y="325.35" width="10.92" height="26.54" style="fill:#f5f5f5"></rect><rect x="346.92" y="375.72" width="10.92" height="26.54" style="fill:#f5f5f5"></rect><rect x="370.62" y="375.72" width="10.92" height="26.54" style="fill:#f5f5f5"></rect><rect x="346.92" y="426.08" width="10.92" height="26.54" style="fill:#f5f5f5"></rect><rect x="370.62" y="426.08" width="10.92" height="26.54" style="fill:#f5f5f5"></rect><rect x="261.16" y="298.08" width="139.76" height="5.78" style="fill:#e0e0e0"></rect><path d="M392.64,304.4c0,.3-27.16.54-60.65.54s-60.65-.24-60.65-.54,27.15-.54,60.65-.54S392.64,304.1,392.64,304.4Z" style="fill:#ebebeb"></path><path d="M390.74,70.51c.59-4.28-5.45-7.8-10-8.16-2.16-.18-4.41.15-6.46-.56-4.44-1.55-6.21-7.29-10.54-9.11-3.24-1.37-7-.15-10.11,1.43s-6.24,3.57-9.75,3.79c-3.05.2-6.37-.93-9,.56-2,1.11-3,3.4-4.86,4.75s-4.14,1.6-6.36,1.73-4.53.14-6.56,1.07-3.7,3.07-3.28,5.26Z" style="fill:#ebebeb"></path><path d="M476.7,120.08c.89-6.43-8.19-11.72-15-12.27-3.25-.27-6.63.23-9.71-.84-6.67-2.33-9.34-11-15.85-13.7-4.87-2-10.48-.22-15.2,2.15s-9.38,5.37-14.65,5.7c-4.59.3-9.57-1.4-13.59.84-3,1.67-4.55,5.11-7.31,7.15s-6.22,2.41-9.56,2.59-6.81.22-9.86,1.61-5.56,4.62-4.93,7.91Z" style="fill:#f5f5f5"></path><path d="M96.08,58.83c.45-3.27-4.16-5.95-7.63-6.23-1.65-.14-3.37.12-4.93-.43-3.39-1.18-4.75-5.57-8.06-7-2.48-1.05-5.32-.12-7.72,1.09S63,49,60.28,49.2c-2.33.15-4.86-.72-6.9.42-1.52.85-2.32,2.6-3.72,3.64a8.94,8.94,0,0,1-4.86,1.32,13.83,13.83,0,0,0-5,.81c-1.55.71-2.83,2.35-2.51,4Z" style="fill:#f5f5f5"></path></g><g id="freepik--Floor--inject-4"><path d="M470.18,464.48c0,.15-97.24.26-217.17.26s-217.19-.11-217.19-.26,97.22-.26,217.19-.26S470.18,464.34,470.18,464.48Z" style="fill:#263238"></path></g><g id="freepik--Device--inject-4"><path d="M302.48,464.48l-144.27-.08A31.43,31.43,0,0,1,126.8,433l.07-361.68a31.42,31.42,0,0,1,31.45-31.42l144.27.08A31.42,31.42,0,0,1,334,71.37l-.07,361.69A31.42,31.42,0,0,1,302.48,464.48Z" style="fill:#263238"></path><path d="M303.63,52.69h-28a6.94,6.94,0,0,0-6.79,7.09v5.08a6.94,6.94,0,0,1-6.8,7.09l-54.52,0a7,7,0,0,1-6.79-7.1V59.73a7,7,0,0,0-6.79-7.1H159.65a22,22,0,0,0-22,22l-.07,353a22,22,0,0,0,22,22l144,.08a22,22,0,0,0,22-22l.07-353A22,22,0,0,0,303.63,52.69Z" style="fill:#fff"></path><path d="M303.63,52.69l.76,0a14.45,14.45,0,0,1,2.23.17,20.63,20.63,0,0,1,8.25,2.85,21.22,21.22,0,0,1,5,4.07,22.13,22.13,0,0,1,4.19,6.57,22.79,22.79,0,0,1,1.65,8.94q0,4.88,0,10.37c0,29.33,0,71.76.07,124.18s0,114.86,0,184.18v33a23.53,23.53,0,0,1-.84,6.71,22.24,22.24,0,0,1-2.81,6.2,23.64,23.64,0,0,1-4.59,5.09A22.2,22.2,0,0,1,304.9,450c-4.61.13-9.19,0-13.83.06H263l-57.53,0-29.42,0H161.23a23.21,23.21,0,0,1-14.34-4A22.47,22.47,0,0,1,138.17,434a24.08,24.08,0,0,1-.92-7.44V419.1q0-14.82,0-29.44,0-29.22,0-57.54c0-37.72,0-74.11,0-108.78s0-67.6.05-98.43q0-23.13,0-44.61V75c0-.89.08-1.78.13-2.67s.22-1.77.45-2.62a22.46,22.46,0,0,1,4.63-9.33,22.33,22.33,0,0,1,17.94-8l19.19,0h13.75a7,7,0,0,1,4.33,1.21,7.3,7.3,0,0,1,2.7,3.53,11.77,11.77,0,0,1,.44,4.35v2.14a16.08,16.08,0,0,0,.07,2.1,7,7,0,0,0,1.64,3.69A6.47,6.47,0,0,0,206,71.53a7.24,7.24,0,0,0,2,.2h10l29,.05,12.8,0c1,0,2,0,3,0a6.38,6.38,0,0,0,2.69-1,7,7,0,0,0,3.09-4.43,12.58,12.58,0,0,0,.17-2.67V61.08a14.55,14.55,0,0,1,.12-2.56,7.37,7.37,0,0,1,.83-2.36,6.92,6.92,0,0,1,3.51-3.11,10.85,10.85,0,0,1,4.37-.46l14.28,0,8.78,0,3,0-3,0-8.78,0-14.28,0a10.68,10.68,0,0,0-4.29.47,6.69,6.69,0,0,0-3.4,3,7.25,7.25,0,0,0-.8,2.29,15.07,15.07,0,0,0-.11,2.53v2.64a12,12,0,0,1-.17,2.72,7.23,7.23,0,0,1-3.18,4.6,6.91,6.91,0,0,1-2.8,1c-1,.09-2,0-3,0H208a7.66,7.66,0,0,1-2.07-.2,6.88,6.88,0,0,1-3.56-2.2,7.37,7.37,0,0,1-1.74-3.88,17.23,17.23,0,0,1-.07-2.15V61.52a11.39,11.39,0,0,0-.43-4.21A6.94,6.94,0,0,0,197.59,54a6.65,6.65,0,0,0-4.11-1.13H160.54A21.86,21.86,0,0,0,143,60.64a22.11,22.11,0,0,0-4.53,9.13c-.22.84-.28,1.71-.43,2.57s-.11,1.74-.12,2.62V80.3q0,21.47,0,44.61c0,30.83,0,63.77,0,98.43s0,71.06,0,108.78v57.54q0,14.63,0,29.44v7.42a23.44,23.44,0,0,0,.9,7.27,21.83,21.83,0,0,0,8.48,11.71,22.55,22.55,0,0,0,14,3.85h14.86l29.42,0,57.53,0,28,0c4.62,0,9.25.07,13.8-.06a21.65,21.65,0,0,0,12.37-4.8,23.06,23.06,0,0,0,4.46-4.95,21.53,21.53,0,0,0,2.74-6,23,23,0,0,0,.83-6.55v-6.68q0-13.31,0-26.31c0-69.32.07-131.75.1-184.18s.1-94.85.13-124.18c0-3.66,0-7.12,0-10.37a22.62,22.62,0,0,0-1.6-8.87,21.93,21.93,0,0,0-4.14-6.54,22,22,0,0,0-13.17-7,18.66,18.66,0,0,0-2.22-.2Z" style="fill:#263238"></path><path d="M307.89,88.34c0,.1-3.64.2-8.13.24s-8.12,0-8.12-.11,3.63-.2,8.12-.23S307.89,88.25,307.89,88.34Z" style="fill:#263238"></path><path d="M307.92,92.5c0,.09-3.63.2-8.12.24s-8.13,0-8.13-.11,3.64-.2,8.13-.24S307.92,92.4,307.92,92.5Z" style="fill:#263238"></path><path d="M308,96.66c0,.09-3.64.2-8.13.23s-8.12,0-8.12-.1,3.63-.2,8.12-.24S308,96.56,308,96.66Z" style="fill:#263238"></path><path d="M160.09,101.4l.34,0,.94,0,3.46-.08-.09.09c0-.77,0-1.61,0-2.51,0-.47,0-.91,0-1.45a1.34,1.34,0,0,1,1.17-1.07c.56,0,1,0,1.66,0a1.35,1.35,0,0,1,1.13,1.34c0,1.17,0,2.4,0,3.67l-.16-.16,4.38,0-.17.17c0-1.77,0-3.59,0-5.46,0-.46,0-.93,0-1.39a1.42,1.42,0,0,0-.61-1l-1.91-1.89-1.85-1.82-.9-.88a2,2,0,0,0-.9-.68,1.17,1.17,0,0,0-1,.19c-.27.23-.55.55-.82.81l-1.57,1.58c-1,1-2,2-2.76,2.85a3,3,0,0,0-.22,1.63c0,.55,0,1.06,0,1.55,0,.94,0,1.77,0,2.48s0,1.16,0,1.59,0,.56,0,.57a3.2,3.2,0,0,1,0-.52c0-.43,0-.94-.05-1.57s0-1.55,0-2.5c0-.5,0-1,0-1.58,0-.28,0-.56,0-.86a1.76,1.76,0,0,1,.25-.91c.81-1,1.77-1.87,2.77-2.93l1.56-1.6c.28-.27.51-.55.84-.83a1.47,1.47,0,0,1,1.27-.25,2.28,2.28,0,0,1,1.05.75l.9.88,1.85,1.81,1.92,1.89a3.65,3.65,0,0,1,.49.53,1.43,1.43,0,0,1,.23.73c0,.47,0,.93,0,1.4,0,1.87,0,3.69,0,5.45v.17h-.17l-4.37,0h-.16v-.16c0-1.27,0-2.49,0-3.67a1.07,1.07,0,0,0-.89-1.06c-.5,0-1.1,0-1.59,0a1.05,1.05,0,0,0-.94.85c0,.44,0,1,0,1.4v2.61h-.09l-3.53,0h-.92A1.45,1.45,0,0,1,160.09,101.4Z" style="fill:#263238"></path><path d="M222.7,111.64c0,1.16-.92,1.83-2.68,1.83h-3.47v-6.7h3.27c1.68,0,2.54.7,2.54,1.74a1.61,1.61,0,0,1-.89,1.48A1.65,1.65,0,0,1,222.7,111.64Zm-4.61-3.7v1.58h1.54c.76,0,1.17-.27,1.17-.8s-.41-.78-1.17-.78Zm3,3.54c0-.56-.43-.83-1.24-.83h-1.81v1.66h1.81C220.71,112.31,221.14,112.06,221.14,111.48Z" style="fill:#263238"></path><path d="M223.39,110.9a2.84,2.84,0,1,1,2.84,2.65A2.66,2.66,0,0,1,223.39,110.9Zm4.15,0a1.32,1.32,0,1,0-1.31,1.42A1.31,1.31,0,0,0,227.54,110.9Z" style="fill:#263238"></path><path d="M229.67,110.9a2.84,2.84,0,1,1,2.83,2.65A2.65,2.65,0,0,1,229.67,110.9Zm4.15,0a1.32,1.32,0,1,0-1.32,1.42A1.31,1.31,0,0,0,233.82,110.9Z" style="fill:#263238"></path><path d="M238.54,111.45l-.72.71v1.31h-1.49v-7.11h1.49v4l2.19-2.07h1.78l-2.15,2.18,2.34,3h-1.81Z" style="fill:#263238"></path><path d="M242.43,106.77a.86.86,0,0,1,.93-.84.84.84,0,0,1,.93.81.93.93,0,0,1-1.86,0Zm.18,1.55h1.5v5.15h-1.5Z" style="fill:#263238"></path><path d="M250.77,110.52v3h-1.5v-2.72c0-.83-.38-1.21-1-1.21S247,110,247,110.93v2.54H245.5v-5.15h1.43v.6a2.24,2.24,0,0,1,1.7-.68A2,2,0,0,1,250.77,110.52Z" style="fill:#263238"></path><path d="M257.5,108.32v4.29c0,1.92-1,2.8-2.9,2.8a4.27,4.27,0,0,1-2.53-.71l.6-1.07a3.11,3.11,0,0,0,1.82.58c1,0,1.51-.48,1.51-1.41v-.22a2.12,2.12,0,0,1-1.63.64,2.49,2.49,0,1,1,0-5,2.07,2.07,0,0,1,1.71.74v-.66ZM256,110.73a1.36,1.36,0,1,0-1.35,1.27A1.25,1.25,0,0,0,256,110.73Z" style="fill:#263238"></path><rect x="156.31" y="199.55" width="61.88" height="55.83" rx="2.55" style="fill:#FF2323"></rect><path d="M236.49,204.86v5.51h-1.28v-2.26h-2.5v2.26h-1.27v-5.51h1.27V207h2.5v-2.17Z" style="fill:#263238"></path><path d="M237.4,208.25a2.33,2.33,0,1,1,2.33,2.18A2.18,2.18,0,0,1,237.4,208.25Zm3.4,0a1.08,1.08,0,1,0-1.07,1.17A1.06,1.06,0,0,0,240.8,208.25Z" style="fill:#263238"></path><path d="M245.6,210.16a1.68,1.68,0,0,1-1,.27,1.39,1.39,0,0,1-1.58-1.52v-1.74h-.66v-.94H243v-1h1.23v1h1.05v.94h-1.05v1.73a.49.49,0,0,0,.52.56.85.85,0,0,0,.5-.16Z" style="fill:#263238"></path><path d="M250.29,208.6h-3.21a1.14,1.14,0,0,0,1.21.85,1.49,1.49,0,0,0,1.07-.41l.65.71a2.48,2.48,0,0,1-4.17-1.5,2.16,2.16,0,0,1,2.26-2.18,2.1,2.1,0,0,1,2.21,2.2C250.31,208.36,250.29,208.49,250.29,208.6Zm-3.23-.72h2.09a1.06,1.06,0,0,0-2.09,0Z" style="fill:#263238"></path><path d="M251.13,204.53h1.23v5.84h-1.23Z" style="fill:#263238"></path><polygon points="258.67 205.83 259.13 206.75 260.14 206.9 259.41 207.62 259.58 208.63 258.67 208.15 257.76 208.63 257.94 207.62 257.2 206.9 258.22 206.75 258.67 205.83" style="fill:#FF2323"></polygon><polygon points="262.63 205.83 263.08 206.75 264.1 206.9 263.37 207.62 263.54 208.63 262.63 208.15 261.72 208.63 261.9 207.62 261.16 206.9 262.18 206.75 262.63 205.83" style="fill:#FF2323"></polygon><polygon points="266.59 205.83 267.05 206.75 268.06 206.9 267.33 207.62 267.5 208.63 266.59 208.15 265.68 208.63 265.86 207.62 265.12 206.9 266.14 206.75 266.59 205.83" style="fill:#FF2323"></polygon><polygon points="270.55 205.83 271.01 206.75 272.02 206.9 271.29 207.62 271.46 208.63 270.55 208.15 269.64 208.63 269.82 207.62 269.08 206.9 270.1 206.75 270.55 205.83" style="fill:#FF2323"></polygon><polygon points="274.51 205.83 274.97 206.75 275.98 206.9 275.25 207.62 275.42 208.63 274.51 208.15 273.6 208.63 273.78 207.62 273.04 206.9 274.06 206.75 274.51 205.83" style="fill:#FF2323"></polygon><path d="M275.28,215.89c0,.15-9.59.26-21.42.26s-21.42-.11-21.42-.26,9.59-.26,21.42-.26S275.28,215.75,275.28,215.89Z" style="fill:#e0e0e0"></path><path d="M309,223.16c0,.14-17.35.26-38.73.26s-38.74-.12-38.74-.26,17.34-.26,38.74-.26S309,223,309,223.16Z" style="fill:#263238"></path><path d="M270.35,230.6c0,.14-8.52.26-19,.26s-19-.12-19-.26,8.51-.26,19-.26S270.35,230.45,270.35,230.6Z" style="fill:#263238"></path><rect x="230.83" y="238.55" width="45.2" height="14.38" rx="6.01" style="fill:#FF2323"></rect><path d="M249.86,246.35c0,.69-.53,1.09-1.56,1.09h-1.94v-4.07h1.83c.93,0,1.46.4,1.46,1.06a1,1,0,0,1-.55.9A1,1,0,0,1,249.86,246.35Zm-2.92-2.5v1.3h1.2c.59,0,.93-.22.93-.65s-.34-.65-.93-.65Zm2.33,2.45c0-.47-.34-.68-1-.68h-1.34V247h1.34C248.93,247,249.27,246.77,249.27,246.3Z" style="fill:#fff"></path><path d="M250.39,245.9a1.61,1.61,0,1,1,1.61,1.58A1.53,1.53,0,0,1,250.39,245.9Zm2.64,0a1,1,0,1,0-2.07,0,1,1,0,1,0,2.07,0Z" style="fill:#fff"></path><path d="M254.09,245.9a1.6,1.6,0,1,1,1.6,1.58A1.53,1.53,0,0,1,254.09,245.9Zm2.63,0a1,1,0,1,0-2.07,0,1,1,0,1,0,2.07,0Z" style="fill:#fff"></path><path d="M259.26,246l-.64.59v.84h-.56v-4.31h.56v2.77l1.68-1.54H261l-1.29,1.28,1.42,1.8h-.69Z" style="fill:#fff"></path><path d="M195.19,245.44a5.4,5.4,0,0,1,0-.63c0-.43,0-1,0-1.76,0-1.57,0-3.79-.06-6.58,0-5.64-.07-13.57-.12-22.9l.24.23-21.49,0c-.06,0,.49-.49.26-.26h0v8.79c0,2.86,0,5.65,0,8.33,0,5.37,0,10.34,0,14.74l-.21-.21,15.6.11,4.34,0,1.15,0a2,2,0,0,1,.41,0,2.37,2.37,0,0,1-.37,0l-1.11,0-4.29,0-15.73.11h-.2v-.21c0-4.4,0-9.37,0-14.74,0-2.68,0-5.47,0-8.33V218c0-.74,0-1.47,0-2.22v-2.22h0c-.23.23.32-.32.27-.26l21.49,0h.24v.24c-.05,9.39-.09,17.38-.12,23.06,0,2.76-.05,5-.07,6.52,0,.72,0,1.29,0,1.72A3.92,3.92,0,0,1,195.19,245.44Z" style="fill:#fff"></path><path d="M191,209.33a28.65,28.65,0,0,1,.24,4.24v.23H191l-2.84,0-.26-.27h0V212.4c0-.38,0-.75,0-1.11l0-2v-.21h.21a15.49,15.49,0,0,1,2.84.21,21.23,21.23,0,0,1-2.84.21l.21-.21c0,.62,0,1.27,0,2,0,.36,0,.73,0,1.11v1.15h0c.23.24-.32-.31-.26-.25l2.84,0-.24.24A35.93,35.93,0,0,1,191,209.33Z" style="fill:#fff"></path><path d="M203.22,245.61a2.71,2.71,0,0,1-.51,0h-1.56l-6,0H195v-.15c-.06-7.17-.1-18.78-.1-31.87v-.26h8.55v.26c0,9.14-.08,17.17-.11,23,0,2.81-.06,5.08-.08,6.7,0,.74,0,1.33,0,1.78a4.17,4.17,0,0,1,0,.6,6.13,6.13,0,0,1,0-.66c0-.47,0-1.08,0-1.84,0-1.63,0-3.92-.07-6.76,0-5.75-.07-13.71-.12-22.78l.26.25h-8l.26-.26c0,13.09,0,24.7-.11,31.87l-.15-.16,5.87.21,1.59.07A4.19,4.19,0,0,1,203.22,245.61Z" style="fill:#fff"></path><rect x="177.12" y="217.56" width="3.33" height="3.33" style="fill:#fff"></rect><rect x="182.78" y="217.56" width="3.33" height="3.33" style="fill:#fff"></rect><rect x="188.43" y="217.56" width="3.33" height="3.33" style="fill:#fff"></rect><rect x="177.12" y="223.29" width="3.33" height="3.33" style="fill:#fff"></rect><rect x="182.78" y="223.29" width="3.33" height="3.33" style="fill:#fff"></rect><rect x="188.43" y="223.29" width="3.33" height="3.33" style="fill:#fff"></rect><rect x="177.12" y="229.02" width="3.33" height="3.33" style="fill:#fff"></rect><rect x="182.78" y="229.02" width="3.33" height="3.33" style="fill:#fff"></rect><rect x="188.43" y="229.02" width="3.33" height="3.33" style="fill:#fff"></rect><rect x="177.12" y="234.75" width="3.33" height="3.33" style="fill:#fff"></rect><rect x="182.78" y="234.75" width="3.33" height="3.33" style="fill:#fff"></rect><rect x="188.43" y="234.75" width="3.33" height="3.33" style="fill:#fff"></rect><rect x="197.26" y="217.56" width="3.33" height="3.33" style="fill:#fff"></rect><rect x="197.26" y="223.29" width="3.33" height="3.33" style="fill:#fff"></rect><rect x="197.26" y="229.02" width="3.33" height="3.33" style="fill:#fff"></rect><rect x="197.26" y="234.75" width="3.33" height="3.33" style="fill:#fff"></rect><rect x="183.16" y="240.28" width="3.26" height="5.16" style="fill:#fff"></rect><path d="M210.35,245.44c0,.14-10.34.26-23.1.26s-23.09-.12-23.09-.26,10.34-.26,23.09-.26S210.35,245.3,210.35,245.44Z" style="fill:#fff"></path><path d="M312.85,263.12a6.15,6.15,0,0,0,1.22-.18,5,5,0,0,0,2.88-2,4.85,4.85,0,0,0,.84-2.47c0-1,0-2.06,0-3.22q0-3.51,0-8.06c0-12.13,0-29.67-.09-51.34a6.44,6.44,0,0,0-.18-2,4.93,4.93,0,0,0-.91-1.76,4.81,4.81,0,0,0-3.51-1.76h-8.68l-18.44,0-40.69,0-93.24,0a4.78,4.78,0,0,0-4.49,3.17,8,8,0,0,0-.28,3v3.07q0,6.12,0,12.16v23.79c0,7.79,0,15.45,0,22.94a4.81,4.81,0,0,0,3,4.07,5,5,0,0,0,1.28.31c.42,0,.89,0,1.36,0h13.64l76.14.06L294,263l14,.05,3.63,0,1.23,0-1.23,0-3.63,0-14,.05-51.34.08-76.14.05H152.91c-.47,0-.92,0-1.41,0a5.77,5.77,0,0,1-1.42-.34,5.29,5.29,0,0,1-3.3-4.49q0-11.26,0-23v-39c0-.52,0-1,0-1.55a5,5,0,0,1,.31-1.58,5.3,5.3,0,0,1,5-3.52l93.24,0,40.69,0h18.44l8.7,0a5.23,5.23,0,0,1,3.78,1.91,5.14,5.14,0,0,1,1,1.9,7,7,0,0,1,.19,2.07c0,21.67-.06,39.21-.08,51.34q0,4.54,0,8.06c0,1.17,0,2.24,0,3.23a5,5,0,0,1-3.84,4.54,3.88,3.88,0,0,1-.91.13Z" style="fill:#FF2323"></path><rect x="154.48" y="282.09" width="61.88" height="55.83" rx="2.55" style="fill:#FF2323"></rect><path d="M234.66,287.4v5.51h-1.28v-2.26h-2.5v2.26H229.6V287.4h1.28v2.17h2.5V287.4Z" style="fill:#263238"></path><path d="M235.56,290.79a2.33,2.33,0,1,1,2.33,2.18A2.18,2.18,0,0,1,235.56,290.79Zm3.41,0a1.08,1.08,0,1,0-1.08,1.17A1.07,1.07,0,0,0,239,290.79Z" style="fill:#263238"></path><path d="M243.77,292.7a1.72,1.72,0,0,1-1,.27,1.4,1.4,0,0,1-1.59-1.52v-1.74h-.65v-.94h.65v-1h1.23v1h1.06v.94h-1.06v1.73a.5.5,0,0,0,.53.56.88.88,0,0,0,.5-.16Z" style="fill:#263238"></path><path d="M248.45,291.14h-3.2a1.12,1.12,0,0,0,1.21.85,1.45,1.45,0,0,0,1.06-.41l.66.71a2.23,2.23,0,0,1-1.75.68,2.2,2.2,0,0,1-2.42-2.18,2.16,2.16,0,0,1,2.26-2.18,2.09,2.09,0,0,1,2.2,2.2C248.47,290.9,248.46,291,248.45,291.14Zm-3.22-.72h2.09a1.06,1.06,0,0,0-2.09,0Z" style="fill:#263238"></path><path d="M249.29,287.07h1.23v5.84h-1.23Z" style="fill:#263238"></path><polygon points="256.84 288.37 257.29 289.29 258.31 289.44 257.57 290.16 257.75 291.17 256.84 290.69 255.93 291.17 256.1 290.16 255.37 289.44 256.38 289.29 256.84 288.37" style="fill:#FF2323"></polygon><polygon points="260.8 288.37 261.25 289.29 262.27 289.44 261.53 290.16 261.71 291.17 260.8 290.69 259.89 291.17 260.06 290.16 259.33 289.44 260.34 289.29 260.8 288.37" style="fill:#FF2323"></polygon><polygon points="264.76 288.37 265.21 289.29 266.23 289.44 265.49 290.16 265.67 291.17 264.76 290.69 263.85 291.17 264.02 290.16 263.29 289.44 264.3 289.29 264.76 288.37" style="fill:#FF2323"></polygon><polygon points="268.72 288.37 269.17 289.29 270.19 289.44 269.45 290.16 269.63 291.17 268.72 290.69 267.81 291.17 267.98 290.16 267.25 289.44 268.26 289.29 268.72 288.37" style="fill:#e0e0e0"></polygon><polygon points="272.68 288.37 273.13 289.29 274.15 289.44 273.41 290.16 273.59 291.17 272.68 290.69 271.77 291.17 271.94 290.16 271.21 289.44 272.22 289.29 272.68 288.37" style="fill:#e0e0e0"></polygon><path d="M273.44,298.43c0,.15-9.59.26-21.41.26s-21.42-.11-21.42-.26,9.59-.26,21.42-.26S273.44,298.29,273.44,298.43Z" style="fill:#e0e0e0"></path><path d="M307.18,305.7c0,.14-17.34.26-38.73.26s-38.73-.12-38.73-.26,17.34-.26,38.73-.26S307.18,305.55,307.18,305.7Z" style="fill:#263238"></path><path d="M268.51,313.14c0,.14-8.51.26-19,.26s-19-.12-19-.26,8.51-.26,19-.26S268.51,313,268.51,313.14Z" style="fill:#263238"></path><path d="M268.18,335.46s.39,0,1.09-.15a6.05,6.05,0,0,0,2.77-1.38,5.88,5.88,0,0,0,2-4.33c0-1,0-2,0-3.11a6,6,0,0,0-1.32-3.1,5.88,5.88,0,0,0-3.12-1.93,7.28,7.28,0,0,0-2-.16h-2.13l-9.24,0-21.18,0a5.78,5.78,0,0,0-5.65,4.65,16.12,16.12,0,0,0-.11,2.62,7.78,7.78,0,0,0,.26,2.53,5.78,5.78,0,0,0,5.45,4.07l17.29.06,11.66.08,3.17.05.82,0,.28,0a1,1,0,0,1-.28,0l-.82,0-3.17,0-11.66.09-17.3.05a6.27,6.27,0,0,1-5.92-4.4,8.15,8.15,0,0,1-.29-2.68,15.74,15.74,0,0,1,.12-2.72,6.22,6.22,0,0,1,1.15-2.57,6.28,6.28,0,0,1,5-2.5l21.18,0,9.24,0h2.13a8.14,8.14,0,0,1,2.09.19,6.24,6.24,0,0,1,3.32,2.09,6.32,6.32,0,0,1,1.36,3.29c.06,1.15,0,2.16,0,3.15a6.11,6.11,0,0,1-2.17,4.48,5.89,5.89,0,0,1-2.88,1.33,4.94,4.94,0,0,1-.82.07A.94.94,0,0,1,268.18,335.46Z" style="fill:#FF2323"></path><path d="M248,328.88c0,.7-.53,1.1-1.56,1.1h-1.94v-4.07h1.82c.94,0,1.46.4,1.46,1a1,1,0,0,1-.54.91A1,1,0,0,1,248,328.88Zm-2.92-2.5v1.31h1.19c.59,0,.93-.23.93-.66s-.34-.65-.93-.65Zm2.33,2.46c0-.47-.35-.68-1-.68h-1.34v1.35h1.34C247.09,329.51,247.44,329.31,247.44,328.84Z" style="fill:#FF2323"></path><path d="M248.56,328.44a1.6,1.6,0,1,1,1.61,1.58A1.53,1.53,0,0,1,248.56,328.44Zm2.64,0a1,1,0,1,0-2.08,0,1,1,0,1,0,2.08,0Z" style="fill:#FF2323"></path><path d="M252.25,328.44a1.6,1.6,0,1,1,1.61,1.58A1.53,1.53,0,0,1,252.25,328.44Zm2.64,0a1,1,0,1,0-2.07,0,1,1,0,1,0,2.07,0Z" style="fill:#FF2323"></path><path d="M257.42,328.55l-.64.59V330h-.55v-4.31h.55v2.76l1.68-1.53h.68l-1.3,1.27,1.43,1.81h-.69Z" style="fill:#FF2323"></path><path d="M193.35,328s0-.23,0-.63,0-1,0-1.76c0-1.57,0-3.79-.07-6.58,0-5.64-.07-13.57-.11-22.91l.23.24-21.49,0,.26-.25h0v8.79c0,2.86,0,5.65,0,8.33,0,5.37,0,10.33,0,14.74l-.21-.21,15.59.11,4.35.05,1.15,0a1.79,1.79,0,0,1,.4,0,2.13,2.13,0,0,1-.36,0l-1.11,0-4.3.06-15.72.11h-.21V328c0-4.41,0-9.37,0-14.74,0-2.68,0-5.47,0-8.33v-8.79h0c-.23.23.32-.32.26-.27l21.49,0h.24v.23c-.05,9.4-.09,17.39-.12,23.06,0,2.77,0,5-.06,6.53,0,.72,0,1.29,0,1.72A3.92,3.92,0,0,1,193.35,328Z" style="fill:#fff"></path><path d="M189.14,291.87a30.26,30.26,0,0,1,.24,4.23v.24h-.24l-2.85,0-.26-.26h0v-1.16c0-.37,0-.74,0-1.1,0-.69,0-1.34,0-2v-.22h.2a15.84,15.84,0,0,1,2.85.21,21.7,21.7,0,0,1-2.85.21l.21-.21,0,2c0,.36,0,.73,0,1.1v1.16h0l-.26-.26,2.85,0-.24.23A35.85,35.85,0,0,1,189.14,291.87Z" style="fill:#fff"></path><path d="M201.38,328.15a4.44,4.44,0,0,1-.51,0h-1.55l-6,0h-.15V328c-.06-7.17-.11-18.79-.11-31.88v-.26h8.55v.25c0,9.15-.09,17.17-.12,23,0,2.81-.05,5.08-.07,6.7,0,.74,0,1.33,0,1.78a2.41,2.41,0,0,1,0,.6,6.13,6.13,0,0,1,0-.66c0-.47,0-1.08,0-1.84,0-1.64,0-3.92-.07-6.76,0-5.75-.07-13.71-.12-22.79l.25.26h-8l.26-.26c0,13.09,0,24.71-.1,31.88l-.15-.16,5.87.21,1.59.07A3.9,3.9,0,0,1,201.38,328.15Z" style="fill:#fff"></path><rect x="175.29" y="300.1" width="3.33" height="3.33" style="fill:#fff"></rect><rect x="180.94" y="300.1" width="3.33" height="3.33" style="fill:#fff"></rect><rect x="186.6" y="300.1" width="3.33" height="3.33" style="fill:#fff"></rect><rect x="175.29" y="305.83" width="3.33" height="3.33" style="fill:#fff"></rect><rect x="180.94" y="305.83" width="3.33" height="3.33" style="fill:#fff"></rect><rect x="186.6" y="305.83" width="3.33" height="3.33" style="fill:#fff"></rect><rect x="175.29" y="311.56" width="3.33" height="3.33" style="fill:#fff"></rect><rect x="180.94" y="311.56" width="3.33" height="3.33" style="fill:#fff"></rect><rect x="186.6" y="311.56" width="3.33" height="3.33" style="fill:#fff"></rect><rect x="175.29" y="317.29" width="3.33" height="3.33" style="fill:#fff"></rect><rect x="180.94" y="317.29" width="3.33" height="3.33" style="fill:#fff"></rect><rect x="186.6" y="317.29" width="3.33" height="3.33" style="fill:#fff"></rect><rect x="195.42" y="300.1" width="3.33" height="3.33" style="fill:#fff"></rect><rect x="195.42" y="305.83" width="3.33" height="3.33" style="fill:#fff"></rect><rect x="195.42" y="311.56" width="3.33" height="3.33" style="fill:#fff"></rect><rect x="195.42" y="317.29" width="3.33" height="3.33" style="fill:#fff"></rect><rect x="181.33" y="322.82" width="3.26" height="5.16" style="fill:#fff"></rect><path d="M208.52,328c0,.14-10.35.26-23.1.26s-23.1-.12-23.1-.26,10.34-.26,23.1-.26S208.52,327.83,208.52,328Z" style="fill:#fff"></path><rect x="155.24" y="364.08" width="61.88" height="55.83" rx="2.55" style="fill:#FF2323"></rect><path d="M235.42,369.39v5.51h-1.28v-2.26h-2.5v2.26h-1.28v-5.51h1.28v2.17h2.5v-2.17Z" style="fill:#263238"></path><path d="M236.32,372.78a2.33,2.33,0,1,1,2.33,2.19A2.19,2.19,0,0,1,236.32,372.78Zm3.41,0a1.08,1.08,0,1,0-1.08,1.18A1.07,1.07,0,0,0,239.73,372.78Z" style="fill:#263238"></path><path d="M244.53,374.7a1.76,1.76,0,0,1-1,.27,1.4,1.4,0,0,1-1.58-1.53v-1.73h-.66v-.95H242v-1h1.22v1h1.06v.95h-1.06v1.72a.5.5,0,0,0,.53.56.88.88,0,0,0,.5-.16Z" style="fill:#263238"></path><path d="M249.21,373.13H246a1.13,1.13,0,0,0,1.21.85,1.41,1.41,0,0,0,1.06-.41l.66.71a2.24,2.24,0,0,1-1.75.69,2.21,2.21,0,0,1-2.42-2.19A2.16,2.16,0,0,1,247,370.6a2.1,2.1,0,0,1,2.21,2.2C249.24,372.89,249.22,373,249.21,373.13Zm-3.22-.72h2.09a1.06,1.06,0,0,0-2.09,0Z" style="fill:#263238"></path><path d="M250.06,369.06h1.22v5.84h-1.22Z" style="fill:#263238"></path><polygon points="257.6 370.37 258.05 371.29 259.07 371.43 258.33 372.15 258.51 373.16 257.6 372.68 256.69 373.16 256.87 372.15 256.13 371.43 257.14 371.29 257.6 370.37" style="fill:#FF2323"></polygon><polygon points="261.56 370.37 262.01 371.29 263.03 371.43 262.29 372.15 262.47 373.16 261.56 372.68 260.65 373.16 260.82 372.15 260.09 371.43 261.11 371.29 261.56 370.37" style="fill:#FF2323"></polygon><polygon points="265.52 370.37 265.97 371.29 266.99 371.43 266.25 372.15 266.43 373.16 265.52 372.68 264.61 373.16 264.79 372.15 264.05 371.43 265.07 371.29 265.52 370.37" style="fill:#e0e0e0"></polygon><polygon points="269.48 370.37 269.93 371.29 270.95 371.43 270.21 372.15 270.39 373.16 269.48 372.68 268.57 373.16 268.75 372.15 268.01 371.43 269.03 371.29 269.48 370.37" style="fill:#e0e0e0"></polygon><polygon points="273.44 370.37 273.89 371.29 274.91 371.43 274.18 372.15 274.35 373.16 273.44 372.68 272.53 373.16 272.71 372.15 271.97 371.43 272.99 371.29 273.44 370.37" style="fill:#e0e0e0"></polygon><path d="M274.21,380.43c0,.14-9.59.26-21.42.26s-21.42-.12-21.42-.26,9.59-.27,21.42-.27S274.21,380.28,274.21,380.43Z" style="fill:#e0e0e0"></path><path d="M308,387.69c0,.14-17.35.26-38.74.26s-38.73-.12-38.73-.26,17.34-.26,38.73-.26S308,387.55,308,387.69Z" style="fill:#263238"></path><path d="M269.27,395.13c0,.14-8.51.26-19,.26s-19-.12-19-.26,8.51-.26,19-.26S269.27,395,269.27,395.13Z" style="fill:#263238"></path><path d="M269,417.46s.38,0,1.09-.16a6,6,0,0,0,2.76-1.38,5.9,5.9,0,0,0,2-4.33c0-1,0-2-.05-3.11a5.81,5.81,0,0,0-4.44-5,8.07,8.07,0,0,0-2-.16h-2.14l-9.24,0-21.17,0a5.78,5.78,0,0,0-4.6,2.3,5.55,5.55,0,0,0-1.05,2.35,14.29,14.29,0,0,0-.11,2.63,7.57,7.57,0,0,0,.25,2.53,5.93,5.93,0,0,0,1.21,2.13,5.73,5.73,0,0,0,4.24,1.93l17.29.06,11.66.09,3.17,0,.83,0,.28,0a1.58,1.58,0,0,1-.28,0l-.83,0-3.17.05-11.66.08-17.3.05a6.24,6.24,0,0,1-4.6-2.08,6.33,6.33,0,0,1-1.32-2.31,7.93,7.93,0,0,1-.28-2.68,14.89,14.89,0,0,1,.11-2.73,6.29,6.29,0,0,1,6.16-5.07l21.17,0,9.24,0h2.14a8.18,8.18,0,0,1,2.09.19,6.17,6.17,0,0,1,4.67,5.39c.06,1.14,0,2.16,0,3.15a6.09,6.09,0,0,1-2.17,4.47,5.89,5.89,0,0,1-2.88,1.33,4,4,0,0,1-.82.07A1.16,1.16,0,0,1,269,417.46Z" style="fill:#FF2323"></path><path d="M248.79,410.88c0,.69-.53,1.09-1.56,1.09h-1.94V407.9h1.83c.93,0,1.45.4,1.45,1.06a.94.94,0,0,1-.54.9A1,1,0,0,1,248.79,410.88Zm-2.92-2.5v1.3h1.19c.6,0,.93-.22.93-.65s-.33-.65-.93-.65Zm2.33,2.45c0-.47-.35-.68-1-.68h-1.34v1.35h1.34C247.85,411.5,248.2,411.3,248.2,410.83Z" style="fill:#FF2323"></path><path d="M249.32,410.43a1.61,1.61,0,1,1,1.61,1.58A1.53,1.53,0,0,1,249.32,410.43Zm2.64,0a1,1,0,1,0-1,1.09A1,1,0,0,0,252,410.43Z" style="fill:#FF2323"></path><path d="M253,410.43a1.61,1.61,0,1,1,1.61,1.58A1.53,1.53,0,0,1,253,410.43Zm2.64,0a1,1,0,1,0-2.07,0,1,1,0,1,0,2.07,0Z" style="fill:#FF2323"></path><path d="M258.19,410.54l-.64.59V412H257v-4.31h.56v2.77l1.68-1.54h.67l-1.3,1.28L260,412h-.69Z" style="fill:#FF2323"></path><path d="M194.12,410a5.4,5.4,0,0,1,0-.63c0-.43,0-1,0-1.76,0-1.57,0-3.79-.06-6.58,0-5.64-.07-13.57-.12-22.9l.24.24-21.49,0c-.07.05.49-.49.25-.26h0v8.79c0,2.87,0,5.65,0,8.34,0,5.36,0,10.33,0,14.73l-.21-.21,15.6.11,4.34.05,1.15,0,.41,0a1.46,1.46,0,0,1-.37,0l-1.11,0-4.29.05-15.73.11h-.2V410c0-4.4,0-9.37,0-14.73q0-4,0-8.34c0-1.43,0-2.88,0-4.35v-4.44h0c-.23.23.32-.32.27-.26l21.49,0h.24v.24c0,9.4-.08,17.38-.11,23.06,0,2.76-.05,5-.07,6.52,0,.72,0,1.29,0,1.72A3.39,3.39,0,0,1,194.12,410Z" style="fill:#fff"></path><path d="M189.9,373.86a28.65,28.65,0,0,1,.24,4.24v.23h-.24l-2.84,0-.26-.26h0v-1.15c0-.38,0-.75,0-1.11l0-2v-.21h.21a15.78,15.78,0,0,1,2.84.21,21.64,21.64,0,0,1-2.84.21l.2-.21c0,.62,0,1.28,0,2,0,.36,0,.73,0,1.11,0,.19,0,.38,0,.58v.57h0l-.26-.26,2.84,0-.24.24A36.13,36.13,0,0,1,189.9,373.86Z" style="fill:#fff"></path><path d="M202.15,410.14a2.71,2.71,0,0,1-.51,0h-1.56l-6,0H194V410c-.06-7.17-.1-18.78-.1-31.87v-.26h8.54v.26c0,9.14-.08,17.17-.11,23,0,2.82-.06,5.08-.08,6.7,0,.74,0,1.33,0,1.79a4.08,4.08,0,0,1,0,.59s0-.24,0-.66,0-1.07,0-1.84c0-1.63,0-3.92-.07-6.76,0-5.75-.07-13.71-.12-22.78l.26.25h-8l.26-.26c0,13.09,0,24.7-.11,31.87l-.15-.15L200,410l1.59.07Z" style="fill:#fff"></path><rect x="176.05" y="382.09" width="3.33" height="3.33" style="fill:#fff"></rect><rect x="181.7" y="382.09" width="3.33" height="3.33" style="fill:#fff"></rect><rect x="187.36" y="382.09" width="3.33" height="3.33" style="fill:#fff"></rect><rect x="176.05" y="387.82" width="3.33" height="3.33" style="fill:#fff"></rect><rect x="181.7" y="387.82" width="3.33" height="3.33" style="fill:#fff"></rect><rect x="187.36" y="387.82" width="3.33" height="3.33" style="fill:#fff"></rect><rect x="176.05" y="393.55" width="3.33" height="3.33" style="fill:#fff"></rect><rect x="181.7" y="393.55" width="3.33" height="3.33" style="fill:#fff"></rect><rect x="187.36" y="393.55" width="3.33" height="3.33" style="fill:#fff"></rect><rect x="176.05" y="399.28" width="3.33" height="3.33" style="fill:#fff"></rect><rect x="181.7" y="399.28" width="3.33" height="3.33" style="fill:#fff"></rect><rect x="187.36" y="399.28" width="3.33" height="3.33" style="fill:#fff"></rect><rect x="196.19" y="382.09" width="3.33" height="3.33" style="fill:#fff"></rect><rect x="196.19" y="387.82" width="3.33" height="3.33" style="fill:#fff"></rect><rect x="196.19" y="393.55" width="3.33" height="3.33" style="fill:#fff"></rect><rect x="196.19" y="399.28" width="3.33" height="3.33" style="fill:#fff"></rect><rect x="182.09" y="404.81" width="3.26" height="5.16" style="fill:#fff"></rect><path d="M209.28,410c0,.14-10.34.26-23.1.26s-23.1-.12-23.1-.26,10.34-.26,23.1-.26S209.28,409.83,209.28,410Z" style="fill:#fff"></path><path d="M167.68,125.58H294.87a7.09,7.09,0,0,1,7.09,7.09v7.12a7.1,7.1,0,0,1-7.1,7.1H167.68a7.09,7.09,0,0,1-7.09-7.09v-7.12A7.09,7.09,0,0,1,167.68,125.58Z" style="fill:#ebebeb"></path><path d="M291,134.84s0-.26-.16-.7a2.88,2.88,0,0,0-3.74-1.93,2.81,2.81,0,1,0,2.66,4.88,2.86,2.86,0,0,0,1.08-1.55c.13-.44.13-.7.16-.7s0,.06,0,.19a1.94,1.94,0,0,1-.05.54,2.92,2.92,0,0,1-1.06,1.71,3.08,3.08,0,1,1,0-4.88,2.93,2.93,0,0,1,1.06,1.7,2,2,0,0,1,.05.55C291.06,134.77,291.05,134.84,291,134.84Z" style="fill:#263238"></path><path d="M292.66,139.92a5.7,5.7,0,0,1-1.44-1.31,5.63,5.63,0,0,1-1.2-1.55,5.86,5.86,0,0,1,1.45,1.32A5.93,5.93,0,0,1,292.66,139.92Z" style="fill:#263238"></path><path d="M174.1,135.16h-1.3v-.47h3.14v.47h-1.3v3.33h-.54Z" style="fill:#263238"></path><path d="M175.89,137.05a1.5,1.5,0,1,1,1.5,1.48A1.43,1.43,0,0,1,175.89,137.05Zm2.47,0a1,1,0,1,0-1,1A.95.95,0,0,0,178.36,137.05Z" style="fill:#263238"></path><path d="M179.36,136a.36.36,0,0,1,.37-.37.35.35,0,0,1,.36.37.36.36,0,0,1-.36.37A.37.37,0,0,1,179.36,136Zm0,2.19a.36.36,0,0,1,.37-.37.35.35,0,0,1,.36.37.36.36,0,0,1-.36.38A.37.37,0,0,1,179.36,138.15Z" style="fill:#263238"></path><path d="M263.25,137.17c0,.14-16.21.26-36.2.26s-36.2-.12-36.2-.26,16.21-.26,36.2-.26S263.25,137,263.25,137.17Z" style="fill:#263238"></path><rect x="160.58" y="154.22" width="141.38" height="21.31" rx="7.09" style="fill:#ebebeb"></rect><path d="M291,164.47s0-.26-.16-.7a2.93,2.93,0,0,0-1.08-1.55,2.81,2.81,0,1,0,0,4.5,2.88,2.88,0,0,0,1.08-1.54c.13-.44.13-.71.16-.71s0,.07,0,.19a2,2,0,0,1-.05.55,2.93,2.93,0,0,1-1.06,1.7,3.05,3.05,0,0,1-2.91.48,3.09,3.09,0,0,1,0-5.83A3.05,3.05,0,0,1,290,162a2.9,2.9,0,0,1,1.06,1.7,1.94,1.94,0,0,1,.05.54C291.06,164.41,291.05,164.47,291,164.47Z" style="fill:#263238"></path><path d="M292.66,169.56a6.13,6.13,0,0,1-1.44-1.32,5.84,5.84,0,0,1-1.2-1.54,5.86,5.86,0,0,1,1.45,1.32A5.93,5.93,0,0,1,292.66,169.56Z" style="fill:#263238"></path><path d="M173.34,162.26H175a1.91,1.91,0,1,1,0,3.8h-1.61Zm1.57,3.33a1.43,1.43,0,1,0,0-2.86h-1v2.86Z" style="fill:#263238"></path><path d="M180,164.32v1.74h-.5v-.38a1.06,1.06,0,0,1-.94.41c-.65,0-1.07-.35-1.07-.85s.3-.84,1.16-.84h.83v-.1c0-.44-.26-.7-.78-.7a1.45,1.45,0,0,0-.91.31l-.22-.39a1.92,1.92,0,0,1,1.19-.37C179.59,163.15,180,163.53,180,164.32Zm-.52.86v-.4h-.81c-.51,0-.66.2-.66.44s.24.47.64.47A.84.84,0,0,0,179.52,165.18Z" style="fill:#263238"></path><path d="M182.62,165.89a.93.93,0,0,1-.63.2.82.82,0,0,1-.91-.9v-1.58h-.49v-.43h.49v-.63h.52v.63h.83v.43h-.83v1.56a.42.42,0,0,0,.45.48.69.69,0,0,0,.41-.13Z" style="fill:#263238"></path><path d="M185.75,164.79h-2.34a1,1,0,0,0,1,.85,1.12,1.12,0,0,0,.84-.35l.28.33a1.41,1.41,0,0,1-1.13.47,1.44,1.44,0,0,1-1.55-1.47,1.41,1.41,0,0,1,1.45-1.47,1.39,1.39,0,0,1,1.42,1.49S185.75,164.74,185.75,164.79Zm-2.34-.37h1.85a.9.9,0,0,0-.92-.83A.91.91,0,0,0,183.41,164.42Z" style="fill:#263238"></path><path d="M186.24,163.52a.37.37,0,0,1,.37-.37.38.38,0,0,1,0,.75A.37.37,0,0,1,186.24,163.52Zm0,2.2a.36.36,0,0,1,.37-.37.35.35,0,0,1,.35.37.36.36,0,0,1-.35.37A.37.37,0,0,1,186.24,165.72Z" style="fill:#263238"></path><path d="M204.75,164.8a21.66,21.66,0,0,1-4.77.26,21.72,21.72,0,0,1-4.78-.26,22.47,22.47,0,0,1,4.78-.26A22.42,22.42,0,0,1,204.75,164.8Z" style="fill:#263238"></path><path d="M241.24,164.87c0,.15-6.87.26-15.35.26s-15.34-.11-15.34-.26,6.87-.26,15.34-.26S241.24,164.73,241.24,164.87Z" style="fill:#263238"></path></g><g id="freepik--Character--inject-4"><path d="M447.39,203.76H436.7l-16.24,46.61,24.78,36.7c7.68,1.61,16.65,2.91,22.52-2.29,4.83-4.28,5.66-11.43,5.91-17.89a257,257,0,0,0-.67-31.15c-.64-7.78-1.74-15.81-5.89-22.43S455,201.9,447.39,203.76" style="fill:#455a64"></path><path d="M457.68,287.77a8.69,8.69,0,0,0,.89-.18,5,5,0,0,0,2.17-1.33,7.33,7.33,0,0,0,1.87-3.56,34.59,34.59,0,0,0,.63-5.41,307.94,307.94,0,0,0,.64-31.68,159.3,159.3,0,0,0-1.31-17.38,53.89,53.89,0,0,0-3.73-13.67,37.43,37.43,0,0,0-4.83-8.24c-.71-.89-1.29-1.55-1.69-2l-.45-.51a1.14,1.14,0,0,1-.15-.18s.07,0,.19.15l.49.47c.43.42,1,1.06,1.76,1.93a35.94,35.94,0,0,1,5,8.22A53.4,53.4,0,0,1,463,228.16a150.7,150.7,0,0,1,1.36,17.43,275.31,275.31,0,0,1-.8,31.73,32.22,32.22,0,0,1-.71,5.46,7.49,7.49,0,0,1-2,3.63,5,5,0,0,1-2.28,1.28A2.79,2.79,0,0,1,457.68,287.77Z" style="fill:#263238"></path><path d="M474,258.71a8.24,8.24,0,0,1-4.65,1.67,8.33,8.33,0,0,1-4.89-.77,25.67,25.67,0,0,0,4.84.25A27.32,27.32,0,0,0,474,258.71Z" style="fill:#263238"></path><path d="M473.35,235.64a10.38,10.38,0,0,1-4.71,1.84,10.17,10.17,0,0,1-5.06-.12c0-.16,2.27.1,5-.39S473.28,235.49,473.35,235.64Z" style="fill:#263238"></path><path d="M448.38,203.56s-1.33-5.24,1.13-5.55,9.59,2.83,8.5,5.63a22.25,22.25,0,0,1-2.44,4.62l-1-1.36s1.7-2.1,1.5-3.54-4.93-3.91-5.65-2.47a6.8,6.8,0,0,0-.72,2.75Z" style="fill:#263238"></path><path d="M360.11,210.16l-42.73.83-6.91-.6s-15.63-.44-17.13-.67c-1.73-.27-2.28.5-2.33,1.14-.09,1,1,1.9,2.5,2.18.51.09,8.63,1.28,8.63,1.28a19.85,19.85,0,0,0-2.43,1.23c-1.7,1-3,3.65-3.36,6.55s-.2,3.75.92,3.94a1.46,1.46,0,0,0,1.18-.4,4.08,4.08,0,0,0,1.1-2.14c.95-5.53,3.15-5.17,3.15-5.17l1,0s-2.5,2.6-2,5a2.58,2.58,0,0,0,.42,1,3.66,3.66,0,0,0,4.91,4c.58-.22,1.16-.7,1.13-1.32a1.79,1.79,0,0,0-.37-.89,4,4,0,0,1-.24-.46l2.56-.14s5.74-.61,8.27-.59l40.15,1.33c5.71.6,11.9-.61,12.4-6.33h0C371.43,213.61,366.36,209.82,360.11,210.16Z" style="fill:#ffbe9d"></path><path d="M316.62,212.24a2.13,2.13,0,0,1-1.48,2c-.82.35-1.74.4-2.58.68-2.53.84-4.1,3.59-6.67,4.31-.35.1-.83.11-1-.22s.06-.66.27-.93l5.41-7" style="fill:#ffbe9d"></path><path d="M310.57,211.1a3.51,3.51,0,0,0-.67.69c-.4.47-1,1.16-1.65,2l-2.41,3-.69.88a1.7,1.7,0,0,0-.55,1.2.74.74,0,0,0,.57.61,1.62,1.62,0,0,0,.73,0,6.3,6.3,0,0,0,1.2-.49,32.53,32.53,0,0,0,3.77-2.91,6.54,6.54,0,0,1,1.74-1c.58-.21,1.18-.3,1.72-.45a3.14,3.14,0,0,0,2.18-1.47,1.16,1.16,0,0,0,.11-1,2.6,2.6,0,0,1-.29.87,3,3,0,0,1-2.09,1.23,17.6,17.6,0,0,0-1.77.39,6.76,6.76,0,0,0-1.87,1,41.44,41.44,0,0,1-3.73,2.84,5.92,5.92,0,0,1-1.09.44c-.36.09-.69,0-.69-.17s.21-.54.44-.84l.68-.88,2.32-3.09c.65-.88,1.18-1.6,1.53-2.11A4.15,4.15,0,0,0,310.57,211.1Z" style="fill:#eb996e"></path><path d="M303.66,218.31a3.44,3.44,0,0,0-1.64.29,2.82,2.82,0,0,0-1.24,1.25,7.27,7.27,0,0,0-.65,2.14,11.68,11.68,0,0,1-.56,2.26,3.62,3.62,0,0,1-1.11,1.57,1.47,1.47,0,0,1-1.27.27c-.3-.09-.43-.21-.42-.22s.16,0,.45.1a1.4,1.4,0,0,0,1.1-.33,3.65,3.65,0,0,0,1-1.5,12.61,12.61,0,0,0,.52-2.21,7.11,7.11,0,0,1,.71-2.23,2.94,2.94,0,0,1,1.41-1.31,2.58,2.58,0,0,1,1.28-.2C303.51,218.22,303.67,218.29,303.66,218.31Z" style="fill:#eb996e"></path><path d="M293,212.92a8.78,8.78,0,0,1,1.61.23l3.87.64,3.88.58a11.15,11.15,0,0,1,1.61.28,6.41,6.41,0,0,1-1.63-.05c-1-.09-2.39-.25-3.91-.49s-2.88-.51-3.86-.74A7.53,7.53,0,0,1,293,212.92Z" style="fill:#eb996e"></path><path d="M305.21,220.42a2.18,2.18,0,0,1-.26.44,1.52,1.52,0,0,0-.25,1.24.82.82,0,0,0,.61.52,4.28,4.28,0,0,0,1.06.09,1.83,1.83,0,0,1,1.24.39,1.58,1.58,0,0,1,.45,1.33,1.78,1.78,0,0,1-.75,1.18,2.15,2.15,0,0,1-1.22.43,7.05,7.05,0,0,1-2.07-.36,4.17,4.17,0,0,1-1.27-.61,1.16,1.16,0,0,1-.34-.39s.14.11.41.28a5,5,0,0,0,1.27.5,7.7,7.7,0,0,0,2,.28,1.74,1.74,0,0,0,1.65-1.35,1.24,1.24,0,0,0-.34-1.06,1.55,1.55,0,0,0-1-.32,4.72,4.72,0,0,1-1.13-.13,1.06,1.06,0,0,1-.75-.71,1.58,1.58,0,0,1,.37-1.38C305.06,220.53,305.19,220.41,305.21,220.42Z" style="fill:#eb996e"></path><path d="M307.09,225.44a.68.68,0,0,1,.45.12,1.4,1.4,0,0,1,.68,1.07,1.89,1.89,0,0,1-.82,1.69,3.15,3.15,0,0,1-2.26.46,3.75,3.75,0,0,1-2.05-1,3.6,3.6,0,0,1-.94-1.62,3.46,3.46,0,0,1-.1-1.26c0-.29.1-.45.12-.44a5.53,5.53,0,0,0,.2,1.63,3.55,3.55,0,0,0,.93,1.48,3.59,3.59,0,0,0,1.89.92,2.89,2.89,0,0,0,2-.39,1.68,1.68,0,0,0,.76-1.42,1.37,1.37,0,0,0-.52-1C307.24,225.5,307.08,225.47,307.09,225.44Z" style="fill:#eb996e"></path><path d="M313.37,220.7s-.05-.3.13-.77a3,3,0,0,1,1.28-1.53l0,.28a8.1,8.1,0,0,1-1.06-.34,7,7,0,0,1-3.12-2.2,17,17,0,0,0,3.24,1.89,10.32,10.32,0,0,0,1,.35l.35.11-.32.18a3.21,3.21,0,0,0-1.26,1.34C313.46,220.42,313.41,220.71,313.37,220.7Z" style="fill:#eb996e"></path><path d="M299.55,218.72c.05-.07.58.33.78,1.09s-.07,1.37-.15,1.33,0-.59-.17-1.25S299.48,218.78,299.55,218.72Z" style="fill:#eb996e"></path><path d="M392.36,183.17c-.66.93-29.86,24.05-33.48,25s-37,1.46-37,1.46-2.61,20.53-1.75,21.93c3.17,5.12,41.3,18.67,59.49.32l12.73-46.54" style="fill:#FF2323"></path><path d="M355.71,220.73a5.12,5.12,0,0,1-.36-1.8,16.42,16.42,0,0,1,1.66-8.64,5.19,5.19,0,0,1,1-1.54,37.36,37.36,0,0,0-1.91,5.84A37.88,37.88,0,0,0,355.71,220.73Z" style="fill:#263238"></path><path d="M358.88,221.53a6.78,6.78,0,0,1-.41-2,42.9,42.9,0,0,1-.2-9.61,6.53,6.53,0,0,1,.34-2c.15,0-.07,3,0,6.77S359,221.51,358.88,221.53Z" style="fill:#263238"></path><g style="opacity:0.30000000000000004"><path d="M357.85,208.79a16.37,16.37,0,0,0-4.76,17.44c.32.94.87,2,1.84,2.15a2.16,2.16,0,0,0,2.17-1.25,6.31,6.31,0,0,0,.5-2.62l.75-16"></path></g><polygon points="392.58 186.86 393.35 181.94 387.14 187.41 384.05 198.13 392.58 186.86" style="fill:#263238"></polygon><path d="M399.28,176.86l-4.36,2.45-14,23.55.06,12.33s-3.3,8.63-3.5,15.55,0,32.26,0,32.26L359.71,380.48l15.15,4.89,30-136.79V175Z" style="fill:#FF2323"></path><g style="opacity:0.30000000000000004"><path d="M374.86,385.37l-12-3.87L380,254.06s-2.87-18.68,0-26.86S387.28,207,387.28,207l-5,22.82c.63,17.09-.42,37.49-2.25,59.47h4.58Z"></path></g><path d="M389.06,189.14a3.45,3.45,0,0,1-.36.62c-.23.41-.63,1-1.08,1.75a53.73,53.73,0,0,0-3.36,6.75,70.86,70.86,0,0,0-3.39,10.66,115.24,115.24,0,0,0-2.25,13.53c-.55,4.85-.88,9.48-1,13.7s-.13,8-.1,11.22,0,5.73,0,7.58c0,.85,0,1.53,0,2.06a4.82,4.82,0,0,1,0,.71,3.14,3.14,0,0,1-.06-.71c0-.52,0-1.21-.07-2.06-.05-1.85-.12-4.42-.2-7.57s-.13-7,0-11.25.45-8.88,1-13.73a112,112,0,0,1,2.3-13.59,67.3,67.3,0,0,1,3.52-10.69,47.24,47.24,0,0,1,3.53-6.72c.47-.75.9-1.31,1.17-1.7A3.52,3.52,0,0,1,389.06,189.14Z" style="fill:#263238"></path><g style="opacity:0.30000000000000004"><path d="M370.55,238a71.86,71.86,0,0,1,7.61-20,104.54,104.54,0,0,1-.83,13.47,5.17,5.17,0,0,1-.88,2.71,5.34,5.34,0,0,1-1.62,1.2l-4.59,2.55"></path></g><path d="M433.73,142.26a12.84,12.84,0,0,1,5.59-6.2,8.81,8.81,0,0,1,8.17-.09,6.74,6.74,0,0,1,3.38,7.16,9.24,9.24,0,1,1-8.21,16.56c2.33,3.08.34,8.11-3.31,9.35s-7.9-.91-9.72-4.31-1.49-7.65.12-11.16" style="fill:#263238"></path><path d="M432.09,144.22a4.12,4.12,0,0,1,3.17-2.49,3.31,3.31,0,0,1,3.4,2,2.79,2.79,0,0,1-1.47,3.5,3.87,3.87,0,0,1-1.51,7.4,3.58,3.58,0,0,1-5.31,4.6,4.81,4.81,0,0,1-1.65-3.28,14.4,14.4,0,0,1,.24-3.76c.29-1.88.57-3.77.86-5.65a6.09,6.09,0,0,1,.71-2.39,2.1,2.1,0,0,1,2.1-1.07" style="fill:#FF2323"></path><path d="M386.39,128.76c-1.35-2.42-.51-5.67,1.5-7.59a10.69,10.69,0,0,1,7.69-2.56,31.23,31.23,0,0,1,8.13,1.69,8.86,8.86,0,0,1,15.54,3,5.62,5.62,0,0,1,7.55,6.48l-11.75,5.91L404.64,161A10.85,10.85,0,0,1,387,148.75a9.06,9.06,0,0,1-2.19-2.09,9.48,9.48,0,0,1-5.1-5.27A10,10,0,0,1,386.39,128.76Z" style="fill:#263238"></path><path d="M400.88,177c.27-3.95.46-6.66.46-6.63s-7.62-1.89-8.43-12.1c-.4-5.08.51-13.27,1.46-20,.86-6,5.45-13.12,11.43-12l18.44,6.24c1.81.34,2.33,1.94,2.15,3.77l.08.88L423.31,166l-1.25,12.85a10.64,10.64,0,0,1-10.74,9.52h0A10.65,10.65,0,0,1,400.88,177Z" style="fill:#ffbe9d"></path><path d="M396.29,146.29a1.32,1.32,0,0,0,1.15,1.41,1.24,1.24,0,0,0,1.42-1.06,1.3,1.3,0,0,0-1.14-1.41A1.25,1.25,0,0,0,396.29,146.29Z" style="fill:#263238"></path><path d="M396.06,143.79c.14.18,1.18-.47,2.57-.35s2.36.89,2.52.73-.06-.39-.48-.75a3.55,3.55,0,0,0-2-.79,3.45,3.45,0,0,0-2.06.49C396.15,143.41,396,143.71,396.06,143.79Z" style="fill:#263238"></path><path d="M408.92,147.31a1.3,1.3,0,0,0,1.15,1.4,1.24,1.24,0,0,0,1.42-1.06,1.29,1.29,0,0,0-1.14-1.4A1.24,1.24,0,0,0,408.92,147.31Z" style="fill:#263238"></path><path d="M409.36,144.58c.15.18,1.19-.47,2.58-.36s2.35.89,2.52.73-.06-.38-.48-.74a3.59,3.59,0,0,0-2-.8,3.41,3.41,0,0,0-2.07.5C409.46,144.2,409.29,144.49,409.36,144.58Z" style="fill:#263238"></path><path d="M403.6,154a8.9,8.9,0,0,0-2.22-.59c-.36-.07-.69-.16-.73-.41a1.88,1.88,0,0,1,.32-1l1.27-2.63c1.76-3.73,3.07-6.81,2.92-6.88s-1.71,2.9-3.47,6.63l-1.22,2.64a2.06,2.06,0,0,0-.3,1.38.89.89,0,0,0,.55.57,2.11,2.11,0,0,0,.59.13A9.69,9.69,0,0,0,403.6,154Z" style="fill:#263238"></path><path d="M401.34,170.41a25.76,25.76,0,0,0,13.78-2.53s-4,6.84-14,5.1Z" style="fill:#eb996e"></path><path d="M409.65,140.8c.14.38,1.53.19,3.17.38s3,.62,3.18.28c.1-.16-.14-.52-.67-.88a5.19,5.19,0,0,0-2.36-.81,5.41,5.41,0,0,0-2.48.3C409.89,140.32,409.59,140.62,409.65,140.8Z" style="fill:#263238"></path><path d="M396.32,141.06c.26.34,1.42.1,2.79.2s2.5.41,2.79.1c.13-.15,0-.48-.51-.82a4.34,4.34,0,0,0-2.22-.7,4.25,4.25,0,0,0-2.27.46C396.39,140.59,396.2,140.9,396.32,141.06Z" style="fill:#263238"></path><path d="M419.13,126.61a6.92,6.92,0,0,1-8.66,6.19c-1.52-.4-3.15-1.31-4.54-.59s-1.69,2.86-3,3.85c-1.9,1.4-4.61-.26-6.92.23-1.78.39-3,2-4.26,3.28s-3.1,2.51-4.81,1.86a21.18,21.18,0,0,1,1.05-4.6,6.91,6.91,0,0,1,2.93-3.58c.76-.42,1.62-.64,2.33-1.13,1.54-1.05,2-3.06,3-4.62a7.59,7.59,0,0,1,6.05-3.38c2-.05,4,.7,6,.37,1.45-.25,2.77-1.09,4.24-1.25,2.86-.32,5.33,1.91,7.22,4.08" style="fill:#263238"></path><path d="M409.8,129.93c1.29-.26,3.94-.88,4.7-1.93a7.77,7.77,0,0,1,7-3.34,6.4,6.4,0,0,1,5.35,5.48,9.2,9.2,0,0,1,7.49,5.68,10.66,10.66,0,0,1-1,9.86A18.75,18.75,0,0,0,432.1,148a15.61,15.61,0,0,1,1.94,2.25c2.67,4.34-2.75,6.83-2.75,6.83.38,3.1-2.48,3.45-4.31,3.68s-2.22,5.24-3.67,5.23l-.49-15.27a2,2,0,0,1-.66.21c-3.44.5-3.38-6.15-2.48-8a19.64,19.64,0,0,1-3.12-3.84,14.19,14.19,0,0,1-1-7C414.3,132.16,409.23,130.05,409.8,129.93Z" style="fill:#263238"></path><path d="M422.4,151.63a3,3,0,0,1,4.5-2.18c1,.67,1.66,1.92,1.4,4.19-.72,6.05-6.65,4.08-6.64,3.91S422.09,154.13,422.4,151.63Z" style="fill:#ffbe9d"></path><path d="M423.78,155.48s.1.08.26.18a1.08,1.08,0,0,0,.79.11,2.61,2.61,0,0,0,1.49-2.19,3.6,3.6,0,0,0-.12-1.55,1.21,1.21,0,0,0-.7-.9.53.53,0,0,0-.65.21c-.11.16-.08.29-.11.29s-.12-.11,0-.36a.63.63,0,0,1,.28-.35.81.81,0,0,1,.6-.08,1.49,1.49,0,0,1,1,1.07,3.64,3.64,0,0,1,.17,1.73,2.78,2.78,0,0,1-1.85,2.43,1.14,1.14,0,0,1-.95-.28C423.77,155.62,423.76,155.48,423.78,155.48Z" style="fill:#eb996e"></path><path d="M389.89,147.48s-.58-.34-1.44-1.16A8.77,8.77,0,0,1,386,142a8.46,8.46,0,0,1-.11-3.42,7.36,7.36,0,0,1,1.67-3.51,8.6,8.6,0,0,1,8.16-2.7,7.22,7.22,0,0,1,.83.23c.27.09.52.21.77.31l.39.16-.05-.4a3,3,0,0,1,.49-2,4.71,4.71,0,0,1,1.53-1.42,6.23,6.23,0,0,1,3.88-.79c2.58.25,4.86,1.12,6.91,1.09a6.44,6.44,0,0,0,4.42-1.49,3.63,3.63,0,0,0,.78-1,2,2,0,0,0,.15-.42,5.1,5.1,0,0,1-1,1.31,6.44,6.44,0,0,1-4.31,1.31,16.13,16.13,0,0,1-3.17-.49,26.87,26.87,0,0,0-3.71-.71,8.11,8.11,0,0,0-2.08.06,6.34,6.34,0,0,0-2.06.76,5.13,5.13,0,0,0-1.69,1.56,3.43,3.43,0,0,0-.57,2.33l.34-.25-.82-.34a8.79,8.79,0,0,0-.88-.24,9.05,9.05,0,0,0-8.61,2.88,7.74,7.74,0,0,0-1.72,3.73,8.77,8.77,0,0,0,.17,3.57,8.58,8.58,0,0,0,2.62,4.37,6.21,6.21,0,0,0,1.14.82A2.73,2.73,0,0,0,389.89,147.48Z" style="fill:#455a64"></path><path d="M388.44,126.73a6.42,6.42,0,0,1,1.8-.89,5.11,5.11,0,0,1,2.27-.09,4.44,4.44,0,0,1,2.53,1.39l.26.29.09-.38a6.91,6.91,0,0,1,5-4.84,9,9,0,0,1,5.54.85,23.51,23.51,0,0,0,4.51,1.65,6.68,6.68,0,0,0,3.26,0,4.05,4.05,0,0,0,.82-.34c.17-.1.26-.16.25-.18s-.39.18-1.12.34a6.92,6.92,0,0,1-3.13-.11,26.06,26.06,0,0,1-4.42-1.72,14.38,14.38,0,0,0-2.71-.92,7,7,0,0,0-3.11,0A7.23,7.23,0,0,0,395,127l.35-.09a4.71,4.71,0,0,0-2.77-1.44,5,5,0,0,0-2.4.19,4.1,4.1,0,0,0-1.35.73A1.62,1.62,0,0,0,388.44,126.73Z" style="fill:#455a64"></path><path d="M404.47,157a2,2,0,0,1,1.55-.68,2.37,2.37,0,0,1,1.67.93l0,0s0,0,.06.07h0a1.16,1.16,0,0,1,.26.66,1.67,1.67,0,0,1-.8,1.36,2.12,2.12,0,0,1-2.43,0A1.73,1.73,0,0,1,404.47,157Z" style="fill:#FF2323"></path><path d="M408.07,155.83c-.08,0-.2.3-.5.72a3.27,3.27,0,0,1-3.47,1.34c-.5-.11-.81-.26-.85-.19s.2.33.74.56a3.08,3.08,0,0,0,3.91-1.52C408.15,156.21,408.14,155.84,408.07,155.83Z" style="fill:#263238"></path><path d="M431.42,139.14a1.73,1.73,0,0,0,.26-.2,6.8,6.8,0,0,0,.68-.67,7,7,0,0,0,1.64-3.11,5.51,5.51,0,0,0,0-2.46,5.09,5.09,0,0,0-1.35-2.47,4,4,0,0,0-2.88-1.17,3.76,3.76,0,0,0-3,1.42l.28.15,0-.07a8.34,8.34,0,0,0-.17-6.34,5.5,5.5,0,0,0-4.08-3.13,4.54,4.54,0,0,0-3.37,1,3.77,3.77,0,0,0-.65.71,1,1,0,0,0-.16.3,5.28,5.28,0,0,1,.89-.91,4.42,4.42,0,0,1,3.26-.82,5.26,5.26,0,0,1,3.85,3,8.13,8.13,0,0,1,.12,6.11l0,.07-.31.93.59-.79a3.43,3.43,0,0,1,2.75-1.29,3.74,3.74,0,0,1,2.67,1.06,4.74,4.74,0,0,1,1.3,2.33,5.16,5.16,0,0,1,0,2.34,7.17,7.17,0,0,1-1.51,3.07C431.75,138.82,431.39,139.12,431.42,139.14Z" style="fill:#263238"></path><path d="M441.46,159l.17.07.49.18c.43.15,1.07.37,1.91.63a27.23,27.23,0,0,0,3.1.78,14.4,14.4,0,0,0,4.23.19,9.76,9.76,0,0,0,4.78-1.81A7.55,7.55,0,0,0,459,154a11.67,11.67,0,0,0-1-6.41,8,8,0,0,0-2-2.8,5.1,5.1,0,0,0-3.34-1.26,4,4,0,0,0-2.45.79l.22.24a7.08,7.08,0,0,0,1.6-3,8.08,8.08,0,0,0,.13-3.24,7.25,7.25,0,0,0-3.26-5A8.48,8.48,0,0,0,443.6,132a8.18,8.18,0,0,0-4.41,1.69,9.5,9.5,0,0,0-2.5,3,10.07,10.07,0,0,0-1,2.77,8.74,8.74,0,0,0-.16,1.84c0,.2,0,.35,0,.48s0,.16,0,.16a11.81,11.81,0,0,1,.23-2.46,10,10,0,0,1,1-2.71,9.14,9.14,0,0,1,2.47-2.9,8.09,8.09,0,0,1,4.3-1.62,8.36,8.36,0,0,1,5.11,1.27,7,7,0,0,1,3.11,4.83,7.85,7.85,0,0,1-.14,3.12,6.66,6.66,0,0,1-1.52,2.81l.21.23a3.63,3.63,0,0,1,2.25-.72,4.8,4.8,0,0,1,3.13,1.18,7.65,7.65,0,0,1,2,2.69,11.54,11.54,0,0,1,1,6.24,7.29,7.29,0,0,1-2.76,4.88,9.7,9.7,0,0,1-4.65,1.8,14.5,14.5,0,0,1-4.17-.15,28.87,28.87,0,0,1-3.09-.72l-1.93-.57-.5-.15C441.52,159,441.46,159,441.46,159Z" style="fill:#263238"></path><path d="M432.23,168.66a5.45,5.45,0,0,0,.72.45,14.34,14.34,0,0,0,2.11,1,8.94,8.94,0,0,0,3.39.6,6.2,6.2,0,0,0,3.92-1.53,4.77,4.77,0,0,0,1.23-1.85,6.37,6.37,0,0,0,.35-2,8.85,8.85,0,0,0-.71-3.37,16.88,16.88,0,0,0-1-2.08,3.87,3.87,0,0,0-.45-.72,5.22,5.22,0,0,0,.34.77c.23.5.58,1.2.92,2.11a8.89,8.89,0,0,1,.62,3.29,5,5,0,0,1-1.49,3.65,6,6,0,0,1-3.72,1.46,9.18,9.18,0,0,1-3.31-.51C433.3,169.23,432.26,168.59,432.23,168.66Z" style="fill:#263238"></path><path d="M429,172.58a2,2,0,0,1-.77-.31,2.18,2.18,0,0,1-.84-2,1.81,1.81,0,0,1,.7-1.29,1.26,1.26,0,0,1,1.55,0,1.14,1.14,0,0,1,.36.78.86.86,0,0,1-.43.74,1.44,1.44,0,0,1-.95.14,2.45,2.45,0,0,1-1-.37,4.41,4.41,0,0,1-1.87-3.5,8.23,8.23,0,0,1,.64-3.35,7,7,0,0,1,1-2.06.94.94,0,0,1,.73-.33.43.43,0,0,0-.22,0,1,1,0,0,0-.6.28,2.7,2.7,0,0,0-.59.84c-.18.35-.38.76-.57,1.22a8.31,8.31,0,0,0-.73,3.45,5.24,5.24,0,0,0,.51,2,4.11,4.11,0,0,0,1.49,1.72,2.25,2.25,0,0,0,2.26.23,1.14,1.14,0,0,0,.57-1,1.43,1.43,0,0,0-.46-1,1.38,1.38,0,0,0-1-.33,1.83,1.83,0,0,0-.92.33,2,2,0,0,0-.76,1.49,2.31,2.31,0,0,0,1,2.12,1.55,1.55,0,0,0,.62.22C428.92,172.61,429,172.59,429,172.58Z" style="fill:#263238"></path><path d="M449.91,159.44a.82.82,0,0,0,.28,0,2.25,2.25,0,0,0,.78-.1,3.2,3.2,0,0,0,2-2,4.17,4.17,0,0,0-1.12-4.05,6.15,6.15,0,0,0-4.83-1.9,6.83,6.83,0,0,0-1.24.2l.19.21a4.89,4.89,0,0,0-.92-4.65,4.39,4.39,0,0,0-1.71-1.24,4.76,4.76,0,0,0-1.8-.32,4.57,4.57,0,0,0-2.49.73,3.14,3.14,0,0,0-.56.43c-.11.12-.17.18-.16.19s.26-.22.78-.52a4.73,4.73,0,0,1,4.13-.27,4,4,0,0,1,1.59,1.19,4.61,4.61,0,0,1,.84,4.35l-.1.29.29-.08a6.32,6.32,0,0,1,1.18-.19,5.94,5.94,0,0,1,4.6,1.78,4,4,0,0,1,1.12,3.78,3.14,3.14,0,0,1-1.83,2A3.6,3.6,0,0,1,449.91,159.44Z" style="fill:#455a64"></path><path d="M450.64,140.76a1.21,1.21,0,0,0-.41-.16,3.39,3.39,0,0,0-1.22-.07,4,4,0,0,0-1.76.62,3.83,3.83,0,0,0-1.52,1.81l.26-.05a3.17,3.17,0,0,0-1.92-1,4.51,4.51,0,0,0-3,.7,6.82,6.82,0,0,0-1.81,1.78,11.26,11.26,0,0,0-.89,1.44,1.91,1.91,0,0,0-.26.57c.05,0,.47-.76,1.33-1.88a7.43,7.43,0,0,1,1.79-1.66,4.24,4.24,0,0,1,2.82-.63,2.9,2.9,0,0,1,1.73.87l.17.19.09-.23a3.64,3.64,0,0,1,1.38-1.7,4.12,4.12,0,0,1,1.64-.65A5.88,5.88,0,0,1,450.64,140.76Z" style="fill:#455a64"></path><path d="M423.16,171.2l-22.63,3.21-1,7.15S388.28,201.23,387.28,207s-6,20-5,30.78S380,289.27,380,289.27h5.75L408.05,235Z" style="fill:#263238"></path><path d="M438.78,433.1l5.68,20.55s-19.31,11.16-18.63,15.06l40.57-8.07-7.54-32.38Z" style="fill:#FF2323"></path><g style="opacity:0.6000000000000001"><path d="M456.49,448.94a1.7,1.7,0,0,1,1.58,1.61,1.62,1.62,0,0,1-1.58,1.58,1.78,1.78,0,0,1-1.66-1.71,1.68,1.68,0,0,1,1.82-1.46" style="fill:#fff"></path></g><g style="opacity:0.6000000000000001"><path d="M466.4,460.64l-.76-3.26-38.9,9.15a2.84,2.84,0,0,0-1.05,2.51Z" style="fill:#fff"></path></g><path d="M443.76,453.6c.06.19,1.06,0,2.18.45s1.83,1.11,2,1-.4-1.18-1.76-1.64S443.68,453.43,443.76,453.6Z" style="fill:#263238"></path><path d="M440,456.35c0,.2.93.33,1.79,1s1.27,1.51,1.47,1.45,0-1.19-1-2S439.92,456.16,440,456.35Z" style="fill:#263238"></path><path d="M438.77,462c.18,0,.22-1.05-.54-2s-1.78-1.17-1.82-1,.66.62,1.27,1.41S438.57,462,438.77,462Z" style="fill:#263238"></path><path d="M443,448.77c.12.16,1-.32,2.09-.51s2.08-.05,2.14-.24-.94-.7-2.27-.45S442.85,448.64,443,448.77Z" style="fill:#263238"></path><g style="opacity:0.30000000000000004"><polygon points="439.91 437.17 440.92 440.83 460.65 435.94 459.88 432.61 439.91 437.17"></polygon></g><path d="M441.92,444.61a3.87,3.87,0,0,0,2-.49,9.57,9.57,0,0,0,1.95-1.15,9.28,9.28,0,0,0,1-.89,3,3,0,0,0,.49-.62.88.88,0,0,0-.16-1.07,1.11,1.11,0,0,0-1-.24,3.09,3.09,0,0,0-.73.28,8.69,8.69,0,0,0-1.15.73,7.22,7.22,0,0,0-1.56,1.66c-.73,1.09-.88,1.9-.8,1.92s.41-.68,1.19-1.62a8.18,8.18,0,0,1,1.56-1.44,7.35,7.35,0,0,1,1.07-.63c.4-.21.76-.3.92-.14s.07.09,0,.24a2.23,2.23,0,0,1-.37.45,10.44,10.44,0,0,1-.92.86,11.2,11.2,0,0,1-1.77,1.21A14.09,14.09,0,0,0,441.92,444.61Z" style="fill:#263238"></path><path d="M442.24,444.83a3.28,3.28,0,0,0,.07-2.07,7.06,7.06,0,0,0-.8-2.15,7.21,7.21,0,0,0-.81-1.1,1.71,1.71,0,0,0-1.52-.71,1,1,0,0,0-.71.76,2.7,2.7,0,0,0,0,.79,4.84,4.84,0,0,0,.32,1.36,4.7,4.7,0,0,0,1.36,1.88c1,.85,1.91.89,1.91.82s-.74-.33-1.58-1.19a4.71,4.71,0,0,1-1.08-1.74,4.06,4.06,0,0,1-.24-1.17c0-.45,0-.83.21-.82s.61.19.86.49a7.52,7.52,0,0,1,.76,1,7.77,7.77,0,0,1,.87,1.92C442.16,444,442.13,444.82,442.24,444.83Z" style="fill:#263238"></path><path d="M379.51,431.86,377,453s-22.1,3-22.94,6.88l40.6,7.89L399.93,435Z" style="fill:#FF2323"></path><g style="opacity:0.6000000000000001"><path d="M389.9,453.22a1.69,1.69,0,0,1,.86,2.09,1.62,1.62,0,0,1-2.06.86,1.77,1.77,0,0,1-.89-2.21,1.68,1.68,0,0,1,2.24-.66" style="fill:#fff"></path></g><g style="opacity:0.6000000000000001"><path d="M394.65,467.8l.53-3.31-39.47-6.25a2.87,2.87,0,0,0-1.93,1.93Z" style="fill:#fff"></path></g><path d="M376.36,452.72c0,.2,1,.44,1.84,1.24s1.28,1.71,1.47,1.66.08-1.25-1-2.19S376.35,452.53,376.36,452.72Z" style="fill:#263238"></path><path d="M371.8,453.82c-.08.19.74.66,1.28,1.61s.61,1.87.81,1.9.5-1.09-.2-2.26S371.83,453.63,371.8,453.82Z" style="fill:#263238"></path><path d="M368.57,458.57c.17.07.61-.88.26-2.05s-1.21-1.76-1.32-1.6.38.82.65,1.79S368.37,458.52,368.57,458.57Z" style="fill:#263238"></path><path d="M377.47,448c.06.19,1,.06,2.13.31s1.94.74,2.07.59-.6-1-1.92-1.28S377.4,447.78,377.47,448Z" style="fill:#263238"></path><g style="opacity:0.30000000000000004"><polygon points="379.02 436.05 378.56 439.82 398.68 442.77 399.23 439.39 379.02 436.05"></polygon></g><path d="M378.06,443.69a3.75,3.75,0,0,0,2.05.31,9.41,9.41,0,0,0,2.24-.32,10.11,10.11,0,0,0,1.27-.44,2.5,2.5,0,0,0,.7-.39.88.88,0,0,0,.25-1.05,1.12,1.12,0,0,0-.8-.59,3,3,0,0,0-.79,0,7.07,7.07,0,0,0-1.34.24,7.31,7.31,0,0,0-2.08.94c-1.08.73-1.52,1.43-1.46,1.48s.64-.48,1.72-1.05a8.12,8.12,0,0,1,2-.74,7,7,0,0,1,1.24-.18c.45-.05.82,0,.9.21s0,.11-.08.23a2.91,2.91,0,0,1-.51.28c-.4.18-.8.32-1.18.45a12.48,12.48,0,0,1-2.1.45A15.93,15.93,0,0,0,378.06,443.69Z" style="fill:#263238"></path><path d="M378.27,444c.07,0,.58-.61.85-1.89a6.57,6.57,0,0,0,.07-2.29,6.71,6.71,0,0,0-.33-1.32,1.7,1.7,0,0,0-1.14-1.24,1,1,0,0,0-1,.44,3,3,0,0,0-.32.72,4.47,4.47,0,0,0-.22,1.38,4.82,4.82,0,0,0,.55,2.25c.63,1.18,1.43,1.55,1.45,1.48s-.55-.58-1-1.69a4.67,4.67,0,0,1-.35-2,4.46,4.46,0,0,1,.22-1.17c.13-.43.35-.75.51-.68s.49.41.61.78a6.84,6.84,0,0,1,.33,1.19,7.63,7.63,0,0,1,.08,2.1C378.5,443.26,378.17,444,378.27,444Z" style="fill:#263238"></path><path d="M410.17,369.19c0,.75-9.29,73.35-9.29,73.35l-27-5.12,10.85-74.93Z" style="fill:#263238"></path><path d="M443.05,361.43c.25.71,19,74,19,74l-25.66,5.91-22-78.85Z" style="fill:#263238"></path><path d="M418.87,173.52l5.28-1.8,9.22,12.6,2.48,40.48-6.37,20.85s18,39.68,18.25,49.53,8.36,101.55,8.36,101.55L373,403.5l15.35-150s2-36.78,4.35-42.28S418.87,173.52,418.87,173.52Z" style="fill:#FF2323"></path><path d="M426,303.89a1,1,0,0,1-.32.16,5.16,5.16,0,0,1-1,.27,7.08,7.08,0,0,1-3.8-.55,10.14,10.14,0,0,1-4.29-3.73,27.43,27.43,0,0,1-2.94-6.31,40.36,40.36,0,0,1-2.14-12.39,36.17,36.17,0,0,1,.17-3.81,6.09,6.09,0,0,1,.22-1.38,8.68,8.68,0,0,1,0,1.39c0,.9-.06,2.2,0,3.79a43.69,43.69,0,0,0,2.26,12.24,28.4,28.4,0,0,0,2.85,6.2,10,10,0,0,0,4,3.66,7.37,7.37,0,0,0,3.62.69C425.52,304,426,303.84,426,303.89Z" style="fill:#263238"></path><path d="M456.09,396.73l-.41,0-1.22.12-4.69.43-17.45,1.5L373,403.75l-.3,0,0-.31c.66-6.52,1.35-13.27,2.06-20.19,2.94-28.47,5.61-54.24,7.54-72.91,1-9.31,1.78-16.86,2.34-22.09.29-2.59.51-4.61.66-6,.08-.67.14-1.19.19-1.56a5,5,0,0,1,.08-.53s0,.18,0,.53-.07.9-.13,1.57c-.13,1.39-.32,3.42-.57,6-.51,5.24-1.26,12.79-2.18,22.11-1.89,18.68-4.5,44.45-7.38,72.92-.71,6.92-1.4,13.67-2.07,20.19l-.28-.28,59.32-4.74,17.46-1.35,4.7-.34,1.21-.07A3.31,3.31,0,0,1,456.09,396.73Z" style="fill:#263238"></path><path d="M428.88,178.18s-.07.06-.22.16l-.66.41-2.56,1.56c-1.11.67-2.47,1.5-4,2.5-.78.51-1.61,1.05-2.42,1.68a2.48,2.48,0,0,0-.49.48c0,.21-.06.53-.1.79-.06.55-.13,1.12-.22,1.69a68.23,68.23,0,0,1-1.53,7.48,36.75,36.75,0,0,1-3.11,8.21c-1.51,2.8-4.21,4.81-6.7,7a17,17,0,0,0-3.36,3.72,7.3,7.3,0,0,0-1.1,4.86,26.82,26.82,0,0,0,1.45,5,17.84,17.84,0,0,1,1,5.06,24.09,24.09,0,0,1-1.7,9.54,45.26,45.26,0,0,1-3.92,7.85c-1.43,2.34-2.84,4.47-4.12,6.41-2.57,3.88-4.62,7-5.95,9.28-.66,1.12-1.16,2-1.49,2.59l-.38.68a1.33,1.33,0,0,1-.15.23s0-.09.1-.25l.33-.71c.31-.61.78-1.51,1.42-2.64,1.27-2.28,3.28-5.47,5.81-9.38,1.26-2,2.66-4.09,4.06-6.43a45.19,45.19,0,0,0,3.84-7.79,23.89,23.89,0,0,0,1.64-9.35,17.35,17.35,0,0,0-1-4.93,26.54,26.54,0,0,1-1.47-5.09,7.71,7.71,0,0,1,1.17-5.19,17.22,17.22,0,0,1,3.47-3.83c2.52-2.2,5.15-4.16,6.61-6.85a37.05,37.05,0,0,0,3.11-8.08,68.31,68.31,0,0,0,1.59-7.42q.14-.85.24-1.68c0-.29.05-.52.11-.83a2,2,0,0,1,.61-.66c.85-.64,1.69-1.17,2.47-1.66,1.57-1,2.95-1.79,4.08-2.44l2.61-1.47.69-.37A1.75,1.75,0,0,1,428.88,178.18Z" style="fill:#263238"></path><path d="M427.65,244.64a8.27,8.27,0,0,1-2.54-.28,19.18,19.18,0,0,1-5.74-2.32,19.45,19.45,0,0,1-4.69-4,7.7,7.7,0,0,1-1.41-2.14,28.1,28.1,0,0,0,6.37,5.73A28.73,28.73,0,0,0,427.65,244.64Z" style="fill:#263238"></path><path d="M429.28,246.39a6.81,6.81,0,0,1-1.95.49,28.32,28.32,0,0,1-9.66-.07,6.32,6.32,0,0,1-1.94-.53c0-.15,3,.44,6.77.46S429.25,246.23,429.28,246.39Z" style="fill:#263238"></path><path d="M430.3,181.21s-6.87.1-9.25,4.16-7.16,33.52,7.15,59c.66,1.17,1.28,1.24,1.28,1.24l2.1-6.88s-3.89-28.42-4.47-31.55-1.52-21.5,1.22-21.85a18.14,18.14,0,0,1,2.05-.13,14.06,14.06,0,0,1,9.06,3.21l2,1.59A15.46,15.46,0,0,0,430.3,181.21Z" style="fill:#263238"></path><g style="opacity:0.30000000000000004"><path d="M425.61,193.86c-7.41,13.69-8,30.17-5.33,45.51a11.06,11.06,0,0,0,1.87,5.22c1.16,1.46,3.33,2.3,5,1.37,1.25-.7,2.29-.38,2.76-1.73,1.51-4.25,2.82-9.74,4.33-14C431.42,218,428.38,206.12,425.61,193.86Z"></path></g><g style="opacity:0.30000000000000004"><path d="M411.87,280.18a49.17,49.17,0,0,0,3.74,29.69,17.55,17.55,0,0,0,3.8,5.67,7.85,7.85,0,0,0,6.26,2.24c2.85-.4,5.08-2.84,6.06-5.55.7-2,.78-4.37-.64-5.9-1.72-1.86-4.67-1.55-7.17-2-4.57-.84-8.14-4.68-9.93-9s-2.12-9-2.42-13.67"></path></g><path d="M460.41,235.08c-.24-6.2-12.06-30.71-12.06-30.71s-5.47-12.18-6.76-14.64c-2.81-5.35-10.65-5.92-13.48-4.29l2.19,30.24,6.49,22-12.64,23.85,15.74,15.5C460.88,274.44,460.64,241.28,460.41,235.08Z" style="fill:#FF2323"></path><path d="M455.27,238.44a7.69,7.69,0,0,1-2.87-.41c-1.75-.44-4-1.46-6.63-2.07a11,11,0,0,0-3.72-.28,7.46,7.46,0,0,0-2.87.93,7.89,7.89,0,0,0-2.07,1.9,1.85,1.85,0,0,1,.33-.71,5.23,5.23,0,0,1,1.54-1.5,7.48,7.48,0,0,1,3-1.1,10.85,10.85,0,0,1,3.89.25c2.7.64,4.93,1.71,6.62,2.22S455.28,238.36,455.27,238.44Z" style="fill:#263238"></path><path d="M447.91,229.06a11.94,11.94,0,0,1-2.31.41,15.26,15.26,0,0,0-5.28,1.63,7.09,7.09,0,0,0-3.32,4.17,8.1,8.1,0,0,0-.13,2.28s-.13-.2-.23-.61a4.43,4.43,0,0,1,0-1.75,7,7,0,0,1,3.41-4.55,13.48,13.48,0,0,1,5.49-1.53A8.68,8.68,0,0,1,447.91,229.06Z" style="fill:#263238"></path><path d="M441.87,277.32a5.85,5.85,0,0,1-1.15-.45,28.68,28.68,0,0,1-3-1.55,36,36,0,0,1-4.12-2.82,41.31,41.31,0,0,1-4.49-4.15,42.66,42.66,0,0,1-3.77-4.81,38.22,38.22,0,0,1-2.47-4.34,29.1,29.1,0,0,1-1.3-3.1,5.75,5.75,0,0,1-.35-1.18c.09,0,.68,1.61,2,4.11a41.79,41.79,0,0,0,2.54,4.24,47.75,47.75,0,0,0,3.75,4.73,44.9,44.9,0,0,0,4.41,4.13,41.19,41.19,0,0,0,4,2.87C440.31,276.5,441.91,277.23,441.87,277.32Z" style="fill:#263238"></path><path d="M436.79,237.71a21.62,21.62,0,0,1-1.24-3.21c-.7-2-1.61-4.79-2.51-7.9s-1.63-5.95-2.1-8a20.86,20.86,0,0,1-.64-3.38,23.74,23.74,0,0,1,1,3.29c.56,2,1.35,4.86,2.25,8s1.71,5.76,2.36,7.93A24.07,24.07,0,0,1,436.79,237.71Z" style="fill:#263238"></path><path d="M424.15,261.56c-.13-.07,2.6-5.46,6.09-12.05s6.42-11.87,6.55-11.81-2.6,5.47-6.09,12.05S424.28,261.63,424.15,261.56Z" style="fill:#263238"></path><path d="M415.74,385c-.14,0,.62-9.65,1.71-21.52S419.53,342,419.67,342s-.62,9.65-1.7,21.52S415.89,385,415.74,385Z" style="fill:#263238"></path><path d="M425.07,388.88a87.47,87.47,0,0,1-2.16-9.31,87.89,87.89,0,0,1-1.66-9.41,88.08,88.08,0,0,1,2.17,9.31A88.76,88.76,0,0,1,425.07,388.88Z" style="fill:#263238"></path><path d="M417.21,364c0,.15-8.78-.08-19.6-.5s-19.59-.87-19.58-1,8.78.08,19.6.49S417.21,363.81,417.21,364Z" style="fill:#fafafa"></path><path d="M453.49,368.16c0,.15-8.08.06-18-.19s-18-.57-18-.72,8.08-.05,18.05.2S453.5,368,453.49,368.16Z" style="fill:#fafafa"></path><path d="M418,353.45c0,.14-8.83-.15-19.7-.65s-19.69-1-19.68-1.18,8.82.15,19.7.66S418.05,353.31,418,353.45Z" style="fill:#fafafa"></path><path d="M452.66,358.08c0,.15-7.76,0-17.31-.29s-17.31-.67-17.3-.81,7.75,0,17.31.29S452.67,357.94,452.66,358.08Z" style="fill:#fafafa"></path></g><g id="freepik--Plant--inject-4"><path d="M76.26,445c.73-2.85-1.13-5.7-3.22-7.76s-4.58-3.91-5.67-6.63c-1.76-4.42.61-10.13-2.4-13.82-1.76-2.16-4.93-2.89-6.5-5.2a11.89,11.89,0,0,1-1.41-4.14,42.06,42.06,0,0,0-10.45-19.56,36.4,36.4,0,0,0,4.1,18.85c1.21,2.32,2.71,4.57,3.11,7.16.66,4.2-1.69,8.52-.66,12.64,1.18,4.71,6.48,7.87,6.73,12.72.21,4.1-3.36,7.7-3.1,11.8a11.18,11.18,0,0,0,1.83,4.87c3.17,5.27,7.83,8.9,14.89,8.78l8.65.31Z" style="fill:#FF2323"></path><g style="opacity:0.30000000000000004"><path d="M76.26,445c.73-2.85-1.13-5.7-3.22-7.76s-4.58-3.91-5.67-6.63c-1.76-4.42.61-10.13-2.4-13.82-1.76-2.16-4.93-2.89-6.5-5.2a11.89,11.89,0,0,1-1.41-4.14,42.06,42.06,0,0,0-10.45-19.56,36.4,36.4,0,0,0,4.1,18.85c1.21,2.32,2.71,4.57,3.11,7.16.66,4.2-1.69,8.52-.66,12.64,1.18,4.71,6.48,7.87,6.73,12.72.21,4.1-3.36,7.7-3.1,11.8a11.18,11.18,0,0,0,1.83,4.87c3.17,5.27,7.83,8.9,14.89,8.78l8.65.31Z"></path></g><path d="M83.91,465.21a7,7,0,0,0,2.38,0,14.06,14.06,0,0,0,2.81-.71,11.68,11.68,0,0,0,3.47-1.9,4.76,4.76,0,0,0,1.43-1.9,9.06,9.06,0,0,0,.41-2.59,27.13,27.13,0,0,1,.2-2.79,7.65,7.65,0,0,1,1.06-2.78c1-1.8,2.71-3.49,3.26-5.92s.17-5-.24-7.59-.79-5.42.21-8.12,2.82-5.15,3.77-8.2.5-6.39.7-9.66a12.77,12.77,0,0,1,1.13-4.8c.7-1.53,1.67-3,2.43-4.59,1.53-3.26,1.8-6.95,2.22-10.57.21-1.82.42-3.67.62-5.53a27.27,27.27,0,0,1,1-5.53,48.64,48.64,0,0,1,2.06-5.35,17.86,17.86,0,0,0,1-2.8,27.58,27.58,0,0,0,.28-3,36.38,36.38,0,0,0-.23-6c-.24-2-.6-4-.81-6,0-.11,0-.23,0-.34l-.05-.4-.35.18a13.44,13.44,0,0,0-4.66,3.93,21.08,21.08,0,0,0-2.86,5.27c-1.44,3.72-2,7.61-2.69,11.33a30.91,30.91,0,0,1-3.55,10.46c-.95,1.54-2.1,2.94-3.1,4.45a12.31,12.31,0,0,0-2.15,4.93c-.51,3.66,1.5,6.87,1.08,10.11a11.16,11.16,0,0,1-1.57,4.49c-.79,1.38-1.71,2.66-2.59,3.95a25.87,25.87,0,0,0-2.32,4,12.62,12.62,0,0,0-1.06,4.34c-.21,2.91.2,5.68,0,8.29A19.16,19.16,0,0,1,85,441c-1,2.13-2.21,4.06-3.18,5.92a29.89,29.89,0,0,0-1.31,2.76,13,13,0,0,0-.76,2.73,17.16,17.16,0,0,0-.07,4.94,12.44,12.44,0,0,0,2.48,6.3,5.79,5.79,0,0,0,.7.75,3.33,3.33,0,0,0,.57.49l.49.34a10.82,10.82,0,0,1-1.67-1.65,12.5,12.5,0,0,1-2.35-6.26,16.71,16.71,0,0,1,.11-4.86,13.58,13.58,0,0,1,.76-2.67c.37-.9.83-1.8,1.32-2.72,1-1.85,2.16-3.77,3.23-5.91a19.36,19.36,0,0,0,2.21-7.23c.23-2.67-.18-5.45,0-8.3a12.25,12.25,0,0,1,1-4.19,25.55,25.55,0,0,1,2.29-3.91c.88-1.28,1.81-2.57,2.62-4a11.55,11.55,0,0,0,1.65-4.67c.42-3.45-1.58-6.69-1.06-10.09a11.66,11.66,0,0,1,2.07-4.71c1-1.48,2.14-2.88,3.12-4.46A31.43,31.43,0,0,0,102.93,379c.74-3.74,1.26-7.59,2.68-11.23a20.8,20.8,0,0,1,2.78-5.14,12.86,12.86,0,0,1,4.46-3.76l-.39-.22c0,.11,0,.23,0,.35.21,2,.57,4,.81,6a35.43,35.43,0,0,1,.23,5.9c-.06,1-.12,2-.27,2.89a17.36,17.36,0,0,1-1,2.69,50.1,50.1,0,0,0-2.09,5.42,27.46,27.46,0,0,0-1,5.62q-.31,2.79-.61,5.53c-.42,3.63-.69,7.27-2.17,10.41-.73,1.57-1.7,3-2.42,4.6a13.46,13.46,0,0,0-1.16,5c-.18,3.34.25,6.6-.65,9.56s-2.79,5.4-3.74,8.19-.6,5.74-.18,8.32.83,5.14.28,7.44-2.15,4-3.19,5.85a7.93,7.93,0,0,0-1.07,2.89,26,26,0,0,0-.19,2.83,8.77,8.77,0,0,1-.36,2.52,4.85,4.85,0,0,1-1.35,1.82,12.18,12.18,0,0,1-3.38,1.91,15,15,0,0,1-2.78.75,10.74,10.74,0,0,1-1.75.17Z" style="fill:#263238"></path><path d="M111.24,363.31a.91.91,0,0,0-.08.26c0,.21-.12.47-.19.78-.17.68-.38,1.71-.7,3s-1.13,2.73-1.8,4.51a64.72,64.72,0,0,0-2,6.14c-.66,2.31-1.25,4.87-1.86,7.61a32,32,0,0,1-2.77,8.45c-.71,1.41-1.51,2.83-2.14,4.38a20.7,20.7,0,0,0-1.25,5,99.28,99.28,0,0,1-1.86,10.46c-1.73,7.09-3.39,13.84-4.89,20l-4.1,16.3c-1.14,4.61-2.06,8.36-2.72,11-.3,1.27-.54,2.27-.71,3-.07.32-.12.57-.17.78a.8.8,0,0,0,0,.27A1.09,1.09,0,0,0,84,465l.22-.76.81-3c.7-2.63,1.68-6.36,2.89-10.95S90.56,440.1,92.15,434s3.18-12.9,4.93-20a97.62,97.62,0,0,0,1.86-10.51,20.18,20.18,0,0,1,1.2-4.84c.61-1.51,1.4-2.93,2.11-4.35a32.41,32.41,0,0,0,2.76-8.58c.59-2.75,1.15-5.3,1.78-7.6s1.3-4.36,2-6.13,1.4-3.25,1.72-4.58.46-2.33.6-3c0-.32.1-.58.13-.79A1,1,0,0,0,111.24,363.31Z" style="fill:#263238"></path><path d="M85.44,465.24c5.65-3.36,7.27-13.55,4.91-19.69s-6.48-11.74-7.12-18.28c-.49-5,1.16-10.19,0-15.11-1.58-6.63-8.06-11.77-8-18.58,0-3.83,2.22-7.43,2-11.25-.21-4.69-3.81-8.41-6-12.54-3.41-6.32-3.63-13.79-4.8-20.88s-3.86-14.68-10.15-18.16c-.92,6-2.51,10.14-2,18.29.18,2.93,3.58,8.53,4,14.95.28,3.83.47,7.67.7,11.51s.47,7.54,1.81,11c1,2.68,2.68,5.11,3.44,7.87,1.43,5.2-.45,10.84.71,16.11,1,4.46,4.07,8.3,4.7,12.83.88,6.36-3.23,13-1.13,19,1,3,3.53,5.43,4.23,8.54.54,2.41,0,5,.44,7.38.8,3.91,8.24,6.94,12.22,6.7" style="fill:#FF2323"></path><path d="M57.85,336.72a1.45,1.45,0,0,0,0,.34l.12,1c.13.87.28,2.15.57,3.8s1.17,3.52,1.86,5.78,1.43,4.83,2.07,7.73,1.18,6.11,1.75,9.56a39.9,39.9,0,0,0,2.89,10.81c.8,1.81,1.69,3.62,2.35,5.54a24.42,24.42,0,0,1,1.19,6.11,124.9,124.9,0,0,0,1.66,13.16l4.88,25.13c1.58,7.7,3,14.64,4.21,20.48s2.19,10.5,2.88,13.79c.34,1.6.62,2.85.81,3.75.09.4.17.72.22,1a1.89,1.89,0,0,0,.1.33,2,2,0,0,0,0-.34c0-.25-.1-.58-.17-1-.17-.9-.41-2.16-.71-3.77-.65-3.3-1.57-8-2.71-13.83s-2.55-12.79-4.09-20.5-3.12-16.21-4.83-25.13a123.67,123.67,0,0,1-1.66-13.11A25.22,25.22,0,0,0,70,381.1c-.68-2-1.58-3.78-2.38-5.57a40.2,40.2,0,0,1-2.91-10.68c-.58-3.45-1.15-6.67-1.82-9.57s-1.41-5.51-2.16-7.75-1.6-4.11-1.94-5.73-.5-2.91-.67-3.77c-.07-.4-.13-.73-.18-1A1.3,1.3,0,0,0,57.85,336.72Z" style="fill:#263238"></path></g></svg>
