<svg xmlns="http://www.w3.org/2000/svg" viewBox="0 0 500 500"><g id="freepik--background-simple--inject-21"><path d="M135.16,351.15C93.61,332.3,64.28,289.87,59.38,244.5s14-92.22,47.69-123,81.05-45.37,126.46-40.9c36.83,3.63,69,26.42,90.26,56.7,7.75,11,14,23.33,24,32.38,19.31,17.48,48.61,19.58,69,35.75,22.51,17.82,29.64,50.86,20.91,78.21S406.71,332.56,381,345.29s-54.69,17.51-83.34,19.38C284.45,365.54,172,367.87,135.16,351.15Z" style="fill:#FF2323"></path><path d="M135.16,351.15C93.61,332.3,64.28,289.87,59.38,244.5s14-92.22,47.69-123,81.05-45.37,126.46-40.9c36.83,3.63,69,26.42,90.26,56.7,7.75,11,14,23.33,24,32.38,19.31,17.48,48.61,19.58,69,35.75,22.51,17.82,29.64,50.86,20.91,78.21S406.71,332.56,381,345.29s-54.69,17.51-83.34,19.38C284.45,365.54,172,367.87,135.16,351.15Z" style="fill:#fff;opacity:0.9"></path></g><g id="freepik--Shadow--inject-21"><ellipse id="freepik--path--inject-21" cx="245.18" cy="412.39" rx="193.89" ry="11.32" style="fill:#f5f5f5"></ellipse></g><g id="freepik--Device--inject-21"><path d="M342.85,339.83H246.56a18.06,18.06,0,0,1-18.25-19.62l16.1-230.15a21.35,21.35,0,0,1,21-19.61h96.29a18.05,18.05,0,0,1,18.25,19.61l-16.1,230.15A21.36,21.36,0,0,1,342.85,339.83Z" style="fill:#FF2323"></path><path d="M337.85,339.83H241.56a18.06,18.06,0,0,1-18.25-19.62l16.1-230.15a21.35,21.35,0,0,1,21-19.61h96.29a18.05,18.05,0,0,1,18.25,19.61l-16.1,230.15A21.36,21.36,0,0,1,337.85,339.83Z" style="fill:#263238"></path><path d="M356.37,75h-25a3.56,3.56,0,0,0-3.43,2.84l-.15.79a8.68,8.68,0,0,1-8.38,6.94H295.59a7.3,7.3,0,0,1-7.41-6.94l0-.79a3,3,0,0,0-3-2.84h-25a16.46,16.46,0,0,0-16.17,15.11l-16.1,230.15a13.92,13.92,0,0,0,14.06,15.12h96.29a16.46,16.46,0,0,0,16.17-15.12l16.1-230.15A13.91,13.91,0,0,0,356.37,75Z" style="fill:#FF2323"></path><path d="M370.43,90.07,354.34,320.22a16.47,16.47,0,0,1-16.18,15.11H241.87a13.89,13.89,0,0,1-14.05-15.11L243.91,90.07A16.46,16.46,0,0,1,260.08,75h25a3,3,0,0,1,3,2.85l0,.78a7.32,7.32,0,0,0,7.41,7h23.79a8.66,8.66,0,0,0,8.37-7l.16-.78A3.56,3.56,0,0,1,331.35,75h25A13.92,13.92,0,0,1,370.43,90.07Z" style="fill:#fff;opacity:0.8"></path><path d="M356.27,292.56l-1.93,27.66a16.47,16.47,0,0,1-16.18,15.11H241.87a13.89,13.89,0,0,1-14.05-15.11l1.93-27.66Z" style="fill:#263238"></path><path d="M356.27,292.56l-1.93,27.66a16.47,16.47,0,0,1-16.18,15.11H241.87a13.89,13.89,0,0,1-14.05-15.11l1.93-27.66Z" style="fill:#fff;opacity:0.5"></path><g style="opacity:0.7000000000000001"><path d="M302.22,77.5a2.07,2.07,0,0,1-2,1.91,1.75,1.75,0,0,1-1.78-1.91,2.07,2.07,0,0,1,2-1.91A1.75,1.75,0,0,1,302.22,77.5Z"></path><path d="M315.92,75.59h-6.56a2.08,2.08,0,0,0-2.05,1.91,1.76,1.76,0,0,0,1.78,1.91h6.56a2.07,2.07,0,0,0,2-1.91A1.75,1.75,0,0,0,315.92,75.59Z"></path></g><polygon points="254.71 85.49 256.73 85.49 256.87 83.46 254.85 83.46 254.71 85.49" style="fill:#FF2323"></polygon><polygon points="258.9 83.46 258.76 85.49 260.78 85.49 260.93 83.46 261.07 81.44 259.04 81.44 258.9 83.46" style="fill:#FF2323"></polygon><polygon points="263.23 79.41 263.09 81.44 262.95 83.46 262.81 85.49 264.83 85.49 264.98 83.46 265.12 81.44 265.26 79.41 263.23 79.41" style="fill:#FF2323"></polygon><path d="M350.3,79.55,350.2,81h-1L349,84h1l-.1,1.49h8.91l.41-5.94ZM354,84h-3l.21-3h3Z" style="fill:#FF2323"></path><path d="M260.45,194.32h-.68a.77.77,0,0,1-.78-.84l1-14.33a5.54,5.54,0,0,1,5.44-5.07h14.32a.77.77,0,0,1,.78.84l0,.67a.9.9,0,0,1-.9.84H265.26a3,3,0,0,0-2.91,2.72l-1,14.33A.92.92,0,0,1,260.45,194.32Z" style="fill:#FF2323"></path><path d="M314.77,253.46l.05-.68a.91.91,0,0,1,.89-.84H330a3,3,0,0,0,2.92-2.72l1-14.33a.91.91,0,0,1,.9-.84h.67a.78.78,0,0,1,.79.84l-1,14.33a5.53,5.53,0,0,1-5.43,5.08H315.55A.78.78,0,0,1,314.77,253.46Z" style="fill:#FF2323"></path><path d="M338.31,194.32h-.68a.77.77,0,0,1-.78-.84l1-14.22a2.71,2.71,0,0,0-.36-1.63,2.5,2.5,0,0,0-2.17-1.19H321a.78.78,0,0,1-.78-.84l.05-.68a.91.91,0,0,1,.9-.84h14.13a5,5,0,0,1,3.36,1.18,4.67,4.67,0,0,1,1.56,3.9l-1,14.32A.92.92,0,0,1,338.31,194.32Z" style="fill:#FF2323"></path><path d="M259.81,254.3a4.69,4.69,0,0,1-3.78-1.83,5,5,0,0,1-.93-3.44l1-14.14a.92.92,0,0,1,.9-.84h.68a.78.78,0,0,1,.78.84l-1,14.24a2.66,2.66,0,0,0,.36,1.62,2.5,2.5,0,0,0,2.16,1.19H274.3a.78.78,0,0,1,.79.84l0,.68a.92.92,0,0,1-.9.84Z" style="fill:#FF2323"></path><path d="M273.4,274.51a3.07,3.07,0,0,1-2.34,1c-1.25,0-2.09-.45-3.29-1.82a3.94,3.94,0,0,1-3.62-4.31,4.72,4.72,0,0,1,4.89-4.34,4,4,0,0,1,4.29,4.34,4.61,4.61,0,0,1-3.28,4.11,1.41,1.41,0,0,0,1.14.58,1.94,1.94,0,0,0,1.41-.62Zm-4.85-2.41a2.79,2.79,0,0,0,2.82-2.69,2.36,2.36,0,0,0-2.44-2.68,2.79,2.79,0,0,0-2.82,2.68A2.36,2.36,0,0,0,268.55,272.1Z" style="fill:#263238"></path><path d="M279.86,273.61l-1.46-2.34h-1.79l-.16,2.34h-1.94l.59-8.39h3.63c2.24,0,3.56,1.16,3.43,3a3,3,0,0,1-1.91,2.65l1.69,2.7Zm-1.35-6.81h-1.58l-.21,2.93h1.59c1.18,0,1.82-.56,1.89-1.47S279.7,266.8,278.51,266.8Z" style="fill:#263238"></path><path d="M286.49,269.41a4.69,4.69,0,0,1,4.86-4.34,4,4,0,0,1,3.35,1.49l-1.33,1.15a2.49,2.49,0,0,0-2-1,2.79,2.79,0,0,0-2.87,2.68,2.37,2.37,0,0,0,2.5,2.69,2.89,2.89,0,0,0,2.18-1l1.16,1.15a4.64,4.64,0,0,1-3.57,1.5A4,4,0,0,1,286.49,269.41Z" style="fill:#263238"></path><path d="M295.11,269.41a4.72,4.72,0,0,1,4.89-4.34,4,4,0,0,1,4.29,4.34,4.72,4.72,0,0,1-4.89,4.35A4,4,0,0,1,295.11,269.41Zm7.22,0a2.36,2.36,0,0,0-2.44-2.68,2.79,2.79,0,0,0-2.82,2.68,2.36,2.36,0,0,0,2.44,2.69A2.79,2.79,0,0,0,302.33,269.41Z" style="fill:#263238"></path><path d="M306.05,265.22h3.82c2.74,0,4.51,1.65,4.33,4.19s-2.17,4.2-4.92,4.2h-3.81Zm3.25,6.8a2.73,2.73,0,0,0,2.94-2.61,2.32,2.32,0,0,0-2.58-2.6h-1.77l-.37,5.21Z" style="fill:#263238"></path><path d="M322,272.05l-.11,1.56h-6.5l.59-8.39h6.34l-.11,1.56h-4.41l-.13,1.82h3.9l-.11,1.51h-3.9l-.13,1.94Z" style="fill:#263238"></path><polygon points="366.92 140.23 240.06 140.23 243.05 97.46 369.91 97.46 366.92 140.23" style="fill:#FF2323"></polygon><path d="M228.08,319.41a14.06,14.06,0,0,0,3.79,10.79l134.78-252a14,14,0,0,0-10-4.07h-96.3a16.48,16.48,0,0,0-16.17,15.12Z" style="fill:#fff;opacity:0.2"></path><rect x="259.96" y="118.34" width="27.68" height="1" transform="translate(136.26 383.75) rotate(-86.02)" style="fill:#e0e0e0"></rect><rect x="291.59" y="118.34" width="27.68" height="1" transform="translate(165.7 415.3) rotate(-86.02)" style="fill:#e0e0e0"></rect><rect x="323.22" y="118.34" width="27.68" height="1" transform="translate(195.15 446.86) rotate(-86.03)" style="fill:#e0e0e0"></rect></g><g id="freepik--qr-code--inject-21"><polygon points="266.55 180.42 266.37 183.1 269.05 183.1 269.24 180.42 266.55 180.42" style="fill:#263238"></polygon><polygon points="269.24 180.42 269.05 183.1 271.74 183.1 271.92 180.42 269.24 180.42" style="fill:#263238"></polygon><polygon points="271.92 180.42 271.74 183.1 274.42 183.1 274.61 180.42 271.92 180.42" style="fill:#263238"></polygon><polygon points="274.61 180.42 274.42 183.1 277.11 183.1 277.29 180.42 274.61 180.42" style="fill:#263238"></polygon><polygon points="277.29 180.42 277.11 183.1 279.79 183.1 279.98 180.42 277.29 180.42" style="fill:#263238"></polygon><polygon points="279.98 180.42 279.79 183.1 282.48 183.1 282.67 180.42 279.98 180.42" style="fill:#263238"></polygon><polygon points="282.67 180.42 282.48 183.1 285.16 183.1 285.35 180.42 282.67 180.42" style="fill:#263238"></polygon><polygon points="293.41 180.42 293.22 183.1 295.9 183.1 296.09 180.42 293.41 180.42" style="fill:#263238"></polygon><polygon points="301.46 180.42 301.27 183.1 303.96 183.1 304.15 180.42 301.46 180.42" style="fill:#263238"></polygon><polygon points="304.15 180.42 303.96 183.1 306.64 183.1 306.83 180.42 304.15 180.42" style="fill:#263238"></polygon><polygon points="306.83 180.42 306.64 183.1 309.33 183.1 309.52 180.42 306.83 180.42" style="fill:#263238"></polygon><polygon points="309.52 180.42 309.33 183.1 312.01 183.1 312.2 180.42 309.52 180.42" style="fill:#263238"></polygon><polygon points="314.89 180.42 314.7 183.1 317.38 183.1 317.57 180.42 314.89 180.42" style="fill:#263238"></polygon><polygon points="317.57 180.42 317.38 183.1 320.07 183.1 320.26 180.42 317.57 180.42" style="fill:#263238"></polygon><polygon points="320.26 180.42 320.07 183.1 322.76 183.1 322.94 180.42 320.26 180.42" style="fill:#263238"></polygon><polygon points="322.94 180.42 322.76 183.1 325.44 183.1 325.63 180.42 322.94 180.42" style="fill:#263238"></polygon><polygon points="325.63 180.42 325.44 183.1 328.13 183.1 328.31 180.42 325.63 180.42" style="fill:#263238"></polygon><polygon points="328.31 180.42 328.13 183.1 330.81 183.1 331 180.42 328.31 180.42" style="fill:#263238"></polygon><polygon points="331 180.42 330.81 183.1 333.5 183.1 333.69 180.42 331 180.42" style="fill:#263238"></polygon><polygon points="266.37 183.1 266.18 185.79 268.86 185.79 269.05 183.1 266.37 183.1" style="fill:#263238"></polygon><polygon points="282.48 183.1 282.29 185.79 284.97 185.79 285.16 183.1 282.48 183.1" style="fill:#263238"></polygon><polygon points="290.53 183.1 290.35 185.79 293.03 185.79 293.22 183.1 290.53 183.1" style="fill:#263238"></polygon><polygon points="303.96 183.1 303.77 185.79 306.46 185.79 306.64 183.1 303.96 183.1" style="fill:#263238"></polygon><polygon points="306.64 183.1 306.46 185.79 309.14 185.79 309.33 183.1 306.64 183.1" style="fill:#263238"></polygon><polygon points="309.33 183.1 309.14 185.79 311.83 185.79 312.01 183.1 309.33 183.1" style="fill:#263238"></polygon><polygon points="314.7 183.1 314.51 185.79 317.2 185.79 317.38 183.1 314.7 183.1" style="fill:#263238"></polygon><polygon points="330.81 183.1 330.62 185.79 333.31 185.79 333.5 183.1 330.81 183.1" style="fill:#263238"></polygon><polygon points="266.18 185.79 265.99 188.47 268.68 188.47 268.86 185.79 266.18 185.79" style="fill:#263238"></polygon><polygon points="271.55 185.79 271.36 188.47 274.05 188.47 274.23 185.79 271.55 185.79" style="fill:#263238"></polygon><polygon points="274.23 185.79 274.05 188.47 276.73 188.47 276.92 185.79 274.23 185.79" style="fill:#263238"></polygon><polygon points="276.92 185.79 276.73 188.47 279.42 188.47 279.6 185.79 276.92 185.79" style="fill:#263238"></polygon><polygon points="282.29 185.79 282.1 188.47 284.79 188.47 284.97 185.79 282.29 185.79" style="fill:#263238"></polygon><polygon points="287.66 185.79 287.47 188.47 290.16 188.47 290.35 185.79 287.66 185.79" style="fill:#263238"></polygon><polygon points="295.72 185.79 295.53 188.47 298.21 188.47 298.4 185.79 295.72 185.79" style="fill:#263238"></polygon><polygon points="303.77 185.79 303.58 188.47 306.27 188.47 306.46 185.79 303.77 185.79" style="fill:#263238"></polygon><polygon points="314.51 185.79 314.32 188.47 317.01 188.47 317.2 185.79 314.51 185.79" style="fill:#263238"></polygon><polygon points="319.88 185.79 319.69 188.47 322.38 188.47 322.57 185.79 319.88 185.79" style="fill:#263238"></polygon><polygon points="322.57 185.79 322.38 188.47 325.07 188.47 325.25 185.79 322.57 185.79" style="fill:#263238"></polygon><polygon points="325.25 185.79 325.07 188.47 327.75 188.47 327.94 185.79 325.25 185.79" style="fill:#263238"></polygon><polygon points="330.62 185.79 330.44 188.47 333.12 188.47 333.31 185.79 330.62 185.79" style="fill:#263238"></polygon><polygon points="265.99 188.47 265.8 191.16 268.49 191.16 268.68 188.47 265.99 188.47" style="fill:#263238"></polygon><polygon points="271.36 188.47 271.17 191.16 273.86 191.16 274.05 188.47 271.36 188.47" style="fill:#263238"></polygon><polygon points="274.05 188.47 273.86 191.16 276.54 191.16 276.73 188.47 274.05 188.47" style="fill:#263238"></polygon><polygon points="276.73 188.47 276.54 191.16 279.23 191.16 279.42 188.47 276.73 188.47" style="fill:#263238"></polygon><polygon points="282.1 188.47 281.91 191.16 284.6 191.16 284.79 188.47 282.1 188.47" style="fill:#263238"></polygon><polygon points="290.16 188.47 289.97 191.16 292.65 191.16 292.84 188.47 290.16 188.47" style="fill:#263238"></polygon><polygon points="303.58 188.47 303.4 191.16 306.08 191.16 306.27 188.47 303.58 188.47" style="fill:#263238"></polygon><polygon points="306.27 188.47 306.08 191.16 308.77 191.16 308.95 188.47 306.27 188.47" style="fill:#263238"></polygon><polygon points="314.32 188.47 314.14 191.16 316.82 191.16 317.01 188.47 314.32 188.47" style="fill:#263238"></polygon><polygon points="319.69 188.47 319.51 191.16 322.19 191.16 322.38 188.47 319.69 188.47" style="fill:#263238"></polygon><polygon points="322.38 188.47 322.19 191.16 324.88 191.16 325.07 188.47 322.38 188.47" style="fill:#263238"></polygon><polygon points="325.07 188.47 324.88 191.16 327.56 191.16 327.75 188.47 325.07 188.47" style="fill:#263238"></polygon><polygon points="330.44 188.47 330.25 191.16 332.93 191.16 333.12 188.47 330.44 188.47" style="fill:#263238"></polygon><polygon points="265.8 191.16 265.61 193.84 268.3 193.84 268.49 191.16 265.8 191.16" style="fill:#263238"></polygon><polygon points="271.17 191.16 270.99 193.84 273.67 193.84 273.86 191.16 271.17 191.16" style="fill:#263238"></polygon><polygon points="273.86 191.16 273.67 193.84 276.36 193.84 276.54 191.16 273.86 191.16" style="fill:#263238"></polygon><polygon points="276.54 191.16 276.36 193.84 279.04 193.84 279.23 191.16 276.54 191.16" style="fill:#263238"></polygon><polygon points="281.91 191.16 281.73 193.84 284.41 193.84 284.6 191.16 281.91 191.16" style="fill:#263238"></polygon><polygon points="289.97 191.16 289.78 193.84 292.47 193.84 292.65 191.16 289.97 191.16" style="fill:#263238"></polygon><polygon points="298.02 191.16 297.84 193.84 300.52 193.84 300.71 191.16 298.02 191.16" style="fill:#263238"></polygon><polygon points="300.71 191.16 300.52 193.84 303.21 193.84 303.4 191.16 300.71 191.16" style="fill:#263238"></polygon><polygon points="303.4 191.16 303.21 193.84 305.89 193.84 306.08 191.16 303.4 191.16" style="fill:#263238"></polygon><polygon points="306.08 191.16 305.89 193.84 308.58 193.84 308.77 191.16 306.08 191.16" style="fill:#263238"></polygon><polygon points="314.14 191.16 313.95 193.84 316.63 193.84 316.82 191.16 314.14 191.16" style="fill:#263238"></polygon><polygon points="319.51 191.16 319.32 193.84 322 193.84 322.19 191.16 319.51 191.16" style="fill:#263238"></polygon><polygon points="322.19 191.16 322 193.84 324.69 193.84 324.88 191.16 322.19 191.16" style="fill:#263238"></polygon><polygon points="324.88 191.16 324.69 193.84 327.38 193.84 327.56 191.16 324.88 191.16" style="fill:#263238"></polygon><polygon points="330.25 191.16 330.06 193.84 332.75 193.84 332.93 191.16 330.25 191.16" style="fill:#263238"></polygon><polygon points="265.61 193.84 265.43 196.53 268.11 196.53 268.3 193.84 265.61 193.84" style="fill:#263238"></polygon><polygon points="281.73 193.84 281.54 196.53 284.22 196.53 284.41 193.84 281.73 193.84" style="fill:#263238"></polygon><polygon points="292.47 193.84 292.28 196.53 294.96 196.53 295.15 193.84 292.47 193.84" style="fill:#263238"></polygon><polygon points="295.15 193.84 294.96 196.53 297.65 196.53 297.84 193.84 295.15 193.84" style="fill:#263238"></polygon><polygon points="300.52 193.84 300.33 196.53 303.02 196.53 303.21 193.84 300.52 193.84" style="fill:#263238"></polygon><polygon points="303.21 193.84 303.02 196.53 305.7 196.53 305.89 193.84 303.21 193.84" style="fill:#263238"></polygon><polygon points="305.89 193.84 305.7 196.53 308.39 196.53 308.58 193.84 305.89 193.84" style="fill:#263238"></polygon><polygon points="308.58 193.84 308.39 196.53 311.08 196.53 311.26 193.84 308.58 193.84" style="fill:#263238"></polygon><polygon points="313.95 193.84 313.76 196.53 316.45 196.53 316.63 193.84 313.95 193.84" style="fill:#263238"></polygon><polygon points="330.06 193.84 329.87 196.53 332.56 196.53 332.75 193.84 330.06 193.84" style="fill:#263238"></polygon><polygon points="265.43 196.53 265.24 199.22 267.92 199.22 268.11 196.53 265.43 196.53" style="fill:#263238"></polygon><polygon points="268.11 196.53 267.92 199.22 270.61 199.22 270.8 196.53 268.11 196.53" style="fill:#263238"></polygon><polygon points="270.8 196.53 270.61 199.22 273.29 199.22 273.48 196.53 270.8 196.53" style="fill:#263238"></polygon><polygon points="273.48 196.53 273.29 199.22 275.98 199.22 276.17 196.53 273.48 196.53" style="fill:#263238"></polygon><polygon points="276.17 196.53 275.98 199.22 278.67 199.22 278.85 196.53 276.17 196.53" style="fill:#263238"></polygon><polygon points="278.85 196.53 278.67 199.22 281.35 199.22 281.54 196.53 278.85 196.53" style="fill:#263238"></polygon><polygon points="281.54 196.53 281.35 199.22 284.04 199.22 284.22 196.53 281.54 196.53" style="fill:#263238"></polygon><polygon points="286.91 196.53 286.72 199.22 289.41 199.22 289.59 196.53 286.91 196.53" style="fill:#263238"></polygon><polygon points="292.28 196.53 292.09 199.22 294.78 199.22 294.96 196.53 292.28 196.53" style="fill:#263238"></polygon><polygon points="297.65 196.53 297.46 199.22 300.15 199.22 300.33 196.53 297.65 196.53" style="fill:#263238"></polygon><polygon points="303.02 196.53 302.83 199.22 305.52 199.22 305.7 196.53 303.02 196.53" style="fill:#263238"></polygon><polygon points="308.39 196.53 308.2 199.22 310.89 199.22 311.08 196.53 308.39 196.53" style="fill:#263238"></polygon><polygon points="313.76 196.53 313.57 199.22 316.26 199.22 316.45 196.53 313.76 196.53" style="fill:#263238"></polygon><polygon points="316.45 196.53 316.26 199.22 318.94 199.22 319.13 196.53 316.45 196.53" style="fill:#263238"></polygon><polygon points="319.13 196.53 318.94 199.22 321.63 199.22 321.82 196.53 319.13 196.53" style="fill:#263238"></polygon><polygon points="321.82 196.53 321.63 199.22 324.31 199.22 324.5 196.53 321.82 196.53" style="fill:#263238"></polygon><polygon points="324.5 196.53 324.31 199.22 327 199.22 327.19 196.53 324.5 196.53" style="fill:#263238"></polygon><polygon points="327.19 196.53 327 199.22 329.69 199.22 329.87 196.53 327.19 196.53" style="fill:#263238"></polygon><polygon points="329.87 196.53 329.69 199.22 332.37 199.22 332.56 196.53 329.87 196.53" style="fill:#263238"></polygon><polygon points="286.72 199.22 286.53 201.9 289.22 201.9 289.41 199.22 286.72 199.22" style="fill:#263238"></polygon><polygon points="297.46 199.22 297.27 201.9 299.96 201.9 300.15 199.22 297.46 199.22" style="fill:#263238"></polygon><polygon points="300.15 199.22 299.96 201.9 302.64 201.9 302.83 199.22 300.15 199.22" style="fill:#263238"></polygon><polygon points="308.2 199.22 308.01 201.9 310.7 201.9 310.89 199.22 308.2 199.22" style="fill:#263238"></polygon><polygon points="265.05 201.9 264.86 204.59 267.55 204.59 267.74 201.9 265.05 201.9" style="fill:#263238"></polygon><polygon points="267.74 201.9 267.55 204.59 270.23 204.59 270.42 201.9 267.74 201.9" style="fill:#263238"></polygon><polygon points="270.42 201.9 270.23 204.59 272.92 204.59 273.11 201.9 270.42 201.9" style="fill:#263238"></polygon><polygon points="275.79 201.9 275.6 204.59 278.29 204.59 278.48 201.9 275.79 201.9" style="fill:#263238"></polygon><polygon points="278.48 201.9 278.29 204.59 280.98 204.59 281.16 201.9 278.48 201.9" style="fill:#263238"></polygon><polygon points="281.16 201.9 280.98 204.59 283.66 204.59 283.85 201.9 281.16 201.9" style="fill:#263238"></polygon><polygon points="283.85 201.9 283.66 204.59 286.35 204.59 286.53 201.9 283.85 201.9" style="fill:#263238"></polygon><polygon points="286.53 201.9 286.35 204.59 289.03 204.59 289.22 201.9 286.53 201.9" style="fill:#263238"></polygon><polygon points="294.59 201.9 294.4 204.59 297.09 204.59 297.27 201.9 294.59 201.9" style="fill:#263238"></polygon><polygon points="297.27 201.9 297.09 204.59 299.77 204.59 299.96 201.9 297.27 201.9" style="fill:#263238"></polygon><polygon points="299.96 201.9 299.77 204.59 302.46 204.59 302.64 201.9 299.96 201.9" style="fill:#263238"></polygon><polygon points="308.01 201.9 307.83 204.59 310.51 204.59 310.7 201.9 308.01 201.9" style="fill:#263238"></polygon><polygon points="310.7 201.9 310.51 204.59 313.2 204.59 313.39 201.9 310.7 201.9" style="fill:#263238"></polygon><polygon points="313.39 201.9 313.2 204.59 315.88 204.59 316.07 201.9 313.39 201.9" style="fill:#263238"></polygon><polygon points="324.13 201.9 323.94 204.59 326.62 204.59 326.81 201.9 324.13 201.9" style="fill:#263238"></polygon><polygon points="270.23 204.59 270.05 207.27 272.73 207.27 272.92 204.59 270.23 204.59" style="fill:#263238"></polygon><polygon points="272.92 204.59 272.73 207.27 275.42 207.27 275.6 204.59 272.92 204.59" style="fill:#263238"></polygon><polygon points="275.6 204.59 275.42 207.27 278.1 207.27 278.29 204.59 275.6 204.59" style="fill:#263238"></polygon><polygon points="283.66 204.59 283.47 207.27 286.16 207.27 286.35 204.59 283.66 204.59" style="fill:#263238"></polygon><polygon points="286.35 204.59 286.16 207.27 288.84 207.27 289.03 204.59 286.35 204.59" style="fill:#263238"></polygon><polygon points="289.03 204.59 288.84 207.27 291.53 207.27 291.72 204.59 289.03 204.59" style="fill:#263238"></polygon><polygon points="294.4 204.59 294.21 207.27 296.9 207.27 297.09 204.59 294.4 204.59" style="fill:#263238"></polygon><polygon points="297.09 204.59 296.9 207.27 299.58 207.27 299.77 204.59 297.09 204.59" style="fill:#263238"></polygon><polygon points="307.83 204.59 307.64 207.27 310.32 207.27 310.51 204.59 307.83 204.59" style="fill:#263238"></polygon><polygon points="313.2 204.59 313.01 207.27 315.69 207.27 315.88 204.59 313.2 204.59" style="fill:#263238"></polygon><polygon points="329.31 204.59 329.12 207.27 331.81 207.27 332 204.59 329.31 204.59" style="fill:#263238"></polygon><polygon points="270.05 207.27 269.86 209.96 272.54 209.96 272.73 207.27 270.05 207.27" style="fill:#263238"></polygon><polygon points="280.79 207.27 280.6 209.96 283.28 209.96 283.47 207.27 280.79 207.27" style="fill:#263238"></polygon><polygon points="283.47 207.27 283.28 209.96 285.97 209.96 286.16 207.27 283.47 207.27" style="fill:#263238"></polygon><polygon points="291.53 207.27 291.34 209.96 294.02 209.96 294.21 207.27 291.53 207.27" style="fill:#263238"></polygon><polygon points="296.9 207.27 296.71 209.96 299.4 209.96 299.58 207.27 296.9 207.27" style="fill:#263238"></polygon><polygon points="302.27 207.27 302.08 209.96 304.77 209.96 304.95 207.27 302.27 207.27" style="fill:#263238"></polygon><polygon points="313.01 207.27 312.82 209.96 315.51 209.96 315.69 207.27 313.01 207.27" style="fill:#263238"></polygon><polygon points="315.69 207.27 315.51 209.96 318.19 209.96 318.38 207.27 315.69 207.27" style="fill:#263238"></polygon><polygon points="318.38 207.27 318.19 209.96 320.88 209.96 321.07 207.27 318.38 207.27" style="fill:#263238"></polygon><polygon points="323.75 207.27 323.56 209.96 326.25 209.96 326.44 207.27 323.75 207.27" style="fill:#263238"></polygon><polygon points="326.44 207.27 326.25 209.96 328.93 209.96 329.12 207.27 326.44 207.27" style="fill:#263238"></polygon><polygon points="329.12 207.27 328.93 209.96 331.62 209.96 331.81 207.27 329.12 207.27" style="fill:#263238"></polygon><polygon points="264.49 209.96 264.3 212.64 266.99 212.64 267.17 209.96 264.49 209.96" style="fill:#263238"></polygon><polygon points="267.17 209.96 266.99 212.64 269.67 212.64 269.86 209.96 267.17 209.96" style="fill:#263238"></polygon><polygon points="269.86 209.96 269.67 212.64 272.36 212.64 272.54 209.96 269.86 209.96" style="fill:#263238"></polygon><polygon points="275.23 209.96 275.04 212.64 277.73 212.64 277.91 209.96 275.23 209.96" style="fill:#263238"></polygon><polygon points="288.65 209.96 288.47 212.64 291.15 212.64 291.34 209.96 288.65 209.96" style="fill:#263238"></polygon><polygon points="291.34 209.96 291.15 212.64 293.84 212.64 294.02 209.96 291.34 209.96" style="fill:#263238"></polygon><polygon points="296.71 209.96 296.52 212.64 299.21 212.64 299.4 209.96 296.71 209.96" style="fill:#263238"></polygon><polygon points="299.4 209.96 299.21 212.64 301.89 212.64 302.08 209.96 299.4 209.96" style="fill:#263238"></polygon><polygon points="302.08 209.96 301.89 212.64 304.58 212.64 304.77 209.96 302.08 209.96" style="fill:#263238"></polygon><polygon points="304.77 209.96 304.58 212.64 307.26 212.64 307.45 209.96 304.77 209.96" style="fill:#263238"></polygon><polygon points="310.14 209.96 309.95 212.64 312.63 212.64 312.82 209.96 310.14 209.96" style="fill:#263238"></polygon><polygon points="312.82 209.96 312.63 212.64 315.32 212.64 315.51 209.96 312.82 209.96" style="fill:#263238"></polygon><polygon points="315.51 209.96 315.32 212.64 318 212.64 318.19 209.96 315.51 209.96" style="fill:#263238"></polygon><polygon points="326.25 209.96 326.06 212.64 328.75 212.64 328.93 209.96 326.25 209.96" style="fill:#263238"></polygon><polygon points="269.67 212.64 269.48 215.33 272.17 215.33 272.36 212.64 269.67 212.64" style="fill:#263238"></polygon><polygon points="272.36 212.64 272.17 215.33 274.85 215.33 275.04 212.64 272.36 212.64" style="fill:#263238"></polygon><polygon points="280.41 212.64 280.22 215.33 282.91 215.33 283.1 212.64 280.41 212.64" style="fill:#263238"></polygon><polygon points="285.78 212.64 285.59 215.33 288.28 215.33 288.47 212.64 285.78 212.64" style="fill:#263238"></polygon><polygon points="291.15 212.64 290.96 215.33 293.65 215.33 293.84 212.64 291.15 212.64" style="fill:#263238"></polygon><polygon points="299.21 212.64 299.02 215.33 301.71 215.33 301.89 212.64 299.21 212.64" style="fill:#263238"></polygon><polygon points="307.26 212.64 307.08 215.33 309.76 215.33 309.95 212.64 307.26 212.64" style="fill:#263238"></polygon><polygon points="309.95 212.64 309.76 215.33 312.45 215.33 312.63 212.64 309.95 212.64" style="fill:#263238"></polygon><polygon points="312.63 212.64 312.45 215.33 315.13 215.33 315.32 212.64 312.63 212.64" style="fill:#263238"></polygon><polygon points="315.32 212.64 315.13 215.33 317.82 215.33 318 212.64 315.32 212.64" style="fill:#263238"></polygon><polygon points="320.69 212.64 320.5 215.33 323.19 215.33 323.38 212.64 320.69 212.64" style="fill:#263238"></polygon><polygon points="326.06 212.64 325.87 215.33 328.56 215.33 328.75 212.64 326.06 212.64" style="fill:#263238"></polygon><polygon points="328.75 212.64 328.56 215.33 331.24 215.33 331.43 212.64 328.75 212.64" style="fill:#263238"></polygon><polygon points="277.54 215.33 277.35 218.01 280.04 218.01 280.22 215.33 277.54 215.33" style="fill:#263238"></polygon><polygon points="282.91 215.33 282.72 218.01 285.41 218.01 285.59 215.33 282.91 215.33" style="fill:#263238"></polygon><polygon points="285.59 215.33 285.41 218.01 288.09 218.01 288.28 215.33 285.59 215.33" style="fill:#263238"></polygon><polygon points="290.96 215.33 290.78 218.01 293.46 218.01 293.65 215.33 290.96 215.33" style="fill:#263238"></polygon><polygon points="296.33 215.33 296.15 218.01 298.83 218.01 299.02 215.33 296.33 215.33" style="fill:#263238"></polygon><polygon points="307.08 215.33 306.89 218.01 309.57 218.01 309.76 215.33 307.08 215.33" style="fill:#263238"></polygon><polygon points="309.76 215.33 309.57 218.01 312.26 218.01 312.45 215.33 309.76 215.33" style="fill:#263238"></polygon><polygon points="312.45 215.33 312.26 218.01 314.94 218.01 315.13 215.33 312.45 215.33" style="fill:#263238"></polygon><polygon points="320.5 215.33 320.31 218.01 323 218.01 323.19 215.33 320.5 215.33" style="fill:#263238"></polygon><polygon points="328.56 215.33 328.37 218.01 331.06 218.01 331.24 215.33 328.56 215.33" style="fill:#263238"></polygon><polygon points="263.92 218.01 263.74 220.7 266.42 220.7 266.61 218.01 263.92 218.01" style="fill:#263238"></polygon><polygon points="271.98 218.01 271.79 220.7 274.48 220.7 274.67 218.01 271.98 218.01" style="fill:#263238"></polygon><polygon points="274.67 218.01 274.48 220.7 277.16 220.7 277.35 218.01 274.67 218.01" style="fill:#263238"></polygon><polygon points="277.35 218.01 277.16 220.7 279.85 220.7 280.04 218.01 277.35 218.01" style="fill:#263238"></polygon><polygon points="280.04 218.01 279.85 220.7 282.53 220.7 282.72 218.01 280.04 218.01" style="fill:#263238"></polygon><polygon points="282.72 218.01 282.53 220.7 285.22 220.7 285.41 218.01 282.72 218.01" style="fill:#263238"></polygon><polygon points="288.09 218.01 287.9 220.7 290.59 220.7 290.78 218.01 288.09 218.01" style="fill:#263238"></polygon><polygon points="290.78 218.01 290.59 220.7 293.27 220.7 293.46 218.01 290.78 218.01" style="fill:#263238"></polygon><polygon points="298.83 218.01 298.64 220.7 301.33 220.7 301.52 218.01 298.83 218.01" style="fill:#263238"></polygon><polygon points="306.89 218.01 306.7 220.7 309.39 220.7 309.57 218.01 306.89 218.01" style="fill:#263238"></polygon><polygon points="309.57 218.01 309.39 220.7 312.07 220.7 312.26 218.01 309.57 218.01" style="fill:#263238"></polygon><polygon points="312.26 218.01 312.07 220.7 314.76 220.7 314.94 218.01 312.26 218.01" style="fill:#263238"></polygon><polygon points="314.94 218.01 314.76 220.7 317.44 220.7 317.63 218.01 314.94 218.01" style="fill:#263238"></polygon><polygon points="323 218.01 322.81 220.7 325.5 220.7 325.69 218.01 323 218.01" style="fill:#263238"></polygon><polygon points="325.69 218.01 325.5 220.7 328.18 220.7 328.37 218.01 325.69 218.01" style="fill:#263238"></polygon><polygon points="328.37 218.01 328.18 220.7 330.87 220.7 331.06 218.01 328.37 218.01" style="fill:#263238"></polygon><polygon points="266.42 220.7 266.23 223.38 268.92 223.38 269.11 220.7 266.42 220.7" style="fill:#263238"></polygon><polygon points="269.11 220.7 268.92 223.38 271.61 223.38 271.79 220.7 269.11 220.7" style="fill:#263238"></polygon><polygon points="277.16 220.7 276.98 223.38 279.66 223.38 279.85 220.7 277.16 220.7" style="fill:#263238"></polygon><polygon points="282.53 220.7 282.35 223.38 285.03 223.38 285.22 220.7 282.53 220.7" style="fill:#263238"></polygon><polygon points="287.9 220.7 287.72 223.38 290.4 223.38 290.59 220.7 287.9 220.7" style="fill:#263238"></polygon><polygon points="290.59 220.7 290.4 223.38 293.09 223.38 293.27 220.7 290.59 220.7" style="fill:#263238"></polygon><polygon points="298.64 220.7 298.46 223.38 301.14 223.38 301.33 220.7 298.64 220.7" style="fill:#263238"></polygon><polygon points="304.02 220.7 303.83 223.38 306.51 223.38 306.7 220.7 304.02 220.7" style="fill:#263238"></polygon><polygon points="312.07 220.7 311.88 223.38 314.57 223.38 314.76 220.7 312.07 220.7" style="fill:#263238"></polygon><polygon points="317.44 220.7 317.25 223.38 319.94 223.38 320.13 220.7 317.44 220.7" style="fill:#263238"></polygon><polygon points="325.5 220.7 325.31 223.38 328 223.38 328.18 220.7 325.5 220.7" style="fill:#263238"></polygon><polygon points="263.55 223.38 263.36 226.07 266.05 226.07 266.23 223.38 263.55 223.38" style="fill:#263238"></polygon><polygon points="268.92 223.38 268.73 226.07 271.42 226.07 271.61 223.38 268.92 223.38" style="fill:#263238"></polygon><polygon points="276.98 223.38 276.79 226.07 279.47 226.07 279.66 223.38 276.98 223.38" style="fill:#263238"></polygon><polygon points="279.66 223.38 279.47 226.07 282.16 226.07 282.35 223.38 279.66 223.38" style="fill:#263238"></polygon><polygon points="282.35 223.38 282.16 226.07 284.84 226.07 285.03 223.38 282.35 223.38" style="fill:#263238"></polygon><polygon points="298.46 223.38 298.27 226.07 300.95 226.07 301.14 223.38 298.46 223.38" style="fill:#263238"></polygon><polygon points="306.51 223.38 306.32 226.07 309.01 226.07 309.2 223.38 306.51 223.38" style="fill:#263238"></polygon><polygon points="309.2 223.38 309.01 226.07 311.7 226.07 311.88 223.38 309.2 223.38" style="fill:#263238"></polygon><polygon points="311.88 223.38 311.7 226.07 314.38 226.07 314.57 223.38 311.88 223.38" style="fill:#263238"></polygon><polygon points="314.57 223.38 314.38 226.07 317.07 226.07 317.25 223.38 314.57 223.38" style="fill:#263238"></polygon><polygon points="317.25 223.38 317.07 226.07 319.75 226.07 319.94 223.38 317.25 223.38" style="fill:#263238"></polygon><polygon points="319.94 223.38 319.75 226.07 322.44 226.07 322.63 223.38 319.94 223.38" style="fill:#263238"></polygon><polygon points="284.84 226.07 284.65 228.75 287.34 228.75 287.53 226.07 284.84 226.07" style="fill:#263238"></polygon><polygon points="290.21 226.07 290.03 228.75 292.71 228.75 292.9 226.07 290.21 226.07" style="fill:#263238"></polygon><polygon points="295.58 226.07 295.4 228.75 298.08 228.75 298.27 226.07 295.58 226.07" style="fill:#263238"></polygon><polygon points="306.32 226.07 306.14 228.75 308.82 228.75 309.01 226.07 306.32 226.07" style="fill:#263238"></polygon><polygon points="317.07 226.07 316.88 228.75 319.56 228.75 319.75 226.07 317.07 226.07" style="fill:#263238"></polygon><polygon points="319.75 226.07 319.56 228.75 322.25 228.75 322.44 226.07 319.75 226.07" style="fill:#263238"></polygon><polygon points="325.12 226.07 324.93 228.75 327.62 228.75 327.81 226.07 325.12 226.07" style="fill:#263238"></polygon><polygon points="327.81 226.07 327.62 228.75 330.31 228.75 330.49 226.07 327.81 226.07" style="fill:#263238"></polygon><polygon points="263.17 228.75 262.99 231.44 265.67 231.44 265.86 228.75 263.17 228.75" style="fill:#263238"></polygon><polygon points="265.86 228.75 265.67 231.44 268.36 231.44 268.54 228.75 265.86 228.75" style="fill:#263238"></polygon><polygon points="268.54 228.75 268.36 231.44 271.04 231.44 271.23 228.75 268.54 228.75" style="fill:#263238"></polygon><polygon points="271.23 228.75 271.04 231.44 273.73 231.44 273.91 228.75 271.23 228.75" style="fill:#263238"></polygon><polygon points="273.91 228.75 273.73 231.44 276.41 231.44 276.6 228.75 273.91 228.75" style="fill:#263238"></polygon><polygon points="276.6 228.75 276.41 231.44 279.1 231.44 279.29 228.75 276.6 228.75" style="fill:#263238"></polygon><polygon points="279.29 228.75 279.1 231.44 281.78 231.44 281.97 228.75 279.29 228.75" style="fill:#263238"></polygon><polygon points="284.65 228.75 284.47 231.44 287.15 231.44 287.34 228.75 284.65 228.75" style="fill:#263238"></polygon><polygon points="287.34 228.75 287.15 231.44 289.84 231.44 290.03 228.75 287.34 228.75" style="fill:#263238"></polygon><polygon points="290.03 228.75 289.84 231.44 292.52 231.44 292.71 228.75 290.03 228.75" style="fill:#263238"></polygon><polygon points="298.08 228.75 297.89 231.44 300.58 231.44 300.77 228.75 298.08 228.75" style="fill:#263238"></polygon><polygon points="300.77 228.75 300.58 231.44 303.26 231.44 303.45 228.75 300.77 228.75" style="fill:#263238"></polygon><polygon points="303.45 228.75 303.26 231.44 305.95 231.44 306.14 228.75 303.45 228.75" style="fill:#263238"></polygon><polygon points="306.14 228.75 305.95 231.44 308.63 231.44 308.82 228.75 306.14 228.75" style="fill:#263238"></polygon><polygon points="311.51 228.75 311.32 231.44 314.01 231.44 314.19 228.75 311.51 228.75" style="fill:#263238"></polygon><polygon points="316.88 228.75 316.69 231.44 319.38 231.44 319.56 228.75 316.88 228.75" style="fill:#263238"></polygon><polygon points="319.56 228.75 319.38 231.44 322.06 231.44 322.25 228.75 319.56 228.75" style="fill:#263238"></polygon><polygon points="324.93 228.75 324.75 231.44 327.43 231.44 327.62 228.75 324.93 228.75" style="fill:#263238"></polygon><polygon points="327.62 228.75 327.43 231.44 330.12 231.44 330.31 228.75 327.62 228.75" style="fill:#263238"></polygon><polygon points="262.99 231.44 262.8 234.12 265.48 234.12 265.67 231.44 262.99 231.44" style="fill:#263238"></polygon><polygon points="279.1 231.44 278.91 234.12 281.6 234.12 281.78 231.44 279.1 231.44" style="fill:#263238"></polygon><polygon points="284.47 231.44 284.28 234.12 286.96 234.12 287.15 231.44 284.47 231.44" style="fill:#263238"></polygon><polygon points="295.21 231.44 295.02 234.12 297.71 234.12 297.89 231.44 295.21 231.44" style="fill:#263238"></polygon><polygon points="297.89 231.44 297.71 234.12 300.39 234.12 300.58 231.44 297.89 231.44" style="fill:#263238"></polygon><polygon points="300.58 231.44 300.39 234.12 303.08 234.12 303.26 231.44 300.58 231.44" style="fill:#263238"></polygon><polygon points="305.95 231.44 305.76 234.12 308.45 234.12 308.63 231.44 305.95 231.44" style="fill:#263238"></polygon><polygon points="316.69 231.44 316.5 234.12 319.19 234.12 319.38 231.44 316.69 231.44" style="fill:#263238"></polygon><polygon points="319.38 231.44 319.19 234.12 321.87 234.12 322.06 231.44 319.38 231.44" style="fill:#263238"></polygon><polygon points="324.75 231.44 324.56 234.12 327.24 234.12 327.43 231.44 324.75 231.44" style="fill:#263238"></polygon><polygon points="262.8 234.12 262.61 236.81 265.3 236.81 265.48 234.12 262.8 234.12" style="fill:#263238"></polygon><polygon points="268.17 234.12 267.98 236.81 270.67 236.81 270.85 234.12 268.17 234.12" style="fill:#263238"></polygon><polygon points="270.85 234.12 270.67 236.81 273.35 236.81 273.54 234.12 270.85 234.12" style="fill:#263238"></polygon><polygon points="273.54 234.12 273.35 236.81 276.04 236.81 276.22 234.12 273.54 234.12" style="fill:#263238"></polygon><polygon points="278.91 234.12 278.72 236.81 281.41 236.81 281.6 234.12 278.91 234.12" style="fill:#263238"></polygon><polygon points="284.28 234.12 284.09 236.81 286.78 236.81 286.96 234.12 284.28 234.12" style="fill:#263238"></polygon><polygon points="292.34 234.12 292.15 236.81 294.83 236.81 295.02 234.12 292.34 234.12" style="fill:#263238"></polygon><polygon points="295.02 234.12 294.83 236.81 297.52 236.81 297.71 234.12 295.02 234.12" style="fill:#263238"></polygon><polygon points="297.71 234.12 297.52 236.81 300.2 236.81 300.39 234.12 297.71 234.12" style="fill:#263238"></polygon><polygon points="300.39 234.12 300.2 236.81 302.89 236.81 303.08 234.12 300.39 234.12" style="fill:#263238"></polygon><polygon points="305.76 234.12 305.57 236.81 308.26 236.81 308.45 234.12 305.76 234.12" style="fill:#263238"></polygon><polygon points="308.45 234.12 308.26 236.81 310.94 236.81 311.13 234.12 308.45 234.12" style="fill:#263238"></polygon><polygon points="311.13 234.12 310.94 236.81 313.63 236.81 313.82 234.12 311.13 234.12" style="fill:#263238"></polygon><polygon points="313.82 234.12 313.63 236.81 316.31 236.81 316.5 234.12 313.82 234.12" style="fill:#263238"></polygon><polygon points="316.5 234.12 316.31 236.81 319 236.81 319.19 234.12 316.5 234.12" style="fill:#263238"></polygon><polygon points="319.19 234.12 319 236.81 321.69 236.81 321.87 234.12 319.19 234.12" style="fill:#263238"></polygon><polygon points="324.56 234.12 324.37 236.81 327.06 236.81 327.24 234.12 324.56 234.12" style="fill:#263238"></polygon><polygon points="262.61 236.81 262.42 239.49 265.11 239.49 265.3 236.81 262.61 236.81" style="fill:#263238"></polygon><polygon points="267.98 236.81 267.79 239.49 270.48 239.49 270.67 236.81 267.98 236.81" style="fill:#263238"></polygon><polygon points="270.67 236.81 270.48 239.49 273.16 239.49 273.35 236.81 270.67 236.81" style="fill:#263238"></polygon><polygon points="273.35 236.81 273.16 239.49 275.85 239.49 276.04 236.81 273.35 236.81" style="fill:#263238"></polygon><polygon points="278.72 236.81 278.53 239.49 281.22 239.49 281.41 236.81 278.72 236.81" style="fill:#263238"></polygon><polygon points="286.78 236.81 286.59 239.49 289.27 239.49 289.46 236.81 286.78 236.81" style="fill:#263238"></polygon><polygon points="289.46 236.81 289.27 239.49 291.96 239.49 292.15 236.81 289.46 236.81" style="fill:#263238"></polygon><polygon points="294.83 236.81 294.64 239.49 297.33 239.49 297.52 236.81 294.83 236.81" style="fill:#263238"></polygon><polygon points="302.89 236.81 302.7 239.49 305.39 239.49 305.57 236.81 302.89 236.81" style="fill:#263238"></polygon><polygon points="305.57 236.81 305.39 239.49 308.07 239.49 308.26 236.81 305.57 236.81" style="fill:#263238"></polygon><polygon points="313.63 236.81 313.44 239.49 316.13 239.49 316.31 236.81 313.63 236.81" style="fill:#263238"></polygon><polygon points="316.31 236.81 316.13 239.49 318.81 239.49 319 236.81 316.31 236.81" style="fill:#263238"></polygon><polygon points="319 236.81 318.81 239.49 321.5 239.49 321.69 236.81 319 236.81" style="fill:#263238"></polygon><polygon points="321.69 236.81 321.5 239.49 324.18 239.49 324.37 236.81 321.69 236.81" style="fill:#263238"></polygon><polygon points="262.42 239.49 262.23 242.18 264.92 242.18 265.11 239.49 262.42 239.49" style="fill:#263238"></polygon><polygon points="267.79 239.49 267.61 242.18 270.29 242.18 270.48 239.49 267.79 239.49" style="fill:#263238"></polygon><polygon points="270.48 239.49 270.29 242.18 272.98 242.18 273.16 239.49 270.48 239.49" style="fill:#263238"></polygon><polygon points="273.16 239.49 272.98 242.18 275.66 242.18 275.85 239.49 273.16 239.49" style="fill:#263238"></polygon><polygon points="278.53 239.49 278.35 242.18 281.03 242.18 281.22 239.49 278.53 239.49" style="fill:#263238"></polygon><polygon points="283.9 239.49 283.72 242.18 286.4 242.18 286.59 239.49 283.9 239.49" style="fill:#263238"></polygon><polygon points="297.33 239.49 297.14 242.18 299.83 242.18 300.02 239.49 297.33 239.49" style="fill:#263238"></polygon><polygon points="302.7 239.49 302.51 242.18 305.2 242.18 305.39 239.49 302.7 239.49" style="fill:#263238"></polygon><polygon points="316.13 239.49 315.94 242.18 318.63 242.18 318.81 239.49 316.13 239.49" style="fill:#263238"></polygon><polygon points="326.87 239.49 326.68 242.18 329.37 242.18 329.55 239.49 326.87 239.49" style="fill:#263238"></polygon><polygon points="262.23 242.18 262.05 244.86 264.73 244.86 264.92 242.18 262.23 242.18" style="fill:#263238"></polygon><polygon points="278.35 242.18 278.16 244.86 280.84 244.86 281.03 242.18 278.35 242.18" style="fill:#263238"></polygon><polygon points="283.72 242.18 283.53 244.86 286.21 244.86 286.4 242.18 283.72 242.18" style="fill:#263238"></polygon><polygon points="286.4 242.18 286.21 244.86 288.9 244.86 289.09 242.18 286.4 242.18" style="fill:#263238"></polygon><polygon points="291.77 242.18 291.58 244.86 294.27 244.86 294.46 242.18 291.77 242.18" style="fill:#263238"></polygon><polygon points="297.14 242.18 296.95 244.86 299.64 244.86 299.83 242.18 297.14 242.18" style="fill:#263238"></polygon><polygon points="299.83 242.18 299.64 244.86 302.33 244.86 302.51 242.18 299.83 242.18" style="fill:#263238"></polygon><polygon points="302.51 242.18 302.33 244.86 305.01 244.86 305.2 242.18 302.51 242.18" style="fill:#263238"></polygon><polygon points="305.2 242.18 305.01 244.86 307.7 244.86 307.88 242.18 305.2 242.18" style="fill:#263238"></polygon><polygon points="310.57 242.18 310.38 244.86 313.07 244.86 313.25 242.18 310.57 242.18" style="fill:#263238"></polygon><polygon points="315.94 242.18 315.75 244.86 318.44 244.86 318.63 242.18 315.94 242.18" style="fill:#263238"></polygon><polygon points="318.63 242.18 318.44 244.86 321.12 244.86 321.31 242.18 318.63 242.18" style="fill:#263238"></polygon><polygon points="324 242.18 323.81 244.86 326.49 244.86 326.68 242.18 324 242.18" style="fill:#263238"></polygon><polygon points="262.05 244.86 261.86 247.55 264.54 247.55 264.73 244.86 262.05 244.86" style="fill:#263238"></polygon><polygon points="264.73 244.86 264.54 247.55 267.23 247.55 267.42 244.86 264.73 244.86" style="fill:#263238"></polygon><polygon points="267.42 244.86 267.23 247.55 269.92 247.55 270.1 244.86 267.42 244.86" style="fill:#263238"></polygon><polygon points="270.1 244.86 269.92 247.55 272.6 247.55 272.79 244.86 270.1 244.86" style="fill:#263238"></polygon><polygon points="272.79 244.86 272.6 247.55 275.29 247.55 275.47 244.86 272.79 244.86" style="fill:#263238"></polygon><polygon points="275.47 244.86 275.29 247.55 277.97 247.55 278.16 244.86 275.47 244.86" style="fill:#263238"></polygon><polygon points="278.16 244.86 277.97 247.55 280.66 247.55 280.84 244.86 278.16 244.86" style="fill:#263238"></polygon><polygon points="283.53 244.86 283.34 247.55 286.03 247.55 286.21 244.86 283.53 244.86" style="fill:#263238"></polygon><polygon points="286.21 244.86 286.03 247.55 288.71 247.55 288.9 244.86 286.21 244.86" style="fill:#263238"></polygon><polygon points="288.9 244.86 288.71 247.55 291.4 247.55 291.58 244.86 288.9 244.86" style="fill:#263238"></polygon><polygon points="291.58 244.86 291.4 247.55 294.08 247.55 294.27 244.86 291.58 244.86" style="fill:#263238"></polygon><polygon points="294.27 244.86 294.08 247.55 296.77 247.55 296.95 244.86 294.27 244.86" style="fill:#263238"></polygon><polygon points="296.95 244.86 296.77 247.55 299.45 247.55 299.64 244.86 296.95 244.86" style="fill:#263238"></polygon><polygon points="305.01 244.86 304.82 247.55 307.51 247.55 307.7 244.86 305.01 244.86" style="fill:#263238"></polygon><polygon points="307.7 244.86 307.51 247.55 310.19 247.55 310.38 244.86 307.7 244.86" style="fill:#263238"></polygon><polygon points="313.07 244.86 312.88 247.55 315.56 247.55 315.75 244.86 313.07 244.86" style="fill:#263238"></polygon><polygon points="323.81 244.86 323.62 247.55 326.31 247.55 326.49 244.86 323.81 244.86" style="fill:#263238"></polygon><polygon points="326.49 244.86 326.31 247.55 328.99 247.55 329.18 244.86 326.49 244.86" style="fill:#263238"></polygon></g></svg>